<svg width="26" height="25" xmlns="http://www.w3.org/2000/svg">
    <g transform="translate(.5)" fill="none" fill-rule="evenodd">
        <circle fill="#FFF" cx="12.5" cy="12.5" r="12.5"/>
        <path d="M7.758 17.1v-1.625H5.886V8H3.689L1.947 9.196v1.859l1.742-1.183h.325v5.603H1.96V17.1h5.798zm7.8 0v-1.625H11.71v-.338l1.91-1.482c1.127-.875 1.69-1.846 1.69-2.912 0-.919-.292-1.636-.877-2.152-.585-.515-1.345-.773-2.281-.773-.988 0-1.777.251-2.366.754-.59.503-.91 1.226-.962 2.171h1.872c.086-.84.554-1.261 1.404-1.261.407 0 .73.11.968.332.239.22.358.543.358.968 0 .39-.132.748-.397 1.072-.264.326-.622.648-1.072.969l-3.12 2.327v1.95h6.72zm5.655-.416V14.11H23.8v-1.547h-2.587v-2.561h-1.534v2.561h-2.574v1.547h2.574v2.574h1.534z" fill="#202023" fill-rule="nonzero"/>
    </g>
</svg>
