<svg width="101" height="100" viewBox="0 0 101 100" fill="none" xmlns="http://www.w3.org/2000/svg">
<path d="M93.128 50.1565L99.9441 43.3948C100.495 42.8491 100.803 42.1075 100.802 41.3356C100.801 40.5629 100.49 39.8228 99.9373 39.2787L70.4458 10.2196C69.8965 9.67846 69.1549 9.375 68.3813 9.375C67.2132 9.375 35.1072 9.375 33.2257 9.375C32.4521 9.375 31.7098 9.67846 31.1605 10.2196L1.66901 39.2787C0.519256 40.4116 0.516205 42.2581 1.66214 43.3948L8.33253 50.0112L3.37876 54.9257C-0.0483714 58.3243 -0.0483714 63.8555 3.37876 67.2549C4.96796 68.8313 7.01951 69.6751 9.10462 69.7886C9.22135 71.9371 10.1193 73.941 11.6651 75.4734C13.255 77.0513 15.3081 77.8959 17.3955 78.0086C17.5092 80.0784 18.3606 82.1156 19.9513 83.6927C22.804 86.5223 27.1558 87.0051 30.5249 85.0973C30.9598 86.0939 31.5831 87.0111 32.3804 87.8027C35.8068 91.2014 41.3831 91.2021 44.8102 87.8027L48.953 83.6927C49.4977 83.1524 49.9608 82.553 50.3393 81.9098L56.8189 88.0971C60.2483 91.4753 65.8079 91.467 69.2266 88.0759C70.0346 87.2737 70.6518 86.3543 71.079 85.3712C74.4345 87.2722 78.7947 86.8038 81.6557 83.9659C83.2006 82.4334 84.1001 80.4303 84.2169 78.2826C86.302 78.1683 88.3528 77.323 89.942 75.7466C91.5327 74.1688 92.3834 72.1323 92.4971 70.0625C94.5845 69.9498 96.6376 69.1052 98.2283 67.5274C101.654 64.1295 101.674 58.6164 98.2245 55.1958L93.128 50.1565ZM57.5452 15.187H67.1736L93.7231 41.347L88.9776 46.0533L73.3114 30.5638C67.5962 24.8691 58.3067 24.8517 52.5716 30.5403L42.3086 40.7204C40.019 42.9914 36.3126 42.9914 34.0223 40.7204C32.1065 38.8194 31.7983 35.9202 33.0961 33.6975L35.5481 36.1298C36.6926 37.265 38.5473 37.265 39.6917 36.1298C40.8353 34.9954 40.8353 33.1557 39.6917 32.0205L37.0992 29.449L47.1876 19.4423C49.9547 16.6982 53.6329 15.187 57.5452 15.187ZM7.52152 63.1449C6.3794 62.012 6.3794 60.1686 7.52152 59.0357L15.8078 50.8164C16.9507 49.6835 18.8085 49.6835 19.9513 50.8164C21.0965 51.9523 21.0965 53.7897 19.9513 54.9257L11.6651 63.1449C10.5222 64.2778 8.66365 64.2778 7.52152 63.1449ZM15.8078 67.2549L24.0941 59.0357C25.2362 57.902 27.0955 57.902 28.2376 59.0357C29.3798 60.1686 29.3798 62.012 28.2376 63.1449L19.9513 71.3642C18.8085 72.4978 16.9507 72.4971 15.8078 71.3642C14.6626 70.2283 14.6626 68.3901 15.8078 67.2549ZM24.0941 79.5835C22.9512 78.4506 22.9512 76.6071 24.0941 75.4742L32.3804 67.2549C33.5233 66.1213 35.3818 66.1221 36.5232 67.2549C37.6661 68.3878 37.6661 70.2313 36.5232 71.3642C28.8213 79.0045 28.8549 78.9712 28.2369 79.5835C27.0948 80.7171 25.2362 80.7163 24.0941 79.5835ZM44.8095 79.5835L40.6667 83.6927C39.5238 84.8263 37.6661 84.8263 36.5232 83.6927C35.378 82.5568 35.378 80.7194 36.5232 79.5835L40.6667 75.4742C41.8088 74.3413 43.6674 74.3406 44.8095 75.4742C45.9516 76.6071 45.9516 78.4506 44.8095 79.5835ZM94.0847 63.4181C92.9426 64.551 91.0849 64.551 89.942 63.4181L76.9193 50.5008C75.7749 49.3657 73.9202 49.3657 72.7758 50.5008C71.6322 51.6352 71.6322 53.4749 72.7758 54.6101L85.7534 67.482C85.7626 67.4918 85.7702 67.5016 85.7794 67.5107L85.8023 67.5334C85.8061 67.5372 85.8099 67.5402 85.8137 67.544C86.9398 68.6784 86.9352 70.509 85.7985 71.6366C84.6563 72.7703 82.7978 72.7703 81.6557 71.6366L68.6323 58.7186C67.4879 57.5849 65.6332 57.5849 64.4895 58.7193C63.3459 59.8545 63.3459 61.6942 64.4888 62.8286L77.5122 75.7466C78.6573 76.8825 78.6573 78.72 77.5122 79.8559C76.37 80.9895 74.5115 80.9895 73.3694 79.8559C71.961 78.4589 62.4464 69.0212 60.3468 66.9386C59.2023 65.8035 57.3476 65.8035 56.2032 66.9386C55.0596 68.073 55.0588 69.9135 56.2032 71.0479L65.0938 79.8665C66.2267 81.0024 66.2252 82.8323 65.0823 83.9651C63.9402 85.098 62.0824 85.0988 60.9396 83.9651C60.9266 83.9523 50.9557 74.4314 50.9557 74.4314C50.5208 73.2939 49.8456 72.2496 48.9522 71.3634C47.4073 69.8302 45.387 68.9395 43.221 68.8237C43.1066 66.7555 42.2551 64.7205 40.6659 63.1442C39.076 61.5663 37.0221 60.7225 34.9355 60.6097C34.8218 58.54 33.9704 56.5028 32.3796 54.9249C30.7904 53.3486 28.7389 52.5048 26.6538 52.3905C26.5371 50.242 25.6391 48.2389 24.0934 46.7056C20.9416 43.5794 15.9734 43.3312 12.5302 45.9557L7.88392 41.347L34.4335 15.187H43.1951C43.1455 15.2354 29.8795 28.3918 29.8795 28.3918C25.3102 32.9234 25.3102 40.2981 29.8795 44.8304C34.448 49.3619 41.8821 49.3627 46.4521 44.8304L56.7152 34.6503C60.1324 31.26 65.7026 31.2206 69.1671 34.6723L94.0847 59.3089C95.2299 60.444 95.2299 62.2822 94.0847 63.4181Z" fill="#3384F7"/>
</svg>
