<svg width="24" height="24" viewBox="0 0 24 24" fill="none" xmlns="http://www.w3.org/2000/svg">
<g clip-path="url(#clip0_36_2575)">
<path d="M23.9795 20.3559C23.8985 13.6842 18.1473 8.2508 10.9911 8.00813V4.49995C10.9911 3.67284 10.3188 3 9.49228 3C9.12052 3 8.76145 3.14259 8.48334 3.40134C8.48334 3.40134 2.16328 9.2527 0.345422 11.0774C0.122953 11.302 0 11.6291 0 11.9997C0 12.3703 0.122953 12.6975 0.345422 12.9225C2.16328 14.7467 8.48334 20.5981 8.48334 20.5981C8.76145 20.8569 9.12052 20.9994 9.49228 20.9994C10.3187 20.9994 10.9911 20.3266 10.9911 19.4995V16.003C18.1854 16.1041 22.9813 18.375 22.9813 20.4995C22.9813 20.7758 23.2048 20.9994 23.4809 20.9994C23.4887 21.0004 23.4965 20.9999 23.5004 20.9994C23.7765 20.9994 24 20.7758 24 20.4995C24 20.4496 23.9932 20.4013 23.9795 20.3559Z" fill="#202023"/>
</g>
<defs>
<clipPath id="clip0_36_2575">
<rect width="24" height="24" fill="white"/>
</clipPath>
</defs>
</svg>
