<svg width="32" height="32" viewBox="0 0 32 32" fill="none" xmlns="http://www.w3.org/2000/svg">
<path d="M10.6645 18.4991H13.6405C13.9036 18.4991 14.1559 18.3938 14.3419 18.2062C14.528 18.0187 14.6325 17.7644 14.6325 17.4992C14.6325 17.2339 14.528 16.9796 14.3419 16.7921C14.1559 16.6045 13.9036 16.4992 13.6405 16.4992H12.1525V15.9992C12.1525 15.734 12.048 15.4797 11.8619 15.2921C11.6759 15.1046 11.4236 14.9993 11.1605 14.9993C10.8974 14.9993 10.6451 15.1046 10.459 15.2921C10.273 15.4797 10.1685 15.734 10.1685 15.9992V16.5444C9.43281 16.6693 8.7706 17.0684 8.31317 17.6625C7.85574 18.2566 7.6365 19.0023 7.69892 19.7517C7.76134 20.501 8.10087 21.1994 8.65017 21.7083C9.19948 22.2171 9.91843 22.4994 10.6645 22.4989H11.6565C11.9196 22.4989 12.1719 22.6043 12.3579 22.7918C12.544 22.9793 12.6485 23.2337 12.6485 23.4989C12.6485 23.7641 12.544 24.0184 12.3579 24.2059C12.1719 24.3935 11.9196 24.4988 11.6565 24.4988H8.68048C8.41738 24.4988 8.16506 24.6042 7.97903 24.7917C7.79299 24.9792 7.68848 25.2336 7.68848 25.4988C7.68848 25.764 7.79299 26.0183 7.97903 26.2059C8.16506 26.3934 8.41738 26.4987 8.68048 26.4987H10.1685V26.9987C10.1685 27.2639 10.273 27.5183 10.459 27.7058C10.6451 27.8933 10.8974 27.9987 11.1605 27.9987C11.4236 27.9987 11.6759 27.8933 11.8619 27.7058C12.048 27.5183 12.1525 27.2639 12.1525 26.9987V26.4536C12.8881 26.3286 13.5504 25.9295 14.0078 25.3354C14.4652 24.7413 14.6845 23.9957 14.622 23.2463C14.5596 22.4969 14.2201 21.7985 13.6708 21.2897C13.1215 20.7808 12.4025 20.4986 11.6565 20.499H10.6645C10.4014 20.499 10.1491 20.3937 9.96303 20.2061C9.77699 20.0186 9.67248 19.7643 9.67248 19.4991C9.67248 19.2339 9.77699 18.9795 9.96303 18.792C10.1491 18.6045 10.4014 18.4991 10.6645 18.4991Z" fill="#202023"/>
<path d="M30.2359 22.9989C30.6208 22.5685 30.8735 22.0347 30.9634 21.4623C31.0534 20.8899 30.9766 20.3035 30.7424 19.7742C30.5083 19.2449 30.1268 18.7955 29.6443 18.4804C29.1617 18.1654 28.5989 17.9982 28.024 17.9992H21.3291C20.3258 15.2579 18.5346 12.8804 16.1844 11.1703C16.564 10.8078 16.842 10.3507 16.9902 9.84518C17.1384 9.33965 17.1516 8.80365 17.0284 8.29136C16.9051 7.77907 16.6499 7.30867 16.2885 6.92771C15.927 6.54675 15.4722 6.26875 14.97 6.12182C15.3805 5.30838 15.604 4.41223 15.624 3.49984C15.624 2.19277 15.0442 0 11.16 0C7.2758 0 6.696 2.19277 6.696 3.49984C6.71601 4.41223 6.93953 5.30838 7.34999 6.12182C6.84681 6.269 6.39121 6.54776 6.02945 6.92981C5.66769 7.31186 5.41264 7.78359 5.29021 8.29711C5.16777 8.81063 5.18231 9.34767 5.33233 9.8537C5.48236 10.3597 5.76253 10.8167 6.14442 11.1783C4.29275 12.5517 2.77667 14.3332 1.71183 16.387C0.646982 18.4407 0.0614877 20.7125 0 23.029C0 28.6454 4.17192 31.9985 11.16 31.9985C12.8598 32.0214 14.553 31.7801 16.1798 31.2831C16.7162 31.745 17.3986 31.9987 18.104 31.9985H28.024C28.5989 31.9995 29.1617 31.8323 29.6443 31.5172C30.1268 31.2022 30.5083 30.7527 30.7424 30.2235C30.9766 29.6942 31.0534 29.1078 30.9634 28.5354C30.8735 27.963 30.6208 27.4292 30.2359 26.9987C30.7277 26.4506 31 25.7379 31 24.9988C31 24.2598 30.7277 23.5471 30.2359 22.9989ZM11.16 1.99991C13.64 1.99991 13.64 2.97569 13.64 3.49984C13.5982 4.40792 13.2796 5.28089 12.7275 5.99972H9.5925C9.04045 5.28089 8.72179 4.40792 8.68 3.49984C8.68 2.97569 8.68 1.99991 11.16 1.99991ZM8.184 7.99963H14.136C14.3991 7.99963 14.6514 8.10498 14.8374 8.29251C15.0235 8.48004 15.128 8.73438 15.128 8.99958C15.128 9.26479 15.0235 9.51913 14.8374 9.70666C14.6514 9.89418 14.3991 9.99953 14.136 9.99953H8.184C7.9209 9.99953 7.66859 9.89418 7.48255 9.70666C7.29651 9.51913 7.192 9.26479 7.192 8.99958C7.192 8.73438 7.29651 8.48004 7.48255 8.29251C7.66859 8.10498 7.9209 7.99963 8.184 7.99963ZM15.128 20.999C15.1282 21.738 15.4005 22.4507 15.8921 22.9989C15.4003 23.5471 15.128 24.2598 15.128 24.9988C15.128 25.7379 15.4003 26.4506 15.8921 26.9987C15.5908 27.3312 15.3692 27.7288 15.2444 28.1611C15.1195 28.5934 15.0947 29.0488 15.1718 29.4923C13.8634 29.8428 12.5138 30.0131 11.16 29.9986C7.73305 29.9986 1.984 29.0931 1.984 23.029C1.984 18.5226 5.06995 13.5222 8.75435 11.9994H13.5763C15.8353 12.9394 17.931 15.2055 19.1799 17.9992H18.104C17.315 18 16.5585 18.3164 16.0006 18.8788C15.4427 19.4412 15.1289 20.2037 15.128 20.999ZM28.024 29.9986H18.104C17.9417 29.9985 17.7818 29.9583 17.6385 29.8815C17.4952 29.8046 17.3727 29.6934 17.282 29.5578L17.2817 29.5573C17.181 29.407 17.1228 29.2318 17.1134 29.0506C17.1039 28.8694 17.1436 28.6891 17.2281 28.5289C17.3126 28.3687 17.4388 28.2347 17.5931 28.1413C17.7474 28.0479 17.924 27.9986 18.104 27.9987H28.024C28.2871 27.9987 28.5394 28.104 28.7254 28.2916C28.9115 28.4791 29.016 28.7334 29.016 28.9987C29.016 29.2639 28.9115 29.5182 28.7254 29.7057C28.5394 29.8933 28.2871 29.9986 28.024 29.9986ZM28.024 25.9988H18.104C17.8409 25.9988 17.5886 25.8934 17.4025 25.7059C17.2165 25.5184 17.112 25.264 17.112 24.9988C17.112 24.7336 17.2165 24.4793 17.4025 24.2918C17.5886 24.1042 17.8409 23.9989 18.104 23.9989H28.024C28.2871 23.9989 28.5394 24.1042 28.7254 24.2918C28.9115 24.4793 29.016 24.7336 29.016 24.9988C29.016 25.264 28.9115 25.5184 28.7254 25.7059C28.5394 25.8934 28.2871 25.9988 28.024 25.9988ZM28.024 21.999H18.104C17.8409 21.999 17.5886 21.8936 17.4025 21.7061C17.2165 21.5186 17.112 21.2642 17.112 20.999C17.112 20.7338 17.2165 20.4795 17.4025 20.2919C17.5886 20.1044 17.8409 19.9991 18.104 19.9991H28.024C28.2871 19.9991 28.5394 20.1044 28.7254 20.2919C28.9115 20.4795 29.016 20.7338 29.016 20.999C29.016 21.2642 28.9115 21.5186 28.7254 21.7061C28.5394 21.8936 28.2871 21.999 28.024 21.999Z" fill="#202023"/>
<path d="M24.4285 15.9992C24.9764 15.9992 25.4205 15.5515 25.4205 14.9993C25.4205 14.447 24.9764 13.9993 24.4285 13.9993C23.8807 13.9993 23.4365 14.447 23.4365 14.9993C23.4365 15.5515 23.8807 15.9992 24.4285 15.9992Z" fill="#202023"/>
</svg>
