<svg width="100" height="100" viewBox="0 0 100 100" fill="none" xmlns="http://www.w3.org/2000/svg">
<path d="M84.5821 27.7494C85.1333 28.3685 85.416 29.1812 85.3681 30.0087C85.3201 30.8363 84.9453 31.6108 84.3263 32.1621C83.7072 32.7133 82.8944 32.9961 82.0669 32.9481C81.2393 32.9001 80.4647 32.5254 79.9135 31.9063L74.2251 25.5189C73.7154 24.9464 73.4339 24.2065 73.4342 23.44V10.764C73.4342 9.93514 73.7635 9.1402 74.3496 8.55408C74.9357 7.96797 75.7307 7.6387 76.5596 7.6387C77.3885 7.6387 78.1834 7.96797 78.7695 8.55408C79.3557 9.1402 79.685 9.93514 79.685 10.764V22.2496L84.5821 27.7494ZM100 23.44C100 28.076 98.6252 32.6078 96.0496 36.4625C93.4739 40.3172 89.813 43.3216 85.5298 45.0957C81.2466 46.8698 76.5336 47.334 71.9866 46.4296C67.4396 45.5251 63.2629 43.2927 59.9847 40.0145C56.7065 36.7364 54.474 32.5598 53.5695 28.0129C52.6651 23.466 53.1293 18.753 54.9034 14.4699C56.6776 10.1868 59.682 6.52596 63.5368 3.95035C67.3915 1.37473 71.9235 0 76.5596 0C82.7742 0.00703116 88.7323 2.47885 93.1267 6.87317C97.5211 11.2675 99.993 17.2255 100 23.44ZM93.7492 23.44C93.7492 20.0402 92.7411 16.7169 90.8522 13.8901C88.9634 11.0633 86.2788 8.86014 83.1378 7.55912C79.9968 6.2581 76.5405 5.91769 73.206 6.58095C69.8716 7.2442 66.8087 8.88132 64.4046 11.2853C62.0006 13.6893 60.3635 16.7521 59.7002 20.0865C59.0369 23.4209 59.3773 26.8771 60.6784 30.018C61.9794 33.159 64.1827 35.8436 67.0095 37.7324C69.8363 39.6211 73.1598 40.6293 76.5596 40.6293C81.117 40.6241 85.4862 38.8114 88.7088 35.5889C91.9313 32.3664 93.744 27.9973 93.7492 23.44ZM1.56227 12.9482C3.99773 5.9854 9.15951 1.84238 16.0971 1.28275C17.2863 1.18678 18.4057 1.09562 19.4553 1.00929C28.4361 0.271122 32.5349 -0.0650459 35.3257 0.859466C39.3846 2.20551 39.8294 5.76623 40.3001 9.53577C40.7793 13.3727 41.5034 19.1708 45.2945 28.0364C45.8381 29.2923 46.0145 30.6766 45.8035 32.0288C45.5924 33.381 45.0025 34.6456 44.102 35.6762L38.2784 42.4002C38.1442 42.5385 38.0552 42.7142 38.0229 42.9042C37.9907 43.0942 38.0167 43.2895 38.0977 43.4643C39.7806 47.6974 42.3101 51.5423 45.5313 54.7634C48.7524 57.9845 52.5974 60.514 56.8305 62.1968C57.0053 62.2779 57.2005 62.304 57.3904 62.2717C57.5804 62.2394 57.756 62.1502 57.8941 62.0159L64.6182 56.1926C65.6488 55.2923 66.9135 54.7024 68.2656 54.4913C69.6178 54.2802 71.0021 54.4567 72.258 55.0001C81.1242 58.7914 86.9224 59.5157 90.7592 59.9946C94.5292 60.4654 98.0898 60.9099 99.4357 64.969C100.361 67.7597 100.024 71.8582 99.286 80.8388C99.1993 81.8901 99.1078 83.0095 99.0116 84.197C98.4629 91.0002 94.3985 96.0629 87.5674 98.4522C84.6051 99.4874 81.1553 100 77.3782 100C71.3247 100 64.4309 98.6854 57.3562 96.1072C45.3056 91.7151 33.7745 84.0895 24.8777 74.6288C15.5058 65.8161 7.99862 54.4665 3.73227 42.6586C-0.325075 31.4318 -1.11521 20.603 1.56227 12.9482ZM9.61113 40.5347C13.5599 51.4638 20.5264 61.9772 29.2271 70.1381C29.2758 70.1838 29.3228 70.2309 29.3683 70.2795C37.6172 79.0734 48.316 86.1601 59.4961 90.2335C65.9227 92.5752 72.0781 93.7732 77.346 93.7736C80.4052 93.7736 83.1637 93.3698 85.5042 92.5514C89.9855 90.9838 92.4342 88.0036 92.7817 83.6938C92.8778 82.5011 92.9695 81.3784 93.0567 80.3259C93.4392 75.6742 93.7154 72.3135 93.7463 69.9822C93.7764 67.7036 93.5509 67.008 93.464 66.8276C93.0054 66.5736 91.3349 66.365 89.9851 66.1964C86.0547 65.7056 79.4759 64.884 69.8011 60.7466C69.6238 60.6597 69.4241 60.6294 69.229 60.6598C69.034 60.6903 68.853 60.7801 68.7107 60.917L61.9874 66.7402C60.986 67.6249 59.7574 68.2124 58.44 68.4364C57.1227 68.6604 55.769 68.5121 54.5314 68.0081C49.5044 66.0098 44.9383 63.0061 41.1131 59.181C37.2878 55.356 34.2839 50.7901 32.2855 45.7632C31.7817 44.5256 31.6335 43.1718 31.8575 41.8545C32.0816 40.5371 32.669 39.3085 33.5536 38.307L39.3768 31.5832C39.5137 31.441 39.6035 31.2601 39.634 31.065C39.6645 30.87 39.6342 30.6703 39.5471 30.4931C35.4099 20.818 34.5883 14.24 34.0972 10.3097C33.9286 8.95934 33.72 7.28944 33.4661 6.83099C33.2965 6.75032 32.6734 6.546 30.7155 6.546C30.5864 6.546 30.4522 6.54698 30.3114 6.54874C27.98 6.5796 24.6191 6.856 19.9673 7.23826C18.9125 7.32499 17.7898 7.41667 16.5993 7.51329C12.1515 7.87192 9.07747 10.395 7.46262 15.0121C5.25141 21.3335 6.03451 30.636 9.61113 40.5347Z" fill="#3384F7"/>
</svg>
