<svg width="12" height="18" xmlns="http://www.w3.org/2000/svg">
    <g fill="#202023" fill-rule="evenodd">
        <path d="M1.204 17.659c.17.086.373.069.526-.043L6 14.482l4.27 3.133a.504.504 0 0 0 .802-.406V.79a.504.504 0 0 0-.504-.504H1.432A.504.504 0 0 0 .928.79v16.418c0 .19.107.364.276.45zm5.094-4.208a.504.504 0 0 0-.596 0l-3.766 2.763V5.015h8.128v11.199L6.298 13.45zm3.766-12.156v2.712H1.936V1.295h8.128z" stroke="#202023" stroke-width=".5" fill-rule="nonzero"/>
        <path d="M1.928.287h8v4h-8z"/>
    </g>
</svg>
