<svg width="33" height="33" viewBox="0 0 33 33" fill="none" xmlns="http://www.w3.org/2000/svg">
<path fill-rule="evenodd" clip-rule="evenodd" d="M8.66078 6.59981C6.75582 8.5412 5.70046 11.16 5.72705 13.8798C5.75364 16.5996 6.86 19.1973 8.80255 21.1011C8.91888 21.215 9.08716 21.2583 9.244 21.2145C9.40084 21.1707 9.52241 21.0466 9.56292 20.8889C9.60344 20.7312 9.55673 20.5638 9.44041 20.4499C7.67067 18.7154 6.66278 16.3487 6.63861 13.8708C6.61444 11.3929 7.57598 9.00702 9.31154 7.23833C9.48726 7.05852 9.48423 6.77041 9.30478 6.59434C9.12533 6.41826 8.83721 6.42071 8.66078 6.59981ZM25.3034 6.59981C27.2083 8.5412 28.2637 11.16 28.2371 13.8798C28.2105 16.5996 27.1042 19.1973 25.1616 21.1011C25.0453 21.215 24.877 21.2583 24.7202 21.2145C24.5633 21.1707 24.4418 21.0466 24.4012 20.8889C24.3607 20.7312 24.4074 20.5638 24.5238 20.4499C26.2935 18.7154 27.3014 16.3487 27.3256 13.8708C27.3497 11.3929 26.3882 9.00702 24.6526 7.23833C24.4769 7.05852 24.4799 6.77041 24.6594 6.59434C24.8388 6.41826 25.127 6.42071 25.3034 6.59981ZM8.52105 13.8819C8.49394 11.9034 9.25615 9.99561 10.6391 8.58047V8.58047C10.7525 8.46254 10.9203 8.41439 11.0789 8.45429C11.2376 8.49419 11.3626 8.61604 11.4067 8.77356C11.4507 8.93109 11.407 9.10014 11.2921 9.21654C10.0781 10.4582 9.40887 12.1325 9.43256 13.8689C9.45624 15.6053 10.1709 17.2607 11.4183 18.4688C11.599 18.644 11.6035 18.9327 11.4282 19.1134C11.2529 19.2942 10.9643 19.2986 10.7835 19.1233C9.36234 17.7466 8.54815 15.8604 8.52105 13.8819ZM23.3251 8.58047C23.2117 8.46254 23.0439 8.41438 22.8852 8.45429C22.7266 8.49419 22.6015 8.61603 22.5575 8.77356C22.5134 8.93109 22.5572 9.10014 22.6721 9.21654C23.8861 10.4582 24.5553 12.1325 24.5316 13.8689C24.5079 15.6053 23.7933 17.2607 22.5459 18.4688C22.429 18.5821 22.3814 18.7493 22.4211 18.9073C22.4609 19.0652 22.5819 19.19 22.7385 19.2345C22.8952 19.2791 23.0637 19.2367 23.1806 19.1233C24.6018 17.7466 25.416 15.8604 25.4431 13.8819C25.4702 11.9034 24.708 9.99561 23.3251 8.58047ZM12.931 10.4173C13.0519 10.4149 13.1688 10.4606 13.256 10.5443C13.4375 10.7187 13.4432 11.0072 13.2689 11.1888C12.5792 11.9074 12.2042 12.8711 12.2267 13.8668C12.2492 14.8625 12.6673 15.8083 13.3886 16.4951C13.5696 16.6695 13.5753 16.9576 13.4013 17.139C13.2272 17.3204 12.9392 17.3267 12.7574 17.153C11.8616 16.2988 11.3427 15.123 11.3153 13.8855C11.2879 12.6479 11.7543 11.4504 12.6114 10.5574C12.6952 10.4701 12.8101 10.4197 12.931 10.4173ZM20.5622 17.1396C20.7365 17.3213 21.025 17.3272 21.2067 17.153C22.1026 16.2988 22.6215 15.123 22.6489 13.8855C22.6763 12.6479 22.2099 11.4504 21.3527 10.5574C21.2401 10.4392 21.0729 10.3903 20.9144 10.4292C20.7558 10.4681 20.6302 10.5887 20.585 10.7456C20.5397 10.9024 20.5818 11.0714 20.6953 11.1888C21.3849 11.9074 21.76 12.8711 21.7375 13.8668C21.715 14.8625 21.2969 15.8083 20.5756 16.4951C20.3939 16.6694 20.388 16.958 20.5622 17.1396ZM13.4575 28.25C13.4575 27.8008 13.8217 27.4367 14.2709 27.4367H16.1687V15.5298C15.2063 15.1405 14.6548 14.1239 14.8531 13.1049C15.0514 12.0858 15.9439 11.3502 16.9821 11.3502C18.0202 11.3502 18.9128 12.0858 19.1111 13.1049C19.3094 14.1239 18.7578 15.1405 17.7954 15.5298V27.4367H19.6933C20.1425 27.4367 20.5066 27.8008 20.5066 28.25C20.5066 28.6993 20.1425 29.0634 19.6933 29.0634H14.2709C13.8217 29.0634 13.4575 28.6993 13.4575 28.25Z" fill="#202023"/>
<circle cx="17.0278" cy="13.5549" r="2.25631" fill="#3384F7"/>
</svg>
