<svg width="24" height="22" viewBox="0 0 24 22" xmlns="http://www.w3.org/2000/svg">
    <path d="M20.444 10.898h-6.006c-.347-.728-1.25-1.191-2.337-1.191-1.087 0-1.991.463-2.34 1.19h-5.95c-1.13-.045-2.05-.96-2.05-2.042v-3.72a.5.5 0 0 1 .519-.516h19.688a.5.5 0 0 1 .518.516v3.72c0 1.107-.935 2.043-2.042 2.043zM12.1 13.342c1.086 0 1.99-.463 2.337-1.192h5.958c.753 0 1.467-.252 2.042-.717v8.196a.5.5 0 0 1-.517.517H2.28a.501.501 0 0 1-.518-.517v-8.197a3.229 3.229 0 0 0 2.042.718h5.958c.348.729 1.252 1.192 2.339 1.192zm-1.232-1.866c0-.225.49-.564 1.232-.564.74 0 1.231.34 1.231.564 0 .222-.529.567-1.231.567-.741 0-1.232-.341-1.232-.567zm-1.24-8.11h4.99V1.853H9.63v1.511zm12.292 0h-6.095v-2.14A.6.6 0 0 0 15.2.601H9.002a.599.599 0 0 0-.628.625v2.14H2.28c-.994 0-1.773.778-1.773 1.77v14.493c0 .993.78 1.77 1.773 1.77H21.92c.994 0 1.772-.777 1.772-1.77V5.135c0-.991-.778-1.77-1.772-1.77z" fill="#111010" fill-rule="evenodd"/>
</svg>
