<svg width="32" height="32" viewBox="0 0 32 32" fill="none" xmlns="http://www.w3.org/2000/svg">
<path d="M16 23.5149C16.6904 23.5149 17.25 22.9618 17.25 22.2796C17.25 21.5975 16.6904 21.0444 16 21.0444C15.3096 21.0444 14.75 21.5975 14.75 22.2796C14.75 22.9618 15.3096 23.5149 16 23.5149Z" fill="#202023"/>
<path d="M31.0625 7.91279H23.2401L19.1702 4.22004C18.3032 3.43327 17.1772 3 16 3C14.8228 3 13.6968 3.43327 12.8297 4.2201L8.75988 7.91285H0.9375C0.41975 7.91285 0 8.32761 0 8.8393C0 11.4436 0 29.1909 0 31.0736C0 31.5852 0.41975 32 0.9375 32H31.0625C31.5802 32 32 31.5852 32 31.0735C32 29.1899 32 11.4436 32 8.83924C32 8.32761 31.5802 7.91279 31.0625 7.91279ZM14.0977 5.58495C15.1823 4.60092 16.8177 4.60105 17.9022 5.58495L20.4678 7.91285H11.5321L14.0977 5.58495ZM30.125 30.1471H1.875V19.2815L4.39019 22.9671C4.48731 23.1093 4.62244 23.2222 4.78056 23.293C6.98706 24.2809 9.39131 24.9578 11.9375 25.3112V27.3678C11.9375 27.8795 12.3573 28.2943 12.875 28.2943H19.125C19.6427 28.2943 20.0625 27.8795 20.0625 27.3678V25.3112C22.6087 24.9578 25.0129 24.2809 27.2194 23.293C27.3776 23.2221 27.5127 23.1093 27.6098 22.9671L30.125 19.2815V30.1471ZM13.8125 26.4414V24.5036C13.8125 24.503 13.8125 24.5025 13.8125 24.502V22.1181H18.1875V24.502C18.1875 24.5025 18.1875 24.5031 18.1875 24.5036V26.4414H13.8125ZM30.125 15.9675L26.2054 21.7112C24.3036 22.5359 22.2423 23.1152 20.0625 23.4395V21.1917C20.0625 20.6801 19.6427 20.2652 19.125 20.2652H12.875C12.3573 20.2652 11.9375 20.68 11.9375 21.1917V23.4395C9.75769 23.1152 7.69644 22.5359 5.79462 21.7112L1.875 15.9675V9.7657H30.125V15.9675Z" fill="#202023"/>
</svg>
