<svg width="24" height="24" viewBox="0 0 24 24" fill="none" xmlns="http://www.w3.org/2000/svg">
<path fill-rule="evenodd" clip-rule="evenodd" d="M20.3433 2.47998H3.65892C2.31706 2.47998 1.22656 3.57066 1.22656 4.91233V15.1228L1.23174 15.2826C1.3142 16.5503 2.37062 17.5552 3.65892 17.5552L4.37818 17.5547L4.37888 21.5201L10.0756 17.5547L20.3433 17.5552C21.6848 17.5552 22.7751 16.4647 22.7751 15.1228V4.91233C22.7751 3.57078 21.6847 2.47998 20.3433 2.47998ZM3.65892 3.72417H20.3433C20.9975 3.72417 21.5309 4.25782 21.5309 4.91233V15.1228C21.5309 15.7776 20.9976 16.311 20.3433 16.311H9.68631L5.62237 19.1377L5.62306 16.311H3.65892C3.00409 16.311 2.47075 15.7777 2.47075 15.1228V4.91233C2.47075 4.25776 3.00425 3.72417 3.65892 3.72417ZM7.73316 11.2354C8.46503 11.2354 9.05833 10.6421 9.05833 9.91023C9.05833 9.17836 8.46503 8.58506 7.73316 8.58506C7.00129 8.58506 6.40799 9.17836 6.40799 9.91023C6.40799 10.6421 7.00129 11.2354 7.73316 11.2354ZM13.4309 9.95478C13.4309 10.6866 12.8376 11.2799 12.1058 11.2799C11.3739 11.2799 10.7806 10.6866 10.7806 9.95478C10.7806 9.22291 11.3739 8.62961 12.1058 8.62961C12.8376 8.62961 13.4309 9.22291 13.4309 9.95478ZM16.6088 11.2971C17.3406 11.2971 17.9339 10.7038 17.9339 9.97191C17.9339 9.24004 17.3406 8.64674 16.6088 8.64674C15.8769 8.64674 15.2836 9.24004 15.2836 9.97191C15.2836 10.7038 15.8769 11.2971 16.6088 11.2971Z" fill="#202023"/>
</svg>
