<svg width="24" height="24" viewBox="0 0 24 24" fill="none" xmlns="http://www.w3.org/2000/svg">
<path fill-rule="evenodd" clip-rule="evenodd" d="M20.3423 2.47998H3.65794C2.31609 2.47998 1.22559 3.57066 1.22559 4.91233V15.1228L1.23077 15.2826C1.31322 16.5503 2.36964 17.5552 3.65794 17.5552L4.37721 17.5547L4.3779 21.5201L10.0746 17.5547L20.3423 17.5552C21.6839 17.5552 22.7741 16.4647 22.7741 15.1228V4.91233C22.7741 3.57078 21.6837 2.47998 20.3423 2.47998ZM3.65794 3.72417H20.3423C20.9965 3.72417 21.5299 4.25782 21.5299 4.91233V15.1228C21.5299 15.7776 20.9967 16.311 20.3423 16.311H9.68533L5.62139 19.1377L5.62209 16.311H3.65794C3.00311 16.311 2.46977 15.7777 2.46977 15.1228V4.91233C2.46977 4.25776 3.00328 3.72417 3.65794 3.72417ZM7.73219 11.2354C8.46406 11.2354 9.05736 10.6421 9.05736 9.91023C9.05736 9.17836 8.46406 8.58506 7.73219 8.58506C7.00032 8.58506 6.40702 9.17836 6.40702 9.91023C6.40702 10.6421 7.00032 11.2354 7.73219 11.2354ZM13.43 9.95478C13.43 10.6866 12.8367 11.2799 12.1048 11.2799C11.3729 11.2799 10.7796 10.6866 10.7796 9.95478C10.7796 9.22291 11.3729 8.62961 12.1048 8.62961C12.8367 8.62961 13.43 9.22291 13.43 9.95478ZM16.6078 11.2971C17.3397 11.2971 17.933 10.7038 17.933 9.97191C17.933 9.24004 17.3397 8.64674 16.6078 8.64674C15.8759 8.64674 15.2826 9.24004 15.2826 9.97191C15.2826 10.7038 15.8759 11.2971 16.6078 11.2971Z" fill="#3384F7"/>
<path d="M1.22559 15.1228H0.925428L0.925743 15.1325L1.22559 15.1228ZM1.23077 15.2826L0.930765 15.2923L0.931399 15.3021L1.23077 15.2826ZM3.65794 17.5552V17.8552H3.65813L3.65794 17.5552ZM4.37721 17.5547L4.67721 17.5547L4.67715 17.2545L4.37702 17.2547L4.37721 17.5547ZM4.3779 21.5201L4.0779 21.5201L4.078 22.0943L4.54929 21.7663L4.3779 21.5201ZM10.0746 17.5547L10.0746 17.2547L9.9805 17.2547L9.90323 17.3085L10.0746 17.5547ZM20.3423 17.5552L20.3423 17.8552H20.3423V17.5552ZM9.68533 16.311V16.011H9.59126L9.51403 16.0647L9.68533 16.311ZM5.62139 19.1377L5.32139 19.1376L5.32125 19.7119L5.7927 19.384L5.62139 19.1377ZM5.62209 16.311L5.92209 16.3111L5.92216 16.011H5.62209V16.311ZM3.65794 2.77998H20.3423V2.17998H3.65794V2.77998ZM1.52559 4.91233C1.52559 3.73633 2.48179 2.77998 3.65794 2.77998V2.17998C2.15039 2.17998 0.925586 3.40499 0.925586 4.91233H1.52559ZM1.52559 15.1228V4.91233H0.925586V15.1228H1.52559ZM1.53061 15.2729L1.52543 15.1131L0.925743 15.1325L0.930924 15.2923L1.53061 15.2729ZM3.65794 17.2552C2.52886 17.2552 1.60239 16.3741 1.53013 15.2631L0.931399 15.3021C1.02404 16.7265 2.21042 17.8552 3.65794 17.8552V17.2552ZM4.37702 17.2547L3.65775 17.2552L3.65813 17.8552L4.37739 17.8547L4.37702 17.2547ZM4.6779 21.52L4.67721 17.5547L4.07721 17.5548L4.0779 21.5201L4.6779 21.52ZM9.90323 17.3085L4.20651 21.2738L4.54929 21.7663L10.246 17.801L9.90323 17.3085ZM20.3424 17.2552L10.0746 17.2547L10.0746 17.8547L20.3423 17.8552L20.3424 17.2552ZM22.4741 15.1228C22.4741 16.2991 21.5181 17.2552 20.3423 17.2552V17.8552C21.8496 17.8552 23.0741 16.6303 23.0741 15.1228H22.4741ZM22.4741 4.91233V15.1228H23.0741V4.91233H22.4741ZM20.3423 2.77998C21.518 2.77998 22.4741 3.73638 22.4741 4.91233H23.0741C23.0741 3.40517 21.8495 2.17998 20.3423 2.17998V2.77998ZM20.3423 3.42417H3.65794V4.02417H20.3423V3.42417ZM21.8299 4.91233C21.8299 4.09226 21.1623 3.42417 20.3423 3.42417V4.02417C20.8307 4.02417 21.2299 4.42338 21.2299 4.91233H21.8299ZM21.8299 15.1228V4.91233H21.2299V15.1228H21.8299ZM20.3423 16.611C21.1625 16.611 21.8299 15.9432 21.8299 15.1228H21.2299C21.2299 15.612 20.8309 16.011 20.3423 16.011V16.611ZM9.68533 16.611H20.3423V16.011H9.68533V16.611ZM5.7927 19.384L9.85664 16.5573L9.51403 16.0647L5.45009 18.8914L5.7927 19.384ZM5.32209 16.3109L5.32139 19.1376L5.92139 19.1378L5.92209 16.3111L5.32209 16.3109ZM3.65794 16.611H5.62209V16.011H3.65794V16.611ZM2.16977 15.1228C2.16977 15.9433 2.83742 16.611 3.65794 16.611V16.011C3.16879 16.011 2.76977 15.612 2.76977 15.1228H2.16977ZM2.16977 4.91233V15.1228H2.76977V4.91233H2.16977ZM3.65794 3.42417C2.83758 3.42417 2.16977 4.09209 2.16977 4.91233H2.76977C2.76977 4.42343 3.16898 4.02417 3.65794 4.02417V3.42417ZM8.75736 9.91023C8.75736 10.4764 8.29837 10.9354 7.73219 10.9354V11.5354C8.62974 11.5354 9.35736 10.8078 9.35736 9.91023H8.75736ZM7.73219 8.88506C8.29837 8.88506 8.75736 9.34404 8.75736 9.91023H9.35736C9.35736 9.01267 8.62974 8.28506 7.73219 8.28506V8.88506ZM6.70702 9.91023C6.70702 9.34404 7.166 8.88506 7.73219 8.88506V8.28506C6.83463 8.28506 6.10702 9.01267 6.10702 9.91023H6.70702ZM7.73219 10.9354C7.166 10.9354 6.70702 10.4764 6.70702 9.91023H6.10702C6.10702 10.8078 6.83463 11.5354 7.73219 11.5354V10.9354ZM12.1048 11.5799C13.0023 11.5799 13.73 10.8523 13.73 9.95478H13.13C13.13 10.521 12.671 10.9799 12.1048 10.9799V11.5799ZM10.4796 9.95478C10.4796 10.8523 11.2072 11.5799 12.1048 11.5799V10.9799C11.5386 10.9799 11.0796 10.521 11.0796 9.95478H10.4796ZM12.1048 8.32961C11.2072 8.32961 10.4796 9.05722 10.4796 9.95478H11.0796C11.0796 9.38859 11.5386 8.92961 12.1048 8.92961V8.32961ZM13.73 9.95478C13.73 9.05722 13.0023 8.32961 12.1048 8.32961V8.92961C12.671 8.92961 13.13 9.38859 13.13 9.95478H13.73ZM17.633 9.97191C17.633 10.5381 17.174 10.9971 16.6078 10.9971V11.5971C17.5054 11.5971 18.233 10.8695 18.233 9.97191H17.633ZM16.6078 8.94674C17.174 8.94674 17.633 9.40573 17.633 9.97191H18.233C18.233 9.07435 17.5054 8.34674 16.6078 8.34674V8.94674ZM15.5826 9.97191C15.5826 9.40573 16.0416 8.94674 16.6078 8.94674V8.34674C15.7102 8.34674 14.9826 9.07435 14.9826 9.97191H15.5826ZM16.6078 10.9971C16.0416 10.9971 15.5826 10.5381 15.5826 9.97191H14.9826C14.9826 10.8695 15.7102 11.5971 16.6078 11.5971V10.9971Z" fill="#3384F7"/>
</svg>
