<svg width="24" height="24" viewBox="0 0 24 24" fill="none" xmlns="http://www.w3.org/2000/svg">
<path fill-rule="evenodd" clip-rule="evenodd" d="M21.0606 7.0677L21.06 7.05091C21.0507 6.84373 21.0445 6.62453 21.0408 6.38065C21.0234 5.19136 20.0884 4.20761 18.9122 4.14112C16.4597 4.00273 14.5626 3.19407 12.9415 1.59633L12.9277 1.583C12.399 1.09277 11.6014 1.09277 11.0725 1.583L11.0587 1.59633C9.43766 3.19407 7.54049 4.00273 5.08805 4.14129C3.91195 4.20761 2.97687 5.19136 2.95946 6.38081C2.95588 6.62305 2.94953 6.84225 2.94026 7.05091L2.93928 7.08991C2.8916 9.61874 2.83236 12.766 3.87355 15.6226C4.44606 17.1935 5.31311 18.5591 6.45048 19.6815C7.74586 20.9599 9.44255 21.9747 11.4934 22.6978C11.5601 22.7213 11.6294 22.7404 11.7 22.7547C11.7996 22.7748 11.8999 22.7849 12.0001 22.7849C12.1004 22.7849 12.2008 22.7748 12.3002 22.7547C12.3708 22.7404 12.4406 22.7212 12.5077 22.6975C14.556 21.9731 16.2509 20.9577 17.5452 19.6796C18.6821 18.5568 19.5491 17.1909 20.1221 15.6197C21.1672 12.7545 21.1081 9.6013 21.0606 7.0677ZM11.9998 17.3759C9.06858 17.3759 6.684 14.9645 6.684 12.0004C6.684 9.03635 9.06858 6.62502 11.9998 6.62502C14.9308 6.62502 17.3156 9.03635 17.3156 12.0004C17.3156 14.9645 14.9308 17.3759 11.9998 17.3759ZM11.9998 7.89084C9.75874 7.89084 7.93561 9.73443 7.93561 12.0004C7.93561 14.2666 9.75874 16.1102 11.9998 16.1102C14.2407 16.1102 16.0638 14.2666 16.0638 12.0004C16.0638 9.73443 14.2407 7.89084 11.9998 7.89084ZM14.4127 11.2265L11.5012 14.1707C11.3789 14.2943 11.2187 14.3562 11.0585 14.3562C10.8984 14.3562 10.7383 14.2944 10.616 14.1707L9.50341 13.0456C9.25898 12.7986 9.25898 12.3979 9.50341 12.1507C9.74768 11.9035 10.1439 11.9035 10.3884 12.1507L11.0585 12.8284L13.5277 10.3316C13.772 10.0844 14.1682 10.0844 14.4127 10.3316C14.6571 10.5786 14.6571 10.9793 14.4127 11.2265Z" fill="#3384F7"/>
</svg>
