<svg width="33" height="33" viewBox="0 0 33 33" fill="none" xmlns="http://www.w3.org/2000/svg">
<rect x="16.5" y="13.5" width="3" height="14" fill="#3384F7"/>
<path fill-rule="evenodd" clip-rule="evenodd" d="M13.8345 26.4215H19.1655V14.5625H13.8345V26.4215ZM20.3655 26.4205H25.6975V10.2075H20.3655V26.4205ZM7.30352 26.4215H12.6355V6.57953H7.30352V26.4215ZM13.2345 5.37653H6.70352C6.37252 5.37653 6.10352 5.64553 6.10352 5.97753V27.0235C6.10352 27.3535 6.37252 27.6235 6.70352 27.6235H26.2965C26.6275 27.6235 26.8965 27.3535 26.8965 27.0235V9.60453C26.8965 9.27453 26.6275 9.00553 26.2965 9.00553H19.7665C19.4345 9.00553 19.1655 9.27453 19.1655 9.60453V13.3585H13.8345V5.97753C13.8345 5.64553 13.5645 5.37653 13.2345 5.37653Z" fill="#202023"/>
</svg>
