<svg width="100" height="101" viewBox="0 0 100 101" fill="none" xmlns="http://www.w3.org/2000/svg">
<path d="M72.3581 22.7273C72.3581 10.1954 62.3255 0 49.9939 0C20.3257 1.24773 20.3346 44.2113 49.9939 45.4545C62.3255 45.4545 72.3581 35.2591 72.3581 22.7273ZM32.1026 22.7273C32.1026 12.7023 40.1291 4.54545 49.9939 4.54545C73.6954 5.45909 73.691 39.9977 49.9939 40.9091C40.1291 40.9091 32.1026 32.7523 32.1026 22.7273Z" fill="#3384F7"/>
<path d="M15.926 61.4842L12.5401 92.4296C12.3321 94.3546 12.9404 96.2864 14.2129 97.7296C15.4854 99.1728 17.3036 100 19.2091 100H80.7798C84.6622 100.086 87.9631 96.3432 87.4465 92.4296L84.0628 61.4842C83.6424 57.6387 81.359 54.3069 77.9507 52.5728L64.4115 45.6955C63.783 45.3751 63.0405 45.3751 62.4099 45.6955C54.6339 49.6455 45.3483 49.6455 37.5745 45.6955C36.9461 45.3751 36.2036 45.3751 35.5729 45.6955L22.0336 52.5728C18.6321 54.3069 16.3464 57.6364 15.926 61.4842V61.4842ZM43.8163 95.4546L49.5796 68.1205C49.8546 68.1978 50.132 68.1955 50.4093 68.1205L56.1747 95.4546H43.8163ZM46.2003 59.091H53.793C54.4438 59.0705 54.7211 60.0024 54.1687 60.3524L49.9955 63.1774L45.8224 60.3524C45.2745 60.0001 45.5451 59.0705 46.2003 59.091ZM24.0397 56.6387L36.6016 50.2569C45.0709 54.1819 54.9246 54.1842 63.3939 50.2569L75.9536 56.6387C77.9977 57.6774 79.3686 59.6774 79.6213 61.9864L83.005 92.9319C83.1794 94.2364 82.0814 95.4887 80.7842 95.4546H60.7527L54.4616 65.616L56.6511 64.1319C60.8578 61.4046 58.7981 54.4501 53.7974 54.5433H46.207C43.3601 54.5455 41.0499 56.8933 41.0499 59.7796C40.9291 62.6751 43.3936 64.2864 45.5339 65.6183L39.2428 95.4569H19.2113C18.0976 95.4569 16.8653 94.4682 16.9883 92.9342L20.372 61.9887C20.6247 59.6774 21.9934 57.6774 24.0397 56.6387V56.6387Z" fill="#3384F7"/>
<path d="M29.8697 70.4545H38.8154C41.7384 70.4431 41.7428 65.9204 38.8154 65.9091H29.8697C26.9467 65.9204 26.9422 70.4431 29.8697 70.4545Z" fill="#3384F7"/>
</svg>
