<svg width="11" height="11" viewBox="0 0 11 11" fill="none" xmlns="http://www.w3.org/2000/svg">
<g >
<path d="M6.88613 5.7644L10.8201 1.83047C11.0603 1.59023 11.0603 1.18983 10.8201 0.94959C10.5798 0.709349 10.1794 0.709349 9.93918 0.94959L5.99524 4.87351L2.06131 0.93958C1.82107 0.699339 1.42066 0.699339 1.18042 0.93958C0.940184 1.17982 0.940184 1.58022 1.18042 1.82046L5.10435 5.7644L1.17041 9.69834C0.930174 9.93858 0.930174 10.339 1.17041 10.5792C1.29053 10.6993 1.45069 10.7594 1.61085 10.7594C1.77102 10.7594 1.93118 10.6993 2.0513 10.5792L5.99524 6.64529L9.92917 10.5792C10.0493 10.6993 10.2095 10.7594 10.3696 10.7594C10.5298 10.7594 10.6899 10.6993 10.8101 10.5792C11.0503 10.339 11.0503 9.93858 10.8101 9.69834L6.88613 5.7644Z" fill="black"/>
</g>
</svg>
