<svg width="24" height="24" xmlns="http://www.w3.org/2000/svg">
    <g fill="none" fill-rule="evenodd">
        <path d="M19.719 21.5H5.865a2.179 2.179 0 0 1-2.178-2.177V4.677c0-1.2.977-2.177 2.178-2.177h12.27c.328 0 .594.266.594.594v2.573h.99c.328 0 .593.266.593.593v14.646a.594.594 0 0 1-.593.594zM4.875 6.616v12.707c0 .545.444.99.99.99h13.26V6.854H5.865c-.357 0-.693-.085-.99-.238zm.99-2.928a.991.991 0 0 0-.99.99c0 .545.444.989.99.989h11.677v-1.98H5.865z" fill="#202023" fill-rule="nonzero"/>
        <path d="M7.434 6.841v10.246l1.506-.914a2 2 0 0 1 2.05-.016l1.583.93V6.84H7.434z" fill="#3384F7"/>
    </g>
</svg>
