<?xml version="1.0" encoding="utf-8"?>
<svg width="33px" height="33px" viewBox="0 0 33 33" version="1.1" xmlns:xlink="http://www.w3.org/1999/xlink" xmlns="http://www.w3.org/2000/svg">
  <g id="docs" transform="translate(0.5 0.5)">
    <path d="M16 32C24.8366 32 32 24.8366 32 16C32 7.16344 24.8366 0 16 0C7.16344 0 0 7.16344 0 16C0 24.8366 7.16344 32 16 32Z" id="Oval" fill="#3384F7" fill-rule="evenodd" stroke="none" />
    <path d="M11.8 0L1.8 0C0.805887 0 0 0.805887 0 1.8L0 14.5692C0 15.5633 0.805887 16.3692 1.8 16.3692L11.8 16.3692C12.7941 16.3692 13.6 15.5633 13.6 14.5692L13.6 1.8C13.6 0.805887 12.7941 0 11.8 0ZM1.8 1.6L11.8 1.6C11.9105 1.6 12 1.68954 12 1.8L12 14.5692C12 14.6797 11.9105 14.7692 11.8 14.7692L1.8 14.7692C1.68954 14.7692 1.6 14.6797 1.6 14.5692L1.6 1.8C1.6 1.68954 1.68954 1.6 1.8 1.6ZM3.75458 4.38066L9.75458 4.38066C10.1964 4.38066 10.5546 4.73883 10.5546 5.18066C10.5546 5.5885 10.2494 5.92506 9.85493 5.97442L9.75458 5.98066L3.75458 5.98066C3.31275 5.98066 2.95458 5.62248 2.95458 5.18066C2.95458 4.77281 3.25977 4.43625 3.65423 4.38689L3.75458 4.38066ZM3.73697 7.38462L9.73697 7.38462C10.1788 7.38462 10.537 7.74279 10.537 8.18462C10.537 8.59246 10.2318 8.92902 9.83732 8.97838L9.73697 8.98462L3.73697 8.98462C3.29514 8.98462 2.93697 8.62644 2.93697 8.18462C2.93697 7.77677 3.24216 7.44021 3.63662 7.39085L3.73697 7.38462ZM3.79247 10.3386L9.79247 10.3386C10.2343 10.3386 10.5925 10.6968 10.5925 11.1386C10.5925 11.5464 10.2873 11.883 9.89282 11.9324L9.79247 11.9386L3.79247 11.9386C3.35064 11.9386 2.99247 11.5804 2.99247 11.1386C2.99247 10.7308 3.29766 10.3942 3.69212 10.3448L3.79247 10.3386Z" transform="translate(9.2 7.8153844)" id="Combined-Shape" fill="#FFFFFF" fill-rule="evenodd" stroke="none" />
  </g>
</svg>