<svg width="22" height="20" viewBox="0 0 22 20" xmlns="http://www.w3.org/2000/svg">
    <path d="M20.753 18.442V4.422a2.63 2.63 0 0 0 .563-1.628A2.647 2.647 0 0 0 18.673.15a2.647 2.647 0 0 0-2.644 2.644c0 .449.112.871.31 1.242a10.199 10.199 0 0 1-10.479 0c.199-.37.311-.793.311-1.242A2.647 2.647 0 0 0 3.527.15 2.647 2.647 0 0 0 .884 2.794c0 .614.21 1.18.563 1.629v14.02h-.61v1.207h5.381v-1.208h-.61V8.455a11.276 11.276 0 0 0 5.454 1.42h.038c1.936 0 3.815-.489 5.492-1.42v9.987h-.61v1.208h5.381v-1.208h-.61zm-2.08-17.084c.791 0 1.436.644 1.436 1.436 0 .792-.645 1.436-1.436 1.436a1.438 1.438 0 0 1-1.436-1.436c0-.792.644-1.436 1.436-1.436zm-15.146 0c.792 0 1.436.644 1.436 1.436 0 .792-.644 1.436-1.436 1.436a1.438 1.438 0 0 1-1.436-1.436c0-.792.645-1.436 1.436-1.436zm-.872 17.084V5.292a2.632 2.632 0 0 0 1.71.01.292.292 0 0 0 .035-.01v13.15H2.655zM5.608 7.046v-1.76a11.277 11.277 0 0 0 5.454 1.42h.038c1.936 0 3.815-.488 5.492-1.42v1.76c-3.32 2.143-7.666 2.141-10.984 0zM17.8 18.442V5.292a2.632 2.632 0 0 0 1.71.01.295.295 0 0 0 .035-.01v13.15H17.8z" fill="#000" fill-rule="nonzero"/>
</svg>
