<?xml version="1.0" encoding="utf-8"?>
<svg width="24px" height="24px" viewBox="0 0 24 24" version="1.1" xmlns:xlink="http://www.w3.org/1999/xlink" xmlns="http://www.w3.org/2000/svg">
  <g id="facebook">
    <path d="M12 0C5.38323 0 0 5.38323 0 12C0 18.6163 5.38323 24 12 24C18.6163 24 24 18.6163 24 12C24 5.38323 18.6173 0 12 0ZM14.9843 12.4225L13.032 12.4225L13.032 19.381L10.139 19.381C10.139 19.381 10.139 15.5788 10.139 12.4225L8.76388 12.4225L8.76388 9.9631L10.139 9.9631L10.139 8.37235C10.139 7.23306 10.6804 5.45283 13.0586 5.45283L15.2023 5.46105L15.2023 7.84838C15.2023 7.84838 13.8996 7.84838 13.6463 7.84838C13.3931 7.84838 13.0329 7.97503 13.0329 8.51833L13.0329 9.96359L15.2371 9.96359L14.9843 12.4225Z" id="Shape" fill="#D4D6DF" stroke="none" />
  </g>
</svg>