<svg width="32" height="32" viewBox="0 0 32 32" fill="none" xmlns="http://www.w3.org/2000/svg">
<circle cx="16" cy="16" r="16" fill="white"/>
<path fill-rule="evenodd" clip-rule="evenodd" d="M7.28237 7.5339C7.66699 7.13756 8.30008 7.12806 8.69642 7.51268L16.0063 14.6065L23.3036 7.525C23.6999 7.14038 24.333 7.14988 24.7176 7.54622C25.0727 7.91207 25.0919 8.47965 24.781 8.86732L24.6964 8.96027L17.4423 16L24.6964 23.0397L24.781 23.1327C25.0919 23.5204 25.0727 24.0879 24.7176 24.4538C24.333 24.8501 23.6999 24.8596 23.3036 24.475L16.0063 17.3935L8.69642 24.4873C8.30008 24.8719 7.66699 24.8624 7.28237 24.4661C6.92733 24.1003 6.90811 23.5327 7.21899 23.145L7.30358 23.0521L14.5704 16L7.30358 8.94795L7.21899 8.855C6.90811 8.46733 6.92733 7.89975 7.28237 7.5339Z" fill="#FF5454"/>
</svg>
