<svg width="32" height="32" viewBox="0 0 32 32" fill="none" xmlns="http://www.w3.org/2000/svg">
<path fill-rule="evenodd" clip-rule="evenodd" d="M11.7694 11.707L16.202 16.564L16.1486 4.82007L11.7441 11.6306L11.7694 11.707Z" fill="#3384F7"/>
<path fill-rule="evenodd" clip-rule="evenodd" d="M15.8952 16.4192L22.6515 27.0474L22.0656 18.8497L27.1729 13.1031L15.8952 16.4192Z" fill="#3384F7"/>
<path fill-rule="evenodd" clip-rule="evenodd" d="M10.147 18.7837L9.4547 26.873L16.2412 16.3771L10.147 18.7837Z" fill="#3384F7"/>
<path d="M16 23.4483C16.1091 23.4483 16.2179 23.4764 16.3144 23.5296L22.1124 26.7251C22.206 26.7766 22.3051 26.8028 22.407 26.8028C22.5935 26.8028 22.7708 26.7154 22.8933 26.5631C23.0141 26.4129 23.0629 26.2221 23.0307 26.0256L21.9234 19.2575C21.8858 19.0276 21.9584 18.7933 22.1178 18.6305L26.8084 13.8372C26.9822 13.6597 27.0435 13.3991 26.9686 13.1572C26.8936 12.9152 26.6978 12.7421 26.4576 12.7055L19.9753 11.7181C19.7552 11.6845 19.565 11.5397 19.4665 11.3306L16.5675 5.17272C16.4601 4.94457 16.2426 4.80286 16 4.80286C15.7573 4.80286 15.5398 4.94457 15.4324 5.17272L12.5334 11.3306C12.435 11.5397 12.2448 11.6846 12.0247 11.7181L5.54234 12.7056C5.30218 12.7421 5.1064 12.9152 5.03143 13.1572C4.95647 13.3991 5.01783 13.6597 5.19159 13.8373L9.88223 18.6305C10.0415 18.7933 10.1142 19.0277 10.0766 19.2575L8.96925 26.0257C8.93713 26.2221 8.98593 26.413 9.10665 26.5631C9.22917 26.7154 9.40643 26.8029 9.59293 26.8029C9.69488 26.8029 9.79401 26.7767 9.88758 26.7251L15.6855 23.5297C15.7822 23.4764 15.8909 23.4483 16 23.4483Z" stroke="#202023" stroke-width="1.2"/>
</svg>
