<svg width="24" height="24" viewBox="0 0 24 24" fill="none" xmlns="http://www.w3.org/2000/svg">
<path d="M22.7125 8.74073C22.3305 8.35124 21.713 8.35297 21.3331 8.74453L9.60857 20.8308C8.08746 22.3904 5.61694 22.3904 4.09298 20.8287C2.57017 19.2665 2.57017 16.7335 4.09317 15.172L16.1648 2.72987C17.1145 1.75621 18.6584 1.75621 19.6108 2.73198C20.563 3.70822 20.563 5.29108 19.6106 6.2676L9.6104 16.5208C9.60976 16.5214 9.60921 16.5222 9.60857 16.5228C9.2276 16.9113 8.6119 16.9108 8.2317 16.521C7.85086 16.1305 7.85086 15.4976 8.2317 15.1071L13.0587 10.1569C13.4396 9.76638 13.4395 9.13318 13.0586 8.7427C12.6776 8.35222 12.0601 8.35227 11.6792 8.74284L6.85227 13.6929C5.7097 14.8644 5.7097 16.7636 6.85236 17.9352C7.99497 19.1067 9.84732 19.1067 10.99 17.9352C10.9913 17.9338 10.9924 17.9324 10.9936 17.931L20.9899 7.68175C22.7041 5.92419 22.7041 3.07497 20.9899 1.3174C19.2755 -0.439134 16.4968 -0.439134 14.7836 1.3174L2.712 13.7596C0.429061 16.1003 0.429061 19.8994 2.71364 22.2429C4.99973 24.5857 8.70508 24.5857 10.9898 22.2431L22.7162 10.155C23.0961 9.76338 23.0944 9.13022 22.7125 8.74073Z" fill="#202023" fill-opacity="0.2"/>
</svg>
