<svg width="32" height="33" viewBox="0 0 32 33" fill="none" xmlns="http://www.w3.org/2000/svg">
<path fill-rule="evenodd" clip-rule="evenodd" d="M24.6111 5.09399L16.1286 19.2861L16.1113 25.6341L18.7242 24.9648V18.6243L26.9052 5.35001L24.6111 5.09399Z" fill="#3384F7"/>
<path fill-rule="evenodd" clip-rule="evenodd" d="M8.85528 10.7369H23.1449L17.8709 19.3687C17.8129 19.4637 17.7825 19.573 17.7825 19.6841V24.1363L17.697 24.1914L14.2177 26.5116V19.6841C14.2177 19.573 14.1864 19.4637 14.1284 19.3687L8.85528 10.7369ZM5.93654 5.96167H26.0637L23.886 9.52648H8.1142L5.93654 5.96167ZM13.3265 28.1791C13.5241 28.2836 13.7617 28.2722 13.9479 28.1477L18.7241 24.9648C18.8932 24.8508 18.9939 24.6627 18.9939 24.4594V19.8542L27.6608 5.67094C27.7748 5.48471 27.7796 5.25004 27.6732 5.05811C27.5649 4.86809 27.3625 4.74933 27.144 4.74933H4.85532C4.63679 4.74933 4.43442 4.86809 4.32706 5.05811C4.22064 5.25004 4.22445 5.48471 4.33846 5.67094L13.0063 19.8542V27.6441C13.0063 27.8674 13.1289 28.0726 13.3265 28.1791Z" fill="#202023"/>
</svg>
