<svg width="33" height="32" viewBox="0 0 33 32" fill="none" xmlns="http://www.w3.org/2000/svg">
<path fill-rule="evenodd" clip-rule="evenodd" d="M5.58164 17.3476C5.58164 19.2141 7.1159 21.3015 9.1695 21.3015C11.2231 21.3015 12.7574 19.2141 12.7574 17.3476C12.7574 15.3691 11.148 13.7598 9.1695 13.7598C7.19102 13.7598 5.58164 15.3691 5.58164 17.3476ZM11.5962 17.3476C11.5962 18.6392 10.5362 20.1403 9.1695 20.1403C7.80279 20.1403 6.74282 18.6392 6.74282 17.3476C6.74282 16.0095 7.83143 14.9209 9.1695 14.9209C10.5076 14.9209 11.5962 16.0095 11.5962 17.3476ZM3.71145 29.4113H14.6808C15.0015 29.4113 15.2614 29.1513 15.2614 28.8307V25.1603C15.2784 23.4658 13.9204 22.0794 12.2244 22.0624L6.19767 22.0028C4.52337 22.0028 3.14759 23.365 3.13086 25.0455V28.8307C3.13087 29.1513 3.39082 29.4113 3.71145 29.4113ZM4.29204 25.0512C4.30225 24.0105 5.15726 23.164 6.21723 23.164L12.2131 23.2235C13.2516 23.2339 14.1109 24.079 14.1003 25.1547V28.2501H4.29204V25.0512ZM30.4183 29.4113H19.4489C19.1283 29.4113 18.8683 29.1513 18.8683 28.8307V25.0455C18.885 23.365 20.2608 22.0028 21.9351 22.0028L27.9618 22.0624C29.6578 22.0794 31.0159 23.4658 30.9989 25.1603V28.8307C30.9989 29.1513 30.7389 29.4113 30.4183 29.4113ZM21.9547 23.164C20.8947 23.164 20.0397 24.0105 20.0295 25.0512V28.2501H29.8377V25.1547C29.8483 24.079 28.9891 23.2339 27.9505 23.2235L21.9547 23.164ZM21.3191 17.3476C21.3191 19.2141 22.8533 21.3015 24.9069 21.3015C26.9605 21.3015 28.4951 19.2141 28.4951 17.3476C28.4951 15.3691 26.8854 13.7598 24.9069 13.7598C22.9284 13.7598 21.3191 15.3691 21.3191 17.3476ZM27.3339 17.3476C27.3339 18.6392 26.2736 20.1403 24.9069 20.1403C23.5402 20.1403 22.4802 18.6392 22.4802 17.3476C22.4802 16.0095 23.5688 14.9209 24.9069 14.9209C26.2453 14.9209 27.3339 16.0095 27.3339 17.3476Z" fill="#202023"/>
<rect x="10.0947" y="4.67438" width="8.02624" height="1.55983" rx="0.779913" fill="#3384F7"/>
<rect x="12.4707" y="7.17047" width="5.54369" height="1.55983" rx="0.779913" fill="#3384F7"/>
</svg>
