<svg width="24" height="24" xmlns="http://www.w3.org/2000/svg">
    <g transform="translate(1.677 2.55)" fill="none" fill-rule="evenodd">
        <path d="M2 0h12.65a2 2 0 0 1 2 2v8.033a2 2 0 0 1-2 2H3.773L.15 15.586l-.148-3.51A2 2 0 0 1 0 11.99V2a2 2 0 0 1 2-2z" fill="#3384F7"/>
        <path d="M6.457 4.065h12.188a2 2 0 0 1 2 2V14.1a2 2 0 0 1-2 2H8.768L4.504 18.9l-.046-2.785a2 2 0 0 1 0-.033V6.065a2 2 0 0 1 2-2z" stroke="#202023" stroke-width="1.3" fill="#FFF"/>
        <circle fill="#3384F7" cx="8.535" cy="9.884" r="1.364"/>
        <circle fill="#3384F7" cx="12.712" cy="9.919" r="1.364"/>
        <circle fill="#3384F7" cx="16.782" cy="9.955" r="1.364"/>
    </g>
</svg>
