<?xml version="1.0" encoding="utf-8"?>
<svg width="21px" height="21px" viewBox="0 0 21 21" version="1.1" xmlns:xlink="http://www.w3.org/1999/xlink" xmlns="http://www.w3.org/2000/svg">
  <g id="Group">
    <path d="M0 10.5C0 4.7103 4.7103 0 10.5 0C12.8383 0 15.0515 0.7523 16.9004 2.1756L14.4604 5.3452C13.3172 4.4652 11.9477 4 10.5 4C6.9159 4 4 6.9159 4 10.5C4 14.0841 6.9159 17 10.5 17C13.3867 17 15.8398 15.1087 16.6852 12.5L10.5 12.5L10.5 8.5L21 8.5L21 10.5C21 16.2897 16.2897 21 10.5 21C4.7103 21 0 16.2897 0 10.5Z" id="Path" fill="#FFFFFF" stroke="none" />
  </g>
</svg>