<svg width="24" height="24" viewBox="0 0 24 24" fill="none" xmlns="http://www.w3.org/2000/svg">
<path fill-rule="evenodd" clip-rule="evenodd" d="M19.9811 19.0022C20.5325 19.0022 20.98 19.4497 20.98 20.0011C20.98 20.5525 20.5325 21 19.9811 21H4.99778C3.897 21 3 20.103 3 19.0022V3.99889C3 3.4475 3.4475 3 3.99889 3C4.55028 3 4.99778 3.4475 4.99778 3.99889V19.0022H19.9811ZM5.9667 15.9676L9.5687 11.3247C9.73652 11.109 9.98824 10.9711 10.2599 10.9432L13.6961 10.6115C13.9598 10.5856 14.2036 10.4557 14.3714 10.2519L17.3401 6.64994L16.4291 5.89478C16.1054 5.62508 16.2373 5.10166 16.6488 5.01976L20.059 4.33252C20.3747 4.26859 20.6684 4.51831 20.6564 4.83996L20.5345 8.25017C20.5205 8.6657 20.0371 8.88146 19.7174 8.61776L18.8784 7.92253L15.3902 12.1618C15.2224 12.3676 14.9787 12.4954 14.715 12.5214L11.3127 12.8511C11.039 12.877 10.7873 13.0149 10.6195 13.2326L7.54495 17.1942C7.37514 17.412 7.06149 17.452 6.84373 17.2822L6.05461 16.6688C5.83685 16.499 5.79689 16.1853 5.9667 15.9676Z" fill="#3384F7"/>
</svg>
