<svg width="24" height="24" viewBox="0 0 24 24" xmlns="http://www.w3.org/2000/svg">
    <path d="M12 18.813c.097 0 .194.025.28.073l5.167 2.848a.54.54 0 0 0 .696-.145.6.6 0 0 0 .123-.479l-.987-6.031a.65.65 0 0 1 .173-.56l4.18-4.27a.608.608 0 0 0 .143-.607.569.569 0 0 0-.456-.402l-5.776-.88a.605.605 0 0 1-.454-.346l-2.583-5.487a.559.559 0 0 0-.506-.33.559.559 0 0 0-.506.33L8.911 8.014a.605.605 0 0 1-.454.346l-5.777.88a.569.569 0 0 0-.455.402.608.608 0 0 0 .143.606l4.18 4.272a.65.65 0 0 1 .173.559l-.987 6.031a.6.6 0 0 0 .123.48.54.54 0 0 0 .696.144l5.167-2.848a.582.582 0 0 1 .28-.073z" fill-rule="nonzero" stroke="#FFF" stroke-width="1.3" fill="none"/>
</svg>
