<?xml version="1.0" encoding="UTF-8"?>
<svg width="72px" height="72px" viewBox="0 0 72 72" version="1.1" xmlns="http://www.w3.org/2000/svg" xmlns:xlink="http://www.w3.org/1999/xlink">
    <title>47D90DBA-FAF0-4CCD-A136-1FEBC5579D86</title>
    <g id="Page-1" stroke="none" stroke-width="1" fill="none" fill-rule="evenodd">
        <g id="Index_Geolocation" transform="translate(-1344.000000, -1120.000000)">
            <g id="Icons/72x72/Franchise/Production" transform="translate(1343.741602, 1120.000000)">
                <path d="M51.0244438,0.001079786 C39.8374514,0.154586472 32.6462712,15.374624 26.2641792,19.9576729 C13.7101287,28.9728718 1.74338693,23.1127126 0.139076976,40.9250649 C-1.19878993,55.7791501 7.37382673,62.3354102 14.7573591,64.9319528 C18.6413134,66.2978103 29.4152523,70.778998 33.4109448,71.6477599 C44.6067862,74.0820114 48.8545201,63.3284016 56.8981199,56.9366941 C71.1439671,45.616478 72.2737354,38.5763355 71.9578999,23.3356944 C71.6420644,8.09505334 58.9956321,-0.108299988 51.0244438,0.001079786 Z" id="Path-11" fill="#F4F5F8"></path>
                <g id="Group-4" transform="translate(13.258398, 13.000000)">
                    <g id="Group">
                        <path d="M45.769113,27.1794007 C46.1586891,27.1774832 46.4998477,26.8016494 46.4998477,26.3732435 L46.4998477,19.4003437 C46.4998477,18.9709791 46.1572509,18.5945061 45.7732677,18.5945061 L41.4701941,18.23593 C40.9681236,16.4611059 40.2476156,14.8032505 39.3275259,13.3063069 L41.9805739,10.1513482 C42.0988209,9.99363223 42.1609805,9.79245247 42.1509135,9.59974176 C42.1398878,9.39137131 42.0480067,9.21208324 41.9005174,9.10262484 L36.9614666,4.163574 C36.8109413,4.01288892 36.614875,3.92404385 36.4098602,3.9133377 C36.2112371,3.90343052 36.0274748,3.96766742 35.909068,4.08655363 L32.6110943,6.88245685 C31.1461094,6.0237277 29.4641252,5.35115774 27.6100436,4.8828036 L27.2519469,0.733611 C27.2519469,0.342916403 26.8753141,0 26.4457897,0 L19.4003437,0 C18.9708193,0 18.5941865,0.342916403 18.5945061,0.727059475 L18.23593,5.02981343 C16.4607863,5.53188395 14.8029309,6.2523919 13.3063069,7.17232188 L10.1511884,4.51927386 C9.99347243,4.40102683 9.79133392,4.33934662 9.59974176,4.34909401 C9.39121152,4.36011974 9.21208324,4.45200089 9.10262484,4.5993303 L4.163574,9.53838114 C4.01288892,9.68906621 3.92404385,9.884813 3.91317791,10.0901474 C3.90279135,10.2881313 3.96750763,10.4723729 4.08639384,10.5907798 L6.88245685,13.8885937 C6.02356791,15.3537384 5.35115774,17.0357226 4.8828036,18.8899639 L0.733611,19.2479009 C0.34275661,19.2479009 0,19.6246935 0,20.054058 L0,27.0995041 C0,27.5287088 0.342596816,27.9055014 0.726580095,27.9055014 L5.03109177,28.2640776 C5.30018368,29.1386262 5.57998173,30.0390614 5.98026392,30.8693474 L1.24191346,30.8693474 C0.759657307,30.8693474 0.435756305,31.1932484 0.435756305,31.6755045 L0.435756305,45.6936906 C0.435756305,46.1759467 0.759657307,46.5 1.24191346,46.5 L31.9843048,46.3636124 C32.8169994,46.3599182 33.5073989,45.7176339 33.5711323,44.8873736 L33.5711323,44.8873736 L33.5711323,44.8873736 L33.5711323,39.6167517 L36.3400305,41.9006772 C36.5087722,42.0692592 36.68055,42.0692592 36.8323536,42.0692592 C37.0591003,42.0692592 37.2281616,41.9970326 37.3973827,41.8279713 L42.3364335,36.8889205 C42.6363656,36.5889884 42.6708809,36.1068921 42.4134539,35.7638159 L39.6173909,32.4660019 C40.4759603,31.0011768 41.1483704,29.319672 41.6168844,27.4657503 L45.769113,27.1794007 Z" id="Fill-1" fill="#FFFFFF"></path>
                        <path d="M17.8097613,44.8873736 L31.9586582,44.8873736 L31.9586582,43.5944861 L17.8097613,43.5944861 L17.8097613,44.8873736 Z M23.9108289,34.1375996 L25.8574308,34.1375996 L25.8574308,32.4089557 L23.9108289,32.4089557 L23.9108289,34.1375996 Z M9.96534881,30.7966414 L24.1142458,30.7966414 L24.1142458,29.5037539 L9.96534881,29.5037539 L9.96534881,30.7966414 Z M27.7311669,30.7966414 L25.7267199,30.7966414 L25.7267199,17.5119066 C25.7267199,17.0298102 25.4026591,16.7057494 24.9205627,16.7057494 L17.126645,16.7057494 C18.7811447,15.1209196 20.9476221,14.2506853 23.2499239,14.2506853 C28.1319285,14.2506853 32.1039103,18.2226671 32.1039103,23.102914 C32.0321632,26.3275427 30.3982768,29.2019044 27.7311669,30.7966414 L27.7311669,30.7966414 Z M16.0664165,20.0468674 L18.0130183,20.0468674 L18.0130183,18.3182235 L16.0664165,18.3182235 L16.0664165,20.0468674 Z M9.96534881,18.3182235 L14.4541022,18.3182235 L14.4541022,20.8530245 C14.4541022,21.3352807 14.7780032,21.6593415 15.2602593,21.6593415 L18.8191755,21.6593415 C19.3015914,21.6593415 19.6254924,21.3352807 19.6254924,20.8530245 L19.6254924,18.3182235 L24.1142458,18.3182235 L24.1142458,27.8912798 L9.96534881,27.8912798 L9.96534881,18.3182235 Z M8.14945785,34.1375996 L10.0960597,34.1375996 L10.0960597,32.4089557 L8.14945785,32.4089557 L8.14945785,34.1375996 Z M17.8097613,32.4089557 L22.2983548,32.4089557 L22.2983548,34.9453547 C22.2991538,35.4268118 22.622895,35.7502335 23.1046718,35.7502335 L26.6637477,35.7502335 C27.1458441,35.7502335 27.4699049,35.4261727 27.4699049,34.9439165 L27.4699049,32.4089557 L31.9586582,32.4089557 L31.9586582,41.9821718 L17.8097613,41.9821718 L17.8097613,32.4089557 Z M40.8017788,25.9342914 C40.544991,26.0199406 40.2448992,26.2663418 40.168518,26.5717068 L40.167719,26.5765006 C39.8219263,28.4432058 39.0680216,30.3155038 37.9231026,32.1481731 C37.7542011,32.4859761 37.7812062,32.8073204 38.0060354,33.1070926 L40.7186863,36.3194172 L36.8274,40.2107034 L33.7656008,37.647619 C33.7200597,37.6019181 33.6753176,37.5797069 33.6358486,37.5598925 C33.6115601,37.5477482 33.5907869,37.5373616 33.5711323,37.5225009 L33.5711323,31.5300926 C33.5711323,31.0479963 33.2472313,30.7239355 32.7648154,30.7239355 L30.3552924,30.7239355 C32.4776669,28.7394626 33.6436785,26.0418323 33.6436785,23.1046718 C33.6436785,17.3335773 28.948632,12.6382112 23.1772179,12.6382112 C19.9433213,12.6382112 16.9398466,14.1201342 14.9306058,16.7057494 L9.15903187,16.7057494 C8.67677571,16.7057494 8.35271492,17.0298102 8.35271492,17.5119066 L8.35271492,30.7966414 L7.61063487,30.7966414 C7.01125024,29.5903619 6.60457631,28.4548707 6.33116999,27.2254212 C6.24615996,26.885381 5.91235178,26.6594333 5.60554866,26.5840109 L1.467222,26.2986201 L1.467222,20.7809577 L5.45470379,20.4244589 C5.79618205,20.4244589 6.10857794,20.092728 6.18639727,19.7809713 C6.63989063,17.7405708 7.39395517,15.867314 8.43165281,14.2065824 C8.60039452,13.8687793 8.57338945,13.547435 8.34856029,13.2476628 L5.63590938,10.0351785 L9.52703582,6.14405205 L12.5889949,8.70713644 C12.8160611,8.93420271 13.2034001,8.96935723 13.5606979,8.79022895 C15.3332848,7.63412449 17.2330673,6.80911173 19.0564685,6.40387594 C19.3965087,6.31886591 19.6224564,5.98521752 19.6978788,5.67953295 L20.054857,1.467222 L25.5736379,1.467222 L25.9301367,5.45486358 C25.9301367,5.79618205 26.2618676,6.10857794 26.5765006,6.18703644 C28.4432058,6.53266933 30.315344,7.28673387 32.1480133,8.43165281 C32.4858163,8.60055431 32.8073204,8.57354925 33.1061339,8.34919947 L36.3186182,5.70781636 L40.2099044,9.59910259 L37.6474592,12.5889949 C37.4203929,12.8160611 37.3852384,13.2034001 37.5643667,13.5606979 C38.7204712,15.3336044 39.5454839,17.2333869 39.9505599,19.0566283 C40.0355699,19.3965087 40.3695379,19.6224564 40.6750627,19.6978788 L44.8148275,20.0546972 L44.8148275,25.5737977 L40.8199952,25.9304563 L40.8017788,25.9342914 Z M7.3433007,35.7502335 L10.9022169,35.7502335 C11.384473,35.7502335 11.708374,35.4261727 11.708374,34.9439165 L11.708374,32.4089557 L16.1972872,32.4089557 L16.1972872,41.9821718 L2.04823041,41.9821718 L2.04823041,32.4089557 L6.53698375,32.4089557 L6.53698375,34.9439165 C6.53698375,35.4261727 6.86104455,35.7502335 7.3433007,35.7502335 L7.3433007,35.7502335 Z M2.0483902,44.8873736 L16.1972872,44.8873736 L16.1972872,43.5944861 L2.0483902,43.5944861 L2.0483902,44.8873736 Z M45.769113,27.1794007 C46.1586891,27.1774832 46.4998477,26.8016494 46.4998477,26.3732435 L46.4998477,19.4003437 C46.4998477,18.9709791 46.1572509,18.5945061 45.7732677,18.5945061 L41.4701941,18.23593 C40.9681236,16.4611059 40.2476156,14.8032505 39.3275259,13.3063069 L41.9805739,10.1513482 C42.0988209,9.99363223 42.1609805,9.79245247 42.1509135,9.59974176 C42.1398878,9.39137131 42.0480067,9.21208324 41.9005174,9.10262484 L36.9614666,4.163574 C36.8109413,4.01288892 36.614875,3.92404385 36.4098602,3.9133377 C36.2112371,3.90343052 36.0274748,3.96766742 35.909068,4.08655363 L32.6110943,6.88245685 C31.1461094,6.0237277 29.4641252,5.35115774 27.6100436,4.8828036 L27.2519469,0.733611 C27.2519469,0.342916403 26.8753141,0 26.4457897,0 L19.4003437,0 C18.9708193,0 18.5941865,0.342916403 18.5945061,0.727059475 L18.23593,5.02981343 C16.4607863,5.53188395 14.8029309,6.2523919 13.3063069,7.17232188 L10.1511884,4.51927386 C9.99347243,4.40102683 9.79133392,4.33934662 9.59974176,4.34909401 C9.39121152,4.36011974 9.21208324,4.45200089 9.10262484,4.5993303 L4.163574,9.53838114 C4.01288892,9.68906621 3.92404385,9.884813 3.91317791,10.0901474 C3.90279135,10.2881313 3.96750763,10.4723729 4.08639384,10.5907798 L6.88245685,13.8885937 C6.02356791,15.3537384 5.35115774,17.0357226 4.8828036,18.8899639 L0.733611,19.2479009 C0.34275661,19.2479009 0,19.6246935 0,20.054058 L0,27.0995041 C0,27.5287088 0.342596816,27.9055014 0.726580095,27.9055014 L5.03109177,28.2640776 C5.30018368,29.1386262 5.57998173,30.0390614 5.98026392,30.8693474 L1.24191346,30.8693474 C0.759657307,30.8693474 0.435756305,31.1932484 0.435756305,31.6755045 L0.435756305,45.6936906 C0.435756305,46.1759467 0.759657307,46.5 1.24191346,46.5 L31.9843048,46.3636124 C32.8169994,46.3599182 33.5073989,45.7176339 33.5711323,44.8873736 L33.5711323,44.8873736 L33.5711323,44.8873736 L33.5711323,39.6167517 L36.3400305,41.9006772 C36.5087722,42.0692592 36.68055,42.0692592 36.8323536,42.0692592 C37.0591003,42.0692592 37.2281616,41.9970326 37.3973827,41.8279713 L42.3364335,36.8889205 C42.6363656,36.5889884 42.6708809,36.1068921 42.4134539,35.7638159 L39.6173909,32.4660019 C40.4759603,31.0011768 41.1483704,29.319672 41.6168844,27.4657503 L45.769113,27.1794007 Z" id="Fill-1-Copy-3" fill="#0C0C0C"></path>
                    </g>
                    <polygon id="Rectangle" fill="#3384F7" points="13.2372673 18.2635296 20.8162708 18.2635296 20.8162708 25.308961 17.0959859 22.9980381 13.2372673 25.308961"></polygon>
                    <polygon id="Rectangle-Copy-29" fill="#3384F7" points="21.1006854 32.2960468 28.6796889 32.2960468 28.6796889 39.3414783 24.9594039 37.0305553 21.1006854 39.3414783"></polygon>
                    <polygon id="Rectangle-Copy-30" fill="#3384F7" points="4.95409724 32.4076428 12.5331007 32.4076428 12.5331007 39.4530743 8.8128158 37.1421513 4.95409724 39.4530743"></polygon>
                </g>
            </g>
        </g>
    </g>
</svg>