<?xml version="1.0" encoding="UTF-8"?>
<svg width="24px" height="24px" viewBox="0 0 24 24" version="1.1" xmlns="http://www.w3.org/2000/svg" xmlns:xlink="http://www.w3.org/1999/xlink">
    <title>C1DD0AE2-2B64-44FA-9230-7E4A6AA30CB6</title>
    <g id="Page-1" stroke="none" stroke-width="1" fill="none" fill-rule="evenodd">
        <g id="Index_Geolocation" transform="translate(-1508.000000, -4252.000000)" fill="#202023" fill-rule="nonzero">
            <g id="Icons/24x24/loupe" transform="translate(1508.000000, 4252.000000)">
                <path d="M10.9864373,3.5 C15.1145818,3.5 18.4728787,6.8585293 18.4728787,10.9864414 C18.4728787,12.802301 17.8230875,14.469204 16.7438088,15.7668469 L20.2975232,19.3203594 C20.5674978,19.5901016 20.5674978,20.0277852 20.2975232,20.2975273 C20.1625193,20.432498 19.985613,20.5 19.8089392,20.5 C19.632033,20.5 19.4553259,20.432498 19.3203552,20.2975273 L19.3203552,20.2975273 L15.7668427,16.7438129 C14.4691999,17.8230916 12.8022968,18.4728828 10.9864373,18.4728828 C6.85852515,18.4728828 3.49999585,15.1145859 3.49999585,10.9864414 C3.49999585,6.8585293 6.85852515,3.5 10.9864373,3.5 Z M10.9864373,4.88211328 C7.62053687,4.88211328 4.88210913,7.62057422 4.88210913,10.9864746 C4.88210913,14.352375 7.62053687,17.0908027 10.9864373,17.0908027 C14.3523376,17.0908027 17.0907654,14.3523418 17.0907654,10.9864414 C17.0907654,7.62054102 14.3523376,4.88211328 10.9864373,4.88211328 Z" id="Combined-Shape"></path>
            </g>
        </g>
    </g>
</svg>