<svg width="24" height="24" xmlns="http://www.w3.org/2000/svg">
    <path d="M12 22.426h.018c.028 0 .056-.002.084-.005l-.102.005a1.06 1.06 0 0 0 .63-.21 1.228 1.228 0 0 0 .078-.064l.012-.012c.02-.02.04-.039.058-.06l.018-.02 5.96-6.922a1.05 1.05 0 0 0-1.507-1.459l-.085.088-4.114 4.78V2.624a1.05 1.05 0 0 0-2.094-.114l-.006.114v15.924l-4.114-4.78a1.05 1.05 0 0 0-1.383-.186l-.098.075a1.05 1.05 0 0 0-.185 1.383l.074.098 5.96 6.923.008.009a1.056 1.056 0 0 0 .788.356z" fill="#FF5454" fill-rule="nonzero"/>
</svg>
