<?xml version="1.0" encoding="UTF-8"?>
<svg width="24px" height="24px" viewBox="0 0 24 24" version="1.1" xmlns="http://www.w3.org/2000/svg" xmlns:xlink="http://www.w3.org/1999/xlink">
    <title>AD3EB9DB-E1B0-4A90-9BE8-67F0AEB48E55</title>
    <g id="Page-1" stroke="none" stroke-width="1" fill="none" fill-rule="evenodd">
        <g id="Index_Rating" transform="translate(-1336.000000, -1652.000000)" fill="#202023" fill-rule="nonzero">
            <g id="Icons/24x24/chat" transform="translate(1336.000000, 1652.000000)">
                <path d="M20.3424844,2.47996074 C21.6838879,2.47996074 22.774272,3.57075698 22.774272,4.91231453 L22.774272,4.91231453 L22.774272,15.1228066 C22.774272,16.4646648 21.6840119,17.5551604 20.3424844,17.5551604 L20.3424844,17.5551604 L10.0747652,17.5547159 L4.37804401,21.5200393 L4.37734808,17.5547159 L3.65808175,17.5551604 C2.36978488,17.5551604 1.31336074,16.5502681 1.23090808,15.2825824 L1.23090808,15.2825824 L1.22572795,15.1228066 L1.22572795,4.91231453 C1.22572795,3.57063923 2.31622985,2.47996074 3.65808175,2.47996074 L3.65808175,2.47996074 Z M20.3424844,3.72414724 L3.65808175,3.72414724 C3.00342019,3.72414724 2.46991446,4.25773937 2.46991446,4.91231453 L2.46991446,4.91231453 L2.46991446,15.1228066 C2.46991446,15.7776373 3.00325108,16.3109739 3.65808175,16.3109739 L3.65808175,16.3109739 L5.62223052,16.3109739 L5.62153459,19.1377039 L9.68547382,16.3109739 L20.3424844,16.3109739 C20.9968065,16.3109739 21.5300855,15.7775797 21.5300855,15.1228066 L21.5300855,15.1228066 L21.5300855,4.91231453 C21.5300855,4.25779699 20.9966374,3.72414724 20.3424844,3.72414724 L20.3424844,3.72414724 Z M16.6079392,8.64672153 C17.3398099,8.64672153 17.9331083,9.24001993 17.9331083,9.97189059 C17.9331083,10.7037613 17.3398099,11.2970597 16.6079392,11.2970597 C15.8760685,11.2970597 15.2827701,10.7037613 15.2827701,9.97189059 C15.2827701,9.24001993 15.8760685,8.64672153 16.6079392,8.64672153 Z M12.1049244,8.62958832 C12.836795,8.62958832 13.4300934,9.22288671 13.4300934,9.95475738 C13.4300934,10.686628 12.836795,11.2799264 12.1049244,11.2799264 C11.3730537,11.2799264 10.7797553,10.686628 10.7797553,9.95475738 C10.7797553,9.22288671 11.3730537,8.62958832 12.1049244,8.62958832 Z M7.73232857,8.5850385 C8.46419923,8.5850385 9.05749763,9.1783369 9.05749763,9.91020756 C9.05749763,10.6420782 8.46419923,11.2353766 7.73232857,11.2353766 C7.0004579,11.2353766 6.40715951,10.6420782 6.40715951,9.91020756 C6.40715951,9.1783369 7.0004579,8.5850385 7.73232857,8.5850385 Z" id="Combined-Shape"></path>
            </g>
        </g>
    </g>
</svg>