<?xml version="1.0" encoding="UTF-8"?>
<svg width="80px" height="80px" viewBox="0 0 80 80" version="1.1" xmlns="http://www.w3.org/2000/svg" xmlns:xlink="http://www.w3.org/1999/xlink">
    <title>C5E49111-2813-4EF3-8691-D3C0FFF9A50A</title>
    <g id="Page-1" stroke="none" stroke-width="1" fill="none" fill-rule="evenodd">
        <g id="Index_Geolocation" transform="translate(-1340.000000, -4440.000000)">
            <g id="Icons/80x80/Consultant" transform="translate(1340.000000, 4440.000000)">
                <path d="M56.6938264,4.54788003 C44.2638349,4.69905505 36.2736346,19.68791 29.1824213,24.2013455 C15.2334763,33.0796093 1.93709658,27.3084622 0.154529973,44.8502564 C-1.33198881,59.4787176 8.19314081,65.9353924 16.3970656,68.4924952 C20.7125704,69.8376062 32.6836137,74.2507276 37.123272,75.1062935 C49.5630958,77.5035703 54.2828001,66.9133009 63.2201333,60.6186793 C79.0488523,49.47041 80.3041504,42.5372026 79.9532221,27.528057 C79.6022938,12.5189114 65.5507023,4.44016167 56.6938264,4.54788003 Z" id="Path-11" fill="#F4F5F8"></path>
                <g id="Group-19" transform="translate(17.132986, 12.000000)">
                    <path d="M43.1510964,21.5844231 L22.9023542,21.5844231 C24.2914477,19.2769816 25.5685977,16.7139387 25.8519707,13.6372928 C25.8980853,13.2056333 25.9212283,12.7647165 25.9205425,12.3184854 C25.8005419,8.91509489 24.3593338,5.75890574 21.8621198,3.43123553 C19.3643915,1.10322246 16.1122018,-0.113241509 12.7105255,0.0083020309 C6.04260239,0.243160492 0.635200606,5.65193371 0.399999286,12.3306569 C0.399999286,12.7571736 0.421256548,13.1938046 0.463085354,13.6275213 C0.814687328,17.4176569 2.65121192,20.3617877 4.27139245,22.9596309 L4.36602155,23.1110031 C5.55711395,25.0167853 6.5923769,26.672966 6.83717828,28.2914322 C5.80860108,28.6680629 5.10488284,29.6558399 5.1005971,30.7679033 L5.1005971,31.1717913 C5.10608285,31.8403664 5.36305572,32.4791129 5.8134011,32.9632299 C5.36082713,33.447004 5.10402569,34.0869505 5.1005971,34.7587828 L5.1005971,35.1631851 C5.11328289,36.598736 6.28140373,37.7716569 7.71318319,37.7961713 L7.71318319,38.4844609 C7.72552612,40.2986996 9.21182018,41.7872223 11.0286304,41.8028224 L12.7429257,41.8028224 L12.7429257,45.4928431 C12.7461829,46.8718222 13.870932,47.9965714 15.2507684,48 L41.372515,48 C42.7516656,47.9965714 43.8762433,46.8716508 43.8796719,45.4919859 L43.8796719,31.5482505 C44.764934,31.0948194 45.3229372,30.1819571 45.3146307,29.1785801 L45.3146307,23.7418638 C45.3111085,22.5521429 44.3404745,21.5844231 43.1510964,21.5844231 L43.1510964,21.5844231 Z" id="Fill-1-Copy" fill="#FFFFFF"></path>
                    <path d="M9.02747925,37.7965142 L16.5703787,37.7965142 L16.5703787,38.4822323 C16.5703787,39.3770945 15.8428318,40.10687 14.9503696,40.1090986 L10.6329168,40.088527 C9.75656905,40.0770412 9.03656501,39.3553229 9.02747925,38.4822323 L9.02747925,37.7965142 Z M14.0572218,41.8028224 L14.9285981,41.8028224 C16.7553512,41.7999081 18.2515882,40.3108711 18.2641025,38.4822323 L18.2641025,37.7961713 C19.705482,37.7719997 20.8715457,36.5906788 20.8715457,35.1444993 L20.8715457,34.7433542 C20.8717172,34.532153 20.845317,34.3206089 20.7940596,34.1150649 L24.3515653,35.1786137 L24.3515653,37.2458825 C24.349851,37.5451985 24.5077376,37.8278858 24.7650533,37.9844009 L27.4645542,39.6018386 C27.7294128,39.7547537 28.0582146,39.7544109 28.3266733,39.5992671 L31.0234313,37.9830295 C31.2790327,37.8277143 31.4367479,37.5453699 31.4350336,37.2479396 L31.4350336,35.1940424 L41.7305771,32.1125965 L41.7653773,45.4921574 C41.7653773,45.9294741 41.4091467,46.2857047 40.9716586,46.2857047 L14.8509405,46.2857047 C14.4132809,46.2857047 14.0572218,45.9294741 14.0572218,45.4919859 L14.0572218,41.8028224 Z M26.0658606,36.7453083 L26.0658606,32.7153428 L29.7361669,32.7153428 L29.7361669,36.7451368 L27.8986137,37.8458859 L26.0658606,36.7453083 Z M6.41489315,34.7431827 C6.41489315,34.2263227 6.83558123,33.8056346 7.3526127,33.8056346 L18.2246737,33.8056346 C18.7387909,33.8056346 19.1572504,34.2263227 19.1572504,34.7431827 L19.1572504,35.1444993 C19.1572504,35.6594736 18.738448,36.0799902 18.2246737,36.0822188 L7.35398414,36.0822188 C6.83815267,36.0799902 6.41695031,35.6589593 6.41489315,35.1444993 L6.41489315,34.7431827 Z M12.0000674,28.1158884 L13.6029335,28.1158884 L13.6029335,18.9836657 L12.0000674,18.9836657 L12.0000674,28.1158884 Z M8.37570416,13.4348345 L8.39353283,13.4348345 C9.43445296,13.4442632 10.283372,14.2990108 10.285772,15.3394167 L10.285772,17.2541131 L8.35856121,17.2541131 C7.84855834,17.2494845 7.37078423,17.046512 7.01335365,16.6823956 C6.65609451,16.3184507 6.46169342,15.8370766 6.46649344,15.3269023 C6.47592207,14.2835822 7.33238402,13.4348345 8.37570416,13.4348345 L8.37570416,13.4348345 Z M17.2214681,13.4449489 L17.2214681,13.1878046 L17.2305539,13.4449489 C17.7391853,13.4471775 18.2166165,13.6475786 18.5747328,14.0089521 C18.9328491,14.3703255 19.1286217,14.8494711 19.1264119,15.3581025 C19.1215931,16.4036512 18.2668454,17.2541131 17.2194109,17.2541131 L15.3172288,17.2671418 L15.3172288,15.3407881 C15.3196289,14.8321567 15.5198585,14.3547254 15.8810606,13.9966091 C16.2402054,13.6408928 16.7162653,13.4449489 17.2214681,13.4449489 L17.2214681,13.4449489 Z M19.1572504,30.7679033 L19.1572504,31.1690484 C19.1572504,31.6840227 18.738448,32.1045393 18.2246737,32.1067679 L7.35398414,32.1067679 C6.83815267,32.1045393 6.41695031,31.6835084 6.41489315,31.1690484 L6.41489315,30.7679033 C6.41489315,30.2508718 6.83558123,29.8301837 7.3526127,29.8301837 L18.2246737,29.8301837 C18.7387909,29.8301837 19.1572504,30.2508718 19.1572504,30.7679033 L19.1572504,30.7679033 Z M12.8368149,1.89145546 C15.8092316,1.89145546 18.5601613,2.91077547 20.5828584,4.76152871 C22.65647,6.65891079 23.8065908,9.30595422 23.8216604,12.214942 C23.8237337,12.6315157 23.8019622,13.053061 23.7563619,13.4718633 C23.4395601,16.9155398 21.6818931,19.7074412 20.131313,22.1700264 C18.9086776,24.0881515 17.6457562,26.0693626 17.3764404,28.1158884 L15.3172288,28.1158884 L15.3172288,18.9838371 L17.2271253,18.9838371 C18.1927878,18.9838371 19.1013644,18.608235 19.7853682,17.9262883 C20.4710863,17.2429702 20.8494313,16.3333651 20.8508028,15.365474 C20.8523456,14.3972399 20.4769149,13.4866063 19.7934254,12.801231 C19.1099358,12.1155129 18.2005022,11.7371679 17.2267824,11.7357964 C15.2409427,11.7357964 13.6152764,13.3515198 13.6029335,15.3392452 L13.6029335,17.2541131 L12.0000674,17.2541131 L12.0000674,15.3382167 C11.9937245,13.3477483 10.3685725,11.7306535 8.37553273,11.7306535 L8.36987556,11.7306535 C7.40318441,11.7337393 6.49546503,12.1129414 5.81420407,12.7986595 C5.13277167,13.4843777 4.75922672,14.3943256 4.76231245,15.3608454 C4.76865534,17.3501137 6.39209302,18.9684085 8.3811899,18.9684085 L10.285772,18.9684085 L10.285772,28.1158884 L8.14170285,28.1158884 C7.86210128,26.1033057 6.6653517,24.1999235 5.40123032,22.1890551 L5.39025883,22.1713979 C3.83899298,19.7079555 2.08098311,16.9157112 1.75886702,13.4643204 L1.7581813,13.458149 C1.71414923,13.0820326 1.71414923,12.6999161 1.71414923,12.3287712 C1.68378088,6.41136655 6.43649327,1.92436993 12.7706431,1.89145546 L12.8368149,1.89145546 Z M30.5933146,30.9907617 L25.2087129,30.9907617 C24.7360817,30.9907617 24.3515653,31.3752781 24.3515653,31.8479093 L24.3515653,33.393518 L20.6219443,32.2812832 C20.7865167,31.9315669 20.87206,31.5492791 20.8715457,31.1587626 L20.8715457,30.7680747 C20.8718886,29.6489827 20.1350845,28.631377 19.0898786,28.2658892 C19.3360514,26.6623374 20.3505714,25.0248425 21.4379489,23.2987185 L42.7572686,23.2987185 C43.0000128,23.3019756 43.1985282,23.5018625 43.2002503,23.742721 L43.2002503,29.1799515 C43.2019568,29.5982396 42.9225267,29.9719559 42.5193244,30.0895566 L31.4504623,33.393518 L31.4504623,31.8479093 C31.4504623,31.3752781 31.0659458,30.9907617 30.5933146,30.9907617 L30.5933146,30.9907617 Z M42.7510971,21.5844231 L22.5023549,21.5844231 C23.8914484,19.2769816 25.1685984,16.7139387 25.4519714,13.6372928 C25.498086,13.2056333 25.521229,12.7647165 25.5205433,12.3184854 C25.4005426,8.91509489 23.9593345,5.75890574 21.4621205,3.43123553 C18.9643922,1.10322246 15.7122025,-0.113241509 12.3105262,0.0083020309 C5.6426031,0.243160492 0.23520132,5.65193371 0,12.3306569 C0,12.7571736 0.0212572622,13.1938046 0.0630860684,13.6275213 C0.414688042,17.4176569 2.25121264,20.3617877 3.87139316,22.9596309 L3.96602226,23.1110031 C5.15711466,25.0167853 6.19237762,26.672966 6.43717899,28.2914322 C5.40860179,28.6680629 4.70488355,29.6558399 4.70059782,30.7679033 L4.70059782,31.1717913 C4.70608356,31.8403664 4.96305643,32.4791129 5.41340182,32.9632299 C4.96082785,33.447004 4.70402641,34.0869505 4.70059782,34.7587828 L4.70059782,35.1631851 C4.7132836,36.598736 5.88140444,37.7716569 7.31318391,37.7961713 L7.31318391,38.4844609 C7.32552684,40.2986996 8.81182089,41.7872223 10.6286311,41.8028224 L12.3429264,41.8028224 L12.3429264,45.4928431 C12.3461836,46.8718222 13.4709328,47.9965714 14.8507691,48 L40.9725157,48 C42.3516663,47.9965714 43.4762441,46.8716508 43.4796726,45.4919859 L43.4796726,31.5482505 C44.3649348,31.0948194 44.9229379,30.1819571 44.9146314,29.1785801 L44.9146314,23.7418638 C44.9111092,22.5521429 43.9404752,21.5844231 42.7510971,21.5844231 L42.7510971,21.5844231 Z" id="Fill-1" fill="#141313"></path>
                    <polygon id="Path-17" fill="#3384F7" points="19.0297878 27.4273182 43.2861054 27.3772089 43.2002503 23.2987185 21.4379489 23.2987185 19.0898786 25.8224184"></polygon>
                </g>
            </g>
        </g>
    </g>
</svg>