<?xml version="1.0" encoding="UTF-8"?>
<svg width="80px" height="80px" viewBox="0 0 80 80" version="1.1" xmlns="http://www.w3.org/2000/svg" xmlns:xlink="http://www.w3.org/1999/xlink">
    <title>734ECE4E-9F8D-4058-9C5A-10B866CA3659</title>
    <g id="Page-1" stroke="none" stroke-width="1" fill="none" fill-rule="evenodd">
        <g id="Index_Geolocation" transform="translate(-668.000000, -4440.000000)">
            <g id="Icons/80x80/Selling-franchises" transform="translate(664.500000, 4440.000000)">
                <path d="M29.6981776,5.40352645 C19.7552597,2.68797306 11.0542538,13.678269 3.5951599,38.3744142 C1.25278785,46.1297142 4.37993057,54.4942644 11.2354625,58.8108681 L24.0099329,66.8543469 C35.0653462,73.8154181 48.7763697,75.0910751 60.9262129,70.2889936 C74.563795,64.898901 81.9321267,59.2019835 83.031208,53.1982412 C83.9258524,48.3112376 83.5399898,42.9816 81.8736202,37.2093282 L81.8736204,37.2093282 C79.5233671,29.0680961 73.6127219,22.429142 65.7980207,19.1528949 C48.0509947,11.7126051 36.0177136,7.1294823 29.6981776,5.40352645 Z" id="Path-5" fill="#F4F5F8"></path>
                <g id="Group" transform="translate(22.500000, 16.000000)">
                    <g id="shopping-bag-copy" transform="translate(0.000000, 14.237502)" fill="#FFFFFF" fill-rule="nonzero">
                        <path d="M39.0504244,0.77176779 C39.0280197,0.339406218 38.6709758,0 38.2376609,0 L2.44103052,0 C2.00771556,0 1.65067166,0.339167871 1.62826703,0.77176779 L0.00107163257,32.5005288 C-0.0103690265,32.723145 0.0701922809,32.9409942 0.22368779,33.1025935 C0.377421645,33.2639545 0.59050392,33.3557181 0.813596771,33.3557181 L39.8643796,33.3557181 C40.0872341,33.3557181 40.3005547,33.2641928 40.4550036,33.1025935 C40.6082608,32.9409942 40.6888221,32.7233833 40.6776198,32.5005288 L39.0504244,0.77176779 Z" id="Shape"></path>
                    </g>
                    <g id="shopping-bag" transform="translate(0.813559, 0.000000)">
                        <polygon id="Path-15" fill="#3384F7" points="20.3393249 9.31895731 19.051914 3.42981424 6.5162886 5.60639962 6.5162886 14.6442819 12.7870566 14.6442819 11.7966294 11.9815213"></polygon>
                        <path d="M27.1845542,5.93126667 C26.7021397,2.55007523 23.7590302,0 20.3389882,0 C18.1395215,0 16.0506478,1.06135947 14.7518947,2.8401436 C14.4866144,3.20290783 14.565984,3.71177881 14.9287482,3.9770591 C15.2903207,4.24138599 15.8003834,4.1629698 16.065187,3.79972888 C17.0593326,2.43948219 18.6567346,1.6271954 20.3387498,1.6271954 C22.9543705,1.6271954 25.2046051,3.57639768 25.5735664,6.16079489 C25.6317231,6.56669994 25.9799481,6.85962848 26.3782261,6.85962848 C26.4161232,6.85962848 26.4552122,6.85676831 26.4940627,6.85152468 C26.9388184,6.78788601 27.2479545,6.37578394 27.1845542,5.93126667 Z" id="Path" fill="#000000" fill-rule="nonzero"></path>
                        <path d="M38.934826,15.0387463 L36.4941521,10.970877 C36.3473303,10.7256178 36.0825267,10.5759359 35.7965103,10.5759359 L33.4576105,10.5759359 C33.0085647,10.5759359 32.644132,10.9403685 32.644132,11.3894144 C32.644132,11.8384603 33.0085647,12.2028929 33.4576105,12.2028929 L35.3360237,12.2028929 L36.8004281,14.6435669 L3.87730992,14.6435669 L5.34171428,12.2028929 L6.20333891,12.2028929 C6.65238478,12.2028929 7.01681744,11.8384603 7.01681744,11.3894144 C7.01681744,10.9403685 6.65238478,10.5759359 6.20333891,10.5759359 L4.88122775,10.5759359 C4.59521127,10.5759359 4.33040769,10.7256178 4.1835859,10.970877 L1.74291197,15.0387463 C1.59203828,15.2904408 1.58846307,15.6033905 1.73266305,15.8584218 C1.87686302,16.1134532 2.14714859,16.271239 2.44055382,16.271239 L38.2371842,16.271239 C38.5305894,16.271239 38.8006366,16.1134532 38.945075,15.8584218 C39.0895133,15.6033905 39.0856997,15.2899641 38.934826,15.0387463 Z" id="Path" fill="#000000" fill-rule="nonzero"></path>
                        <path d="M34.8795891,7.53724918 C34.7656592,7.35348359 34.5838004,7.22310775 34.3735783,7.17400825 L23.2830511,4.58007716 C23.0730673,4.53073932 22.8518813,4.56744477 22.668354,4.68089797 C22.4853035,4.79482787 22.3546893,4.97668668 22.3055898,5.18690879 L21.46923,8.76211473 C21.3667407,9.1994816 21.6384564,9.6370868 22.0760616,9.73909935 C22.5134284,9.84158858 22.9515103,9.56987293 23.0535229,9.13226772 L23.7046871,6.34956576 L33.210683,8.57310551 L31.7169619,14.9596151 C31.6144727,15.3969819 31.8861883,15.8345871 32.3237936,15.9365997 C32.3864788,15.9511389 32.4486874,15.9580509 32.510181,15.9580509 C32.8796189,15.9580509 33.2140198,15.7049263 33.3010165,15.3300064 L34.9801716,8.15146956 C35.0297478,7.9414858 34.993519,7.72029972 34.8795891,7.53724918 Z" id="Path" fill="#000000" fill-rule="nonzero"></path>
                        <path d="M20.7692046,9.46047163 L20.0279453,3.19075213 C20.0026805,2.97647812 19.8932792,2.78079519 19.7235761,2.64732083 C19.553873,2.51384647 19.3395989,2.45282963 19.1243715,2.47809442 L5.51713771,4.0864604 C5.07119036,4.13937345 4.75228199,4.54361006 4.80495669,4.99003411 L6.04078621,15.4470348 C6.08988571,15.8610437 6.44097093,16.1654129 6.84782937,16.1654129 C6.87952953,16.1654129 6.91218307,16.1632677 6.94459828,16.1596925 C7.39030728,16.1067795 7.70921565,15.7025429 7.6567793,15.2561188 L6.5162886,5.60639962 L18.5077677,4.18918798 L19.1532115,9.65091093 C19.2061246,10.0970966 19.6084544,10.4140982 20.0567853,10.3635687 C20.5027326,10.3111323 20.821641,9.90665733 20.7692046,9.46047163 Z" id="Path" fill="#000000" fill-rule="nonzero"></path>
                        <path d="M27.2033836,15.1483859 L25.5885822,8.43319579 C25.5380527,8.22368872 25.4062467,8.0423066 25.2224812,7.92956844 C25.0387156,7.81778367 24.8182445,7.78274665 24.6073074,7.83279954 L11.5013174,10.9847011 C11.0644273,11.0895738 10.7955718,11.5290858 10.9004445,11.965976 L11.7074876,15.3223793 C11.8123603,15.7597462 12.2518723,16.02884 12.6885241,15.9232522 C13.1254143,15.8183795 13.3942698,15.3788676 13.2893971,14.9419774 L12.6723165,12.3764096 L24.1963971,9.60538664 L25.6209974,15.5292646 C25.7103776,15.9022777 26.0440635,16.1525421 26.4113563,16.1525421 C26.4745183,16.1525421 26.5383953,16.1451534 26.6025107,16.1296608 C27.0394008,16.0245497 27.3082563,15.5852761 27.2033836,15.1483859 Z" id="Path" fill="#000000" fill-rule="nonzero"></path>
                        <path d="M39.0504244,15.4160497 C39.0280197,14.9836881 38.6709758,14.6442819 38.2376609,14.6442819 L2.44103052,14.6442819 C2.00771556,14.6442819 1.65067166,14.9834498 1.62826703,15.4160497 L0.00107163257,47.1448107 C-0.0103690265,47.3674269 0.0701922809,47.5852761 0.22368779,47.7468754 C0.377421645,47.9082364 0.59050392,48 0.813596771,48 L39.8643796,48 C40.0872341,48 40.3005547,47.9084747 40.4550036,47.7468754 C40.6082608,47.5852761 40.6888221,47.3676652 40.6776198,47.1448107 L39.0504244,15.4160497 Z M1.66973942,46.3728046 L3.21351335,16.271239 L37.4642247,16.271239 L39.0079986,46.3728046 L1.66973942,46.3728046 Z" id="Shape" fill="#000000" fill-rule="nonzero"></path>
                        <path d="M26.440673,17.898196 C25.0947271,17.898196 23.9999991,18.9929241 23.9999991,20.3388699 C23.9999991,21.6848158 25.0947271,22.7795439 26.440673,22.7795439 C27.7866189,22.7795439 28.8813469,21.6848158 28.8813469,20.3388699 C28.8813469,18.9929241 27.7866189,17.898196 26.440673,17.898196 Z M26.440673,21.1525868 C25.9918655,21.1525868 25.6271945,20.7876775 25.6271945,20.3391083 C25.6271945,19.8905391 25.9921038,19.5256298 26.440673,19.5256298 C26.8892422,19.5256298 27.2541515,19.8905391 27.2541515,20.3391083 C27.2541515,20.7876775 26.8892422,21.1525868 26.440673,21.1525868 Z" id="Shape" fill="#000000" fill-rule="nonzero"></path>
                        <path d="M14.2373034,17.898196 C12.8913575,17.898196 11.7966294,18.9929241 11.7966294,20.3388699 C11.7966294,21.6848158 12.8913575,22.7795439 14.2373034,22.7795439 C15.5832492,22.7795439 16.6779773,21.6848158 16.6779773,20.3388699 C16.6779773,18.9929241 15.5832492,17.898196 14.2373034,17.898196 Z M14.2373034,21.1525868 C13.7887342,21.1525868 13.4238248,20.7876775 13.4238248,20.3391083 C13.4238248,19.8905391 13.7887342,19.5256298 14.2373034,19.5256298 C14.6858725,19.5256298 15.0507819,19.8905391 15.0507819,20.3391083 C15.0507819,20.7876775 14.6858725,21.1525868 14.2373034,21.1525868 Z" id="Shape" fill="#000000" fill-rule="nonzero"></path>
                        <path d="M26.440673,20.3388699 L26.3779877,20.3388699 C25.9289419,20.3388699 25.5645092,20.7033026 25.5645092,21.1523485 C25.5645092,21.2634182 25.5864371,21.3694826 25.6271945,21.4660132 L25.6271945,25.6268379 C25.6271945,28.5425375 23.2549262,30.9150442 20.3389882,30.9150442 C17.4230502,30.9150442 15.0507819,28.5427758 15.0507819,25.6268379 L15.0507819,21.1525868 C15.0507819,20.7035409 14.6863492,20.3391083 14.2373034,20.3391083 C13.7882575,20.3391083 13.4238248,20.7035409 13.4238248,21.1525868 L13.4238248,25.6270762 C13.4238248,29.4401525 16.5259119,32.5422396 20.3389882,32.5422396 C24.1520645,32.5422396 27.2541515,29.4401525 27.2541515,25.6270762 L27.2541515,21.1525868 C27.2541515,20.7035409 26.8897189,20.3388699 26.440673,20.3388699 Z" id="Path" fill="#000000" fill-rule="nonzero"></path>
                    </g>
                </g>
            </g>
        </g>
    </g>
</svg>