<?xml version="1.0" encoding="UTF-8"?>
<svg width="24px" height="24px" viewBox="0 0 24 24" version="1.1" xmlns="http://www.w3.org/2000/svg" xmlns:xlink="http://www.w3.org/1999/xlink">
    <title>BD3C6358-D010-4704-AC6C-1937AAEFA07B</title>
    <g id="Page-1" stroke="none" stroke-width="1" fill="none" fill-rule="evenodd">
        <g id="Index_Rating" transform="translate(-1196.000000, -5048.000000)" fill-rule="nonzero">
            <g id="Icons/24x24/review" transform="translate(1196.000000, 5048.000000)">
                <path d="M4.59867572,15.417732 L8.47575843,15.417732 C8.68675613,15.4704814 8.89775383,15.5759802 9.18787566,15.7342285 C9.97911703,16.1298492 11.1659791,16.7628423 13.645202,16.7628423 L18.049779,16.7628423 C18.9465192,16.7628423 19.7113859,16.1298492 19.8432594,15.3122331 C19.9223836,14.8111136 19.79051,14.2836193 19.4476388,13.8879987 C19.4476388,13.8879987 19.4476388,13.8879987 19.4476388,13.8879987 C19.7641353,13.6242515 19.975133,13.2813803 20.0278824,12.8593849 C20.1070066,12.3582653 19.975133,11.8307711 19.6322617,11.4351504 C19.6322617,11.4351504 19.6322617,11.4351504 19.6322617,11.4351504 C19.9487583,11.1714033 20.159756,10.828532 20.2125054,10.4065366 C20.2916296,9.9054171 20.159756,9.37792285 19.8168847,8.98230217 C19.8168847,8.98230217 19.8168847,8.98230217 19.8168847,8.98230217 C20.1333813,8.71855504 20.344379,8.37568378 20.3971284,7.95368838 C20.4762525,7.45256885 20.344379,6.9250746 20.0015077,6.52945392 C19.6586365,6.13383323 19.1838916,5.89646082 18.6563974,5.89646082 L14.9639377,5.89646082 C15.0694365,5.28984244 15.1749354,4.81509762 15.3068089,4.36672751 C15.4650572,3.7073597 15.6233055,3.0743666 15.7288043,2.04575282 C15.8343032,0.858890767 15.0166871,0.173148247 14.2254457,0.0412746849 C13.3550802,-0.0905988767 12.3792159,0.331396521 12.1154687,1.43913444 C11.5088503,4.18210452 9.16150095,6.0547091 8.47575843,6.58220334 C8.44938372,6.60857806 8.423009,6.63495277 8.37025958,6.66132748 L4.59867572,6.66132748 C3.96568262,6.66132748 3.43818837,7.18882173 3.43818837,7.82181482 L3.43818837,14.3099941 C3.43818837,14.8902377 3.96568262,15.417732 4.59867572,15.417732 Z" id="Shape" fill="#FFFFFF"></path>
                <path d="M4.59867572,15.417732 L8.47575843,15.417732 C8.68675613,15.4704814 8.89775383,15.5759802 9.18787566,15.7342285 C9.97911703,16.1298492 11.1659791,16.7628423 13.645202,16.7628423 L18.049779,16.7628423 C18.9465192,16.7628423 19.7113859,16.1298492 19.8432594,15.3122331 C19.9223836,14.8111136 19.79051,14.2836193 19.4476388,13.8879987 C19.4476388,13.8879987 19.4476388,13.8879987 19.4476388,13.8879987 C19.7641353,13.6242515 19.975133,13.2813803 20.0278824,12.8593849 C20.1070066,12.3582653 19.975133,11.8307711 19.6322617,11.4351504 C19.6322617,11.4351504 19.6322617,11.4351504 19.6322617,11.4351504 C19.9487583,11.1714033 20.159756,10.828532 20.2125054,10.4065366 C20.2916296,9.9054171 20.159756,9.37792285 19.8168847,8.98230217 C19.8168847,8.98230217 19.8168847,8.98230217 19.8168847,8.98230217 C20.1333813,8.71855504 20.344379,8.37568378 20.3971284,7.95368838 C20.4762525,7.45256885 20.344379,6.9250746 20.0015077,6.52945392 C19.6586365,6.13383323 19.1838916,5.89646082 18.6563974,5.89646082 L14.9639377,5.89646082 C15.0694365,5.28984244 15.1749354,4.81509762 15.3068089,4.36672751 C15.4650572,3.7073597 15.6233055,3.0743666 15.7288043,2.04575282 C15.8343032,0.858890767 15.0166871,0.173148247 14.2254457,0.0412746849 C13.3550802,-0.0905988767 12.3792159,0.331396521 12.1154687,1.43913444 C11.5088503,4.18210452 9.16150095,6.0547091 8.47575843,6.58220334 C8.44938372,6.60857806 8.423009,6.63495277 8.37025958,6.66132748 L4.59867572,6.66132748 C3.96568262,6.66132748 3.43818837,7.18882173 3.43818837,7.82181482 L3.43818837,14.3099941 C3.43818837,14.8902377 3.96568262,15.417732 4.59867572,15.417732 Z M9.08237681,7.45256885 C9.10875152,7.45256885 9.10875152,7.42619414 9.13512624,7.42619414 C9.89999289,6.87232518 12.5110894,4.7887229 13.1968319,1.67650685 C13.3287055,1.09626318 13.829825,1.04351375 14.0935722,1.06988847 C14.4364434,1.12263789 14.7793147,1.38638501 14.7265653,1.91387926 C14.6210664,2.8633689 14.4891928,3.46998729 14.3309446,4.07660567 C14.199071,4.60409992 14.0671974,5.13159416 13.9616986,5.89646082 C13.9089492,6.16020795 13.9880733,6.42395507 14.1726963,6.60857806 C14.3309446,6.79320104 14.5946917,6.9250746 14.8584388,6.9250746 L18.7618962,6.9250746 C18.9728939,6.9250746 19.1575169,7.00419874 19.2893905,7.16244701 C19.421264,7.32069529 19.4740135,7.53169299 19.4476388,7.74269069 C19.3948893,8.05918723 19.0520181,8.32293436 18.6827721,8.32293436 L18.1025284,8.32293436 C17.8124066,8.32293436 17.5750342,8.56030677 17.5750342,8.8504286 C17.5750342,9.14055044 17.8124066,9.37792285 18.1025284,9.37792285 L18.5508985,9.37792285 C18.7618962,9.37792285 18.9465192,9.45704699 19.0783928,9.64166997 C19.2102663,9.79991825 19.2630158,10.0109159 19.2366411,10.2219136 C19.1838916,10.5384102 18.8410204,10.8021573 18.4717744,10.8021573 L17.8915307,10.8021573 C17.6014089,10.8021573 17.3640365,11.0395297 17.3640365,11.3296516 C17.3640365,11.6197734 17.6014089,11.8571458 17.8915307,11.8571458 L18.3399008,11.8571458 C18.5508985,11.8571458 18.7355215,11.9362699 18.8673951,12.1208929 C18.9992686,12.2791412 19.0520181,12.4901389 19.0256434,12.7011366 C18.9728939,13.0176332 18.6300227,13.2813803 18.2607767,13.2813803 L17.680533,13.2813803 C17.3904112,13.2813803 17.1530388,13.5187527 17.1530388,13.8088745 C17.1530388,14.0989964 17.3904112,14.3363688 17.680533,14.3363688 L18.1289031,14.3363688 C18.3399008,14.3363688 18.5245238,14.4154929 18.6563974,14.6001159 C18.7882709,14.7583642 18.8410204,14.9693619 18.8146457,15.1803596 C18.7618962,15.5232308 18.419025,15.7606032 18.049779,15.7606032 L13.645202,15.7606032 C11.4033515,15.7606032 10.4011124,15.233109 9.66262048,14.863863 C9.4779975,14.7583642 9.2669998,14.6528653 9.08237681,14.5737412 L9.08237681,7.45256885 Z M4.49317687,7.7690654 C4.49317687,7.71631597 4.54592629,7.66356655 4.59867572,7.66356655 L8.02738832,7.66356655 L8.02738832,14.3627435 L4.59867572,14.3627435 C4.54592629,14.3627435 4.49317687,14.3099941 4.49317687,14.2572446 L4.49317687,7.7690654 L4.49317687,7.7690654 Z" id="Shape-Copy" fill="#202023"></path>
                <path d="M5.37574221,22.5706966 C5.4038597,22.5706966 5.43187802,22.5779502 5.45675627,22.5916604 L6.95053093,23.4149311 C6.97464895,23.4282139 7.00018827,23.4349708 7.02644375,23.4349708 C7.07449248,23.4349708 7.12017238,23.4124478 7.15172743,23.3731883 C7.18284177,23.3345063 7.19541311,23.2853367 7.1871277,23.2347233 L6.90184316,21.4909862 C6.8921585,21.4317679 6.91086676,21.3713944 6.95191918,21.3294553 L8.1604093,20.094532 C8.20517472,20.0487813 8.2209853,19.9816394 8.20167105,19.919314 C8.18234579,19.856977 8.13190619,19.8123929 8.07001906,19.8029563 L6.39992615,19.5485494 C6.34322843,19.5399098 6.29422114,19.5025907 6.26885811,19.4487201 L5.52195976,17.8622173 C5.49428298,17.8034378 5.43825735,17.7669273 5.37574221,17.7669273 C5.31321605,17.7669273 5.25719041,17.8034378 5.22952465,17.8622173 L4.48262631,19.4487201 C4.45726327,19.5025907 4.40826701,19.5399213 4.35155826,19.5485494 L2.68145433,19.8029678 C2.61957823,19.8123929 2.56913863,19.856977 2.54982438,19.919314 C2.53051013,19.9816509 2.54632071,20.0487928 2.59108613,20.0945436 L3.79957625,21.3294669 C3.84061765,21.371406 3.85933694,21.431791 3.84964125,21.4909978 L3.56435671,23.2347349 C3.55608232,23.2853483 3.56865366,23.3345294 3.59975698,23.3732114 C3.63132305,23.4124478 3.67699193,23.4349708 3.72504067,23.4349708 C3.75130716,23.4349708 3.77684648,23.4282255 3.80095348,23.4149426 L5.29472814,22.591672 C5.31962843,22.5779502 5.34763574,22.5706966 5.37574221,22.5706966 Z" id="Shape-Copy-4" fill="#CBEC4C"></path>
                <path d="M12.8209385,23.0871435 C12.849056,23.0871435 12.8770743,23.0943971 12.9019526,23.1081073 L14.3957272,23.9313779 C14.4198453,23.9446608 14.4453846,23.9514177 14.4716401,23.9514177 C14.5196888,23.9514177 14.5653687,23.9288946 14.5969237,23.8896351 C14.6280381,23.8509532 14.6406094,23.8017836 14.632324,23.7511702 L14.3470395,22.0074331 C14.3373548,21.9482147 14.3560631,21.8878413 14.3971155,21.8459022 L15.6056056,20.6109788 C15.650371,20.5652281 15.6661816,20.4980862 15.6468674,20.4357608 C15.6275421,20.3734239 15.5771025,20.3288397 15.5152154,20.3194031 L13.8451225,20.0649962 C13.7884247,20.0563566 13.7394175,20.0190376 13.7140544,19.965167 L12.9671561,18.3786641 C12.9394793,18.3198847 12.8834537,18.2833742 12.8209385,18.2833742 C12.7584124,18.2833742 12.7023867,18.3198847 12.674721,18.3786641 L11.9278226,19.965167 C11.9024596,20.0190376 11.8534633,20.0563681 11.7967546,20.0649962 L10.1266507,20.3194147 C10.0647745,20.3288397 10.0143349,20.3734239 9.9950207,20.4357608 C9.97570645,20.4980978 9.99151703,20.5652397 10.0362825,20.6109904 L11.2447726,21.8459137 C11.285814,21.8878528 11.3045333,21.9482378 11.2948376,22.0074446 L11.009553,23.7511817 C11.0012786,23.8017951 11.01385,23.8509763 11.0449533,23.8896582 C11.0765194,23.9288946 11.1221883,23.9514177 11.170237,23.9514177 C11.1965035,23.9514177 11.2220428,23.9446723 11.2461498,23.9313895 L12.7399245,23.1081188 C12.7648247,23.0943971 12.7928321,23.0871435 12.8209385,23.0871435 Z" id="Shape-Copy-5" fill="#CBEC4C"></path>
                <path d="M19.7468529,23.0276657 C19.7749703,23.0276657 19.8029887,23.0349193 19.8278669,23.0486295 L21.3216416,23.8719002 C21.3457596,23.885183 21.3712989,23.8919399 21.3975544,23.8919399 C21.4456031,23.8919399 21.491283,23.8694169 21.5228381,23.8301574 C21.5539524,23.7914754 21.5665238,23.7423058 21.5582384,23.6916924 L21.2729538,21.9479553 C21.2632691,21.888737 21.2819774,21.8283635 21.3230298,21.7864244 L22.5315199,20.5515011 C22.5762854,20.5057504 22.5920959,20.4386085 22.5727817,20.3762831 C22.5534564,20.3139461 22.5030168,20.269362 22.4411297,20.2599254 L20.7710368,20.0055185 C20.7143391,19.9968789 20.6653318,19.9595598 20.6399688,19.9056892 L19.8930704,18.3191864 C19.8653936,18.2604069 19.809368,18.2238964 19.7468529,18.2238964 C19.6843267,18.2238964 19.6283011,18.2604069 19.6006353,18.3191864 L18.853737,19.9056892 C18.8283739,19.9595598 18.7793777,19.9968904 18.7226689,20.0055185 L17.052565,20.2599369 C16.9906889,20.269362 16.9402493,20.3139461 16.920935,20.3762831 C16.9016208,20.43862 16.9174314,20.5057619 16.9621968,20.5515127 L18.1706869,21.786436 C18.2117283,21.8283751 18.2304476,21.8887601 18.2207519,21.9479669 L17.9354674,23.691704 C17.927193,23.7423174 17.9397643,23.7914985 17.9708676,23.8301805 C18.0024337,23.8694169 18.0481026,23.8919399 18.0961513,23.8919399 C18.1224178,23.8919399 18.1479571,23.8851946 18.1720641,23.8719117 L19.6658388,23.0486411 C19.6907391,23.0349193 19.7187464,23.0276657 19.7468529,23.0276657 Z" id="Shape-Copy-6" fill="#CBEC4C"></path>
                <path d="M5.35752168,22.6650869 C5.38563917,22.6650869 5.4136575,22.6723405 5.43853575,22.6860507 L6.93231041,23.5093213 C6.95642843,23.5226042 6.98196774,23.5293611 7.00822322,23.5293611 C7.05627195,23.5293611 7.10195186,23.506838 7.13350691,23.4675786 C7.16462124,23.4288966 7.17719258,23.379727 7.16890718,23.3291136 L6.88362264,21.5853765 C6.87393797,21.5261581 6.89264624,21.4657847 6.93369865,21.4238456 L8.14218877,20.1889223 C8.18695419,20.1431715 8.20276477,20.0760297 8.18345053,20.0137042 C8.16412526,19.9513673 8.11368566,19.9067831 8.05179854,19.8973465 L6.38170563,19.6429396 C6.3250079,19.6343 6.27600062,19.596981 6.25063758,19.5431104 L5.50373924,17.9566076 C5.47606246,17.8978281 5.42003682,17.8613176 5.35752168,17.8613176 C5.29499553,17.8613176 5.23896989,17.8978281 5.21130413,17.9566076 L4.46440578,19.5431104 C4.43904275,19.596981 4.39004648,19.6343116 4.33333774,19.6429396 L2.66323381,19.8973581 C2.6013577,19.9067831 2.5509181,19.9513673 2.53160385,20.0137042 C2.51228961,20.0760412 2.52810019,20.1431831 2.57286561,20.1889338 L3.78135573,21.4238571 C3.82239713,21.4657963 3.84111641,21.5261812 3.83142072,21.5853881 L3.54613619,23.3291251 C3.5378618,23.3797385 3.55043314,23.4289197 3.58153646,23.4676017 C3.61310252,23.506838 3.65877141,23.5293611 3.70682014,23.5293611 C3.73308664,23.5293611 3.75862596,23.5226157 3.78273296,23.5093329 L5.27650762,22.6860622 C5.3014079,22.6723405 5.32941521,22.6650869 5.35752168,22.6650869 Z" id="Shape-Copy" stroke="#202023" stroke-width="0.8"></path>
                <path d="M19.5461471,22.5944209 C19.5742645,22.5944209 19.6022829,22.6016745 19.6271611,22.6153847 L21.1209358,23.4386554 C21.1450538,23.4519382 21.1705931,23.4586952 21.1968486,23.4586952 C21.2448973,23.4586952 21.2905772,23.4361721 21.3221323,23.3969126 C21.3532466,23.3582307 21.365818,23.309061 21.3575326,23.2584476 L21.072248,21.5147106 C21.0625634,21.4554922 21.0812716,21.3951188 21.122324,21.3531796 L22.3308142,20.1182563 C22.3755796,20.0725056 22.3913902,20.0053637 22.3720759,19.9430383 C22.3527506,19.8807013 22.302311,19.8361172 22.2404239,19.8266806 L20.570331,19.5722737 C20.5136333,19.5636341 20.464626,19.5263151 20.439263,19.4724445 L19.6923646,17.8859416 C19.6646878,17.8271621 19.6086622,17.7906516 19.5461471,17.7906516 C19.4836209,17.7906516 19.4275953,17.8271621 19.3999295,17.8859416 L18.6530312,19.4724445 C18.6276681,19.5263151 18.5786719,19.5636456 18.5219631,19.5722737 L16.8518592,19.8266921 C16.7899831,19.8361172 16.7395435,19.8807013 16.7202292,19.9430383 C16.700915,20.0053752 16.7167256,20.0725171 16.761491,20.1182679 L17.9699811,21.3531912 C18.0110225,21.3951303 18.0297418,21.4555153 18.0200461,21.5147221 L17.7347616,23.2584592 C17.7264872,23.3090726 17.7390585,23.3582538 17.7701618,23.3969357 C17.8017279,23.4361721 17.8473968,23.4586952 17.8954455,23.4586952 C17.921712,23.4586952 17.9472513,23.4519498 17.9713583,23.4386669 L19.465133,22.6153963 C19.4900333,22.6016745 19.5180406,22.5944209 19.5461471,22.5944209 Z" id="Shape-Copy-3" stroke="#202023" stroke-width="0.8"></path>
                <path d="M12.6061548,22.6427686 C12.6342723,22.6427686 12.6622906,22.6500222 12.6871689,22.6637324 L14.1809435,23.487003 C14.2050615,23.5002859 14.2306009,23.5070428 14.2568563,23.5070428 C14.3049051,23.5070428 14.350585,23.4845197 14.38214,23.4452602 C14.4132544,23.4065783 14.4258257,23.3574087 14.4175403,23.3067953 L14.1322558,21.5630582 C14.1225711,21.5038398 14.1412794,21.4434664 14.1823318,21.4015273 L15.3908219,20.166604 C15.4355873,20.1208532 15.4513979,20.0537113 15.4320836,19.9913859 C15.4127584,19.929049 15.3623188,19.8844648 15.3004317,19.8750282 L13.6303387,19.6206213 C13.573641,19.6119817 13.5246337,19.5746627 13.4992707,19.5207921 L12.7523724,17.9342892 C12.7246956,17.8755098 12.6686699,17.8389993 12.6061548,17.8389993 C12.5436286,17.8389993 12.487603,17.8755098 12.4599372,17.9342892 L11.7130389,19.5207921 C11.6876759,19.5746627 11.6386796,19.6119933 11.5819709,19.6206213 L9.91186693,19.8750398 C9.84999082,19.8844648 9.79955122,19.929049 9.78023697,19.9913859 C9.76092273,20.0537229 9.77673331,20.1208648 9.82149873,20.1666155 L11.0299888,21.4015388 C11.0710302,21.4434779 11.0897495,21.5038629 11.0800538,21.5630697 L10.7947693,23.3068068 C10.7864949,23.3574202 10.7990663,23.4066014 10.8301696,23.4452833 C10.8617356,23.4845197 10.9074045,23.5070428 10.9554533,23.5070428 C10.9817198,23.5070428 11.0072591,23.5002974 11.0313661,23.4870146 L12.5251407,22.6637439 C12.550041,22.6500222 12.5780483,22.6427686 12.6061548,22.6427686 Z" id="Shape-Copy-2" stroke="#202023" stroke-width="0.8"></path>
            </g>
        </g>
    </g>
</svg>