<?xml version="1.0" encoding="UTF-8"?>
<svg width="24px" height="24px" viewBox="0 0 24 24" version="1.1" xmlns="http://www.w3.org/2000/svg" xmlns:xlink="http://www.w3.org/1999/xlink">
    <title>61DFCFA1-2495-4F8D-ACDC-4546D60119DE</title>
    <g id="Page-1" stroke="none" stroke-width="1" fill="none" fill-rule="evenodd">
        <g id="Index_Rating" transform="translate(-1196.000000, -5288.000000)">
            <g id="Icons/24x24/court" transform="translate(1196.000000, 5288.000000)">
                <path d="M4.34232786,4.89378326 L10.2531137,4.89378326 C10.4680475,5.47010926 10.9593656,5.89900708 11.5594376,6.0341432 L11.5594376,18.451986 L10.6991912,18.451986 C9.77176891,18.451986 8.9950972,19.1435024 8.81233929,19.9832009 L8.65580962,19.9832009 C8.43271078,19.9894246 8.25396463,20.1700203 8.25003767,20.3931713 L8.25003767,22.1812352 C8.25003767,22.3995074 8.43773498,22.5516904 8.65600719,22.5516904 L15.2531725,22.5516904 C15.4714447,22.5516904 15.659142,22.3993592 15.659142,22.1812352 L15.659142,20.3931713 C15.6552108,20.1699459 15.4763486,19.989321 15.2531725,19.9832009 L15.0966428,19.9832009 C14.9138849,19.1435024 14.1374108,18.451986 13.2097909,18.451986 L12.3497421,18.451986 L12.3497421,6.0341432 C12.9498141,5.89900708 13.4411322,5.47010926 13.6560659,4.89378326 L19.5668518,4.89378326 L20.5092405,4.35257288 C20.5077093,4.34847318 20.5057335,4.34466984 20.5043011,4.34066892 C20.5016338,4.33414891 20.4989171,4.3276289 20.4959041,4.32125707 C20.4928911,4.31488524 20.4899768,4.30950129 20.486865,4.30372219 C20.4837532,4.29794309 20.4810365,4.2928555 20.4778259,4.28752095 C20.4746153,4.28218639 20.4704168,4.27571577 20.4665146,4.26993667 C20.4632546,4.26499727 20.4599946,4.26005787 20.4566358,4.25556301 C20.4524867,4.25003088 20.4481895,4.24464693 20.4438428,4.23936177 C20.4394961,4.23407661 20.4360385,4.2300263 20.4319388,4.22548205 C20.4278391,4.22093779 20.4231467,4.21614657 20.4186518,4.21160232 C20.414157,4.20705807 20.4092176,4.20231625 20.4042782,4.19782139 C20.3993388,4.19332653 20.3954366,4.19016531 20.3909418,4.18641137 C20.385459,4.18186712 20.3799269,4.17742166 20.3741478,4.17317377 C20.369653,4.16986437 20.3651087,4.16675255 20.3605151,4.16364072 C20.3544396,4.15959041 20.3483641,4.15558949 20.3420911,4.15183555 C20.3371517,4.14887191 20.3322123,4.14615523 20.3272729,4.14343856 C20.3210492,4.14012916 20.314875,4.13677037 20.3084044,4.13355976 C20.3026747,4.13084309 20.2967968,4.12862035 20.2909189,4.12600247 C20.286424,4.1241255 20.2821761,4.12195216 20.2775825,4.12022337 C20.2759031,4.11963064 20.2742237,4.11923549 20.2726431,4.11864276 C20.2664194,4.11642003 20.260097,4.11459245 20.253824,4.11266608 C20.2475509,4.11073972 20.2413273,4.10876396 20.2350542,4.10718335 C20.2287812,4.10560274 20.2231997,4.10466425 20.2172724,4.10347879 C20.210456,4.10209576 20.203689,4.10056455 20.1968726,4.09957667 C20.1913405,4.09878636 20.185759,4.09839121 20.1802269,4.09779848 C20.1729659,4.09705757 20.165705,4.09616848 20.1584935,4.09582272 C20.1529613,4.09552636 20.1473798,4.09582272 20.1418477,4.09582272 C20.1345374,4.09582272 20.1270295,4.09582272 20.1200649,4.09582272 C20.1142858,4.09611908 20.1085067,4.09690939 20.1026782,4.09745272 C20.0957137,4.09809484 20.0887491,4.09863818 20.0817846,4.09967545 C20.0759067,4.10051515 20.0699794,4.10189819 20.0641015,4.10303425 L13.7616704,4.10303425 C13.679079,3.16653788 12.8947211,2.4483096 11.9545898,2.4483096 C11.0144586,2.4483096 10.2301007,3.16653788 10.1475093,4.10303425 L3.84690576,4.10303425 C3.84043514,4.10175 3.83391513,4.10026818 3.82744451,4.0993297 C3.82196177,4.09853939 3.81638025,4.09814424 3.81079872,4.09755151 C3.8035378,4.0968106 3.79632627,4.09592151 3.78906535,4.09557575 C3.78353322,4.09527939 3.77795169,4.09557575 3.77241956,4.09557575 C3.76515864,4.09557575 3.75789772,4.09557575 3.75063679,4.09557575 C3.74490709,4.09587211 3.73912798,4.09666242 3.73329949,4.09720575 C3.72633493,4.09784787 3.71932098,4.09839121 3.71235642,4.09942848 C3.70652793,4.10026818 3.70065004,4.10160182 3.69477215,4.10278728 C3.68795577,4.10412092 3.68109,4.10535577 3.67432302,4.10703516 C3.66859331,4.10846759 3.662913,4.11034456 3.65718329,4.11197457 C3.65036691,4.11404912 3.64355054,4.11602488 3.63688234,4.11844518 C3.63530174,4.11898852 3.63367173,4.11933428 3.63194294,4.11992701 C3.62754687,4.12155701 3.62344717,4.12368095 3.61914989,4.12545914 C3.61302503,4.12797823 3.60690017,4.13039854 3.60097289,4.13331279 C3.5950456,4.13622704 3.58852559,4.13958583 3.58245012,4.14284584 C3.57751072,4.1456119 3.57222556,4.14837797 3.56723676,4.15134161 C3.56091433,4.15509555 3.55488826,4.15909647 3.54886219,4.16314678 C3.54426854,4.1662586 3.5396749,4.16937043 3.53518004,4.17267983 C3.52945033,4.17692771 3.52386881,4.18137318 3.51838607,4.18591743 C3.51389121,4.18967137 3.50944575,4.19337593 3.50509908,4.19732745 C3.5007524,4.20127897 3.49522027,4.20646534 3.49062663,4.21120717 C3.48603298,4.215949 3.4817357,4.22019688 3.47748781,4.22488932 C3.47323993,4.22958175 3.4692884,4.23422479 3.46538628,4.23901601 C3.46148415,4.24380723 3.45684111,4.24948754 3.4527908,4.25497028 C3.44874049,4.26045302 3.44587563,4.26484909 3.44256624,4.26978849 C3.43876289,4.2754688 3.43500895,4.28114912 3.43145258,4.2870764 C3.42789621,4.29300368 3.42522893,4.29799248 3.42226529,4.303574 C3.41930165,4.30915553 3.41614043,4.31493463 3.41337436,4.32081252 C3.4106083,4.32669041 3.40759526,4.33385254 3.40487859,4.34057013 C3.40324859,4.34457105 3.40132222,4.348325 3.39993919,4.35237531 L4.34232786,4.89378326 Z" id="Shape" fill="#FFFFFF" fill-rule="nonzero"></path>
                <rect id="Rectangle" fill="#CBEC4C" x="17" y="13" width="6.11966274" height="3" rx="1.5"></rect>
                <rect id="Rectangle-Copy" fill="#CBEC4C" x="0.645481148" y="12.5923983" width="6.11966274" height="3" rx="1.5"></rect>
                <polygon id="Path-26" fill="#FFFFFF" points="4.02228822 4.89378326 6.44510424 13 0.844473982 13"></polygon>
                <polygon id="Path-26-Copy" fill="#FFFFFF" points="20.0226798 4.41449965 22.4454958 12.5207164 16.8448656 12.5207164"></polygon>
                <path d="M1.13789024,15.5497547 C1.80964904,16.1088951 2.74462861,16.4168175 3.77019683,16.4168175 C6.00428875,16.4168175 7.56464612,15.012397 7.56464612,13.0016155 C7.56448487,12.8033014 7.4173565,12.6358248 7.2207155,12.6101184 L4.34232786,4.89378326 L10.2531137,4.89378326 C10.4680475,5.47010926 10.9593656,5.89900708 11.5594376,6.0341432 L11.5594376,18.451986 L10.6991912,18.451986 C9.77176891,18.451986 8.9950972,19.1435024 8.81233929,19.9832009 L8.65580962,19.9832009 C8.43271078,19.9894246 8.25396463,20.1700203 8.25003767,20.3931713 L8.25003767,22.1812352 C8.25003767,22.3995074 8.43773498,22.5516904 8.65600719,22.5516904 L15.2531725,22.5516904 C15.4714447,22.5516904 15.659142,22.3993592 15.659142,22.1812352 L15.659142,20.3931713 C15.6552108,20.1699459 15.4763486,19.989321 15.2531725,19.9832009 L15.0966428,19.9832009 C14.9138849,19.1435024 14.1374108,18.451986 13.2097909,18.451986 L12.3497421,18.451986 L12.3497421,6.0341432 C12.9498141,5.89900708 13.4411322,5.47010926 13.6560659,4.89378326 L19.5668518,4.89378326 L16.6884642,12.6101184 C16.4918232,12.6358248 16.3446948,12.8033014 16.3445335,13.0016155 C16.3445335,14.0491147 16.7380064,14.9302054 17.4824238,15.5497547 C18.1541826,16.1088951 19.0891128,16.4168175 20.1147304,16.4168175 C22.3488223,16.4168175 23.9091797,15.012397 23.9091797,13.0016155 C23.9091797,12.8130775 23.7759561,12.6508113 23.5910327,12.61407 L20.5092405,4.35257288 C20.5077093,4.34847318 20.5057335,4.34466984 20.5043011,4.34066892 C20.5016338,4.33414891 20.4989171,4.3276289 20.4959041,4.32125707 C20.4928911,4.31488524 20.4899768,4.30950129 20.486865,4.30372219 C20.4837532,4.29794309 20.4810365,4.2928555 20.4778259,4.28752095 C20.4746153,4.28218639 20.4704168,4.27571577 20.4665146,4.26993667 C20.4632546,4.26499727 20.4599946,4.26005787 20.4566358,4.25556301 C20.4524867,4.25003088 20.4481895,4.24464693 20.4438428,4.23936177 C20.4394961,4.23407661 20.4360385,4.2300263 20.4319388,4.22548205 C20.4278391,4.22093779 20.4231467,4.21614657 20.4186518,4.21160232 C20.414157,4.20705807 20.4092176,4.20231625 20.4042782,4.19782139 C20.3993388,4.19332653 20.3954366,4.19016531 20.3909418,4.18641137 C20.385459,4.18186712 20.3799269,4.17742166 20.3741478,4.17317377 C20.369653,4.16986437 20.3651087,4.16675255 20.3605151,4.16364072 C20.3544396,4.15959041 20.3483641,4.15558949 20.3420911,4.15183555 C20.3371517,4.14887191 20.3322123,4.14615523 20.3272729,4.14343856 C20.3210492,4.14012916 20.314875,4.13677037 20.3084044,4.13355976 C20.3026747,4.13084309 20.2967968,4.12862035 20.2909189,4.12600247 C20.286424,4.1241255 20.2821761,4.12195216 20.2775825,4.12022337 C20.2759031,4.11963064 20.2742237,4.11923549 20.2726431,4.11864276 C20.2664194,4.11642003 20.260097,4.11459245 20.253824,4.11266608 C20.2475509,4.11073972 20.2413273,4.10876396 20.2350542,4.10718335 C20.2287812,4.10560274 20.2231997,4.10466425 20.2172724,4.10347879 C20.210456,4.10209576 20.203689,4.10056455 20.1968726,4.09957667 C20.1913405,4.09878636 20.185759,4.09839121 20.1802269,4.09779848 C20.1729659,4.09705757 20.165705,4.09616848 20.1584935,4.09582272 C20.1529613,4.09552636 20.1473798,4.09582272 20.1418477,4.09582272 C20.1345374,4.09582272 20.1270295,4.09582272 20.1200649,4.09582272 C20.1142858,4.09611908 20.1085067,4.09690939 20.1026782,4.09745272 C20.0957137,4.09809484 20.0887491,4.09863818 20.0817846,4.09967545 C20.0759067,4.10051515 20.0699794,4.10189819 20.0641015,4.10303425 L13.7616704,4.10303425 C13.679079,3.16653788 12.8947211,2.4483096 11.9545898,2.4483096 C11.0144586,2.4483096 10.2301007,3.16653788 10.1475093,4.10303425 L3.84690576,4.10303425 C3.84043514,4.10175 3.83391513,4.10026818 3.82744451,4.0993297 C3.82196177,4.09853939 3.81638025,4.09814424 3.81079872,4.09755151 C3.8035378,4.0968106 3.79632627,4.09592151 3.78906535,4.09557575 C3.78353322,4.09527939 3.77795169,4.09557575 3.77241956,4.09557575 C3.76515864,4.09557575 3.75789772,4.09557575 3.75063679,4.09557575 C3.74490709,4.09587211 3.73912798,4.09666242 3.73329949,4.09720575 C3.72633493,4.09784787 3.71932098,4.09839121 3.71235642,4.09942848 C3.70652793,4.10026818 3.70065004,4.10160182 3.69477215,4.10278728 C3.68795577,4.10412092 3.68109,4.10535577 3.67432302,4.10703516 C3.66859331,4.10846759 3.662913,4.11034456 3.65718329,4.11197457 C3.65036691,4.11404912 3.64355054,4.11602488 3.63688234,4.11844518 C3.63530174,4.11898852 3.63367173,4.11933428 3.63194294,4.11992701 C3.62754687,4.12155701 3.62344717,4.12368095 3.61914989,4.12545914 C3.61302503,4.12797823 3.60690017,4.13039854 3.60097289,4.13331279 C3.5950456,4.13622704 3.58852559,4.13958583 3.58245012,4.14284584 C3.57751072,4.1456119 3.57222556,4.14837797 3.56723676,4.15134161 C3.56091433,4.15509555 3.55488826,4.15909647 3.54886219,4.16314678 C3.54426854,4.1662586 3.5396749,4.16937043 3.53518004,4.17267983 C3.52945033,4.17692771 3.52386881,4.18137318 3.51838607,4.18591743 C3.51389121,4.18967137 3.50944575,4.19337593 3.50509908,4.19732745 C3.5007524,4.20127897 3.49522027,4.20646534 3.49062663,4.21120717 C3.48603298,4.215949 3.4817357,4.22019688 3.47748781,4.22488932 C3.47323993,4.22958175 3.4692884,4.23422479 3.46538628,4.23901601 C3.46148415,4.24380723 3.45684111,4.24948754 3.4527908,4.25497028 C3.44874049,4.26045302 3.44587563,4.26484909 3.44256624,4.26978849 C3.43876289,4.2754688 3.43500895,4.28114912 3.43145258,4.2870764 C3.42789621,4.29300368 3.42522893,4.29799248 3.42226529,4.303574 C3.41930165,4.30915553 3.41614043,4.31493463 3.41337436,4.32081252 C3.4106083,4.32669041 3.40759526,4.33385254 3.40487859,4.34057013 C3.40324859,4.34457105 3.40132222,4.348325 3.39993919,4.35237531 L0.31814694,12.61407 C0.133223585,12.6508113 0,12.8130775 0,13.0016155 C0,14.0491147 0.393472834,14.9302054 1.13789024,15.5497547 Z M20.1147304,15.6229072 C19.2734513,15.6229072 18.5181672,15.3781598 17.9879717,14.9368736 C17.5238654,14.5506617 17.2417267,14.0316786 17.1598314,13.3895562 L23.0935361,13.3895562 C22.8904278,14.9207711 21.4966765,15.6229072 20.1147304,15.6229072 Z M20.1389828,5.61409638 L22.744666,12.5992518 L17.533596,12.5992518 L20.1389828,5.61409638 Z M14.8688375,20.7735054 L14.8688375,21.7613859 L9.04034213,21.7613859 L9.04034213,20.7735054 L14.8688375,20.7735054 Z M13.2099885,19.2422905 C13.6981497,19.2422905 14.1154304,19.5880487 14.2763068,19.9832009 L9.63307048,19.9832009 C9.79394683,19.5880487 10.2109806,19.2422905 10.6993888,19.2422905 L13.2099885,19.2422905 Z M12.9788244,4.26331787 C12.9788244,4.28984246 12.9768487,4.31587312 12.9748729,4.34190377 C12.9534332,4.39136965 12.9424035,4.44471877 12.9424704,4.49863102 C12.9424704,4.50742316 12.9432113,4.51606712 12.943804,4.52471107 C12.8078949,5.03831428 12.3016814,5.36260138 11.7782953,5.27135146 C11.2549092,5.18010154 10.888302,4.70364223 10.934217,4.17434896 C10.980132,3.64505569 11.4233088,3.23884328 11.9545898,3.23908308 C12.5199994,3.23970939 12.9781983,3.69790827 12.9788244,4.26331787 Z M3.76999925,5.61409638 L6.37583064,12.5992518 L1.16451362,12.5992518 L3.76999925,5.61409638 Z M6.74895313,13.3895562 C6.54564731,14.9207711 5.15214297,15.6229072 3.77019683,15.6229072 C2.92891773,15.6229072 2.17363363,15.3781598 1.64343813,14.9368736 C1.17933183,14.5506617 0.89719314,14.0316786 0.815248446,13.3895562 L6.74895313,13.3895562 Z" id="Shape-Copy" stroke="#202023" stroke-width="0.2" fill="#202023" fill-rule="nonzero"></path>
            </g>
        </g>
    </g>
</svg>