<svg width="25" height="24" viewBox="0 0 25 24" xmlns="http://www.w3.org/2000/svg">
    <path d="M23.968 6.246a2.997 2.997 0 0 0-2.108-2.109c-1.872-.512-9.36-.512-9.36-.512s-7.488 0-9.36.493A3.058 3.058 0 0 0 1.03 6.246C.54 8.118.54 12 .54 12s0 3.902.492 5.754a2.997 2.997 0 0 0 2.109 2.108c1.892.513 9.36.513 9.36.513s7.488 0 9.36-.493a2.997 2.997 0 0 0 2.109-2.108c.492-1.872.492-5.754.492-5.754s.02-3.902-.493-5.774zm-13.852 9.34V8.414L16.342 12l-6.226 3.586z" fill="#FFF" fill-rule="nonzero"/>
</svg>
