<?xml version="1.0" encoding="UTF-8"?>
<svg width="24px" height="24px" viewBox="0 0 24 24" version="1.1" xmlns="http://www.w3.org/2000/svg" xmlns:xlink="http://www.w3.org/1999/xlink">
    <title>9193693F-1023-43E7-9EB6-A949A6AB7459</title>
    <g id="Page-1" stroke="none" stroke-width="1" fill="none" fill-rule="evenodd">
        <g id="Index_Rating" transform="translate(-1196.000000, -656.000000)" fill-rule="nonzero">
            <g id="Icons/24x24/table" transform="translate(1196.000000, 656.000000)">
                <path d="M10.5,0.786743998 L10.5,2.286744 L24,2.286744 L24,0.786743998 L10.5,0.786743998 Z M10.5,3.786744 L10.5,5.286744 L21,5.286744 L21,3.786744 L10.5,3.786744 Z M10.5,9.786744 L10.5,11.286744 L24,11.286744 L24,9.786744 L10.5,9.786744 Z M10.5,12.786744 L10.5,14.286744 L21,14.286744 L21,12.786744 L10.5,12.786744 Z M10.5,18.786744 L10.5,20.286744 L24,20.286744 L24,18.786744 L10.5,18.786744 Z M10.5,21.786744 L10.5,23.286744 L21,23.286744 L21,21.786744 L10.5,21.786744 Z" id="Shape" fill="#3384F7"></path>
                <polygon id="Path" fill="#B2D0FA" points="0 0.786743998 0 5.286744 7.5 5.286744 7.5 0.786743998"></polygon>
                <polygon id="Path" fill="#B2D0FA" points="0 9.786744 0 14.286744 7.5 14.286744 7.5 9.786744"></polygon>
                <polygon id="Path" fill="#B2D0FA" points="0 18.786744 0 23.286744 7.5 23.286744 7.5 18.786744"></polygon>
            </g>
        </g>
    </g>
</svg>