<?xml version="1.0" encoding="UTF-8"?>
<svg width="25px" height="24px" viewBox="0 0 25 24" version="1.1" xmlns="http://www.w3.org/2000/svg" xmlns:xlink="http://www.w3.org/1999/xlink">
    <title>E02696DD-57AC-4CD4-A1F8-5E3CDD5F8F19</title>
    <g id="Page-1" stroke="none" stroke-width="1" fill="none" fill-rule="evenodd">
        <g id="Index_Geolocation" transform="translate(-784.000000, -2100.000000)">
            <g id="Icons/24x24/Popular" transform="translate(784.032508, 2100.000000)">
                <g id="Group" transform="translate(5.065077, 1.864344)">
                    <path d="M13.258886,10.692146 C13.0103417,10.1346371 12.6701983,9.49647734 12.3101402,8.82082302 C11.6077715,7.50293086 10.8116773,6.00924583 10.3926932,4.57043669 C9.93915504,3.01288817 10.0198767,1.82022863 10.63952,0.92435811 C10.7801492,0.721008529 10.777573,0.454904064 10.6329364,0.25416762 C10.4882998,0.053431176 10.2313725,-0.0408793189 9.98560886,0.0166888841 C9.86955609,0.0438892662 7.12783995,0.707032205 5.80251562,2.85435785 C5.35895521,3.57297057 5.12754483,4.36609728 5.10922501,5.22478998 C4.7138768,4.93568199 4.27227922,4.68691925 3.85067806,4.60725816 C3.65697052,4.57071384 3.45696554,4.62653995 3.31318769,4.75743436 C3.16936894,4.88828918 3.09940195,5.07809796 3.12508241,5.26755041 C3.34058563,6.85617942 2.60284492,7.91006554 1.74868341,9.13040059 C1.34777383,9.70315274 0.933206162,10.2954242 0.588196556,10.9812144 C-0.322969031,12.7922768 -0.174938359,14.7383909 1.02815843,16.7655122 C2.33622615,18.9694558 4.74123385,20.2713128 7.25910471,20.2713128 C7.86619404,20.2713128 8.48015329,20.1955714 9.08654744,20.0385456 C9.13320573,20.0264698 9.18006848,20.0147107 9.22623606,20.0010907 C10.9929944,19.478582 12.40223,18.2781227 13.1943168,16.6208394 C14.0716234,14.7854273 14.09575,12.5690911 13.258886,10.692146 L13.258886,10.692146 Z" id="Shape" fill="#FFFFFF" fill-rule="nonzero"></path>
                    <polygon id="Path-19" fill="#CBEC4C" points="8.8836892 19.082177 6.93676253 20.2713128 4.37864612 19.082177 4.37864612 16.3147158 6.93676253 10.1356564 8.8836892 12.3122069 8.8836892 15.2034846 10.3229219 17.2836251"></polygon>
                    <path d="M13.258886,10.692146 C13.0103417,10.1346371 12.6701983,9.49647734 12.3101402,8.82082302 C11.6077715,7.50293086 10.8116773,6.00924583 10.3926932,4.57043669 C9.93915504,3.01288817 10.0198767,1.82022863 10.63952,0.92435811 C10.7801492,0.721008529 10.777573,0.454904064 10.6329364,0.25416762 C10.4882998,0.053431176 10.2313725,-0.0408793189 9.98560886,0.0166888841 C9.86955609,0.0438892662 7.12783995,0.707032205 5.80251562,2.85435785 C5.35895521,3.57297057 5.12754483,4.36609728 5.10922501,5.22478998 C4.7138768,4.93568199 4.27227922,4.68691925 3.85067806,4.60725816 C3.65697052,4.57071384 3.45696554,4.62653995 3.31318769,4.75743436 C3.16936894,4.88828918 3.09940195,5.07809796 3.12508241,5.26755041 C3.34058563,6.85617942 2.60284492,7.91006554 1.74868341,9.13040059 C1.34777383,9.70315274 0.933206162,10.2954242 0.588196556,10.9812144 C-0.322969031,12.7922768 -0.174938359,14.7383909 1.02815843,16.7655122 C2.33622615,18.9694558 4.74123385,20.2713128 7.25910471,20.2713128 C7.86619404,20.2713128 8.48015329,20.1955714 9.08654744,20.0385456 C9.13320573,20.0264698 9.18006848,20.0147107 9.22623606,20.0010907 C10.9929944,19.478582 12.40223,18.2781227 13.1943168,16.6208394 C14.0716234,14.7854273 14.09575,12.5690911 13.258886,10.692146 L13.258886,10.692146 Z M5.05790499,18.2354018 C4.5480988,17.6817731 4.30724227,16.9301398 4.39712388,16.1732011 C4.48819136,15.4061662 5.18536676,14.5206294 5.8595197,13.6642331 C6.55150175,12.7852292 7.3041682,11.8292169 7.53304324,10.8191999 C8.18605479,11.6314896 8.77985406,13.0752478 7.96527645,15.3756796 C7.89694516,15.5685766 7.93562942,15.7819432 8.06775293,15.9407507 C8.19983554,16.0995977 8.40683313,16.1817136 8.61612069,16.158235 C8.83440459,16.1337269 9.1518118,16.0402083 9.45314826,15.8439062 C9.57378099,16.6444368 9.43245668,17.4579935 9.03461403,18.0675672 C8.74170141,18.5163537 8.1773447,19.048523 7.14084375,19.082177 C6.9417793,19.0782969 6.74373716,19.0646373 6.54737161,19.0414359 C5.97037913,18.9413448 5.45292606,18.6643523 5.05790499,18.2354018 Z M12.0810607,16.1219678 C11.6837497,16.9532225 11.0966568,17.6423385 10.369589,18.1475846 C10.8829937,16.9724251 10.8409563,15.507643 10.2250342,14.2529016 C10.1107807,14.0201345 9.85463035,13.8852808 9.59046511,13.9190932 C9.57819738,13.9206769 9.56601143,13.9225774 9.55394816,13.9248737 C9.71502352,12.3655831 9.27408022,11.2379749 8.79796942,10.5037625 C8.08619542,9.40624493 7.13884002,8.92827839 7.09888809,8.9084423 C6.86837735,8.79421653 6.58855031,8.83250295 6.39974986,9.00405936 C6.21090853,9.17561578 6.1536591,9.44354152 6.25674896,9.67353718 C6.69274427,10.6464556 5.81408818,11.762582 4.88386672,12.9442346 C4.10915924,13.9283579 3.30803524,14.9459769 3.17840617,16.0375555 C3.1132236,16.5864331 3.16945072,17.1343605 3.33551496,17.645981 C2.85016247,17.2333033 2.42753899,16.7393412 2.09185286,16.1737158 C1.08982425,14.4853917 0.958763944,12.9570628 1.69110684,11.501387 C1.99780022,10.8917342 2.38742349,10.3350964 2.76424743,9.79679015 C3.50669076,8.73609403 4.26974389,7.64590113 4.3774955,6.17704091 C4.77570618,6.47228581 5.18941511,6.87023493 5.45946885,7.17909982 C5.64434362,7.39112026 5.95627124,7.45094527 6.21066317,7.32309951 C6.46505511,7.19525376 6.59415257,6.91390599 6.52148669,6.64546554 C6.19271139,5.4301588 6.30381617,4.36174205 6.85181591,3.46987043 C7.39200518,2.59070815 8.26976163,2.01075008 9.00108222,1.65334419 C8.78009942,2.58168095 8.85108871,3.65358189 9.21200548,4.89288197 C9.66464402,6.44726305 10.4909169,7.99768482 11.2199884,9.36558293 C11.5701095,10.0225494 11.9008068,10.6430507 12.1326261,11.1629858 C12.8332773,12.7345106 12.814017,14.588373 12.0810607,16.1219678 L12.0810607,16.1219678 Z" id="Shape-Copy-15" fill="#202023" fill-rule="nonzero"></path>
                </g>
            </g>
        </g>
    </g>
</svg>