<?xml version="1.0" encoding="utf-8"?>
<svg width="24px" height="24px" viewBox="0 0 24 24" version="1.1" xmlns:xlink="http://www.w3.org/1999/xlink" xmlns="http://www.w3.org/2000/svg">
  <g id="Iconskeyclose">
    <path d="M20.6503 0.293363C20.8561 0.000817875 21.2895 -0.0878244 21.6182 0.0953751C21.9469 0.278575 22.0465 0.664242 21.8406 0.956788C20.5585 2.77897 18.9763 4.13302 17.105 5.01319C17.1447 5.03437 17.1827 5.0597 17.2183 5.08914L17.2917 5.15948L19.4288 7.53296C19.6822 7.81446 19.6595 8.24813 19.378 8.5016C19.1221 8.73202 18.7404 8.73418 18.4827 8.52118L18.4094 8.45083L16.2723 6.07736C16.1061 5.89282 16.0587 5.6429 16.125 5.42121C14.8026 5.90387 13.3507 6.17241 11.7726 6.22511C11.8185 6.30227 11.8497 6.3892 11.8623 6.48204L11.8685 6.57511L11.8685 9.76894C11.8685 10.1477 11.5615 10.4548 11.1827 10.4548C10.8354 10.4548 10.5485 10.1968 10.5031 9.862L10.4968 9.76894L10.4968 6.57511C10.4968 6.44719 10.5318 6.32745 10.5928 6.22495C8.88647 6.16837 7.30581 5.86696 5.85426 5.32251C5.87766 5.48878 5.84014 5.6624 5.74042 5.80709L5.67673 5.88629L3.49855 8.22211C3.24021 8.49914 2.80621 8.5143 2.52917 8.25596C2.27733 8.02111 2.2419 7.64108 2.43164 7.36578L2.49532 7.28658L4.67351 4.95077C4.70489 4.91711 4.73886 4.88732 4.77484 4.86142C3.01685 4.01456 1.46799 2.77738 0.135229 1.15358C-0.0935407 0.874849 -0.0251189 0.483839 0.288053 0.280232C0.601225 0.0766239 1.04055 0.13752 1.26932 0.416247C3.78124 3.4767 7.07184 4.98842 11.204 4.98476C15.32 4.9811 18.4427 3.43085 20.6503 0.293363Z" transform="translate(1.0261037 6.7725983)" id="Combined-Shape" fill="#1D1E29" fill-rule="evenodd" stroke="none" />
  </g>
</svg>