<svg width="24" height="24" viewBox="0 0 24 24" fill="none" xmlns="http://www.w3.org/2000/svg">
<path fill-rule="evenodd" clip-rule="evenodd" d="M12.2675 1.6085C12.1821 1.58605 12.0924 1.5741 11.9999 1.5741C11.9078 1.5741 11.8185 1.58595 11.7334 1.60821C11.5426 1.65794 11.3633 1.76204 11.2204 1.9205C11.2134 1.92828 11.2065 1.93617 11.1997 1.94416L5.24429 8.86241L5.16974 8.95984C4.87496 9.39526 4.94688 9.99211 5.35506 10.3435L5.45249 10.418C5.88791 10.7128 6.48476 10.6409 6.83613 10.2327L10.9497 5.45321V21.3758L10.9559 21.4902C11.0129 22.0164 11.4586 22.426 11.9999 22.426C12.5799 22.426 13.0501 21.9558 13.0501 21.3758V5.45321L17.1637 10.2327L17.2489 10.3209C17.6357 10.6772 18.2366 10.6948 18.6448 10.3435C19.0843 9.96508 19.1339 9.30199 18.7555 8.86241L12.8002 1.94418C12.7719 1.91096 12.7416 1.87953 12.7095 1.85006L12.7078 1.84829C12.5789 1.73025 12.4272 1.65032 12.2675 1.6085Z" fill="#5AC806"/>
</svg>
