<?xml version="1.0" encoding="UTF-8"?>
<svg width="24px" height="24px" viewBox="0 0 24 24" version="1.1" xmlns="http://www.w3.org/2000/svg" xmlns:xlink="http://www.w3.org/1999/xlink">
    <title>CF417121-6FB0-4771-A088-DEA68FE13F5E</title>
    <g id="Page-1" stroke="none" stroke-width="1" fill="none" fill-rule="evenodd">
        <g id="Index_Rating" transform="translate(-620.000000, -4840.000000)">
            <g id="Icons/24x24/stopwatch" transform="translate(620.000000, 4840.000000)">
                <circle id="Oval-Copy" fill="#FFFFFF" cx="11.5152332" cy="13.1861297" r="8.46585331"></circle>
                <circle id="Oval" stroke="#CBEC4C" stroke-width="2" cx="12" cy="13.4658533" r="8.46585331"></circle>
                <path d="M14.2710734,0 C14.5903495,0 14.8491739,0.258824386 14.8491739,0.578100447 C14.8491739,0.897376508 14.5903495,1.15620089 14.2710734,1.15620089 L14.2710734,1.15620089 L12.5460217,1.15620089 L12.5460217,3.01970769 C14.7274428,3.13864116 16.8164878,3.93937857 18.5185219,5.30898546 L18.5185219,5.30898546 L19.284505,4.24325728 L17.8836231,3.2367844 C17.7158131,3.116271 17.6250434,2.91538645 17.6455061,2.70980201 C17.6659687,2.50421758 17.794555,2.32516643 17.9828277,2.2400954 C18.1711004,2.15502437 18.3904563,2.17685777 18.5582663,2.29737118 L18.5582663,2.29737118 L22.2991543,4.98553826 C22.4669644,5.10605166 22.5577341,5.30693621 22.5372714,5.51252065 C22.5168088,5.71810509 22.3882225,5.89715625 22.1999498,5.98222728 C22.0116771,6.06729831 21.7923211,6.0454649 21.6245111,5.92495148 L21.6245111,5.92495148 L20.2236292,4.9184786 L19.4206477,6.03580224 C19.408167,6.0509399 19.3949006,6.0654123 19.3809033,6.07915978 C22.8842078,9.58270152 23.4608352,15.0587343 20.7641246,19.2151389 C18.067414,23.3715435 12.8317091,25.0764858 8.20464708,23.3049768 C3.57758505,21.5334678 0.819165179,16.7679087 1.58771338,11.8732911 C2.35626159,6.9786736 6.44249385,3.28785521 11.3898208,3.01970769 L11.3898208,3.01970769 L11.3898208,1.15620089 L9.66462454,1.15620089 C9.34534848,1.15620089 9.0865241,0.897376508 9.0865241,0.578100447 C9.0865241,0.258824386 9.34534848,0 9.66462454,0 L9.66462454,0 Z M15.5388189,4.86948249 C12.0518974,3.4251207 8.03825729,4.22346721 5.36947459,6.8922499 C2.7006919,9.56103259 1.90234539,13.5746727 3.34670718,17.0615942 C4.79106897,20.5485156 8.19369257,22.8219604 11.9679213,22.8219604 C17.1189928,22.8160667 21.2932914,18.6417681 21.2991851,13.4906966 C21.2991851,9.71646788 19.0257403,6.31384428 15.5388189,4.86948249 Z M11.9679213,5.41723476 C16.4245781,5.42241179 20.0360765,9.03403951 20.041094,13.4906966 C20.041094,17.9494666 16.4264022,21.5638693 11.9676322,21.5638693 C7.50886219,21.5638693 3.89445946,17.9491775 3.89445946,13.4904075 C3.89445946,9.0316375 7.50915124,5.41723476 11.9679213,5.41723476 Z M14.6149093,7.09999745 C12.030147,6.02932219 9.05493685,6.62111212 7.07663683,8.59941214 C5.09833681,10.5777122 4.50654688,13.5529223 5.57722214,16.1376846 C6.6478974,18.722447 9.17018253,20.4076684 11.9679213,20.4076684 C15.7862434,20.403288 18.8805127,17.3090187 18.8848931,13.4906966 C18.8848931,10.6929578 17.1996717,8.17067271 14.6149093,7.09999745 Z M11.9679213,8.44113368 C12.2871973,8.44113368 12.5460217,8.69995806 12.5460217,9.01923413 L12.5460217,9.01923413 L12.5460217,12.9125961 L15.3973576,12.9125961 C15.7166337,12.9125961 15.9754581,13.1714205 15.9754581,13.4906966 C15.9754581,13.8099726 15.7166337,14.068797 15.3973576,14.068797 L15.3973576,14.068797 L11.9679213,14.068797 C11.6486452,14.068797 11.3898208,13.8099726 11.3898208,13.4906966 L11.3898208,13.4906966 L11.3898208,9.01923413 C11.3898208,8.69995806 11.6486452,8.44113368 11.9679213,8.44113368 Z" id="Combined-Shape" fill="#202023" fill-rule="nonzero"></path>
            </g>
        </g>
    </g>
</svg>