<?xml version="1.0" encoding="UTF-8"?>
<svg width="24px" height="24px" viewBox="0 0 24 24" version="1.1" xmlns="http://www.w3.org/2000/svg" xmlns:xlink="http://www.w3.org/1999/xlink">
    <title>1C45857E-8644-4B38-96CE-0B84A3F2FF13</title>
    <g id="Page-1" stroke="none" stroke-width="1" fill="none" fill-rule="evenodd">
        <g id="Index_Rating" transform="translate(-1384.000000, -1948.000000)" fill="#202023">
            <g id="Icons/24x24/Compared_black" transform="translate(1384.000000, 1948.000000)">
                <path d="M20.5046477,5.18300833 C21.0569324,5.18300833 21.5046477,5.63072358 21.5046477,6.18300833 L21.5046477,21.1201271 C21.5046477,21.6724118 21.0569324,22.1201271 20.5046477,22.1201271 L15.2697423,22.1201271 L15.2697423,6.18300833 C15.2697423,5.63072358 15.7174575,5.18300833 16.2697423,5.18300833 L20.5046477,5.18300833 Z M8.14033931,2.05166665 C8.69262406,2.05166665 9.14033931,2.4993819 9.14033931,3.05166665 L9.14033931,22.0893942 L3.80980737,22.0893942 C3.25752262,22.0893942 2.80980737,21.6416789 2.80980737,21.0893942 L2.80980737,3.05166665 C2.80980737,2.4993819 3.25752262,2.05166665 3.80980737,2.05166665 L8.14033931,2.05166665 Z M13.3885628,9.12880937 C13.9408476,9.12880937 14.3885628,9.57652462 14.3885628,10.1288094 L14.3885628,22.0581558 L9.99113518,22.0581558 L9.99113518,10.1288094 C9.99113518,9.57652462 10.4388504,9.12880937 10.9911352,9.12880937 L13.3885628,9.12880937 Z" id="Combined-Shape"></path>
            </g>
        </g>
    </g>
</svg>