<?xml version="1.0" encoding="utf-8"?>
<svg width="24px" height="24px" viewBox="0 0 24 24" version="1.1" xmlns:xlink="http://www.w3.org/1999/xlink" xmlns="http://www.w3.org/2000/svg">
  <g id="Icons24x24open">
    <g id="Group" transform="translate(0.090251416 0.17202859)">
      <path d="M11.0049 3.85106L5.06658 9.78983L3.23744 9.78983L10.0905 2.93623C9.41321 1.61406 10.4177 -0.0142115 11.9097 0.000188438C13.4019 -0.0141253 14.4061 1.6138 13.729 2.93623L20.5821 9.78988L18.7529 9.78988L12.8146 3.85106C12.2766 4.1328 11.5429 4.1328 11.0049 3.85106ZM23.1269 10.1024L0.697994 10.1024C0.312515 10.1024 0 10.4149 0 10.8004L0 21.2673C0 21.6527 0.312515 21.9653 0.697994 21.9653L23.1269 21.9653C23.5123 21.9653 23.8249 21.6527 23.8249 21.2673L23.8249 10.8004C23.8249 10.4149 23.5123 10.1024 23.1269 10.1024ZM22.4671 18.5315C22.4671 18.8779 22.2404 19.1835 21.9088 19.2839C21.5749 19.3849 21.2177 19.2537 21.027 18.9675L19.099 16.0757L19.099 18.5315C19.0575 19.5745 17.5679 19.5737 17.5268 18.5315L17.5268 13.4793C17.5268 13.1328 17.7536 12.8273 18.0851 12.7269C18.4166 12.6266 18.7748 12.755 18.967 13.0432L20.8949 15.9351L20.8949 13.4793C20.9364 12.4363 22.426 12.4371 22.4671 13.4793L22.4671 18.5315ZM15.3658 15.2193C16.4088 15.2608 16.408 16.7504 15.3658 16.7915L14.4679 16.7915L14.4679 17.7454L15.7868 17.7454C16.8298 17.7869 16.829 19.2765 15.7868 19.3176L13.6817 19.3176C13.2476 19.3176 12.8956 18.9657 12.8956 18.5315L12.8956 13.4793C12.8956 13.0452 13.2476 12.6932 13.6817 12.6932L15.7868 12.6932C16.8298 12.7347 16.829 14.2243 15.7868 14.2654L14.4679 14.2654L14.4679 15.2193L15.3658 15.2193ZM9.47152 17.6336L8.9946 17.6336L8.9946 18.5316C8.95304 19.5746 7.46348 19.5738 7.42234 18.5316L7.42234 13.4794C7.42234 13.0452 7.77432 12.6932 8.20847 12.6932L9.47152 12.6932C12.7494 12.8293 12.7469 17.4987 9.47152 17.6336ZM3.7878 19.3176C2.33645 19.3176 1.10715 17.8896 1.10715 16.0054C1.2355 11.6061 6.34503 11.6181 6.46856 16.0055C6.46851 17.8672 5.25666 19.3176 3.7878 19.3176ZM2.67941 16.0054C2.67941 15.0785 3.19731 14.2654 3.7878 14.2654C4.37824 14.2654 4.89625 15.0785 4.89625 16.0054C4.89625 16.9323 4.37824 17.7454 3.7878 17.7454C3.19737 17.7454 2.67941 16.9323 2.67941 16.0054ZM8.9946 14.2654L9.47152 14.2654C10.6621 14.3145 10.6631 16.0119 9.47152 16.0613L8.9946 16.0613L8.9946 14.2654Z" id="Combined-Shape" fill="#3384F7" fill-rule="evenodd" stroke="none" />
    </g>
  </g>
</svg>