<svg width="25" height="24" viewBox="0 0 25 24" xmlns="http://www.w3.org/2000/svg">
    <path d="M24.12 17.291c-.064-.106-.458-.961-2.35-2.718-1.982-1.84-1.716-1.541.67-4.722 1.454-1.937 2.036-3.12 1.854-3.626-.173-.482-1.242-.355-1.242-.355l-3.556.02s-.263-.035-.46.082c-.19.115-.313.381-.313.381s-.564 1.5-1.315 2.775c-1.584 2.69-2.218 2.832-2.477 2.665-.602-.39-.451-1.565-.451-2.4 0-2.606.395-3.693-.77-3.974-.388-.093-.672-.156-1.661-.166-1.27-.013-2.344.005-2.952.302-.405.198-.717.64-.527.665.235.031.768.144 1.05.528.366.496.352 1.61.352 1.61s.21 3.07-.49 3.45c-.48.263-1.138-.271-2.55-2.713-.723-1.25-1.27-2.632-1.27-2.632s-.106-.258-.293-.395c-.228-.167-.548-.22-.548-.22l-3.38.02s-.508.015-.694.235c-.166.197-.013.602-.013.602s2.647 6.192 5.643 9.314c2.75 2.862 5.87 2.674 5.87 2.674h1.414s.427-.047.644-.282c.202-.216.194-.621.194-.621s-.028-1.898.853-2.177c.869-.275 1.984 1.833 3.165 2.645.894.614 1.572.48 1.572.48l3.16-.045s1.654-.102.87-1.402z" fill="#FFF" fill-rule="nonzero"/>
</svg>
