<?xml version="1.0" encoding="UTF-8"?>
<svg width="24px" height="24px" viewBox="0 0 24 24" version="1.1" xmlns="http://www.w3.org/2000/svg" xmlns:xlink="http://www.w3.org/1999/xlink">
    <title>6DCF52E5-44C2-43B5-B139-57A5BAC0FD8E</title>
    <g id="Page-1" stroke="none" stroke-width="1" fill="none" fill-rule="evenodd">
        <g id="Index_Rating" transform="translate(-620.000000, -5008.000000)">
            <g id="Icons/24x24/Quantity" transform="translate(620.000000, 5008.000000)">
                <rect id="Rectangle" fill="#FFFFFF" x="3" y="1" width="2" height="21"></rect>
                <rect id="Rectangle-Copy-3" fill="#FFFFFF" x="5.38507849" y="1.09888586" width="13.5775929" height="21"></rect>
                <rect id="Rectangle-Copy" fill="#FFFFFF" x="19.4732346" y="0.833493164" width="2" height="21"></rect>
                <rect id="Rectangle-Copy-2" fill="#FFFFFF" x="1.68718755" y="20.6764435" width="21.2778973" height="2.37570313"></rect>
                <circle id="Oval" fill="#CBEC4C" cx="8.03971071" cy="4.98096693" r="1.5"></circle>
                <circle id="Oval-Copy" fill="#CBEC4C" cx="15.7236213" cy="5.14417714" r="1.5"></circle>
                <circle id="Oval-Copy-2" fill="#CBEC4C" cx="16.4759526" cy="10.2660446" r="1.5"></circle>
                <circle id="Oval-Copy-3" fill="#CBEC4C" cx="11.6169343" cy="10.3755232" r="1.5"></circle>
                <circle id="Oval-Copy-4" fill="#CBEC4C" cx="7.58848662" cy="16.0463323" r="1.5"></circle>
                <circle id="Oval-Copy-5" fill="#CBEC4C" cx="12.5002718" cy="15.9143119" r="1.5"></circle>
                <circle id="Oval-Copy-6" fill="#CBEC4C" cx="16.3306981" cy="15.9250562" r="1.5"></circle>
                <path d="M0.935826372,21.3924515 L0.935826372,23.2934998 C0.935826372,23.4948766 1.09909749,23.6581478 1.30047431,23.6581478 L23.1327013,23.6581478 C23.3340781,23.6581478 23.4973492,23.4948766 23.4973492,23.2934998 L23.4973492,21.3924515 C23.4973492,20.6300383 22.8771997,20.0098889 22.1147865,20.0098889 L22.0074232,20.0098889 L22.0074232,0.685327586 C22.0074232,0.483950761 21.8441521,0.320679647 21.6427753,0.320679647 L19.0886353,0.320679647 C18.8872584,0.320679647 18.7239873,0.483950761 18.7239873,0.685327586 L18.7239873,4.68559205 L17.1729865,4.68559205 C17.0035492,3.85445001 16.2670187,3.2270003 15.3866018,3.2270003 C14.504471,3.2270003 13.7665184,3.85445001 13.5967456,4.68559205 L9.69770739,4.68559205 C9.52827008,3.85445001 8.79173958,3.2270003 7.91132266,3.2270003 C7.03090574,3.2270003 6.29437524,3.85445001 6.12493793,4.68559205 L5.45083881,4.68559205 L5.45083881,0.685327586 C5.45083881,0.483950761 5.2875677,0.320679647 5.08619087,0.320679647 L2.53205449,0.320679647 C2.33067767,0.320679647 2.16740655,0.483950761 2.16740655,0.685327586 L2.16740655,20.0251786 C1.47679253,20.101627 0.935826372,20.6818074 0.935826372,21.3924515 Z M19.4532832,1.04997552 L21.2781237,1.04997552 L21.2781237,20.0098889 L19.4532832,20.0098889 L19.4532832,1.04997552 Z M5.45083881,20.0098889 L5.45083881,16.4198497 L5.89144656,16.4198497 C6.0605958,17.2531067 6.79723569,17.8821791 7.67789693,17.8821791 C8.55855817,17.8821791 9.29519805,17.2531031 9.46434729,16.4198497 L10.4279149,16.4198497 C10.597396,17.2531067 11.3354397,17.8821791 12.2178367,17.8821791 C13.0984979,17.8821791 13.8351378,17.2531031 14.0042871,16.4198497 L14.559314,16.4198497 C14.7284633,17.2531067 15.4651032,17.8821791 16.3457644,17.8821791 C17.2264257,17.8821791 17.9630655,17.2531031 18.1322148,16.4198497 L18.7239873,16.4198497 L18.7239873,20.0098889 L5.45083881,20.0098889 L5.45083881,20.0098889 Z M10.0130549,10.8954699 C10.1432306,11.7739943 10.8952513,12.4525239 11.8093873,12.4525239 C12.7254595,12.4525239 13.478968,11.7739943 13.6093916,10.8954699 L14.5593797,10.8954699 C14.728817,11.7266119 15.4653475,12.3540616 16.3457644,12.3540616 C17.2261813,12.3540616 17.9627118,11.7266119 18.1321491,10.8954699 L18.723991,10.8954699 L18.723991,15.6905538 L18.1321491,15.6905538 C17.9627118,14.8594118 17.2261813,14.2319621 16.3457644,14.2319621 C15.4653475,14.2319621 14.728817,14.8594118 14.5593797,15.6905538 L14.0042178,15.6905538 C13.8347805,14.8594118 13.09825,14.2319621 12.2178331,14.2319621 C11.3357023,14.2319621 10.5977497,14.8594118 10.4279769,15.6905538 L9.46427801,15.6905538 C9.2948407,14.8594118 8.55831021,14.2319621 7.67789328,14.2319621 C6.79747636,14.2319621 6.06094586,14.8594118 5.89150855,15.6905538 L5.45083152,15.6905538 L5.45083152,10.8954699 L10.0130549,10.8954699 Z M12.9056466,10.5719506 C12.9077834,10.5911785 12.9070724,10.6102313 12.9070724,10.6292842 C12.9070724,11.2325213 12.4145825,11.723228 11.8093909,11.723228 C11.2061538,11.723228 10.7154471,11.2325213 10.7154471,10.6292842 C10.7154471,10.6102313 10.714736,10.5911821 10.718295,10.5553919 C10.7569331,9.983314 11.2360659,9.53534036 11.8093909,9.53534036 C12.3848491,9.53534036 12.8657614,9.98331765 12.9056466,10.5719506 Z M15.2518206,10.5308219 C15.2518206,9.9256267 15.7425273,9.43331552 16.3457644,9.43331552 C16.9490015,9.43331552 17.4397082,9.9256267 17.4397082,10.5308219 C17.4397082,11.134059 16.9490015,11.6247658 16.3457644,11.6247658 C15.7425273,11.6247658 15.2518206,11.134059 15.2518206,10.5308219 Z M17.4397082,16.0552018 C17.4397082,16.660397 16.9490015,17.1528832 16.3457644,17.1528832 C15.7425273,17.1528832 15.2518206,16.6603934 15.2518206,16.0552018 C15.2518206,15.4519647 15.7425273,14.9612579 16.3457644,14.9612579 C16.9490015,14.9612579 17.4397082,15.4519683 17.4397082,16.0552018 Z M13.3117805,16.0552018 C13.3117805,16.660397 12.8210738,17.1528832 12.2178367,17.1528832 C11.6126415,17.1528832 11.1203303,16.6603934 11.1203303,16.0552018 C11.1203303,15.4519647 11.6126415,14.9612579 12.2178367,14.9612579 C12.8210701,14.9612579 13.3117805,15.4519683 13.3117805,16.0552018 Z M6.58402239,16.0546256 C6.58433234,15.4516802 7.07486405,14.9612616 7.67790058,14.9612616 C8.28113766,14.9612616 8.77184439,15.4519683 8.77184439,16.0552054 C8.77184439,16.6604007 8.28113766,17.1528869 7.67790058,17.1528869 C7.07486405,17.1528869 6.58433599,16.6606887 6.58402239,16.0557815 C6.58402239,16.055581 6.58413544,16.0554023 6.58413544,16.0552018 C6.58413544,16.0550012 6.58402239,16.0548225 6.58402239,16.0546256 Z M15.3866054,3.95629618 C15.9898425,3.95629618 16.4805492,4.44700291 16.4805492,5.05023999 C16.4805492,5.65347708 15.9898425,6.14418381 15.3866054,6.14418381 C14.7814102,6.14418381 14.289099,5.65347708 14.289099,5.05023999 C14.289099,4.44700291 14.7814102,3.95629618 15.3866054,3.95629618 Z M7.91132266,3.95629618 C8.51455975,3.95629618 9.00526648,4.44700291 9.00526648,5.05023999 C9.00526648,5.65347708 8.51455975,6.14418381 7.91132266,6.14418381 C7.30808557,6.14418381 6.81737884,5.65347708 6.81737884,5.05023999 C6.81737884,4.44700291 7.30808557,3.95629618 7.91132266,3.95629618 Z M6.12493793,5.41488793 C6.29437524,6.24602998 7.03090574,6.87347969 7.91132266,6.87347969 C8.79173958,6.87347969 9.52827008,6.24602998 9.69770739,5.41488793 L13.5967529,5.41488793 C13.7665257,6.24602998 14.5044783,6.87347969 15.3866091,6.87347969 C16.267026,6.87347969 17.0035565,6.24602998 17.1729938,5.41488793 L18.7239946,5.41488793 L18.7239946,10.166174 L18.1322221,10.166174 C17.963051,9.3330738 17.2264111,8.70401964 16.3457717,8.70401964 C15.4651323,8.70401964 14.7284925,9.3330738 14.5593213,10.166174 L13.5754502,10.166174 C13.3685124,9.38121462 12.6498315,8.80604449 11.8093873,8.80604449 C10.9670286,8.80604449 10.2479939,9.38700158 10.0461285,10.166174 L5.45083881,10.166174 L5.45083881,5.41488793 L6.12493793,5.41488793 Z M2.89670243,1.04997552 L4.72154293,1.04997552 L4.72154293,16.0507968 C4.72152105,16.0523539 4.72065319,16.0536447 4.72065319,16.0552018 C4.72065319,16.0567588 4.72152105,16.0580497 4.72154293,16.0596067 L4.72154293,20.0098852 L2.89670243,20.0098852 L2.89670243,1.04997552 Z M1.66512225,21.3924515 C1.66512225,21.032256 1.95819345,20.7391848 2.31856771,20.7391848 C6.6695688,20.7391848 19.8895881,20.7391848 22.1147829,20.7391848 C22.4749785,20.7391848 22.7680497,21.032256 22.7680497,21.3924515 L22.7680497,22.9288519 L1.66512225,22.9288519 L1.66512225,21.3924515 Z" id="Shape-Copy" stroke="#202023" stroke-width="0.2" fill="#202023" fill-rule="nonzero"></path>
            </g>
        </g>
    </g>
</svg>