<svg width="32" height="32" viewBox="0 0 32 32" xmlns="http://www.w3.org/2000/svg">
    <g fill="none" fill-rule="evenodd">
        <circle stroke="#B5B9C9" cx="16" cy="16" r="15.5"/>
        <path d="M16.938 17.375c1.625 0 3.156.646 4.31 1.819a6.148 6.148 0 0 1 1.783 4.337c0 .26-.21.469-.468.469H9.438a.469.469 0 0 1-.47-.469c0-1.63.634-3.17 1.783-4.337a6.014 6.014 0 0 1 4.312-1.819zM16 8a4.224 4.224 0 0 1 4.219 4.219A4.224 4.224 0 0 1 16 16.438a4.224 4.224 0 0 1-4.219-4.22A4.224 4.224 0 0 1 16 8z" fill="#B5B9C9" fill-rule="nonzero"/>
    </g>
</svg>
