<?xml version="1.0" encoding="utf-8"?>
<svg width="24px" height="24px" viewBox="0 0 24 24" version="1.1" xmlns:xlink="http://www.w3.org/1999/xlink" xmlns="http://www.w3.org/2000/svg">
  <g id="Iconskeyvision">
    <g id="vision" transform="translate(1 6)">
      <path d="M21.8496 5.57874C16.8671 -1.86557 5.0781 -1.85359 0.103925 5.57874C-0.0346416 5.78583 -0.0346416 6.04668 0.103925 6.25373C5.07814 13.6861 16.8746 13.687 21.8496 6.25373C21.9881 6.04664 21.9881 5.78583 21.8496 5.57874ZM1.53997 5.91624C6.03583 -0.252318 15.9196 -0.249373 20.4135 5.91624C15.9185 12.0833 6.03486 12.0835 1.53997 5.91624Z" transform="translate(1.1000819E-05 0.033533715)" id="Shape" fill="#1D1E29" stroke="none" />
      <path d="M3.21588 0C1.4398 0 0 1.4398 0 3.21588C0 4.99196 1.4398 6.43175 3.21588 6.43175C4.99196 6.43175 6.43175 4.99196 6.43175 3.21588C6.43175 1.4398 4.99196 0 3.21588 0ZM3.21588 1.37299C4.23368 1.37299 5.05877 2.19808 5.05877 3.21588C5.05877 4.23368 4.23368 5.05877 3.21588 5.05877C2.19808 5.05877 1.37299 4.23368 1.37299 3.21588C1.37299 2.19808 2.19808 1.37299 3.21588 1.37299Z" transform="translate(7.638749 2.6526635)" id="Oval" fill="#1D1E29" stroke="none" />
    </g>
  </g>
</svg>