<?xml version="1.0" encoding="UTF-8"?>
<svg width="80px" height="80px" viewBox="0 0 80 80" version="1.1" xmlns="http://www.w3.org/2000/svg" xmlns:xlink="http://www.w3.org/1999/xlink">
    <title>97F52CA5-A8A1-415A-BB01-54D1E0512312</title>
    <g id="Page-1" stroke="none" stroke-width="1" fill="none" fill-rule="evenodd">
        <g id="Index_Geolocation" transform="translate(-1564.000000, -4440.000000)">
            <g id="Icons/80x80/Earning-franchises" transform="translate(1564.000000, 4440.000000)">
                <path d="M36.3452818,4.63517696 C16.5687895,0.315934919 -14.4722723,18.5004346 7.61305721,44.7203621 C8.39717963,45.6512802 9.13755288,46.5898445 9.39276547,47.6635146 C10.312295,51.5319417 13.3338993,59.5295955 15.1730555,63.1990748 C23.6355313,80.0833833 43.0256019,78.2629327 55.38995,69.2399425 C61.5015987,64.7799139 76.7925104,62.1832292 79.466592,50.5022118 C82.1406737,38.8211944 67.9793841,36.6136525 63.7238186,26.6730436 C59.4682531,16.7324347 49.0772961,7.415885 36.3452818,4.63517696 Z" id="Path-5-Copy" fill="#F7F8FA"></path>
                <g id="Group" transform="translate(8.500000, 19.152344)">
                    <g id="Без-названия" fill="#FFFFFF" fill-rule="nonzero">
                        <path d="M0.9140625,20.7421875 L3.5859375,20.7421875 L3.5859375,26.578125 C3.5859375,27.0703125 4.0078125,27.4921875 4.5,27.4921875 L5.90625,27.4921875 L5.90625,32.484375 L2.8828125,32.484375 C2.390625,32.484375 1.96875,32.90625 1.96875,33.3984375 L1.96875,40.078125 C1.96875,40.5703125 2.390625,40.9921875 2.8828125,40.9921875 L28.6171875,40.9921875 C28.6875,40.9921875 28.7578125,40.9921875 28.828125,40.921875 C29.8125,41.4140625 30.8671875,41.6953125 32.0625,41.6953125 L51.9609375,41.6953125 C53.7890625,41.6953125 55.546875,40.9921875 56.7421875,39.796875 C57.7265625,38.7421875 58.2890625,37.4765625 58.2890625,36.0703125 C58.21875,27.84375 56.6015625,14.1328125 46.8984375,10.3359375 L52.3828125,1.3359375 C52.5234375,1.0546875 52.5234375,0.703125 52.3828125,0.421875 C52.2421875,0.140625 51.9609375,0 51.609375,0 L43.03125,0 C42.6796875,0 42.3984375,0.2109375 42.2578125,0.4921875 L40.640625,4.1484375 L40.0078125,2.8125 C39.8671875,2.53125 39.5859375,2.3203125 39.234375,2.3203125 L32.90625,2.3203125 C32.5546875,2.3203125 32.2734375,2.53125 32.1328125,2.8125 C31.9921875,3.09375 32.0625,3.515625 32.2734375,3.7265625 L37.7578125,10.125 C33.890625,11.4609375 30.9375,14.4140625 28.8984375,18.984375 L27.5625,18.984375 L27.5625,13.9921875 L30.234375,13.9921875 C30.7265625,13.9921875 31.1484375,13.5703125 31.1484375,13.078125 L31.1484375,6.3984375 C31.1484375,5.90625 30.7265625,5.484375 30.234375,5.484375 L4.4296875,5.484375 C3.9375,5.484375 3.515625,5.90625 3.515625,6.3984375 L3.515625,12.234375 L0.9140625,12.234375 C0.421875,12.234375 0,12.65625 0,13.1484375 L0,19.828125 C0,20.390625 0.421875,20.7421875 0.9140625,20.7421875 Z" id="Shape"></path>
                    </g>
                    <g id="Без-названия-Copy-2">
                        <polygon id="Path-22" fill="#3384F7" points="46.7050793 10.2824908 51.890625 1.828125 42.5715532 0 40.7077388 5.1412454 38.337593 2.6015625 33.6252443 2.6015625 38.222653 10.2824908"></polygon>
                        <path d="M0.9140625,20.7421875 L3.5859375,20.7421875 L3.5859375,26.578125 C3.5859375,27.0703125 4.0078125,27.4921875 4.5,27.4921875 L5.90625,27.4921875 L5.90625,32.484375 L2.8828125,32.484375 C2.390625,32.484375 1.96875,32.90625 1.96875,33.3984375 L1.96875,40.078125 C1.96875,40.5703125 2.390625,40.9921875 2.8828125,40.9921875 L28.6171875,40.9921875 C28.6875,40.9921875 28.7578125,40.9921875 28.828125,40.921875 C29.8125,41.4140625 30.8671875,41.6953125 32.0625,41.6953125 L51.9609375,41.6953125 C53.7890625,41.6953125 55.546875,40.9921875 56.7421875,39.796875 C57.7265625,38.7421875 58.2890625,37.4765625 58.2890625,36.0703125 C58.21875,27.84375 56.6015625,14.1328125 46.8984375,10.3359375 L52.3828125,1.3359375 C52.5234375,1.0546875 52.5234375,0.703125 52.3828125,0.421875 C52.2421875,0.140625 51.9609375,0 51.609375,0 L43.03125,0 C42.6796875,0 42.3984375,0.2109375 42.2578125,0.4921875 L40.640625,4.1484375 L40.0078125,2.8125 C39.8671875,2.53125 39.5859375,2.3203125 39.234375,2.3203125 L32.90625,2.3203125 C32.5546875,2.3203125 32.2734375,2.53125 32.1328125,2.8125 C31.9921875,3.09375 32.0625,3.515625 32.2734375,3.7265625 L37.7578125,10.125 C33.890625,11.4609375 30.9375,14.4140625 28.8984375,18.984375 L27.5625,18.984375 L27.5625,13.9921875 L30.234375,13.9921875 C30.7265625,13.9921875 31.1484375,13.5703125 31.1484375,13.078125 L31.1484375,6.3984375 C31.1484375,5.90625 30.7265625,5.484375 30.234375,5.484375 L4.4296875,5.484375 C3.9375,5.484375 3.515625,5.90625 3.515625,6.3984375 L3.515625,12.234375 L0.9140625,12.234375 C0.421875,12.234375 0,12.65625 0,13.1484375 L0,19.828125 C0,20.390625 0.421875,20.7421875 0.9140625,20.7421875 Z M7.59375,27.4921875 L26.4375,27.4921875 C26.4375,27.5625 26.4375,27.6328125 26.4375,27.703125 C26.296875,28.40625 26.2265625,29.109375 26.15625,29.8125 C26.15625,29.8828125 26.15625,30.0234375 26.15625,30.09375 C26.0859375,30.7265625 26.015625,31.359375 26.015625,32.0625 C26.015625,32.203125 26.015625,32.2734375 26.015625,32.4140625 L7.59375,32.4140625 L7.59375,27.4921875 Z M3.796875,39.09375 L3.796875,34.171875 L6.75,34.171875 L25.8046875,34.171875 C25.8046875,34.2421875 25.8046875,34.3828125 25.8046875,34.453125 C25.8046875,34.5234375 25.8046875,34.59375 25.8046875,34.734375 C25.8046875,35.15625 25.8046875,35.578125 25.8046875,36 C25.8046875,36.28125 25.8046875,36.4921875 25.875,36.7734375 C25.875,36.84375 25.875,36.9140625 25.9453125,36.984375 C25.9453125,37.1953125 26.015625,37.3359375 26.0859375,37.4765625 C26.0859375,37.546875 26.15625,37.6171875 26.15625,37.6875 C26.2265625,37.8984375 26.296875,38.0390625 26.3671875,38.25 C26.3671875,38.3203125 26.4375,38.3203125 26.4375,38.390625 C26.578125,38.6015625 26.71875,38.8125 26.859375,39.0234375 C26.859375,39.0234375 26.859375,39.09375 26.859375,39.09375 L3.796875,39.09375 Z M38.6015625,4.1484375 L39.796875,6.8203125 C39.9375,7.1015625 40.21875,7.3125 40.5703125,7.3125 C40.5703125,7.3125 40.5703125,7.3125 40.5703125,7.3125 C40.921875,7.3125 41.203125,7.1015625 41.34375,6.8203125 L43.5234375,1.828125 L49.921875,1.828125 L45.140625,9.7734375 L44.71875,9.7734375 C44.578125,9.7734375 44.4375,9.703125 44.296875,9.703125 C44.2265625,9.703125 44.15625,9.703125 44.0859375,9.703125 C43.875,9.703125 43.59375,9.703125 43.3125,9.703125 L40.5,9.703125 C40.2890625,9.703125 40.1484375,9.703125 40.0078125,9.703125 C39.9375,9.703125 39.9375,9.703125 39.8671875,9.703125 C39.7265625,9.703125 39.5859375,9.703125 39.515625,9.7734375 C39.515625,9.7734375 39.4453125,9.7734375 39.4453125,9.7734375 L34.6640625,4.21875 L38.6015625,4.21875 L38.6015625,4.1484375 Z M39.515625,11.4609375 C39.796875,11.390625 40.1484375,11.390625 40.5703125,11.390625 L43.3828125,11.390625 C43.8046875,11.390625 44.15625,11.390625 44.4375,11.4609375 C44.4375,11.4609375 44.4375,11.4609375 44.4375,11.4609375 C54.84375,13.78125 56.4609375,27.84375 56.53125,36 C56.53125,36.9140625 56.1796875,37.7578125 55.4765625,38.4609375 C54.6328125,39.3046875 53.296875,39.8671875 51.9609375,39.8671875 L32.0625,39.8671875 C31.0078125,39.8671875 29.953125,39.5859375 29.109375,38.953125 C28.0546875,38.25 27.4921875,37.125 27.4921875,36 C27.4921875,35.0859375 27.4921875,34.171875 27.5625,33.328125 C27.703125,31.0078125 27.9140625,28.828125 28.265625,26.7890625 C28.265625,26.7890625 28.265625,26.71875 28.265625,26.71875 C28.40625,26.15625 28.4765625,25.5234375 28.6171875,24.9609375 C29.0390625,23.2734375 29.53125,21.65625 30.09375,20.25 C32.2734375,15.328125 35.3671875,12.4453125 39.515625,11.4609375 Z M28.0546875,21.0234375 C27.984375,21.1640625 27.984375,21.3046875 27.9140625,21.375 C27.7734375,21.7265625 27.6328125,22.1484375 27.5625,22.5703125 C27.4921875,22.7109375 27.4921875,22.8515625 27.421875,22.9921875 C27.28125,23.484375 27.140625,24.046875 27,24.5390625 C27,24.609375 26.9296875,24.75 26.9296875,24.8203125 C26.859375,25.1015625 26.7890625,25.3828125 26.71875,25.734375 L5.34375,25.734375 L5.34375,20.8125 L14.90625,20.8125 L14.90625,23.34375 L16.6640625,23.34375 L16.6640625,20.8125 L28.125,20.8125 C28.0546875,20.8828125 28.0546875,20.953125 28.0546875,21.0234375 Z M5.34375,7.3828125 L14.5546875,7.3828125 L14.5546875,9.9140625 L16.3125,9.9140625 L16.3125,7.3828125 L29.3203125,7.3828125 L29.3203125,12.3046875 L5.34375,12.3046875 L5.34375,7.3828125 Z M1.7578125,14.0625 L5.8359375,14.0625 L5.8359375,17.296875 L7.59375,17.296875 L7.59375,14.1328125 L10.40625,14.1328125 L10.40625,16.03125 L12.1640625,16.03125 L12.1640625,14.1328125 L25.734375,14.1328125 L25.734375,19.0546875 L1.7578125,19.0546875 L1.7578125,14.0625 Z" id="Shape" fill="#202023" fill-rule="nonzero"></path>
                        <path d="M37.6171875,25.6640625 C38.25,26.859375 39.5859375,27.703125 41.203125,27.9140625 C41.203125,27.9140625 41.2734375,27.9140625 41.2734375,27.9140625 L41.2734375,31.78125 C40.4296875,31.5703125 39.375,31.0078125 39.375,30.09375 L37.6171875,30.09375 C37.6171875,31.921875 39.3046875,33.1875 41.0625,33.5390625 C41.1328125,33.5390625 41.203125,33.5390625 41.2734375,33.5390625 L41.2734375,34.9453125 L43.03125,34.9453125 L43.03125,33.5390625 C44.015625,33.3984375 44.9296875,32.9765625 45.5625,32.34375 C45.5625,32.34375 45.5625,32.34375 45.5625,32.34375 C46.6171875,31.2890625 46.96875,29.671875 46.3359375,28.4765625 C46.265625,28.3359375 46.1953125,28.265625 46.125,28.125 C46.125,28.0546875 46.0546875,28.0546875 46.0546875,27.984375 C45.984375,27.9140625 45.9140625,27.84375 45.84375,27.7734375 C45.7734375,27.703125 45.7734375,27.703125 45.703125,27.6328125 C45.6328125,27.5625 45.5625,27.4921875 45.4921875,27.421875 C45.421875,27.3515625 45.3515625,27.3515625 45.3515625,27.28125 C45.28125,27.2109375 45.2109375,27.140625 45.0703125,27.0703125 C45,27 44.9296875,27 44.859375,26.9296875 C44.7890625,26.859375 44.6484375,26.7890625 44.578125,26.7890625 C44.5078125,26.71875 44.4375,26.71875 44.3671875,26.6484375 C44.2265625,26.578125 44.0859375,26.578125 43.9453125,26.5078125 C43.875,26.5078125 43.8046875,26.4375 43.6640625,26.4375 C43.5234375,26.3671875 43.3125,26.3671875 43.1015625,26.296875 C43.03125,26.296875 42.9609375,26.296875 42.890625,26.2265625 C42.890625,26.2265625 42.890625,26.2265625 42.890625,26.2265625 L42.890625,22.2890625 C43.59375,22.5703125 44.4375,23.0625 44.4375,23.8359375 L46.1953125,23.8359375 C46.1953125,22.078125 44.578125,20.8125 42.890625,20.4609375 L42.890625,18.9140625 L41.34375,18.9140625 L41.34375,20.390625 C40.21875,20.53125 39.1640625,20.953125 38.390625,21.7265625 C38.25,21.8671875 38.109375,22.0078125 38.0390625,22.1484375 C37.265625,23.203125 37.125,24.609375 37.6171875,25.6640625 C37.6171875,25.6640625 37.6171875,25.6640625 37.6171875,25.6640625 Z M43.1015625,28.125 C43.8046875,28.265625 44.578125,28.546875 44.859375,29.25 C44.9296875,29.390625 45,29.53125 45,29.7421875 C45,30.234375 44.7890625,30.7265625 44.4375,31.078125 C44.3671875,31.1484375 44.296875,31.21875 44.2265625,31.21875 C43.875,31.4296875 43.5234375,31.640625 43.1015625,31.78125 L43.1015625,28.125 L43.1015625,28.125 Z M41.34375,22.21875 L41.34375,26.0859375 C41.2734375,26.0859375 41.1328125,26.015625 41.0625,26.015625 C40.4296875,25.875 39.796875,25.5234375 39.375,25.03125 C39.3046875,24.9609375 39.3046875,24.890625 39.234375,24.8203125 C38.953125,24.328125 39.1640625,23.5546875 39.65625,23.0625 C40.078125,22.640625 40.640625,22.359375 41.34375,22.21875 Z" id="Shape" fill="#202023" fill-rule="nonzero"></path>
                        <path d="M58.2890625,3.3046875 C58.21875,2.8828125 57.8671875,2.6015625 57.4453125,2.6015625 C57.0234375,2.6015625 56.671875,2.8828125 56.6015625,3.3046875 C55.828125,7.9453125 52.6640625,8.9296875 52.5234375,8.9296875 C52.171875,9.0703125 51.890625,9.421875 51.890625,9.84375 C51.890625,10.265625 52.171875,10.546875 52.5234375,10.6875 C52.6640625,10.7578125 55.828125,11.7421875 56.6015625,16.3125 C56.671875,16.734375 57.0234375,17.015625 57.4453125,17.015625 C57.8671875,17.015625 58.21875,16.734375 58.2890625,16.3125 C59.0625,11.671875 62.2265625,10.6875 62.3671875,10.6875 C62.71875,10.546875 63,10.1953125 63,9.7734375 C63,9.3515625 62.71875,9.0703125 62.3671875,8.9296875 C62.2265625,8.9296875 59.0625,7.9453125 58.2890625,3.3046875 Z M57.375,13.21875 C56.6015625,11.53125 55.4765625,10.4765625 54.5625,9.84375 C55.4765625,9.2109375 56.6015625,8.15625 57.375,6.46875 C58.1484375,8.15625 59.2734375,9.2109375 60.1875,9.84375 C59.2734375,10.4765625 58.21875,11.53125 57.375,13.21875 Z" id="Shape" fill="#202023" fill-rule="nonzero"></path>
                    </g>
                </g>
            </g>
        </g>
    </g>
</svg>