<svg width="64" height="64" viewBox="0 0 64 64" xmlns="http://www.w3.org/2000/svg">
    <g fill="none" fill-rule="evenodd">
        <path d="M62.646 27.609c2.001-4.576.826-9.46.583-10.354.48-1.911.227-3.452-.718-4.345-.657-.622-1.363-.992-2.104-1.106.046-.287.04-.552-.018-.804-.2-.89-.935-1.39-1.802-1.906-.763-.454-1.51-.683-2.227-.684.107-.512.062-.95-.137-1.333-.454-.869-1.52-1.107-2.607-1.235-2.35-.268-3.94 1.708-5.237 3.654-2.918-.437-8.39-1.383-9.602-2.05-1.977-1.087-8.977-3.123-13.68-4.15-4.874-1.064-9.437 1.046-10.266 1.46-1.97-.099-3.43.453-4.121 1.555-.481.768-.706 1.534-.672 2.281-.29.012-.549.07-.786.175-.833.372-1.179 1.19-1.515 2.142-.296.837-.374 1.614-.234 2.316-.522-.008-.945.127-1.28.397-.765.617-.788 1.71-.699 2.798.108 1.323.721 2.76 4.378 4.323-.323.815-.892 2.049-1.66 2.945-1.465 1.714-4.882 8.154-6.844 12.55-2.035 4.559-.897 9.455-.66 10.35-.496 1.909-.254 3.452.684 4.354.653.626 1.357 1.002 2.097 1.12-.048.287-.044.552.01.804.195.89.926 1.396 1.79 1.92.756.456 1.503.692 2.221.7-.11.512-.068.951.128 1.334.448.873 1.513 1.117 2.597 1.252.155.02.31.029.46.029 2.115 0 3.599-1.857 4.82-3.664 3.029.508 8.71 1.58 9.937 2.242 1.983 1.072 8.998 3.056 13.71 4.048a13.17 13.17 0 0 0 2.7.273c3.818 0 7.01-1.531 7.576-1.82l.059.006c.098.008.197.016.29.016 1.777 0 3.106-.567 3.74-1.597.475-.769.694-1.534.656-2.281.285-.015.542-.076.783-.184.83-.379 1.17-1.2 1.499-2.154.29-.839.362-1.616.217-2.318h.003c.514 0 .943-.137 1.274-.407.76-.62.775-1.714.678-2.803-.194-2.196-2.197-3.374-4.408-4.292.318-.817.878-2.056 1.637-2.956 1.454-1.726 4.823-8.192 6.75-12.601z" fill="#FFF"/>
        <path fill="#3384F7" d="m42.8 9.631-4.71 11.691 3.159 2.29 2.228-1.426 2.924-7.497 1.601-4.324zM23.554 23.071c-3.84-.831-6.745-1.547-8.712-2.146-1.967-.599-3.082-1.108-3.345-1.526l-2.403 4 2.012 1.44 7.723 2.26 3.003.954 1.722-4.982zM20.704 40.933l-4.709 11.691 4.018 1.793 1.369-.93 2.924-7.496 1.208-3.828zM54.536 38.544l-12.247-2.952-1.246 3.439-.765 1.46 9.533 2.082 3.919.87z"/>
        <path d="m52.59 42.52-.362-.135c-.484-.181-.976-.365-1.468-.558-2.548-1.004-4.493-1.034-6.377-1.063-.852-.012-1.657-.024-2.51-.129-.531-.064-.903-.219-1.197-.407 3.063-1.818 2.854-4.047 2.607-4.95-.238-.874-.577-1.754-.94-2.698-.827-2.145-1.682-4.362-1.134-6.246.369-1.267.97-1.659 1.73-2.155.777-.506 1.744-1.135 2.275-2.708.303-.897.497-1.764.688-2.615.393-1.758.764-3.42 2.087-5.438.282-.43.555-.862.824-1.289l.092-.146c1.54-2.447 2.876-4.557 4.504-4.364.881.103 1.152.242 1.222.29 0 .082-.035.372-.42 1.089-.387.722-.838 1.747-1.316 2.836-.703 1.6-1.666 3.79-2.196 4.303l-.25.242 1.24 1.286.252-.242c.782-.756 1.658-2.749 2.593-4.874.299-.68.613-1.393.892-1.98.21-.23.887-.748 2.247.062.3.178.926.55.974.763.032.144-.03.563-.816 1.74-1.655 2.471-2.154 5.34-2.174 5.46l-.058.345 1.763.294.058-.344c.004-.026.448-2.6 1.896-4.762a13.2 13.2 0 0 0 .351-.556c.301-.062.89-.05 1.616.637.73.69.575 3.281-1.616 6.35l-.203.283 1.455 1.04.203-.284c.291-.409.561-.827.807-1.253.162 1.892.063 4.298-.92 6.55-2.053 4.693-5.263 10.718-6.482 12.165-.926 1.1-1.578 2.534-1.937 3.461zm-11.031-6.771c.44 1.613-1.426 2.77-2.286 3.208-.672-.6-1.534-1.141-3.052-1.26-2.559-.2-4.914 1.32-6.994 2.66-.803.518-1.563 1.007-2.292 1.379-1.415.721-2.832-.645-3.529-1.49.516-.553.878-1.215 1.13-2.06.734-2.457-.254-5.079-1.127-7.397-.338-.895-.656-1.74-.866-2.531-.427-1.613 1.447-2.759 2.31-3.192.667.606 1.525 1.153 3.042 1.283.163.014.332.022.501.022 2.367 0 4.568-1.397 6.514-2.63.808-.512 1.57-.995 2.302-1.361 1.358-.68 2.723.584 3.403 1.378-.515.559-.875 1.227-1.122 2.077-.716 2.466.292 5.08 1.182 7.388l.325-.126-.32.139c.342.888.665 1.727.879 2.513zm-33.06-20.53c.79.24 1.932.49 3.05.736 1.703.376 4.035.89 4.64 1.308l.286.198 1.018-1.47-.287-.198c-.895-.619-3.025-1.088-5.285-1.586a80.693 80.693 0 0 1-2.121-.488c-.265-.16-.905-.721-.378-2.215.107-.303.358-1.015.558-1.104.135-.06.557-.08 1.866.46 2.814 1.165 5.761 1.06 5.79 1.059l.34-.019-.057-1.779-.349.012c-.026 0-2.63.072-5.04-.925-.202-.084-.4-.16-.614-.236-.12-.282-.225-.86.308-1.71.534-.852 3.105-1.207 6.543.34l.318.144.733-1.631-.318-.143c-.457-.206-.92-.388-1.383-.545 1.823-.53 4.202-.905 6.6-.382 5.004 1.092 11.542 3.058 13.2 3.97 1.498.824 6.724 1.713 9.404 2.13-.269.427-.543.862-.827 1.294-1.501 2.293-1.926 4.193-2.337 6.03-.185.831-.361 1.616-.636 2.43-.324.96-.844 1.32-1.501 1.748-.969-1.156-3.097-3.118-5.606-1.865-.813.406-1.611.912-2.457 1.449l-.021.013c-1.934 1.227-3.933 2.497-5.886 2.326-1.315-.113-1.816-.626-2.451-1.274-.649-.662-1.456-1.487-3.103-1.7-.937-.12-1.824-.141-2.699-.161-1.8-.041-3.502-.08-5.74-.98-.507-.205-1.015-.399-1.514-.59l-.05-.019c-2.712-1.034-5.054-1.928-5.188-3.57-.072-.885.011-1.178.044-1.255.081-.017.371-.04 1.15.197zm1.195 39.695c.394-.723.852-1.744 1.34-2.832.713-1.592 1.691-3.774 2.225-4.281l.253-.24-1.232-1.296-.253.24c-.79.752-1.683 2.743-2.628 4.852-.336.75-.638 1.418-.909 1.977-.21.227-.889.742-2.247-.08-.299-.18-.92-.557-.967-.77-.032-.145.034-.564.83-1.733 1.682-2.475 2.192-5.326 2.213-5.446l.06-.344-1.762-.306-.06.344c-.004.025-.467 2.595-1.93 4.746-.123.181-.237.358-.354.55-.304.06-.897.044-1.614-.644-.725-.696-.55-3.286 1.663-6.338l.205-.282-1.447-1.05-.204.282c-.294.404-.566.82-.815 1.243-.148-1.895-.031-4.301.967-6.538 2.086-4.678 5.341-10.68 6.57-12.117.936-1.095 1.598-2.523 1.964-3.447l.293.112c.504.192 1.018.388 1.53.595 2.543 1.023 4.489 1.067 6.38 1.11.85.019 1.653.037 2.5.147.53.068.902.226 1.194.416-3.077 1.794-2.884 4.025-2.644 4.93.23.873.56 1.75.91 2.68l.01.027c.81 2.15 1.648 4.372 1.086 6.253-.377 1.266-.981 1.652-1.748 2.144-.78.5-1.75 1.123-2.292 2.69-.31.897-.51 1.764-.707 2.609-.406 1.755-.79 3.413-2.129 5.424-.296.448-.585.9-.87 1.343l-.038.06c-1.563 2.443-2.913 4.552-4.552 4.354-.88-.109-1.15-.25-1.219-.298 0-.082.036-.37.428-1.086zm38.014-8.415-1.007 1.477.289.197c.899.613 3.035 1.067 5.296 1.546.768.163 1.509.321 2.126.471.221.13.924.677.393 2.214-.104.304-.35 1.017-.55 1.109-.134.06-.556.085-1.868-.447-2.762-1.119-5.669-1.021-5.79-1.017l-.35.013.072 1.787.348-.014c.026-.001 2.639-.089 5.048.888.211.086.412.162.61.231.123.286.23.87-.29 1.713-.527.855-3.095 1.23-6.545-.291l-.32-.141-.72 1.635.318.14c.456.202.92.38 1.39.535-1.822.544-4.2.936-6.598.432-5.016-1.055-11.568-2.973-13.229-3.872-1.483-.8-6.943-1.819-9.723-2.3.27-.422.545-.851.828-1.276 1.517-2.276 1.956-4.17 2.383-6.015.192-.83.374-1.614.654-2.423.332-.96.857-1.313 1.524-1.742.415.51 1.102 1.24 1.965 1.756 1.27.759 2.58.836 3.784.223.81-.413 1.607-.927 2.45-1.47 1.931-1.245 3.923-2.532 5.886-2.38 1.315.102 1.82.61 2.462 1.256.654.657 1.467 1.475 3.114 1.675.94.114 1.828.128 2.7.141 1.802.028 3.503.054 5.749.938.52.205 1.04.4 1.552.59l.122-.327-.097.336c2.713 1.015 5.057 1.89 5.203 3.531.078.884-.003 1.176-.035 1.254-.081.017-.372.042-1.152-.19-.777-.23-1.867-.461-3.02-.707l-.023-.005c-1.71-.362-4.051-.86-4.66-1.274l-.289-.197zm14.938-18.89c2.001-4.576.826-9.46.583-10.354.48-1.911.227-3.452-.718-4.345-.657-.622-1.363-.992-2.104-1.106.046-.287.04-.552-.018-.804-.2-.89-.935-1.39-1.802-1.906-.763-.454-1.51-.683-2.227-.684.107-.512.062-.95-.137-1.333-.454-.869-1.52-1.107-2.607-1.235-2.35-.268-3.94 1.708-5.237 3.654-2.918-.437-8.39-1.383-9.602-2.05-1.977-1.087-8.977-3.123-13.68-4.15-4.874-1.064-9.437 1.046-10.266 1.46-1.97-.099-3.43.453-4.121 1.555-.481.768-.706 1.534-.672 2.281-.29.012-.549.07-.786.175-.833.372-1.179 1.19-1.515 2.142-.296.837-.374 1.614-.234 2.316-.522-.008-.945.127-1.28.397-.765.617-.788 1.71-.699 2.798.108 1.323.721 2.76 4.378 4.323-.323.815-.892 2.049-1.66 2.945-1.465 1.714-4.882 8.154-6.844 12.55-2.035 4.559-.897 9.455-.66 10.35-.496 1.909-.254 3.452.684 4.354.653.626 1.357 1.002 2.097 1.12-.048.287-.044.552.01.804.195.89.926 1.396 1.79 1.92.756.456 1.503.692 2.221.7-.11.512-.068.951.128 1.334.448.873 1.513 1.117 2.597 1.252.155.02.31.029.46.029 2.115 0 3.599-1.857 4.82-3.664 3.029.508 8.71 1.58 9.937 2.242 1.983 1.072 8.998 3.056 13.71 4.048a13.17 13.17 0 0 0 2.7.273c3.818 0 7.01-1.531 7.576-1.82l.059.006c.098.008.197.016.29.016 1.777 0 3.106-.567 3.74-1.597.475-.769.694-1.534.656-2.281.285-.015.542-.076.783-.184.83-.379 1.17-1.2 1.499-2.154.29-.839.362-1.616.217-2.318h.003c.514 0 .943-.137 1.274-.407.76-.62.775-1.714.678-2.803-.194-2.196-2.197-3.374-4.408-4.292.318-.817.878-2.056 1.637-2.956 1.454-1.726 4.823-8.192 6.75-12.601z" fill="#0F0F0F"/>
    </g>
</svg>
