<?xml version="1.0" encoding="UTF-8"?>
<svg width="24px" height="24px" viewBox="0 0 24 24" version="1.1" xmlns="http://www.w3.org/2000/svg" xmlns:xlink="http://www.w3.org/1999/xlink">
    <title>DD476F2B-0304-463F-8C08-53B2D2BC3F15</title>
    <g id="Page-1" stroke="none" stroke-width="1" fill="none" fill-rule="evenodd">
        <g id="Index_Rating" transform="translate(-1196.000000, -4840.000000)">
            <g id="Icons/24x24/geography" transform="translate(1196.000000, 4840.000000)">
                <path d="M19.7833263,19.9314809 C19.8630617,19.8174593 19.9413353,19.7017101 20.018147,19.5842333 C20.0624001,19.5152622 20.1078493,19.4474872 20.1505077,19.3777187 C20.2449942,19.2222347 20.3342978,19.0623653 20.4200133,18.8993065 C20.4646651,18.815983 20.5073235,18.7322609 20.5491846,18.6477414 C20.615365,18.5148491 20.6784888,18.3794318 20.7385561,18.2414896 C20.7852013,18.1342455 20.8294545,18.0266028 20.8721129,17.9181627 C20.9195554,17.7985596 20.9646059,17.6789566 21.0072643,17.5541707 C21.0367664,17.4696512 21.0670659,17.3851317 21.0937772,17.2994162 C21.1503893,17.1208089 21.2018186,16.9399425 21.2480652,16.7568169 C21.266803,16.6822644 21.2827501,16.6073131 21.2998932,16.5323619 C21.3357741,16.3728911 21.3680669,16.2134204 21.3959743,16.0515576 C21.4047452,15.9985335 21.4159081,15.9463069 21.4242803,15.8920868 C21.4565732,15.6835788 21.4800951,15.4726787 21.4988329,15.2597853 C21.5040157,15.2031732 21.5080025,15.1461624 21.5119893,15.0891516 C21.5267403,14.8694806 21.5375046,14.6454242 21.5375046,14.4189758 C21.5375046,14.2419632 21.5319231,14.0661467 21.5223549,13.8911276 C21.5183681,13.8185684 21.5111919,13.7468066 21.5056104,13.674646 C21.4980356,13.5745781 21.4904607,13.4753076 21.4796964,13.3760371 C21.4701282,13.2863348 21.4577692,13.1978285 21.4454102,13.1089236 C21.4346459,13.0291882 21.423483,12.9494528 21.4103267,12.8697174 C21.3947783,12.772839 21.3772365,12.6763591 21.3584987,12.580278 C21.3449436,12.5105096 21.3301926,12.4415385 21.3150429,12.3721687 C21.2935143,12.2728982 21.2711884,12.1728303 21.2464705,12.0751544 C21.229726,12.0085754 21.2105895,11.9427937 21.1926491,11.875816 C21.1655391,11.7777415 21.1392264,11.679667 21.1089269,11.5827885 C21.0786275,11.48591 21.0435439,11.3862408 21.0100551,11.288565 C20.9701874,11.1729487 20.9271303,11.0581297 20.8824785,10.9433108 C20.8426108,10.8428442 20.8027431,10.7439723 20.7628754,10.6439044 C20.734968,10.5789201 20.7050673,10.5147331 20.6755652,10.4505462 C20.6321094,10.3552624 20.5874576,10.260776 20.5408124,10.1674856 C20.5248653,10.1347941 20.5109116,10.1013052 20.4941672,10.0686137 C20.4897818,10.0606402 20.4838016,10.0542614 20.4790175,10.0462878 C19.4138,7.98551041 17.6399068,6.37896832 15.4839949,5.52250133 C15.4780148,5.51971059 15.4732307,5.51572383 15.4668518,5.51333176 C15.4513034,5.50695293 15.4353564,5.50296617 15.419808,5.49698601 C15.1710336,5.40050621 14.917608,5.314392 14.6595312,5.2386434 C14.6289659,5.22934094 14.5982678,5.22057005 14.5674368,5.21233072 C14.311752,5.13977153 14.0522134,5.07784373 13.7888209,5.0265473 C13.7557307,5.01976979 13.7218432,5.014587 13.688753,5.00860684 C13.4264236,4.96076562 13.1613035,4.92209396 12.8913992,4.89617996 C12.8634918,4.89338923 12.8359831,4.8921932 12.8084744,4.88980113 C12.66216,4.87704347 12.5150483,4.86707655 12.3671391,4.86069772 L12.3671391,3.95530254 L17.6599733,2.44312116 C17.8307627,2.39397285 17.9483967,2.23771319 17.9483967,2.05999269 C17.9483967,1.88227219 17.8307627,1.72601253 17.6599733,1.67686421 L12.0784971,0.0821567171 C12.0642008,0.0805541466 12.0498258,0.079755536 12.03544,0.0797646558 C12.0137842,0.0735462242 11.9916472,0.0691455137 11.9692596,0.066608319 C11.9558284,0.0686741665 11.9425195,0.0714690328 11.9293919,0.0749805334 C11.9073729,0.0773643936 11.8856199,0.0817683884 11.8644076,0.0881368702 C11.8294166,0.0978200404 11.7959886,0.112453171 11.7651371,0.131592649 C11.7543728,0.138370156 11.7408178,0.13916751 11.7300535,0.147141047 C11.7192892,0.155114585 11.7208839,0.160297384 11.7149038,0.16587886 C11.6849115,0.192150015 11.6592179,0.222955455 11.6387565,0.257175865 C11.6286377,0.269784508 11.6194442,0.283108496 11.6112478,0.297043552 C11.5853104,0.349387801 11.5714158,0.406873081 11.5705827,0.465285192 L11.5705827,4.86069772 C11.5394859,4.86069772 11.5083891,4.86069772 11.4772924,4.86308978 C11.3194163,4.87106332 11.1622047,4.88315652 11.0056576,4.89936938 L10.9921026,4.89936938 C10.849775,4.91372175 10.7086433,4.93285824 10.5675117,4.95358943 C10.5491726,4.95638017 10.5304348,4.95797488 10.5124943,4.96076562 C10.3928913,4.97910475 10.2712948,5.0006333 10.1512931,5.02535127 C10.1114254,5.03252745 10.0747471,5.03850761 10.0368728,5.04608247 C9.93481153,5.06721234 9.83394628,5.09232899 9.73308103,5.11664827 C9.67726627,5.12980461 9.62065415,5.14176492 9.56483939,5.15651596 C9.47792783,5.17924054 9.39181363,5.20555322 9.30530075,5.23066986 C9.23672832,5.2506037 9.16735855,5.27053755 9.09958348,5.29047139 C9.01984811,5.31518936 8.94449818,5.34269806 8.86675619,5.37020677 C8.7890142,5.39771547 8.71685368,5.42083873 8.64269978,5.44994214 C8.56854588,5.47904555 8.49199992,5.509345 8.41665,5.53924576 C8.34130007,5.56914653 8.27193029,5.59705391 8.20056713,5.62775203 C8.1786399,5.63692159 8.156314,5.64489513 8.13438677,5.65446338 C8.12840662,5.65725412 8.12362249,5.66203824 8.11804102,5.66482898 C6.98726455,6.16498642 5.96362128,6.87863987 5.1032465,7.76665345 C5.09607032,7.77343096 5.0876981,7.77701905 5.0809206,7.78419523 C5.05620263,7.80931188 5.03547143,7.83761794 5.01155082,7.86393061 C4.84490389,8.04094314 4.68423711,8.2227398 4.53313857,8.41250999 C4.48888544,8.46673004 4.44622701,8.52174745 4.40356859,8.57716354 C4.26124094,8.76095357 4.12449478,8.94992641 3.99532347,9.14408205 C3.95266504,9.2086677 3.91160133,9.27405071 3.87013893,9.33943372 C3.75053587,9.53119729 3.6345209,9.72734632 3.52727682,9.92788078 C3.49059855,9.99685188 3.45551498,10.0662217 3.42043142,10.1359901 C3.31757278,10.34091 3.22109298,10.549418 3.13178936,10.7623115 C3.10507801,10.8268971 3.07996137,10.8922801 3.05484473,10.9576631 C2.96753449,11.1813209 2.88740044,11.4077693 2.8156386,11.6390019 C2.79929285,11.6928233 2.78494048,11.7470434 2.76979076,11.8012634 C2.69962363,12.0464497 2.63782872,12.2944267 2.58759543,12.5471878 C2.57962189,12.5870555 2.57364174,12.6269232 2.56646556,12.6643988 C2.51663095,12.9315123 2.4759659,13.2018153 2.44885588,13.4765036 C2.44686249,13.4984309 2.44566646,13.5207568 2.44367308,13.542684 C2.41656305,13.8297313 2.40101465,14.1223602 2.40101465,14.4189758 C2.40101465,14.6581819 2.41297496,14.897388 2.43051674,15.133006 C2.43330748,15.1684883 2.43530086,15.2031732 2.43849028,15.2386554 C2.45922148,15.481051 2.48792621,15.7210544 2.52659787,15.9562738 L2.52659787,15.9678354 L2.52659787,15.9714235 C3.04560098,19.0901437 5.06776851,21.7529625 7.93265627,23.0901978 C7.93783907,23.0929885 7.94182584,23.0973739 7.94740732,23.1001647 C7.99484986,23.1220919 8.04308977,23.1400324 8.09053231,23.1619596 C8.17026769,23.1982392 8.25359115,23.2337214 8.33571859,23.267609 C8.4078791,23.2975097 8.48003962,23.3254171 8.55259881,23.3533245 C8.63233418,23.3836239 8.71206956,23.4135247 8.79180493,23.4418308 C8.87154031,23.4701368 8.94848495,23.4960508 9.02702429,23.5215661 C9.10556363,23.5470815 9.17573076,23.5682113 9.25068202,23.5905372 C9.33639754,23.6160526 9.42171439,23.6407705 9.5078286,23.6638938 C9.5767997,23.6822329 9.64616947,23.6985787 9.71553925,23.7153231 C9.80723493,23.737649 9.89893061,23.7599749 9.99102497,23.7791114 C10.0580027,23.7934638 10.1253791,23.8050254 10.1927555,23.8189791 C10.2872419,23.8369195 10.3813296,23.85486 10.4762147,23.8700097 C10.5479766,23.8811727 10.6201371,23.8895449 10.6922976,23.8991131 C10.7831959,23.9110734 10.8740942,23.9246285 10.9657899,23.933798 C11.0574856,23.9429676 11.1443972,23.9489477 11.2340995,23.9557253 C11.3098481,23.9613067 11.385198,23.9688816 11.4613453,23.9728684 C11.6309158,23.9824366 11.8002206,23.9872207 11.9692596,23.9872207 C12.1382986,23.9872207 12.3072047,23.9827024 12.4759779,23.9736657 C12.5521252,23.9696789 12.6278738,23.9621041 12.7036224,23.9561239 C12.7937234,23.9493464 12.884223,23.9437649 12.9735267,23.9341967 C13.0628303,23.9246285 13.1589114,23.9110734 13.2526005,23.8987145 C13.3231663,23.8891462 13.3941308,23.880774 13.4642979,23.8700097 C13.5623724,23.8544613 13.6596496,23.8357235 13.7573254,23.8173844 C13.8215124,23.8050254 13.886098,23.7934638 13.9498863,23.7799088 C14.0467648,23.7595762 14.1428459,23.7368516 14.2389271,23.7133297 C14.3035127,23.6973826 14.368497,23.6814356 14.432684,23.6642925 C14.5247784,23.6399732 14.6164741,23.6136605 14.7077711,23.5845571 C14.7767422,23.5638259 14.8453146,23.5446894 14.9134883,23.5203701 C14.9993367,23.4937916 15.0849194,23.4648211 15.1702362,23.4334585 C15.2431941,23.4075446 15.3157533,23.3800358 15.3879138,23.3537232 C15.4676492,23.3226264 15.5473846,23.2915296 15.629512,23.2580407 C15.7024699,23.2277413 15.7742317,23.1954485 15.8459935,23.1635543 C15.9065924,23.136843 15.96759,23.1125237 16.0277902,23.0838189 C16.0333717,23.0810282 16.0381558,23.0766427 16.0437373,23.073852 C17.479517,22.3940977 18.7248836,21.3697826 19.6689061,20.0921477 C19.6748862,20.0853702 19.6824611,20.0801874 19.6876439,20.0730112 C19.7207341,20.0271633 19.7494388,19.9785248 19.7833263,19.9314809 Z" id="Shape" fill="#FFFFFF" fill-rule="nonzero"></path>
                <polygon id="Path-6" fill="#CBEC4C" points="11.8708949 4.1806006 11.8435468 0.320679647 17.4317021 1.47296926"></polygon>
                <polygon id="Path-5" fill="#CBEC4C" points="19.6744875 10.3755232 19.6744875 12.3982305 17.7057611 13.2930119 16.099552 15.3676394 14.9920277 17.4143119 14.5929521 19.5184756 16.099552 19.9239826 18.5743553 19.5184756 19.6744875 19.5184756 21.5375046 15.6905538 20.7401508 12.3982305"></polygon>
                <path d="M11.9692596,0.066608319 C11.9916472,0.0691455137 12.0137842,0.0735462242 12.03544,0.0797646558 C12.0498258,0.079755536 12.0642008,0.0805541466 12.0784971,0.0821567171 L12.0784971,0.0821567171 L17.6599733,1.67686421 C17.8307627,1.72601253 17.9483967,1.88227219 17.9483967,2.05999269 C17.9483967,2.23771319 17.8307627,2.39397285 17.6599733,2.44312116 L17.6599733,2.44312116 L12.3671391,3.95530254 L12.3671391,4.86069772 C12.5150483,4.86707655 12.66216,4.87704347 12.8084744,4.88980113 C12.8359831,4.8921932 12.8634918,4.89338923 12.8913992,4.89617996 C13.1613035,4.92209396 13.4264236,4.96076562 13.688753,5.00860684 L13.688753,5.00860684 L13.7888209,5.0265473 C14.0522134,5.07784373 14.311752,5.13977153 14.5674368,5.21233072 C14.5982678,5.22057005 14.6289659,5.22934094 14.6595312,5.2386434 C14.917608,5.314392 15.1710336,5.40050621 15.419808,5.49698601 C15.4353564,5.50296617 15.4513034,5.50695293 15.4668518,5.51333176 C15.4732307,5.51572383 15.4780148,5.51971059 15.4839949,5.52250133 C17.6399068,6.37896832 19.4138,7.98551041 20.4790175,10.0462878 C20.4838016,10.0542614 20.4897818,10.0606402 20.4941672,10.0686137 L20.4941672,10.0686137 L20.5408124,10.1674856 C20.5874576,10.260776 20.6321094,10.3552624 20.6755652,10.4505462 C20.7050673,10.5147331 20.734968,10.5789201 20.7628754,10.6439044 C20.8027431,10.7439723 20.8426108,10.8428442 20.8824785,10.9433108 C20.9271303,11.0581297 20.9701874,11.1729487 21.0100551,11.288565 C21.0435439,11.3862408 21.0786275,11.48591 21.1089269,11.5827885 C21.1392264,11.679667 21.1655391,11.7777415 21.1926491,11.875816 C21.2105895,11.9427937 21.229726,12.0085754 21.2464705,12.0751544 C21.2711884,12.1728303 21.2935143,12.2728982 21.3150429,12.3721687 C21.3301926,12.4415385 21.3449436,12.5105096 21.3584987,12.580278 C21.3772365,12.6763591 21.3947783,12.772839 21.4103267,12.8697174 C21.423483,12.9494528 21.4346459,13.0291882 21.4454102,13.1089236 C21.4577692,13.1978285 21.4701282,13.2863348 21.4796964,13.3760371 C21.4904607,13.4753076 21.4980356,13.5745781 21.5056104,13.674646 C21.5111919,13.7468066 21.5183681,13.8185684 21.5223549,13.8911276 C21.5319231,14.0661467 21.5375046,14.2419632 21.5375046,14.4189758 C21.5375046,14.6454242 21.5267403,14.8694806 21.5119893,15.0891516 C21.5080025,15.1461624 21.5040157,15.2031732 21.4988329,15.2597853 C21.4800951,15.4726787 21.4565732,15.6835788 21.4242803,15.8920868 C21.4159081,15.9463069 21.4047452,15.9985335 21.3959743,16.0515576 C21.3680669,16.2134204 21.3357741,16.3728911 21.2998932,16.5323619 C21.2827501,16.6073131 21.266803,16.6822644 21.2480652,16.7568169 C21.2018186,16.9399425 21.1503893,17.1208089 21.0937772,17.2994162 C21.0670659,17.3851317 21.0367664,17.4696512 21.0072643,17.5541707 C20.9646059,17.6789566 20.9195554,17.7985596 20.8721129,17.9181627 C20.8294545,18.0266028 20.7852013,18.1342455 20.7385561,18.2414896 C20.6784888,18.3794318 20.615365,18.5148491 20.5491846,18.6477414 C20.5073235,18.7322609 20.4646651,18.815983 20.4200133,18.8993065 C20.3342978,19.0623653 20.2449942,19.2222347 20.1505077,19.3777187 L20.1505077,19.3777187 L20.018147,19.5842333 C19.9413353,19.7017101 19.8630617,19.8174593 19.7833263,19.9314809 C19.7494388,19.9785248 19.7207341,20.0271633 19.6876439,20.0730112 C19.6824611,20.0801874 19.6748862,20.0853702 19.6689061,20.0921477 C18.7248836,21.3697826 17.479517,22.3940977 16.0437373,23.073852 L16.0437373,23.073852 L16.0277902,23.0838189 C15.96759,23.1125237 15.9065924,23.136843 15.8459935,23.1635543 C15.7742317,23.1954485 15.7024699,23.2277413 15.629512,23.2580407 C15.5473846,23.2915296 15.4676492,23.3226264 15.3879138,23.3537232 C15.3157533,23.3800358 15.2431941,23.4075446 15.1702362,23.4334585 C15.0849194,23.4648211 14.9993367,23.4937916 14.9134883,23.5203701 C14.8453146,23.5446894 14.7767422,23.5638259 14.7077711,23.5845571 C14.6164741,23.6136605 14.5247784,23.6399732 14.432684,23.6642925 C14.368497,23.6814356 14.3035127,23.6973826 14.2389271,23.7133297 C14.1428459,23.7368516 14.0467648,23.7595762 13.9498863,23.7799088 C13.886098,23.7934638 13.8215124,23.8050254 13.7573254,23.8173844 C13.6596496,23.8357235 13.5623724,23.8544613 13.4642979,23.8700097 C13.3941308,23.880774 13.3231663,23.8891462 13.2526005,23.8987145 C13.1589114,23.9110734 13.0628303,23.9246285 12.9735267,23.9341967 C12.884223,23.9437649 12.7937234,23.9493464 12.7036224,23.9561239 C12.6278738,23.9621041 12.5521252,23.9696789 12.4759779,23.9736657 C12.3072047,23.9827024 12.1382986,23.9872207 11.9692596,23.9872207 C11.8002206,23.9872207 11.6309158,23.9824366 11.4613453,23.9728684 C11.385198,23.9688816 11.3098481,23.9613067 11.2340995,23.9557253 C11.1443972,23.9489477 11.0574856,23.9429676 10.9657899,23.933798 C10.8740942,23.9246285 10.7831959,23.9110734 10.6922976,23.8991131 C10.6201371,23.8895449 10.5479766,23.8811727 10.4762147,23.8700097 C10.3813296,23.85486 10.2872419,23.8369195 10.1927555,23.8189791 C10.1253791,23.8050254 10.0580027,23.7934638 9.99102497,23.7791114 C9.89893061,23.7599749 9.80723493,23.737649 9.71553925,23.7153231 C9.64616947,23.6985787 9.5767997,23.6822329 9.5078286,23.6638938 C9.42171439,23.6407705 9.33639754,23.6160526 9.25068202,23.5905372 C9.17573076,23.5682113 9.10556363,23.5470815 9.02702429,23.5215661 C8.94848495,23.4960508 8.87154031,23.4701368 8.79180493,23.4418308 C8.71206956,23.4135247 8.63233418,23.3836239 8.55259881,23.3533245 C8.48003962,23.3254171 8.4078791,23.2975097 8.33571859,23.267609 C8.25359115,23.2337214 8.17026769,23.1982392 8.09053231,23.1619596 C8.04308977,23.1400324 7.99484986,23.1220919 7.94740732,23.1001647 C7.94182584,23.0973739 7.93783907,23.0929885 7.93265627,23.0901978 C5.06776851,21.7529625 3.04560098,19.0901437 2.52659787,15.9714235 L2.52659787,15.9714235 L2.52659787,15.9562738 C2.48792621,15.7210544 2.45922148,15.481051 2.43849028,15.2386554 L2.43849028,15.2386554 L2.43051674,15.133006 C2.41297496,14.897388 2.40101465,14.6581819 2.40101465,14.4189758 C2.40101465,14.1223602 2.41656305,13.8297313 2.44367308,13.542684 C2.44566646,13.5207568 2.44686249,13.4984309 2.44885588,13.4765036 C2.4759659,13.2018153 2.51663095,12.9315123 2.56646556,12.6643988 C2.57364174,12.6269232 2.57962189,12.5870555 2.58759543,12.5471878 C2.63782872,12.2944267 2.69962363,12.0464497 2.76979076,11.8012634 L2.76979076,11.8012634 L2.8156386,11.6390019 C2.88740044,11.4077693 2.96753449,11.1813209 3.05484473,10.9576631 C3.07996137,10.8922801 3.10507801,10.8268971 3.13178936,10.7623115 C3.22109298,10.549418 3.31757278,10.34091 3.42043142,10.1359901 C3.45551498,10.0662217 3.49059855,9.99685188 3.52727682,9.92788078 C3.6345209,9.72734632 3.75053587,9.53119729 3.87013893,9.33943372 C3.91160133,9.27405071 3.95266504,9.2086677 3.99532347,9.14408205 C4.12449478,8.94992641 4.26124094,8.76095357 4.40356859,8.57716354 C4.44622701,8.52174745 4.48888544,8.46673004 4.53313857,8.41250999 C4.68423711,8.2227398 4.84490389,8.04094314 5.01155082,7.86393061 C5.03547143,7.83761794 5.05620263,7.80931188 5.0809206,7.78419523 C5.0876981,7.77701905 5.09607032,7.77343096 5.1032465,7.76665345 C5.96362128,6.87863987 6.98726455,6.16498642 8.11804102,5.66482898 C8.12362249,5.66203824 8.12840662,5.65725412 8.13438677,5.65446338 L8.13438677,5.65446338 L8.20056713,5.62775203 C8.27193029,5.59705391 8.34130007,5.56914653 8.41665,5.53924576 C8.49199992,5.509345 8.56854588,5.47904555 8.64269978,5.44994214 C8.71685368,5.42083873 8.7890142,5.39771547 8.86675619,5.37020677 C8.94449818,5.34269806 9.01984811,5.31518936 9.09958348,5.29047139 C9.16735855,5.27053755 9.23672832,5.2506037 9.30530075,5.23066986 C9.39181363,5.20555322 9.47792783,5.17924054 9.56483939,5.15651596 C9.62065415,5.14176492 9.67726627,5.12980461 9.73308103,5.11664827 C9.83394628,5.09232899 9.93481153,5.06721234 10.0368728,5.04608247 C10.0747471,5.03850761 10.1114254,5.03252745 10.1512931,5.02535127 C10.2712948,5.0006333 10.3928913,4.97910475 10.5124943,4.96076562 C10.5304348,4.95797488 10.5491726,4.95638017 10.5675117,4.95358943 C10.7086433,4.93285824 10.849775,4.91372175 10.9921026,4.89936938 L10.9921026,4.89936938 L11.0056576,4.89936938 C11.1622047,4.88315652 11.3194163,4.87106332 11.4772924,4.86308978 C11.5083891,4.86069772 11.5394859,4.86069772 11.5705827,4.86069772 L11.5705827,4.86069772 L11.5705827,0.465285192 C11.5714158,0.406873081 11.5853104,0.349387801 11.6112478,0.297043552 C11.6194442,0.283108496 11.6286377,0.269784508 11.6387565,0.257175865 C11.6592179,0.222955455 11.6849115,0.192150015 11.7149038,0.16587886 C11.7208839,0.160297384 11.7192892,0.155114585 11.7300535,0.147141047 C11.7408178,0.13916751 11.7543728,0.138370156 11.7651371,0.131592649 C11.7959886,0.112453171 11.8294166,0.0978200404 11.8644076,0.0881368702 C11.8856199,0.0817683884 11.9073729,0.0773643936 11.9293919,0.0749805334 C11.9425195,0.0714690328 11.9558284,0.0686741665 11.9692596,0.066608319 Z M12.3679365,21.9938316 L12.256307,21.9938316 C11.5872447,21.9938316 10.9236857,22.1147065 10.2976075,22.3506522 L10.2976075,22.3506522 L9.23034949,22.749329 L9.28058278,22.7664721 C9.47806073,22.8305262 9.67739916,22.8870054 9.87859809,22.9359098 C9.92045916,22.9462754 9.96232023,22.955445 10.0041813,22.9650132 C10.4477478,23.0664618 10.8985604,23.1331106 11.3525065,23.1643517 L11.3525065,23.1643517 L11.4015437,23.1683384 C11.6349026,23.1829566 11.8681286,23.1886709 12.1012217,23.1854815 L12.1012217,23.1854815 L12.1410893,23.1854815 C12.6077825,23.1760479 13.073011,23.129925 13.5324716,23.0475393 L13.5324716,23.0475393 L13.612207,23.033187 C13.8251005,22.9925219 14.0362663,22.944282 14.2457046,22.8884673 C14.2875656,22.8773043 14.3286294,22.8649453 14.3704904,22.852985 C14.5702275,22.7963729 14.7683699,22.7341793 14.9637216,22.6628162 L14.9637216,22.6628162 L14.9920277,22.6528492 C14.1854681,22.2190895 13.2837336,21.9926284 12.3679365,21.9938316 L12.3679365,21.9938316 Z M15.4166185,6.35414129 L14.1619824,7.60877741 C13.9038537,7.86595775 13.5804946,8.04789897 13.2266865,8.13503088 L13.2266865,8.13503088 L11.8313174,8.48427182 C11.6737024,8.52380591 11.5118146,8.54375735 11.3493171,8.54367468 C10.5289769,8.54280741 9.7911293,8.04449611 9.48390799,7.28385576 C9.35215903,6.95391083 9.08154417,6.69890556 8.74436239,6.58696858 L8.74436239,6.58696858 L8.31977152,6.44543829 C7.50022315,6.82180667 6.74345402,7.32201654 6.07601807,7.92851626 L6.07601807,7.92851626 L6.40333179,8.06885052 C6.74591505,8.21541511 7.00833713,8.50302523 7.12297762,8.85757005 C7.23761811,9.21211487 7.19326499,9.59891938 7.0013471,9.91831254 L7.0013471,9.91831254 L6.6891831,10.4389845 C6.5724415,10.632744 6.60287418,10.8811405 6.76293832,11.0409866 L6.76293832,11.0409866 L7.6045452,11.8825935 C7.84724637,12.1240052 7.98333131,12.4524465 7.98249088,12.7947662 L7.98249088,12.7947662 L7.98249088,13.3313853 C7.98260047,13.7176303 7.8096486,14.0836056 7.51116256,14.3287409 C7.21267652,14.5738763 6.82006068,14.6723804 6.44120609,14.5971843 L6.44120609,14.5971843 L6.3479157,14.5784465 C6.08961681,14.525865 5.83554126,14.6853641 5.77063159,14.9408438 L5.77063159,14.9408438 L5.65820471,15.3905513 C5.63015005,15.5046844 5.64357372,15.6250735 5.69607901,15.730224 L5.69607901,15.730224 L6.18047141,16.6998062 C6.3790328,17.0984984 6.35847009,17.5713089 6.1260453,17.9512574 C5.89362052,18.3312059 5.48204292,18.564822 5.03666746,18.5696007 C4.89448525,18.5693538 4.75327156,18.5461996 4.61845542,18.5010283 C4.35454543,18.4105894 4.12689969,18.2373381 3.96940947,18.0070676 C4.81508658,19.8822117 6.28906812,21.4031497 8.13677883,22.3071964 L8.13677883,22.3071964 L10.0157429,21.6027343 C10.7320469,21.3335234 11.4910844,21.1958973 12.256307,21.1964826 L12.256307,21.1964826 L12.3679365,21.1964826 C13.6199866,21.1966349 14.8438537,21.5681932 15.8846652,22.2641393 C16.9319952,21.7386051 17.8641622,21.0097313 18.6267647,20.1200551 L18.6267647,20.1200551 L18.1555287,20.0403197 C18.0187898,20.0175975 17.8792383,20.0175975 17.7424994,20.0403197 L17.7424994,20.0403197 L16.267395,20.2863033 C16.1554023,20.3050027 16.0420626,20.3144699 15.9285196,20.3146094 C15.0645673,20.3131681 14.2936444,19.7718583 13.998924,18.959728 C13.7042036,18.1475977 13.9485415,17.237852 14.6104939,16.682663 L14.6104939,16.682663 L14.9661137,16.3860475 C15.1332259,16.2471072 15.2611678,16.0669442 15.3372818,15.8633821 L15.3372818,15.8633821 L15.9779556,14.1554503 C16.2804062,13.3564693 17.0444741,12.8269503 17.8987808,12.8242683 C18.4579473,12.8227194 18.9490473,12.4524456 19.1043796,11.915285 L19.1043796,11.915285 L19.4416603,10.7352015 C19.495813,10.5578521 19.5741598,10.3888162 19.6744875,10.2328686 C18.72882,8.50023928 17.2296798,7.13458995 15.4166185,6.35414129 L15.4166185,6.35414129 Z M9.25586481,16.2217926 C9.84601558,15.9239159 10.5652892,16.10259 10.9474508,16.641998 L10.9474508,16.641998 L11.8301214,17.8786937 C12.2378461,18.4465419 12.141011,19.2323358 11.6076237,19.6842087 C11.0742364,20.1360816 10.2832127,20.1024607 9.79009182,19.6069579 L9.79009182,19.6069579 L9.75022414,19.5670902 C9.64829762,19.4653668 9.51030001,19.4080469 9.36629831,19.4076195 L9.36629831,19.4076195 L8.92775375,19.4076195 C8.41218972,19.4073465 7.94236602,19.1117311 7.71900019,18.6470655 C7.49563436,18.1824 7.5582245,17.6308519 7.88003092,17.228053 L7.88003092,17.228053 L8.11923705,16.9278493 C8.24092541,16.7767122 8.39359169,16.65341 8.56695118,16.5662494 L8.56695118,16.5662494 Z M20.132966,11.2168031 L19.8714339,12.1337599 C19.6169679,13.0125538 18.8136695,13.6184369 17.8987808,13.621622 C17.376663,13.6237714 16.9100501,13.9479579 16.7258734,14.4365175 L16.7258734,14.4365175 L16.0851997,16.1440506 C15.9603403,16.4772389 15.7509564,16.7722174 15.4776161,17.0000098 L15.4776161,17.0000098 L15.122395,17.2962268 C14.6867754,17.6603827 14.5492346,18.2712884 14.7867592,18.7869977 C15.0242839,19.3027069 15.5779396,19.5952623 16.137825,19.5009099 L16.137825,19.5009099 L17.6129294,19.2549262 C17.8362545,19.217846 18.0641657,19.217846 18.2874907,19.2549262 L18.2874907,19.2549262 L19.1817229,19.4040314 C19.1968727,19.3821042 19.2132184,19.3605756 19.2283681,19.3382497 C19.3204625,19.2030982 19.4077727,19.0655547 19.4914949,18.9264165 C19.5349506,18.8538573 19.5784064,18.7801021 19.6182741,18.7063469 C19.6712981,18.6118604 19.7219301,18.5165767 19.771366,18.4204955 C19.8245229,18.3184343 19.8754207,18.2150441 19.9240593,18.1103249 C19.9762859,17.9982967 20.0269179,17.8854712 20.0739618,17.7714496 C20.1085138,17.6879932 20.1417368,17.6040053 20.173631,17.5194858 C20.2131,17.4150325 20.2497783,17.3105791 20.2852605,17.2041324 C20.3207428,17.0976857 20.3542316,16.9920363 20.3857271,16.8851909 C20.421608,16.7612024 20.4558942,16.6368152 20.4865923,16.511232 C20.5049315,16.4374768 20.5220746,16.3637216 20.5380217,16.289169 C20.5719092,16.1332863 20.6026073,15.9778023 20.6281226,15.8183316 L20.6281226,15.8183316 L20.6488538,15.6799907 C20.6731731,15.5117491 20.6919109,15.3427101 20.7062633,15.1724751 C20.7110474,15.118255 20.7150342,15.0640349 20.719021,15.0094162 L20.719021,15.0094162 C20.7309813,14.8136659 20.7401508,14.6183142 20.7401508,14.4165837 C20.7401508,14.1610318 20.7265958,13.907872 20.7050673,13.6567056 C20.7022765,13.6240141 20.7006818,13.5909239 20.6974924,13.5586311 C20.6751665,13.3273985 20.6408803,13.0989566 20.6010126,12.8717108 C20.591843,12.8206802 20.5838695,12.7692509 20.5739026,12.7186189 C20.5305797,12.5004098 20.4791504,12.2849914 20.4196146,12.0723637 C20.4048636,12.0197383 20.3901125,11.967113 20.3745641,11.9148863 C20.3105101,11.7001324 20.237818,11.4875047 20.1564879,11.2770033 L20.1564879,11.2770033 L20.132966,11.2168031 Z M10.2972088,17.1072539 C10.1422212,16.8884194 9.85039182,16.8160131 9.61108591,16.9370189 L9.61108591,16.9370189 L8.92177359,17.2814757 C8.85135741,17.3167813 8.78935696,17.3668167 8.73997694,17.4281888 L8.73997694,17.4281888 L8.50077082,17.7279938 C8.37041986,17.8916643 8.34536502,18.1155434 8.43631085,18.3039798 C8.52725669,18.4924161 8.7181199,18.6120858 8.92735507,18.6118604 L8.92735507,18.6118604 L9.36589963,18.6118604 C9.72177539,18.6110051 10.0632396,18.7523848 10.3143519,19.0045572 L10.3143519,19.0045572 L10.3542196,19.0444248 C10.5197773,19.2097568 10.7725773,19.2505518 10.981737,19.1456888 C11.124809,19.0756085 11.229173,18.9453727 11.2663923,18.7904677 L11.2663923,18.7904677 C11.30561,18.6358318 11.2738365,18.4723001 11.1806768,18.3431522 L11.1806768,18.3431522 Z M5.46763716,8.53450511 C5.448102,8.55603366 5.42976286,8.57915692 5.41022769,8.60108415 C5.27148814,8.75816284 5.13859585,8.91922829 5.01155082,9.08428052 C4.97367652,9.13371645 4.93540354,9.18355106 4.89832659,9.23418302 C4.78071691,9.39365377 4.67028342,9.55750997 4.56423537,9.72375822 C4.53034783,9.77678225 4.49526427,9.82900892 4.46257277,9.88322897 C4.35692339,10.0570521 4.25964624,10.2356593 4.16675453,10.4158613 C4.13645508,10.4732707 4.10495961,10.533471 4.07625487,10.5928738 C3.98734993,10.7778599 3.90442514,10.9668327 3.82787918,11.1574003 C3.80395857,11.2172018 3.77963928,11.2766046 3.7569147,11.3368049 C3.68355815,11.5345486 3.61711201,11.7349502 3.55757626,11.9380096 C3.54162919,11.991831 3.52608079,12.046051 3.51132975,12.1002711 C3.45312292,12.3131645 3.40209228,12.52845 3.35983253,12.7457289 C3.35146032,12.7899821 3.34428414,12.8342352 3.3363106,12.8784883 C3.29564556,13.1081262 3.2621567,13.3393588 3.23983079,13.5733821 L3.23983079,13.5733821 L3.23305329,13.6614897 C3.21152474,13.9138522 3.1983684,14.1654173 3.1983684,14.4189758 C3.1983684,14.6115367 3.20674061,14.8056923 3.21989695,14.999848 C3.22228901,15.0365262 3.22507975,15.0728058 3.22826916,15.1094841 C3.24302021,15.2972609 3.26255538,15.4850377 3.28926673,15.6724159 L3.28926673,15.6724159 L3.28926673,15.6839775 L3.66641505,15.9666394 C3.82628459,16.0872744 3.95627917,16.2430497 4.04635411,16.4219284 L4.04635411,16.4219284 L4.58416921,17.4983559 C4.64287753,17.6151126 4.74532966,17.7039522 4.86922318,17.7455356 C5.05845923,17.8093625 5.26750691,17.7526589 5.39855248,17.6019565 C5.52959805,17.4512541 5.55672417,17.2363578 5.46723849,17.057818 L5.46723849,17.057818 L4.98284608,16.0882358 C4.84515814,15.8129373 4.8102394,15.4975376 4.8843729,15.1987877 L4.8843729,15.1987877 L4.99759713,14.7482829 C5.16396538,14.0797287 5.8268017,13.6603188 6.50220365,13.7962425 L6.50220365,13.7962425 L6.59549404,13.8145816 C6.74029202,13.8436158 6.89047843,13.8061766 7.0047043,13.7125716 C7.11893017,13.6189667 7.18513838,13.4790655 7.18513838,13.3313853 L7.18513838,13.3313853 L7.18513838,12.7947662 C7.18543148,12.6641349 7.13346502,12.5388125 7.04081611,12.4467213 L7.04081611,12.4467213 L6.19920923,11.6047157 C5.77756334,11.1863116 5.69670317,10.5338309 6.00345888,10.0251579 L6.00345888,10.0251579 L6.31562287,9.50687801 C6.3887329,9.38481489 6.40560941,9.23713884 6.36192365,9.10172823 C6.31823788,8.96631762 6.21824021,8.85634717 6.0875797,8.80002391 L6.0875797,8.80002391 Z M12.3695312,5.6644303 L12.3695312,6.44543829 C12.3695312,6.66562145 12.1910375,6.84411517 11.9708543,6.84411517 C11.7506712,6.84411517 11.5721774,6.66562145 11.5721774,6.44543829 L11.5721774,6.44543829 L11.5721774,5.66482898 C11.5099839,5.66761971 11.4477903,5.66682236 11.3859953,5.67080913 L11.3859953,5.67080913 L11.2911103,5.67798531 C11.105061,5.69154033 10.9190118,5.71160706 10.7329626,5.73818552 L10.7329626,5.73818552 L10.6803373,5.74496303 C10.4877764,5.77326909 10.2972088,5.81074471 10.1074386,5.8506124 L10.1074386,5.8506124 L9.96511097,5.8833039 C9.80617179,5.92024796 9.64856153,5.96184325 9.4922802,6.00808976 C9.46796091,6.01526595 9.44284427,6.02164478 9.41852498,6.02921964 C9.78351463,6.254847 10.0664886,6.59162096 10.2258456,6.9900309 C10.4515668,7.54941077 11.0542928,7.85765579 11.6399525,7.71323075 L11.6399525,7.71323075 L13.0353216,7.36359113 C13.2477847,7.31016361 13.4416964,7.19990818 13.5962599,7.04464963 L13.5962599,7.04464963 L14.5929521,6.04795745 C14.3987965,5.98815592 14.2030461,5.93592925 14.0037077,5.8884867 L14.0037077,5.8884867 L13.9092213,5.86695815 C13.5087639,5.77639409 13.1024442,5.71404732 12.6932568,5.68037737 L12.6932568,5.68037737 L12.6202989,5.6747959 C12.5365768,5.66841707 12.4532533,5.66801839 12.3695312,5.6644303 L12.3695312,5.6644303 Z M12.3679365,0.993930727 L12.3679365,3.12605465 L16.099552,2.05999269 L12.3679365,0.993930727 Z" id="Combined-Shape-Copy" stroke="#202023" stroke-width="0.2" fill="#202023" fill-rule="nonzero"></path>
            </g>
        </g>
    </g>
</svg>