<svg width="72" height="72" viewBox="0 0 72 72" xmlns="http://www.w3.org/2000/svg" xmlns:xlink="http://www.w3.org/1999/xlink">
    <defs>
        <path id="a" d="M0 0h51.415v48H0z"/>
    </defs>
    <g fill="none" fill-rule="evenodd">
        <path d="M32.6.635C14.755-3.685-13.252 14.5 6.675 40.72c.707.931 1.375 1.87 1.605 2.944.83 3.868 3.556 11.866 5.216 15.535 7.635 16.884 25.13 15.064 36.285 6.04 5.515-4.46 19.311-7.056 21.724-18.737 2.412-11.68-10.365-13.888-14.204-23.829-3.84-9.94-13.215-19.257-24.703-22.038z" fill="#F7F8FA"/>
        <path d="m57.11 34.64-.19-.034v-1.135C56.92 21.631 47.63 12 36.213 12c-11.417 0-20.705 9.632-20.705 21.471v1.134l-.19.036c-2.789.518-4.812 3.026-4.812 5.963 0 2.976 2.053 5.49 4.882 5.977l.178.03.014.185c.399 4.7 2.476 8.175 6.175 10.329C25.08 59.059 29.809 60 36.214 60c6.406 0 11.135-.94 14.459-2.875 3.699-2.154 5.776-5.629 6.174-10.329l.015-.184.178-.03c2.829-.489 4.882-3.002 4.882-5.978 0-2.937-2.025-5.446-4.812-5.963z" fill="#FFF"/>
        <path d="M40.77 13.09c13.393 13.405-3.008 25.616-9.543 17.526-1.323-1.639-3.7-8.532 3.774-10.23-.462-.094-4.23 1.273-3.318 4.774 1.431 5.489 10.114 4.356 8.456-4.31-1.657-8.665-8.014-6.74-8.59-7.12 3.453-1.025 5.878-1.327 7.275-.906.555.168 1.45-.23 1.946.266z" fill="#3384F7"/>
        <path d="M24.967 39.615c-1.008 0-1.828.85-1.828 1.896 0 1.045.82 1.896 1.828 1.896s1.83-.85 1.83-1.896c0-1.046-.822-1.896-1.83-1.896M46.604 39.615c-1.008 0-1.83.85-1.83 1.896 0 1.045.822 1.896 1.83 1.896s1.828-.85 1.828-1.896c0-1.046-.82-1.896-1.828-1.896" fill="#0E0E0E"/>
        <g transform="translate(10.078 12)">
            <mask id="b" fill="#fff">
                <use xlink:href="#a"/>
            </mask>
            <path d="m46.707 32.756-.294.087v-8.476l.294.086c1.782.525 3.027 2.232 3.027 4.151 0 1.92-1.245 3.627-3.027 4.152zm-1.976.312c0 4.979-1.763 8.425-5.389 10.535-3.066 1.785-7.525 2.653-13.635 2.653-6.109 0-10.569-.868-13.633-2.653-3.626-2.11-5.388-5.556-5.388-10.535V21.471c0-8.638 5.574-16.409 13.556-18.896l.034-.01h.035c6.046.079 9.265 4.653 9.265 7.926 0 2.58-2.024 4.679-4.512 4.679-1.898 0-3.442-1.601-3.442-3.57 0-1.477 1.16-2.68 2.585-2.68.463 0 .842-.39.842-.871s-.379-.873-.842-.873c-2.353 0-4.266 1.985-4.266 4.425 0 2.93 2.297 5.313 5.123 5.313 3.416 0 6.194-2.882 6.194-6.423 0-2.244-1.092-4.662-2.92-6.47a10.709 10.709 0 0 0-2.479-1.82l-.874-.467.983.013c10.346.145 18.763 8.993 18.763 19.724v11.597zm-39.728-.225-.295-.087c-1.782-.525-3.026-2.232-3.026-4.152 0-1.919 1.244-3.626 3.026-4.15l.295-.088v8.477zm41.6-10.202-.19-.035v-1.135C46.413 9.631 37.124 0 25.707 0S5.003 9.632 5.003 21.471v1.134l-.191.036C2.024 23.159 0 25.667 0 28.604c0 2.976 2.053 5.49 4.882 5.977l.178.03.015.185c.398 4.7 2.475 8.175 6.174 10.329C14.574 47.059 19.302 48 25.707 48c6.406 0 11.136-.94 14.459-2.875 3.7-2.154 5.776-5.629 6.174-10.329l.015-.184.178-.03c2.829-.489 4.882-3.002 4.882-5.978 0-2.937-2.024-5.446-4.812-5.963z" fill="#0E0E0E" mask="url(#b)"/>
        </g>
        <path d="M35.786 46.592a5.948 5.948 0 0 1-4.311-1.849.822.822 0 0 0-1.19 0 .899.899 0 0 0 0 1.234c1.468 1.52 3.42 2.359 5.5 2.359 2.081 0 4.033-.838 5.5-2.359a.897.897 0 0 0 0-1.234.822.822 0 0 0-1.189 0 5.946 5.946 0 0 1-4.31 1.85z" fill="#0E0E0E"/>
    </g>
</svg>
