<?xml version="1.0" encoding="UTF-8"?>
<svg width="72px" height="72px" viewBox="0 0 72 72" version="1.1" xmlns="http://www.w3.org/2000/svg" xmlns:xlink="http://www.w3.org/1999/xlink">
    <title>C0934626-BCEE-4D47-8C36-31C282D53612</title>
    <g id="Page-1" stroke="none" stroke-width="1" fill="none" fill-rule="evenodd">
        <g id="Index_Geolocation" transform="translate(-1120.000000, -1120.000000)">
            <g id="Icons/72x72/Franchise/Clothing" transform="translate(1120.000000, 1120.000000)">
                <path d="M7.82829541,3.38689745 C2.96805467,6.71264135 -1.7835506,19.8675586 0.664375445,25.4966377 C2.40640787,29.5024933 10.5173943,37.6070155 10.5495707,41.9072441 C10.8179673,77.7772753 40.9331219,72.9152903 49.3174527,69.996823 C57.7017835,67.0783558 60.1702801,54.8627903 65.6629205,48.1631764 C71.1500825,41.4702448 74.0226431,25.4339119 70.3630907,19.0548809 C60.4540503,1.78225581 19.4290105,-4.55118826 7.82829541,3.38689745 Z" id="Path-9" fill="#F7F8FA"></path>
                <g id="Group-17" transform="translate(11.986941, 12.000000)">
                    <g id="Group-14-Copy" transform="translate(0.378202, 0.377984)" fill="#FFFFFF">
                        <path d="M47.1875296,16.0406885 L47.1875296,16.0406885 C44.606695,10.8791784 40.9520095,5.73149673 40.7978302,5.51516885 C40.7539606,5.45317923 40.7003952,5.3988191 40.6384056,5.3532011 C38.1081165,3.49796302 34.5513428,2.49166485 31.992443,1.97222362 C31.3118288,0.554250786 29.8518938,0.0658043664 29.0795667,0.00111263421 L18.5912408,0.00111263421 L18.572167,0 L18.547848,0.00206632068 C17.7888726,0.0665991051 16.3364081,0.554886577 15.6561117,1.97222362 C13.0978478,2.49118801 9.54139197,3.49732723 7.00967229,5.35367794 C6.94784162,5.399137 6.89491202,5.45286134 6.85310876,5.51230779 C6.81670973,5.56269423 3.09129248,10.779995 0.460230462,16.0406885 C0.143129711,16.6755258 -0.174765779,17.608867 0.111975953,18.4497005 C0.284434256,18.9567438 0.631894026,19.3393311 1.1414805,19.5855411 L10.0209373,24.2177553 L9.32601778,45.4175697 C9.32601778,46.8050245 10.2251852,47.3130215 10.9023026,47.5748085 C10.9844785,47.6062801 11.0704693,47.622016 11.1578905,47.622016 L36.4901874,47.622016 C36.5772907,47.622016 36.6635994,47.6061212 36.7475238,47.5741727 C37.4233696,47.3128626 38.3220601,46.8029582 38.3214244,45.3946812 L37.6269817,24.2180732 L46.4868879,19.5957138 C47.0104618,19.3423511 47.3634847,18.9570617 47.535943,18.4504953 C47.8226847,17.6085491 47.5047893,16.6753669 47.1875296,16.0406885 L47.1875296,16.0406885 Z" id="Fill-3"></path>
                    </g>
                    <g id="Group-13" transform="translate(-0.000000, 0.000000)">
                        <rect id="Rectangle" fill="#3384F7" x="18.7279769" y="1.09093968" width="10.1818182" height="1.41384229"></rect>
                        <g id="Group">
                            <path d="M18.6009279,1.74759176 C20.3299583,3.28067161 21.5846952,5.65023588 23.7880189,6.34683104 C26.5873143,7.23184648 31.4453681,-3.43785549 31.6434138,3.79857158 C31.6830197,5.24573872 31.1303213,6.04161866 30.4350617,7.3114514 C25.4261792,16.4597502 28.7919484,6.95330201 23.3000736,7.09822564 C21.3723663,7.1490954 21.2659208,12.6159527 19.9735964,11.6046128 C17.4865834,9.65834034 14.6284608,3.09832655 17.8225663,1.5489925 L18.6009279,1.74759176 Z" id="Path-10" fill="#3384F7"></path>
                            <g id="Group-14" fill="#0C0B0B">
                                <path d="M46.1836156,17.9893879 C46.1364081,18.1283082 46.0361121,18.226379 45.8453748,18.3187276 L37.5780257,22.6314568 L37.5770518,22.5646987 C37.5767542,20.7635029 37.5761184,17.410977 37.917856,15.8249964 L40.4648347,7.54763367 C41.5765152,9.1909944 44.0632527,12.9866665 45.9097486,16.6791816 C46.1818672,17.2242134 46.2816864,17.7015335 46.1836156,17.9893879 L46.1836156,17.9893879 Z M36.1486087,22.5770966 L36.1885046,23.8014711 C36.1885046,23.8302407 36.1894582,23.8496323 36.1907298,23.8553544 L36.8934378,45.4175697 C36.8934378,45.8321054 36.7707302,46.0093321 36.3498365,46.1933936 L26.0284058,46.1933936 L26.0284058,10.3392329 L26.9832049,11.580138 C27.1160852,11.753232 27.3274857,11.8573428 27.5493767,11.8587734 C27.7693604,11.8587734 27.9737672,11.7599079 28.1095086,11.5874496 C28.2832385,11.3679427 32.3615197,6.18274938 32.3615197,3.69394559 C32.3615197,3.63259176 32.3600892,3.57155583 32.3572281,3.50956621 C34.4192572,3.96924309 37.251706,4.80467243 39.3795395,6.21660525 L36.536918,15.4635493 C36.1471781,17.2598177 36.1479729,20.5861172 36.1486087,22.5770966 L36.1486087,22.5770966 Z M30.9328974,3.69394559 C30.9328974,4.96886545 29.1293173,7.84295858 27.5473104,9.97063309 L25.0871172,6.77260446 C27.7941563,5.95767937 29.2200765,3.52498414 29.6409701,1.60505433 C30.4983342,1.95998464 30.9328974,2.66205683 30.9328974,3.69394559 L30.9328974,3.69394559 Z M23.0481355,8.48208746 L23.8239595,7.47340507 L24.5997834,8.48208746 L24.5997834,46.1933936 L23.0481355,46.1933936 L23.0481355,8.48208746 Z M27.1431063,3.66310973 C26.5392638,4.45975583 25.4976792,5.37354641 23.8239595,5.58129111 C22.1507166,5.37354641 21.1089731,4.45975583 20.5048127,3.66310973 L27.1431063,3.66310973 Z M19.4424059,1.42782759 L28.205672,1.42782759 C28.1382781,1.69390612 28.0495853,1.96459413 27.9413419,2.2344874 L19.7065771,2.2344874 C19.5984926,1.96475307 19.5099587,1.69422401 19.4424059,1.42782759 L19.4424059,1.42782759 Z M16.7150216,3.69394559 C16.7150216,2.66237473 17.1494258,1.96030254 18.0071078,1.60521328 C18.4278425,3.52514309 19.8537627,5.95783832 22.5606428,6.77260446 L20.0785148,9.99972053 C18.8652667,8.42677364 16.7150216,5.23907662 16.7150216,3.69394559 L16.7150216,3.69394559 Z M11.4994692,22.7009169 L11.4996282,22.5646987 C11.4999461,20.5800772 11.5005819,17.2587051 11.095583,15.4048975 L8.26837948,6.2164463 C10.3970077,4.80435454 13.2289797,3.96892519 15.2908498,3.50956621 C15.2879887,3.57123793 15.2865582,3.63227387 15.2865582,3.69394559 C15.2865582,6.21755894 19.0973304,11.1609928 19.5967442,11.652936 C19.7310551,11.7856574 19.910666,11.8587734 20.1063307,11.8587734 L20.1064896,11.8587734 L20.147816,11.8571839 C20.351746,11.8430375 20.540258,11.7419468 20.6648731,11.580138 L21.6195132,10.3392329 L21.6195132,46.1933936 L11.2985593,46.1933936 C10.8926068,46.0148953 10.7546401,45.821297 10.7540043,45.4391866 L11.4994692,22.7009169 Z M1.73848823,16.6793406 C3.58387154,12.9887329 6.07172165,9.19163019 7.18356112,7.54763367 L9.71480396,15.7665037 C10.0725953,17.4146328 10.0718006,20.766205 10.0714827,22.5672419 L10.0716416,22.6327283 L1.78315254,18.3090318 C1.60958161,18.2252663 1.5113519,18.1265598 1.46462126,17.98907 C1.32140934,17.5696069 1.63803325,16.8805684 1.73848823,16.6793406 L1.73848823,16.6793406 Z M47.1875296,16.0406885 L47.1875296,16.0406885 C44.606695,10.8791784 40.9520095,5.73149673 40.7978302,5.51516885 C40.7539606,5.45317923 40.7003952,5.3988191 40.6384056,5.3532011 C38.1081165,3.49796302 34.5513428,2.49166485 31.992443,1.97222362 C31.3118288,0.554250786 29.8518938,0.0658043664 29.0795667,0.00111263421 L18.5912408,0.00111263421 L18.572167,0 L18.547848,0.00206632068 C17.7888726,0.0665991051 16.3364081,0.554886577 15.6561117,1.97222362 C13.0978478,2.49118801 9.54139197,3.49732723 7.00967229,5.35367794 C6.94784162,5.399137 6.89491202,5.45286134 6.85310876,5.51230779 C6.81670973,5.56269423 3.09129248,10.779995 0.460230462,16.0406885 C0.143129711,16.6755258 -0.174765779,17.608867 0.111975953,18.4497005 C0.284434256,18.9567438 0.631894026,19.3393311 1.1414805,19.5855411 L10.0209373,24.2177553 L9.32601778,45.4175697 C9.32601778,46.8050245 10.2251852,47.3130215 10.9023026,47.5748085 C10.9844785,47.6062801 11.0704693,47.622016 11.1578905,47.622016 L36.4901874,47.622016 C36.5772907,47.622016 36.6635994,47.6061212 36.7475238,47.5741727 C37.4233696,47.3128626 38.3220601,46.8029582 38.3214244,45.3946812 L37.6269817,24.2180732 L46.4868879,19.5957138 C47.0104618,19.3423511 47.3634847,18.9570617 47.535943,18.4504953 C47.8226847,17.6085491 47.5047893,16.6753669 47.1875296,16.0406885 L47.1875296,16.0406885 Z" id="Fill-3"></path>
                                <path d="M23.8238323,14.3393436 C23.4299598,14.3393436 23.1096801,14.6597823 23.1096801,15.0536548 C23.1096801,15.4475273 23.4299598,15.767966 23.8238323,15.767966 C24.2178638,15.767966 24.5383024,15.4475273 24.5383024,15.0536548 C24.5383024,14.6597823 24.2178638,14.3393436 23.8238323,14.3393436" id="Fill-6"></path>
                                <path d="M23.8239754,23.3607885 C23.4301029,23.3607885 23.1096642,23.6812271 23.1096642,24.0750997 C23.1096642,24.4689722 23.4301029,24.7894108 23.8239754,24.7894108 C24.2178479,24.7894108 24.5382865,24.4689722 24.5382865,24.0750997 C24.5382865,23.6812271 24.2178479,23.3607885 23.8239754,23.3607885" id="Fill-8"></path>
                                <path d="M23.8239754,31.7347279 C23.4301029,31.7347279 23.1096642,32.0553255 23.1096642,32.4490391 C23.1096642,32.8429116 23.4301029,33.1633502 23.8239754,33.1633502 C24.2178479,33.1633502 24.5382865,32.8429116 24.5382865,32.4490391 C24.5382865,32.0553255 24.2178479,31.7347279 23.8239754,31.7347279" id="Fill-10"></path>
                                <path d="M23.8239118,41.3113295 C23.4300393,41.3113295 23.1096006,41.6319271 23.1096006,42.0256407 C23.1096006,42.4195132 23.4300393,42.7399519 23.8239118,42.7399519 C24.2177843,42.7399519 24.5383819,42.4195132 24.5383819,42.0256407 C24.5383819,41.6319271 24.2177843,41.3113295 23.8239118,41.3113295" id="Fill-12"></path>
                            </g>
                            <path d="M33.9063805,16.233508 L28.4360349,16.233508 C27.7554207,16.233508 27.2016467,16.787123 27.2016467,17.4678962 L27.2016467,22.9382418 C27.2016467,24.2891387 28.3007704,25.3882623 29.6516673,25.3882623 L32.6909071,25.3882623 C34.041804,25.3882623 35.1409277,24.2891387 35.1409277,22.9382418 L35.1409277,17.4678962 C35.1409277,16.787123 34.5871537,16.233508 33.9063805,16.233508" id="Fill-1" fill="#3384F7"></path>
                        </g>
                    </g>
                </g>
            </g>
        </g>
    </g>
</svg>