<?xml version="1.0" encoding="UTF-8"?>
<svg width="24px" height="24px" viewBox="0 0 24 24" version="1.1" xmlns="http://www.w3.org/2000/svg" xmlns:xlink="http://www.w3.org/1999/xlink">
    <title>637A531C-241D-49F6-BBA4-BAFDF64F5FC1</title>
    <g id="Page-1" stroke="none" stroke-width="1" fill="none" fill-rule="evenodd">
        <g id="Index_Geolocation" transform="translate(-1140.000000, -2664.000000)" fill="#202023" fill-rule="nonzero">
            <g id="Icons/24x24/Comments" transform="translate(1140.000000, 2664.000000)">
                <path d="M20.2987548,4 L3.70192594,4 C3.27915918,4 2.93536335,4.34311505 2.93536335,4.76656259 L2.93536335,16.4188586 C2.93536335,16.8416253 3.2784784,17.1854212 3.70192594,17.1854212 L12.9034001,17.1854212 L16.4325835,19.8220969 C16.9091322,20.1781469 17.2985405,19.9827619 17.2985405,19.3877568 L17.2985405,17.1847404 L20.2980741,17.1847404 C20.7208408,17.1847404 21.0646367,16.8416253 21.0646367,16.4181778 L21.0646367,4.7658818 C21.0646367,4.34311505 20.7215216,4 20.2987548,4 Z M7.81930652,11.6867302 C7.16439248,11.6867302 6.63406188,11.1557188 6.63406188,10.5014855 C6.63406188,9.8465715 7.16507326,9.3162409 7.81930652,9.3162409 C8.47353978,9.3162409 9.00455116,9.84725229 9.00455116,10.5014855 C9.00387038,11.1557188 8.47353978,11.6867302 7.81930652,11.6867302 Z M12.0006808,11.6867302 C11.3457667,11.6867302 10.8154361,11.1557188 10.8154361,10.5014855 C10.8154361,9.8465715 11.3464475,9.3162409 12.0006808,9.3162409 C12.654914,9.3162409 13.1859254,9.84725229 13.1859254,10.5014855 C13.1859254,11.1557188 12.6555948,11.6867302 12.0006808,11.6867302 Z M16.182055,11.6867302 C15.527141,11.6867302 14.9968104,11.1557188 14.9968104,10.5014855 C14.9968104,9.8465715 15.5278218,9.3162409 16.182055,9.3162409 C16.8362883,9.3162409 17.3672997,9.84725229 17.3672997,10.5014855 C17.3672997,11.1557188 16.8369691,11.6867302 16.182055,11.6867302 Z" id="Shape-Copy-18"></path>
            </g>
        </g>
    </g>
</svg>