<?xml version="1.0" encoding="UTF-8"?>
<svg width="24px" height="24px" viewBox="0 0 24 24" version="1.1" xmlns="http://www.w3.org/2000/svg" xmlns:xlink="http://www.w3.org/1999/xlink">
    <title>6E8F0949-6CD2-478C-B8F9-AB1E8BD0AEFE</title>
    <g id="Page-1" stroke="none" stroke-width="1" fill="none" fill-rule="evenodd">
        <g id="Index_Geolocation" transform="translate(-1052.000000, -2664.000000)" fill="#202023" fill-rule="nonzero">
            <g id="Icons/24x24/Views2" transform="translate(1052.000000, 2664.000000)">
                <path d="M12,6 C8.15374056,6 4.66575154,8.10432395 2.0919698,11.5223061 C1.88194921,11.8023336 1.88194921,12.1935484 2.0919698,12.4735758 C4.66575154,15.895676 8.15374056,18 12,18 C15.8462594,18 19.3342485,15.895676 21.9080302,12.4776939 C22.1180508,12.1976664 22.1180508,11.8064516 21.9080302,11.5264242 C19.3342485,8.10432395 15.8462594,6 12,6 Z M12.2759094,16.2251201 C9.72271791,16.3857241 7.61427591,14.2814001 7.77487989,11.7240906 C7.90665752,9.61564859 9.61564859,7.90665752 11.7240906,7.77487989 C14.2772821,7.61427591 16.3857241,9.71859986 16.2251201,12.2759094 C16.0892244,14.3802334 14.3802334,16.0892244 12.2759094,16.2251201 Z M12.1482498,14.273164 C10.7728209,14.3596431 9.63623885,13.2271791 9.72683596,11.8517502 C9.79684283,10.7151682 10.7192862,9.79684283 11.8558682,9.72271791 C13.2312972,9.63623885 14.3678792,10.7687028 14.2772821,12.1441318 C14.2031572,13.2848318 13.2807138,14.2031572 12.1482498,14.273164 Z" id="Shape-Copy-17"></path>
            </g>
        </g>
    </g>
</svg>