<svg width="72" height="72" viewBox="0 0 72 72" xmlns="http://www.w3.org/2000/svg">
    <g fill="none" fill-rule="evenodd">
        <path d="M32.909.898c-3.5.904-12.231 12.6-13.128 13.343-3.976 3.29-9.198 7.58-13.54 10.485C-4.575 31.963.614 46.65 9.036 57.848c3.306 4.397 5.81 9.847 10 11.697 10.94 4.832 31.31 3.192 37.576-10.902 1.612-3.625 2.63-8.382 9.306-15.622 10.061-10.912 5.268-20.904-3.8-28.375S48.412-3.111 32.908.898z" fill="#F7F8FA"/>
        <path d="M48.006 12a.8.8 0 0 1 .8.8v9.6h9.6a.8.8 0 0 1 .8.8v4a.8.8 0 0 1-.8.8H56.75l-2.343 31.26a.8.8 0 0 1-.8.74H41.575l-.001-.001H16.007a4.005 4.005 0 0 1-3.995-3.8l-.005-.2v-3.2a.8.8 0 0 1 .8-.8h.02a3.92 3.92 0 0 1 0-4.8h-.02a.8.8 0 0 1-.8-.8c.007-6.623 5.375-11.992 12-12h9.6c1.01 0 2.01.129 2.977.378L36.064 28h-1.657a.8.8 0 0 1-.8-.8v-4a.8.8 0 0 1 .8-.8h9.6v-9.6a.8.8 0 0 1 .8-.8z" fill="#FFF" fill-rule="nonzero"/>
        <path d="M14.07 45.738c3.666.122 3.251-3.174 9.319-6.77 3.769-2.234 12.52-2.12 15.74-1.818 2.12.2-2.912-1.945-6.699-2.14-19.772-1.023-19.926 10.676-18.36 10.728zM50.762 27.877 49.75 58.373h4.177l3.692-30.625z" fill="#3384F7"/>
        <g fill="#000" fill-rule="nonzero">
            <path d="M31.194 42.374h1.6v1.6h-1.6zM26.394 42.374h1.6v1.6h-1.6zM21.594 42.374h1.6v1.6h-1.6zM35.994 42.374h1.6v1.6h-1.6zM35.193 28h1.658l.598 7.805 1.595-.12L38.456 28H55.93l-2.28 30.4h-8.559l-2.73.8v.8h12.031a.8.8 0 0 0 .8-.74L57.536 28h1.657a.8.8 0 0 0 .8-.8v-4a.8.8 0 0 0-.8-.8h-9.6v-9.6a.8.8 0 0 0-.8-.8h-3.2a.8.8 0 0 0-.8.8v9.6h-9.6a.8.8 0 0 0-.8.8v4a.8.8 0 0 0 .8.8zm11.2-14.4h1.6v8.8h-1.6v-8.8zM35.993 24h22.4v2.4h-22.4V24z"/>
            <path d="M16.794 60h25.6a4.005 4.005 0 0 0 4-4v-3.2a.8.8 0 0 0-.8-.8h-.021a3.92 3.92 0 0 0 0-4.8h.02a.8.8 0 0 0 .8-.8 11.959 11.959 0 0 0-3.48-8.44l-.762-.768-.94-.653c-2-1.393-4.38-2.14-6.818-2.14h-9.6c-6.624.008-11.992 5.377-12 12a.8.8 0 0 0 .8.8h.021a3.92 3.92 0 0 0 0 4.8h-.02a.8.8 0 0 0-.8.8V56a4.005 4.005 0 0 0 4 4zm28-4a2.4 2.4 0 0 1-2.4 2.4h-25.6a2.4 2.4 0 0 1-2.4-2.4v-2.4h30.4V56zm-7.94-4 6.38-4.64a2.395 2.395 0 0 1-.84 4.64h-5.54zm-2.48-.175-6.94-4.625h13.3l-6.36 4.625zM24.793 36h9.6a10.414 10.414 0 0 1 10.369 9.6H14.424a10.414 10.414 0 0 1 10.37-9.6zm-10.4 13.6a2.4 2.4 0 0 1 2.4-2.4h7.76l7.2 4.8h-14.96a2.4 2.4 0 0 1-2.4-2.4z"/>
        </g>
    </g>
</svg>
