<?xml version="1.0" encoding="UTF-8"?>
<svg width="24px" height="24px" viewBox="0 0 24 24" version="1.1" xmlns="http://www.w3.org/2000/svg" xmlns:xlink="http://www.w3.org/1999/xlink">
    <title>D565C4A1-FE63-4FE0-A406-DF73A398B24E</title>
    <g id="Page-1" stroke="none" stroke-width="1" fill="none" fill-rule="evenodd">
        <g id="Index_Geolocation" transform="translate(-636.000000, -1752.000000)">
            <g id="Icons/24x24/money" transform="translate(636.000000, 1752.000000)">
                <path d="M4.1393411,3.439545 L21.4409556,3.439545 C22.7532537,3.439545 23.8238127,4.51010398 23.8238127,5.82240208 L23.8238127,18.7381782 C23.8238127,20.0504763 22.7532537,21.1210352 21.4409556,21.1210352 L4.1393411,21.1210352 C2.82704299,21.1210352 1.75648401,20.0504763 1.75648401,18.7381782 L1.75648401,15.9754453 L4.96816095,15.9754453 C6.93660811,15.9754453 8.55971366,14.3523398 8.55971366,12.3838926 L8.55971366,12.3838926 C8.55971366,10.3809113 6.93660811,8.75780574 4.96816095,8.75780574 L1.75648401,8.75780574 L1.75648401,5.82240208 C1.75648401,4.51010398 2.82704299,3.439545 4.1393411,3.439545 Z M0.789527514,9.17221566 L4.86455847,9.17221566 C6.62580066,9.17221566 8.07623541,10.6226504 8.07623541,12.3838926 L8.07623541,12.3838926 C8.07623541,14.1451348 6.62580066,15.5610354 4.86455847,15.5610354 L0.789527514,15.5610354 C0.582322551,15.5610354 0.444185908,15.4228987 0.444185908,15.2156938 L0.444185908,9.51755727 C0.444185908,9.34488647 0.582322551,9.17221566 0.789527514,9.17221566 Z M5.90058329,11.3478678 C6.45312986,11.3478678 6.93660811,11.7968119 6.93660811,12.3838926 C6.93660811,12.9709733 6.45312986,13.4199174 5.90058329,13.4199174 C5.31350256,13.4199174 4.86455847,12.9709733 4.86455847,12.3838926 C4.86455847,11.7968119 5.31350256,11.3478678 5.90058329,11.3478678 Z" id="Shape" fill="#3384F7" transform="translate(12.133999, 12.280290) scale(-1, 1) translate(-12.133999, -12.280290) "></path>
                <path d="M18.0866451,17.0467567 C18.0805451,17.0576567 18.0752451,17.0672567 18.0710451,17.0745567 C18.0746451,17.0682567 18.0800451,17.0587567 18.0866451,17.0467567 Z" id="Path" fill="#000000" fill-rule="nonzero"></path>
                <path d="M7.85860132,17.5266203 L7.85860132,15.740906 L10.4586013,15.740906 L10.4586013,14.7551917 L7.85860132,14.7551917 L7.85860132,13.8837631 L9.90145847,13.8837631 C11.0443156,13.8837631 11.9276489,13.6028107 12.5514585,13.040906 C13.175268,12.4790012 13.4871728,11.6932869 13.4871728,10.6837631 C13.4871728,9.68376312 13.175268,8.90757264 12.5514585,8.35519169 C11.9276489,7.80281074 11.0443156,7.52662026 9.90145847,7.52662026 L9.90145847,7.52662026 L5.80145847,7.52662026 L5.80145847,12.1551917 L4.48717275,12.1551917 L4.48717275,13.8837631 L5.80145847,13.8837631 L5.80145847,14.7551917 L4.48717275,14.7551917 L4.48717275,15.740906 L5.80145847,15.740906 L5.80145847,17.5266203 L7.85860132,17.5266203 Z M9.60145847,12.1551917 L7.85860132,12.1551917 L7.85860132,9.25519169 L9.60145847,9.25519169 C10.8300299,9.25519169 11.4443156,9.73138217 11.4443156,10.6837631 C11.4443156,11.6647155 10.8300299,12.1551917 9.60145847,12.1551917 L9.60145847,12.1551917 Z" id="₽" fill="#FFFFFF" fill-rule="nonzero"></path>
            </g>
        </g>
    </g>
</svg>