<?xml version="1.0" encoding="UTF-8"?>
<svg width="24px" height="24px" viewBox="0 0 24 24" version="1.1" xmlns="http://www.w3.org/2000/svg" xmlns:xlink="http://www.w3.org/1999/xlink">
    <title>143184BD-53A6-4253-91E0-3F6088605B8C</title>
    <g id="Page-1" stroke="none" stroke-width="1" fill="none" fill-rule="evenodd">
        <g id="Index_Geolocation" transform="translate(-623.000000, -2101.000000)">
            <g id="Icons/24x24/Favorites.2" transform="translate(623.000000, 2101.000000)">
                <path d="M12.0666002,2.50948841 L14.597095,8.1675842 C14.7821995,8.56074269 15.1431348,8.82660523 15.5547292,8.88932417 L15.5547292,8.88932417 L21.423531,9.78332447 L17.1567314,14.1434514 C16.868258,14.4381557 16.7329193,14.8618158 16.801173,15.2791637 L16.801173,15.2791637 L17.7187246,20.88749 L12.2783212,18.3789948 L6.34426479,21.3294688 L7.1987719,15.2793013 C7.26709812,14.8620663 7.13174713,14.4382812 6.84332939,14.1435547 L6.84332939,14.1435547 L2.57645837,9.7833548 L8.44511606,8.88934174 C8.85679146,8.82670651 9.21773492,8.56079849 9.4028728,8.16756918 L9.4028728,8.16756918 L12.0666002,2.50948841 Z" id="Shape-Copy" stroke="#FFFFFF" stroke-width="1.3" fill="#FFFFFF" fill-rule="nonzero"></path>
                <polygon id="Path-24-Copy-2" fill="#CBEC4C" points="12.0517148 4.17280783 12.0517148 12.8797648 3.93138982 10.2301399 9.50204844 9.09435525"></polygon>
                <polygon id="Path-24-Copy-3" fill="#CBEC4C" transform="translate(14.460970, 16.534759) scale(-1, 1) rotate(-90.000000) translate(-14.460970, -16.534759) " points="16.681603 14.7711371 17.3331696 16.6867229 18.1288887 19.0261128 13.2567073 18.9940547 10.7930518 14.0434048"></polygon>
            </g>
        </g>
    </g>
</svg>