<?xml version="1.0" encoding="utf-8"?>
<svg width="24px" height="24px" viewBox="0 0 24 24" version="1.1" xmlns:xlink="http://www.w3.org/1999/xlink" xmlns="http://www.w3.org/2000/svg">
  <g id="Icons24x24top2">
    <path d="M20.5562 10.0527C20.5037 9.89101 20.5037 9.7201 20.5562 9.55839L21.0534 8.02842C21.3256 7.19081 21.0296 6.28019 20.3171 5.76243L19.0157 4.81685C18.8781 4.71691 18.7776 4.57864 18.7251 4.41693L18.228 2.88697C17.9557 2.04935 17.1811 1.48656 16.3004 1.48656L14.6916 1.48656C14.5216 1.48656 14.3591 1.43374 14.2215 1.33381L12.92 0.388227C12.2075 -0.129409 11.25 -0.129409 10.5375 0.388227L9.23603 1.33381C9.09849 1.43374 8.93592 1.48656 8.76593 1.48656L7.1572 1.48656C6.27652 1.48656 5.50185 2.04935 5.22959 2.88703L4.73245 4.41705C4.67993 4.5787 4.57945 4.71697 4.44191 4.81691L3.14046 5.76249C2.42799 6.28019 2.13206 7.19081 2.40425 8.02842L2.90139 9.55845C2.95397 9.7201 2.95397 9.89101 2.90139 10.0527L2.40425 11.5827C2.13206 12.4204 2.42799 13.331 3.14052 13.8487L4.44203 14.7944C4.57957 14.8943 4.67999 15.0325 4.73251 15.1943L5.22965 16.7243C5.50191 17.5619 6.27652 18.1247 7.15726 18.1247L8.766 18.1247C8.93599 18.1247 9.09855 18.1775 9.23609 18.2774L10.5376 19.2229C10.894 19.4818 11.3113 19.6113 11.7289 19.6113C12.1463 19.6113 12.5639 19.4818 12.9202 19.223L14.2217 18.2774C14.3592 18.1775 14.5218 18.1247 14.6918 18.1247L16.3005 18.1247C17.1812 18.1247 17.9558 17.5619 18.2281 16.7242L18.7252 15.1942C18.7778 15.0325 18.8782 14.8943 19.0158 14.7943L20.3172 13.8487C21.0298 13.331 21.3256 12.4204 21.0535 11.5827L20.5562 10.0527ZM16.7477 8.78482L14.6834 10.797L15.1707 13.6384C15.2102 13.8685 15.1155 14.1011 14.9266 14.2384C14.8197 14.3161 14.6931 14.3556 14.5659 14.3556C14.4683 14.3556 14.3703 14.3323 14.2806 14.2851L11.7288 12.9436L9.17707 14.2851C8.97046 14.3937 8.71992 14.3757 8.53104 14.2384C8.34216 14.1012 8.2475 13.8685 8.28695 13.6384L8.77428 10.797L6.70993 8.78482C6.5427 8.62182 6.48258 8.37803 6.55472 8.15596C6.62693 7.93389 6.81888 7.77206 7.04991 7.73844L9.90286 7.32387L11.1787 4.73869C11.282 4.52932 11.4953 4.39675 11.7288 4.39675C11.9624 4.39675 12.1756 4.52932 12.279 4.73869L13.5548 7.32387L16.4077 7.73844C16.6388 7.772 16.8308 7.93389 16.9029 8.15596C16.9751 8.37803 16.9149 8.62182 16.7477 8.78482ZM7.15732 19.229L8.66705 19.229L9.26149 19.6603L5.51694 23.4042C5.40099 23.5202 5.24395 23.584 5.08322 23.584C5.04151 23.584 4.99918 23.5797 4.95746 23.5705C4.75502 23.5281 4.58755 23.3864 4.51209 23.1938L3.35265 20.2308L0.390264 19.072C0.197024 18.9965 0.0553153 18.829 0.0129866 18.626C-0.029342 18.4235 0.0332308 18.2131 0.179847 18.0671L3.07783 15.1685L3.71275 15.6292L4.1796 17.0653C4.59982 18.3597 5.79667 19.229 7.15732 19.229ZM23.2778 18.0671L20.3798 15.1685L19.7449 15.6292L19.278 17.0653C18.8578 18.3597 17.661 19.229 16.3003 19.229L14.7906 19.229L14.1961 19.6603L17.9407 23.4042C18.0566 23.5202 18.2137 23.584 18.3744 23.584C18.4161 23.584 18.4585 23.5797 18.5002 23.5705C18.7026 23.5281 18.8701 23.3864 18.9455 23.1938L20.105 20.2308L23.0674 19.072C23.2606 18.9965 23.4023 18.829 23.4446 18.626C23.487 18.4235 23.4244 18.2131 23.2778 18.0671Z" transform="translate(0.39558202 0.07284266)" id="Combined-Shape" fill="#3384F7" fill-rule="evenodd" stroke="none" />
  </g>
</svg>