<svg width="64" height="64" viewBox="0 0 64 64" xmlns="http://www.w3.org/2000/svg">
    <g fill="none" fill-rule="evenodd">
        <path d="M4.722 0v12.239H.897v13.514h3.825V64h57.88V0z" fill="#FFF"/>
        <path fill="#3384F7" d="M5.397 0h57v10h-57z"/>
        <g fill="#0C0C0C">
            <path d="M12.616 44.367h8.67v-5.61h-8.67v5.61zm0 3.824h8.67v-1.785h-8.67v1.785zm-2.04 2.04h12.75V36.717h-12.75v13.514zM9.812 5.1h3.57V3.06h-3.57zM10.577 54.056h12.749v-2.04h-12.75zM20.52 5.1h3.57V3.06h-3.57zM15.166 5.1h3.57V3.06h-3.57zM27.405 54.056h12.75v-2.04h-12.75zM29.445 48.191h8.67v-1.785h-8.67v1.785zm0-3.824h8.67v-5.61h-8.67v5.61zm-2.04 5.864h12.75V36.717h-12.75v13.514z"/>
            <path d="M5.222 0v12.239H1.397v13.514h3.825V64h57.88V0H5.223zm2.04 6.12h53.8V2.04h-53.8v4.08zm0 2.04h53.8v53.8h-53.8V25.753h6.884V12.239H7.262v-4.08zM3.437 19.887h8.67v-5.61h-8.67v5.61zm0 3.825h8.67v-1.785h-8.67v1.785z"/>
            <path d="M10.577 29.578h12.749v-2.04h-12.75zM46.274 48.191h8.67v-1.785h-8.67v1.785zm0-3.824h8.67v-5.61h-8.67v5.61zm-2.04 5.864h12.749V36.717H44.234v13.514zM44.234 54.056h12.749v-2.04H44.234zM44.234 29.578h12.749v-2.04H44.234zM27.405 29.578h12.75v-2.04h-12.75zM29.445 23.713h8.67v-1.785h-8.67v1.785zm0-3.825h8.67v-5.61h-8.67v5.61zm-2.04 5.865h12.75V12.239h-12.75v13.514zM46.274 23.713h8.67v-1.785h-8.67v1.785zm0-3.825h8.67v-5.61h-8.67v5.61zm-2.04 5.865h12.749V12.239H44.234v13.514z"/>
        </g>
    </g>
</svg>
