<?xml version="1.0" encoding="utf-8"?>
<svg width="24px" height="24px" viewBox="0 0 24 24" version="1.1" xmlns:xlink="http://www.w3.org/1999/xlink" xmlns="http://www.w3.org/2000/svg">
  <g id="Icons24x24top">
    <path d="M0 0L0 11.2941L21.1765 11.2941L21.1765 0L0 0ZM7.05882 3.52941L5.64706 3.52941L5.64706 9.17647L4.23529 9.17647L4.23529 3.52941L2.82353 3.52941L2.82353 2.11765L7.05882 2.11765L7.05882 3.52941ZM12.7059 7.05882C12.7059 8.22649 11.756 9.17647 10.5882 9.17647C9.42061 9.17647 8.47059 8.22649 8.47059 7.05882L8.47059 4.23529C8.47059 3.06762 9.42061 2.11765 10.5882 2.11765C11.756 2.11765 12.7059 3.06762 12.7059 4.23529L12.7059 7.05882ZM16.2353 6.35294L15.5294 6.35294L15.5294 9.17647L14.1176 9.17647L14.1176 2.11765L16.2353 2.11765C17.403 2.11765 18.3529 3.06762 18.3529 4.23529C18.3529 5.40296 17.403 6.35294 16.2353 6.35294ZM9.88235 4.23529C9.88235 3.84607 10.1991 3.52941 10.5882 3.52941C10.9775 3.52941 11.2941 3.84607 11.2941 4.23529L11.2941 7.05882C11.2941 7.44805 10.9775 7.76471 10.5882 7.76471C10.1991 7.76471 9.88235 7.44805 9.88235 7.05882L9.88235 4.23529ZM15.5294 3.52941L16.2353 3.52941C16.6246 3.52941 16.9412 3.84607 16.9412 4.23529C16.9412 4.62452 16.6246 4.94118 16.2353 4.94118L15.5294 4.94118L15.5294 3.52941ZM0 12.7059L0 24L21.1765 24L21.1765 12.7059L0 12.7059ZM7.09581 14.8235L8.47059 14.8235L8.47059 20.4706L9.88235 20.4706L9.88235 21.8824L5.64706 21.8824L5.64706 20.4706L7.05882 20.4706L7.05882 16.8571L5.95793 17.958L4.95967 16.9597L7.09581 14.8235ZM11.2941 16.9412C11.2941 15.7735 12.244 14.8235 13.4118 14.8235C14.5795 14.8235 15.5294 15.7735 15.5294 16.9412L15.5294 19.7647C15.5294 20.9324 14.5795 21.8824 13.4118 21.8824C12.244 21.8824 11.2941 20.9324 11.2941 19.7647L11.2941 16.9412ZM13.4118 20.4706C13.801 20.4706 14.1176 20.154 14.1176 19.7647L14.1176 16.9412C14.1176 16.5519 13.801 16.2353 13.4118 16.2353C13.0225 16.2353 12.7059 16.5519 12.7059 16.9412L12.7059 19.7647C12.7059 20.154 13.0225 20.4706 13.4118 20.4706Z" transform="translate(1.4117647 -3.5527137E-15)" id="Combined-Shape" fill="#3384F7" fill-rule="evenodd" stroke="none" />
  </g>
</svg>