<?xml version="1.0" encoding="UTF-8"?>
<svg width="80px" height="80px" viewBox="0 0 80 80" version="1.1" xmlns="http://www.w3.org/2000/svg" xmlns:xlink="http://www.w3.org/1999/xlink">
    <title>E9094EC8-B868-4B07-A654-7779B0CC6E9F</title>
    <g id="Page-1" stroke="none" stroke-width="1" fill="none" fill-rule="evenodd">
        <g id="Index_Geolocation" transform="translate(-1788.000000, -4440.000000)">
            <g id="Icons/80x80/Legislation" transform="translate(1788.000000, 4440.000000)">
                <path d="M37.0765886,4.39752908 C33.188897,5.30226476 23.4868764,16.9988643 22.4899401,17.7413368 C18.0722931,21.0313979 12.2709248,25.3206218 7.44565047,28.2262774 C-9.29096391,38.3046343 5.14696124,66.4809183 21.6633956,73.0454934 C33.8186293,77.876678 56.4518699,76.2368096 63.4139272,62.1428122 C65.2042907,58.5183981 66.3359774,53.7614218 73.7536373,46.5209026 C84.9327318,35.6087755 79.6074291,25.6172607 69.5316129,18.145902 C59.4557968,10.6745433 54.3026014,0.388726463 37.0765886,4.39752908 Z" id="Path-8-Copy" fill="#F7F8FA"></path>
                <g id="Group" transform="translate(16.250000, 16.250000)">
                    <g id="Без-названия-(1)" fill="#FFFFFF" fill-rule="nonzero">
                        <path d="M46.7083333,25.3333333 L44.0309256,25.3333333 L40.4684256,18.2083333 L41.5625,18.2083333 C43.5300144,18.2083333 45.125,16.6133478 45.125,14.6458333 C45.125,12.6783189 43.5300144,11.0833333 41.5625,11.0833333 L36.0208333,11.0833333 L35.5458531,10.4500099 C34.3466574,8.85896827 32.4715174,7.92139829 30.4791667,7.91666667 L27.7083333,7.91666667 C27.7070413,6.91067682 27.0730767,6.01425947 26.125,5.6778551 L26.125,2.375 C26.125,1.06332372 25.0616763,0 23.75,0 C22.4383237,0 21.375,1.06332372 21.375,2.375 L21.375,5.6778551 C20.4269233,6.01425947 19.7929587,6.91067682 19.7916667,7.91666667 L17.0208333,7.91666667 C15.0284945,7.92140128 13.1533622,8.85894947 11.9541469,10.4499614 L11.4791667,11.0833333 L5.9375,11.0833333 C3.96998558,11.0833333 2.375,12.6783189 2.375,14.6458333 C2.375,16.6133478 3.96998558,18.2083333 5.9375,18.2083333 L7.03157443,18.2083333 L3.46907443,25.3333333 L0.791666667,25.3333333 C0.354443051,25.3333377 0,25.6877764 0,26.125 L0,27.7083333 C0.00394779829,31.2045002 2.83716645,34.0377189 6.33333333,34.0416667 L12.6666667,34.0416667 C16.1628335,34.0377189 18.9960522,31.2045002 19,27.7083333 L19,26.125 C19,25.6877764 18.6455569,25.3333377 18.2083333,25.3333333 L15.5309256,25.3333333 L10.7809256,15.8333333 L13.4583333,15.8333333 C13.7075248,15.8333052 13.9421681,15.7159834 14.0917053,15.5166469 L15.5167439,13.6166281 C15.966425,13.0200173 16.6695694,12.6684451 17.4166667,12.6666667 L19.7916667,12.6666667 C19.791671,13.1038903 20.1461097,13.458329 20.5833333,13.4583333 L21.375,13.4583333 L21.375,36.176954 L20.1595235,38.0002058 C18.6609574,37.9973365 17.2907238,38.8455206 16.625,40.1881004 L16.1357411,41.1666667 L13.4583333,41.1666667 C10.3991846,41.1701144 7.92011439,43.6491846 7.91666667,46.7083333 C7.91667104,47.1455569 8.27110972,47.5 8.70833333,47.5 L38.7916667,47.5 C39.2288903,47.5 39.583329,47.1455569 39.5833333,46.7083333 C39.5798856,43.6491846 37.1008154,41.1701144 34.0416667,41.1666667 L31.3642836,41.1666667 L30.875,40.1880519 C30.2092549,38.845498 28.8390289,37.9973374 27.3404765,38.0002058 L26.125,36.176954 L26.125,13.4583333 L26.9166667,13.4583333 C27.3538903,13.458329 27.708329,13.1038903 27.7083333,12.6666667 L30.0833333,12.6666667 C30.8304306,12.6684451 31.533575,13.0200173 31.9832561,13.6166281 L33.4082947,15.5166469 C33.5578319,15.7159834 33.7924752,15.8333052 34.0416667,15.8333333 L36.7190744,15.8333333 L31.9690744,25.3333333 L29.2916667,25.3333333 C28.8544431,25.3333377 28.5,25.6877764 28.5,26.125 L28.5,27.7083333 C28.5039478,31.2045002 31.3371665,34.0377189 34.8333333,34.0416667 L41.1666667,34.0416667 C44.6628335,34.0377189 47.4960522,31.2045002 47.5,27.7083333 L47.5,26.125 C47.5,25.6877764 47.1455569,25.3333377 46.7083333,25.3333333 Z" id="Shape"></path>
                    </g>
                    <g id="Без-названия-(1)-Copy">
                        <polygon id="Path-23" fill="#3384F7" points="22.9583333 13.0625 22.0625625 38 26.125 38 25.4374375 13.0429688"></polygon>
                        <path d="M46.7083333,25.3333333 L44.0309256,25.3333333 L40.4684256,18.2083333 L41.5625,18.2083333 C43.5300144,18.2083333 45.125,16.6133478 45.125,14.6458333 C45.125,12.6783189 43.5300144,11.0833333 41.5625,11.0833333 L36.0208333,11.0833333 L35.5458531,10.4500099 C34.3466574,8.85896827 32.4715174,7.92139829 30.4791667,7.91666667 L27.7083333,7.91666667 C27.7070413,6.91067682 27.0730767,6.01425947 26.125,5.6778551 L26.125,2.375 C26.125,1.06332372 25.0616763,0 23.75,0 C22.4383237,0 21.375,1.06332372 21.375,2.375 L21.375,5.6778551 C20.4269233,6.01425947 19.7929587,6.91067682 19.7916667,7.91666667 L17.0208333,7.91666667 C15.0284945,7.92140128 13.1533622,8.85894947 11.9541469,10.4499614 L11.4791667,11.0833333 L5.9375,11.0833333 C3.96998558,11.0833333 2.375,12.6783189 2.375,14.6458333 C2.375,16.6133478 3.96998558,18.2083333 5.9375,18.2083333 L7.03157443,18.2083333 L3.46907443,25.3333333 L0.791666667,25.3333333 C0.354443051,25.3333377 0,25.6877764 0,26.125 L0,27.7083333 C0.00394779829,31.2045002 2.83716645,34.0377189 6.33333333,34.0416667 L12.6666667,34.0416667 C16.1628335,34.0377189 18.9960522,31.2045002 19,27.7083333 L19,26.125 C19,25.6877764 18.6455569,25.3333377 18.2083333,25.3333333 L15.5309256,25.3333333 L10.7809256,15.8333333 L13.4583333,15.8333333 C13.7075248,15.8333052 13.9421681,15.7159834 14.0917053,15.5166469 L15.5167439,13.6166281 C15.966425,13.0200173 16.6695694,12.6684451 17.4166667,12.6666667 L19.7916667,12.6666667 C19.791671,13.1038903 20.1461097,13.458329 20.5833333,13.4583333 L21.375,13.4583333 L21.375,36.176954 L20.1595235,38.0002058 C18.6609574,37.9973365 17.2907238,38.8455206 16.625,40.1881004 L16.1357411,41.1666667 L13.4583333,41.1666667 C10.3991846,41.1701144 7.92011439,43.6491846 7.91666667,46.7083333 C7.91667104,47.1455569 8.27110972,47.5 8.70833333,47.5 L38.7916667,47.5 C39.2288903,47.5 39.583329,47.1455569 39.5833333,46.7083333 C39.5798856,43.6491846 37.1008154,41.1701144 34.0416667,41.1666667 L31.3642836,41.1666667 L30.875,40.1880519 C30.2092549,38.845498 28.8390289,37.9973374 27.3404765,38.0002058 L26.125,36.176954 L26.125,13.4583333 L26.9166667,13.4583333 C27.3538903,13.458329 27.708329,13.1038903 27.7083333,12.6666667 L30.0833333,12.6666667 C30.8304306,12.6684451 31.533575,13.0200173 31.9832561,13.6166281 L33.4082947,15.5166469 C33.5578319,15.7159834 33.7924752,15.8333052 34.0416667,15.8333333 L36.7190744,15.8333333 L31.9690744,25.3333333 L29.2916667,25.3333333 C28.8544431,25.3333377 28.5,25.6877764 28.5,26.125 L28.5,27.7083333 C28.5039478,31.2045002 31.3371665,34.0377189 34.8333333,34.0416667 L41.1666667,34.0416667 C44.6628335,34.0377189 47.4960522,31.2045002 47.5,27.7083333 L47.5,26.125 C47.5,25.6877764 47.1455569,25.3333377 46.7083333,25.3333333 Z M23.75,1.58333333 C24.1870181,1.58383341 24.5411666,1.93798188 24.5416667,2.375 L24.5416667,5.54166667 L22.9583333,5.54166667 L22.9583333,2.375 C22.9588334,1.93798188 23.3129819,1.58383341 23.75,1.58333333 Z M17.4166667,27.7083333 C17.4137217,30.3304651 15.2887984,32.4553884 12.6666667,32.4583333 L6.33333333,32.4583333 C3.71120157,32.4553884 1.58627826,30.3304651 1.58333333,27.7083333 L1.58333333,26.9166667 L17.4166667,26.9166667 L17.4166667,27.7083333 Z M5.23925891,25.3333333 L9.5,16.8118511 L13.7607411,25.3333333 L5.23925891,25.3333333 Z M17.4166667,11.0833333 C16.1714525,11.0862913 14.9994949,11.6722701 14.25,12.6666667 L13.0625,14.25 L5.54166667,14.25 L5.54166667,15.8333333 L8.21907443,15.8333333 L7.82324109,16.625 L5.9375,16.625 C4.84443643,16.625 3.95833333,15.7388969 3.95833333,14.6458333 C3.95833333,13.5527698 4.84443643,12.6666667 5.9375,12.6666667 L11.875,12.6666667 C12.1241915,12.6666385 12.3588347,12.5493167 12.5083719,12.3499802 L13.2208917,11.3999713 C14.120245,10.2066815 15.5265895,9.50350901 17.0208333,9.5 L19.7916667,9.5 L19.7916667,11.0833333 L17.4166667,11.0833333 Z M37.9204662,45.9166667 L9.5795338,45.9166667 C9.95821681,44.0750257 11.5781642,42.7524945 13.4583333,42.75 L34.0416667,42.75 C35.9218358,42.7524945 37.5417832,44.0750257 37.9204662,45.9166667 L37.9204662,45.9166667 Z M29.4588518,40.896174 L29.5940982,41.1666667 L17.9059256,41.1666667 L18.0411482,40.8962224 C18.4411191,40.0894521 19.2649962,39.5802725 20.1654659,39.5833196 L27.3345341,39.5833196 C28.2349899,39.5802739 29.0588592,40.0894299 29.4588518,40.896174 L29.4588518,40.896174 Z M24.6746419,36.8557943 L25.4374375,38 L22.0625625,38 L22.8253581,36.8557943 C22.9120592,36.7257541 22.9583279,36.5729597 22.9583333,36.4166667 L22.9583333,13.4583333 L24.5416667,13.4583333 L24.5416667,36.4166667 C24.5416721,36.5729597 24.5879408,36.7257541 24.6746419,36.8557943 L24.6746419,36.8557943 Z M26.125,11.875 L21.375,11.875 L21.375,7.91666667 C21.3755001,7.47964854 21.7296485,7.12550007 22.1666667,7.125 L25.3333333,7.125 C25.7703515,7.12550007 26.1244999,7.47964854 26.125,7.91666667 L26.125,11.875 Z M33.25,12.6666667 C32.5005051,11.6722701 31.3285475,11.0862913 30.0833333,11.0833333 L27.7083333,11.0833333 L27.7083333,9.5 L30.4791667,9.5 C31.9734222,9.50350679 33.3797741,10.2067009 34.2791083,11.4000198 L34.9916281,12.3499802 C35.1411653,12.5493167 35.3758085,12.6666385 35.625,12.6666667 L41.5625,12.6666667 C42.6555635,12.6666667 43.5416666,13.5527698 43.5416666,14.6458333 C43.5416666,15.7388969 42.6555635,16.625 41.5625,16.625 L39.6767589,16.625 L39.2809256,15.8333333 L41.9583333,15.8333333 L41.9583333,14.25 L34.4375,14.25 L33.25,12.6666667 Z M38,16.8118511 L42.2607411,25.3333333 L33.7392589,25.3333333 L38,16.8118511 Z M45.9166667,27.7083333 C45.9137217,30.3304651 43.7887984,32.4553884 41.1666667,32.4583333 L34.8333333,32.4583333 C32.2112016,32.4553884 30.0862783,30.3304651 30.0833333,27.7083333 L30.0833333,26.9166667 L45.9166667,26.9166667 L45.9166667,27.7083333 Z" id="Shape" fill="#202023" fill-rule="nonzero"></path>
                    </g>
                </g>
            </g>
        </g>
    </g>
</svg>