<?xml version="1.0" encoding="UTF-8"?>
<svg width="24px" height="24px" viewBox="0 0 24 24" version="1.1" xmlns="http://www.w3.org/2000/svg" xmlns:xlink="http://www.w3.org/1999/xlink">
    <title>1B719067-341A-4B39-BDC2-3BF91DCB62AC</title>
    <g id="Page-1" stroke="none" stroke-width="1" fill="none" fill-rule="evenodd">
        <g id="Index_Rating" transform="translate(-620.000000, -5256.000000)">
            <g id="Icons/24x24/finance" transform="translate(620.000000, 5256.000000)">
                <path d="M16.5015979,23.4599 C18.2105979,23.4599 19.8305979,23.1599 21.0645979,22.6179 C22.4505979,22.0079 23.2155979,21.1409 23.2155979,20.1759 L23.2155979,3.84190002 C23.2155979,2.87790002 22.4505979,2.01090002 21.0645979,1.39990002 C19.8305979,0.856900017 18.2105979,0.557900017 16.5015979,0.557900017 C13.2695979,0.557900017 9.83459792,1.70890002 9.83459792,3.84190002 L9.83459792,9.05390002 L9.70659792,9.01590002 C9.04359792,8.82290002 8.35459792,8.72490002 7.65859792,8.72490002 C5.70059792,8.72490002 3.85659792,9.49890002 2.46559792,10.9029 C1.07759792,12.3039 0.313597919,14.1539 0.313597919,16.1149 C0.313597919,20.1639 3.60859792,23.4599 7.65859792,23.4599 C8.99659792,23.4599 10.3055979,23.0989 11.4455979,22.4159 L11.4935979,22.3869 L11.5435979,22.4139 C12.7995979,23.0879 14.5605979,23.4599 16.5015979,23.4599 L16.5015979,23.4599 Z" id="Fill-1" fill="#FFFFFF"></path>
                <path d="M7.65859792,22.3059 C4.24459792,22.3059 1.46759792,19.5289 1.46759792,16.1149 C1.46759792,12.6759 4.24459792,9.87890002 7.65859792,9.87890002 C11.0965979,9.87890002 13.8945979,12.6759 13.8945979,16.1149 C13.8945979,19.5289 11.0965979,22.3059 7.65859792,22.3059 L7.65859792,22.3059 Z M10.9875979,5.74190002 L11.1425979,5.84290002 C12.3685979,6.64690002 14.3715979,7.12590002 16.5015979,7.12590002 C18.6485979,7.12590002 20.6685979,6.64290002 21.9075979,5.83290002 L22.0615979,5.73190002 L22.0615979,7.94790002 C22.0615979,8.83790002 19.9465979,10.0789 16.5015979,10.0789 C14.9545979,10.0789 13.5085979,9.81490002 12.4295979,9.33490002 C11.5265979,8.93390002 10.9875979,8.41590002 10.9875979,7.94790002 L10.9875979,5.74190002 Z M16.5015979,1.71190002 C19.9465979,1.71190002 22.0615979,2.95190002 22.0615979,3.84190002 C22.0615979,4.73190002 19.9465979,5.97290002 16.5015979,5.97290002 C13.3455979,5.97290002 10.9875979,4.84790002 10.9875979,3.84190002 C10.9875979,2.83690002 13.3455979,1.71190002 16.5015979,1.71190002 L16.5015979,1.71190002 Z M22.0615979,12.0089 C22.0615979,12.8989 19.9465979,14.1389 16.5015979,14.1389 C15.9235979,14.1389 15.3535979,14.1019 14.8065979,14.0279 L14.7425979,14.0199 L14.7245979,13.9579 C14.3775979,12.8329 13.7475979,11.7859 12.9025979,10.9319 L12.6315979,10.6579 L13.0015979,10.7659 C14.0455979,11.0709 15.2565979,11.2319 16.5015979,11.2319 C18.6485979,11.2319 20.6685979,10.7489 21.9075979,9.93890002 L22.0615979,9.83790002 L22.0615979,12.0089 Z M22.0615979,16.1149 C22.0615979,17.0039 19.9465979,18.2449 16.5015979,18.2449 C15.9565979,18.2449 15.4105979,18.2109 14.8805979,18.1439 L14.7675979,18.1289 L14.7965979,18.0179 C14.9635979,17.4009 15.0485979,16.7599 15.0485979,16.1149 C15.0485979,15.8599 15.0335979,15.5969 15.0065979,15.3349 L14.9935979,15.2129 L15.1165979,15.2249 C15.5735979,15.2699 16.0395979,15.2929 16.5015979,15.2929 C18.6495979,15.2929 20.6695979,14.8099 21.9075979,13.9989 L22.0615979,13.8989 L22.0615979,16.1149 Z M22.0615979,20.1759 C22.0615979,21.0659 19.9465979,22.3059 16.5015979,22.3059 C15.0855979,22.3059 13.7335979,22.0809 12.6925979,21.6729 L12.5425979,21.6149 L12.6615979,21.5059 C12.7325979,21.4419 12.8015979,21.3759 12.8695979,21.3089 C13.4655979,20.7189 13.9515979,20.0419 14.3165979,19.2979 L14.3485979,19.2319 L14.4215979,19.2429 C15.0935979,19.3469 15.7935979,19.3999 16.5015979,19.3999 C18.6485979,19.3999 20.6685979,18.9159 21.9075979,18.1059 L22.0615979,18.0049 L22.0615979,20.1759 Z M16.5015979,23.4599 C18.2105979,23.4599 19.8305979,23.1599 21.0645979,22.6179 C22.4505979,22.0079 23.2155979,21.1409 23.2155979,20.1759 L23.2155979,3.84190002 C23.2155979,2.87790002 22.4505979,2.01090002 21.0645979,1.39990002 C19.8305979,0.856900017 18.2105979,0.557900017 16.5015979,0.557900017 C13.2695979,0.557900017 9.83459792,1.70890002 9.83459792,3.84190002 L9.83459792,9.05390002 L9.70659792,9.01590002 C9.04359792,8.82290002 8.35459792,8.72490002 7.65859792,8.72490002 C5.70059792,8.72490002 3.85659792,9.49890002 2.46559792,10.9029 C1.07759792,12.3039 0.313597919,14.1539 0.313597919,16.1149 C0.313597919,20.1639 3.60859792,23.4599 7.65859792,23.4599 C8.99659792,23.4599 10.3055979,23.0989 11.4455979,22.4159 L11.4935979,22.3869 L11.5435979,22.4139 C12.7995979,23.0879 14.5605979,23.4599 16.5015979,23.4599 L16.5015979,23.4599 Z" id="Fill-1-Copy" fill="#202023"></path>
                <circle id="Oval" fill="#CBEC4C" cx="7.56661794" cy="16.106561" r="5.30436309"></circle>
                <path d="M6.89220385,19.9239826 L6.89220385,18.5800983 L8.8488994,18.5800983 L8.8488994,17.8382742 L6.89220385,17.8382742 L6.89220385,17.1824587 L8.4296075,17.1824587 C9.28969345,17.1824587 9.95446822,16.9710209 10.4239318,16.5481453 C10.8933954,16.1252697 11.1281272,15.5339606 11.1281272,14.774218 C11.1281272,14.0216428 10.8933954,13.4375011 10.4239318,13.0217929 C9.95446822,12.6060846 9.28969345,12.3982305 8.4296075,12.3982305 L8.4296075,12.3982305 L5.34404914,12.3982305 L5.34404914,15.8815787 L4.35495029,15.8815787 L4.35495029,17.1824587 L5.34404914,17.1824587 L5.34404914,17.8382742 L4.35495029,17.8382742 L4.35495029,18.5800983 L5.34404914,18.5800983 L5.34404914,19.9239826 L6.89220385,19.9239826 Z M8.20383493,15.8815787 L6.89220385,15.8815787 L6.89220385,13.6991105 L8.20383493,13.6991105 C9.12842733,13.6991105 9.59072353,14.0574797 9.59072353,14.774218 C9.59072353,15.5124584 9.12842733,15.8815787 8.20383493,15.8815787 L8.20383493,15.8815787 Z" id="₽" fill="#202023" fill-rule="nonzero"></path>
            </g>
        </g>
    </g>
</svg>