<?xml version="1.0" encoding="UTF-8"?>
<svg width="24px" height="24px" viewBox="0 0 24 24" version="1.1" xmlns="http://www.w3.org/2000/svg" xmlns:xlink="http://www.w3.org/1999/xlink">
    <title>91A53307-4AF2-4221-96BB-5519FA11BB86</title>
    <g id="Page-1" stroke="none" stroke-width="1" fill="none" fill-rule="evenodd">
        <g id="Index_Geolocation" transform="translate(-748.000000, -1828.000000)" fill="#3384F7" fill-rule="nonzero">
            <g id="Icons/arrow/next" transform="translate(748.000000, 1828.000000)">
                <path d="M12.3240594,3.25 L12.3507325,3.25040005 C12.3727719,3.25106131 12.394791,3.25254236 12.4167391,3.25484319 L12.3240594,3.25 C12.3731374,3.25 12.4212785,3.2540113 12.4681727,3.26172393 C12.4854847,3.26459832 12.5031668,3.26805186 12.5207486,3.27204882 C12.545432,3.27765832 12.5695955,3.28428413 12.5933213,3.29188786 C12.603757,3.29516468 12.614402,3.29878437 12.6249874,3.30261301 C12.6463948,3.3104922 12.6671582,3.31896488 12.6875088,3.32818827 C12.7033388,3.33512587 12.7195614,3.3430478 12.7355751,3.35149729 C12.7487898,3.35875994 12.7616296,3.3659751 12.7742653,3.37349728 C12.8249237,3.4033077 12.8731732,3.43895123 12.9181292,3.48011818 L12.992038,3.55637036 L17.9937342,9.36674071 C18.3113039,9.73565507 18.2696809,10.2921604 17.9007665,10.6097301 C17.5582032,10.9046162 17.0538905,10.8897902 16.7293295,10.5907942 L16.6577772,10.5167623 L13.2049669,6.505 L13.2054406,19.8686188 C13.2054406,20.3553922 12.8108328,20.75 12.3240594,20.75 C11.8697376,20.75 11.4957023,20.4062528 11.4478501,19.964655 L11.4426783,19.8686188 L11.4419669,6.506 L7.99034169,10.5167623 C7.69545554,10.8593257 7.1945484,10.9196838 6.82912127,10.6722945 L6.74735234,10.6097301 C6.40478901,10.3148439 6.34443092,9.81393677 6.59182019,9.44850964 L6.65438461,9.36674071 L11.6560809,3.55637036 C11.6857589,3.52250747 11.7114739,3.49664314 11.7386991,3.47244052 L11.6560809,3.55637036 C11.6908379,3.51599377 11.7283407,3.47960811 11.7680463,3.44721337 C11.7881233,3.4311137 11.809287,3.41538334 11.8311493,3.40060821 C11.8416358,3.39319866 11.8521452,3.38642274 11.8627648,3.379893 C11.8839709,3.3671579 11.9058022,3.35496374 11.9281796,3.3436951 C11.9412703,3.33686465 11.9549637,3.33042164 11.9687832,3.32435044 C11.9869361,3.31653158 12.0053244,3.30915468 12.0240066,3.30239133 C12.0416223,3.29595486 12.0590531,3.29029213 12.0766134,3.28518531 C12.0979546,3.27895041 12.1206545,3.27326243 12.1436839,3.26847312 C12.1549535,3.26617519 12.1653107,3.26422991 12.1756938,3.26247075 C12.1992037,3.25842401 12.2239273,3.25526713 12.2489486,3.25315552 C12.2670633,3.25165772 12.28443,3.2507133 12.3018072,3.2502784 L12.3240594,3.25 L12.3240594,3.25 Z" id="next" transform="translate(12.324059, 12.000000) rotate(90.000000) translate(-12.324059, -12.000000) "></path>
            </g>
        </g>
    </g>
</svg>