<?xml version="1.0" encoding="utf-8"?>
<svg width="24px" height="24px" viewBox="0 0 24 24" version="1.1" xmlns:xlink="http://www.w3.org/1999/xlink" xmlns="http://www.w3.org/2000/svg">
  <g id="Iconsarrownext">
    <path d="M6.1077 0.0288759C6.03599 0.0100341 5.96071 0 5.88309 0C5.80581 0 5.73084 0.00994773 5.65941 0.0286326C5.49932 0.070369 5.34882 0.157731 5.2289 0.29072C5.22301 0.297243 5.21721 0.303855 5.21151 0.310553L0.213418 6.11674L0.150853 6.19851C-0.0965359 6.56394 -0.0361779 7.06484 0.306385 7.35973L0.388154 7.42229C0.753581 7.66968 1.25449 7.60933 1.54937 7.26676L5.00171 3.25556L5.00171 16.6186L5.00688 16.7147C5.05474 17.1563 5.42877 17.5 5.88309 17.5C6.36987 17.5 6.76447 17.1054 6.76447 16.6186L6.76447 3.25556L10.2168 7.26676L10.2884 7.34079C10.6129 7.63979 11.1172 7.65462 11.4598 7.35973C11.8287 7.04216 11.8703 6.48566 11.5528 6.11674L6.5547 0.310585C6.53099 0.282711 6.50557 0.256332 6.47861 0.231609L6.47716 0.230118C6.36898 0.13105 6.24172 0.063969 6.1077 0.0288759Z" transform="matrix(-4.371139E-08 1 -1 -4.371139E-08 21.07406 6.1169076)" id="next" fill="#202023" fill-rule="evenodd" stroke="none" />
  </g>
</svg>