<?xml version="1.0" encoding="UTF-8"?>
<svg width="24px" height="24px" viewBox="0 0 24 24" version="1.1" xmlns="http://www.w3.org/2000/svg" xmlns:xlink="http://www.w3.org/1999/xlink">
    <title>1D946280-4341-4E82-867F-24B448470935</title>
    <g id="Page-1" stroke="none" stroke-width="1" fill="none" fill-rule="evenodd">
        <g id="Index_Rating" transform="translate(-996.000000, -656.000000)" fill="#FFFFFF" fill-rule="nonzero">
            <g id="Icons/24x24/grid" transform="translate(996.000000, 656.000000)">
                <g id="Group" transform="translate(0.541667, 0.541667)">
                    <path d="M8.83246528,0 L1.67100694,0 C0.749565972,0 0,0.749565972 0,1.67100694 L0,5.96788194 C0,6.88932292 0.749565972,7.63888889 1.67100694,7.63888889 L8.83246528,7.63888889 C9.75390625,7.63888889 10.5034722,6.88932292 10.5034722,5.96788194 L10.5034722,1.67100694 C10.5034722,0.749565972 9.75390625,0 8.83246528,0 Z" id="Path" fill-opacity="0.64"></path>
                    <path d="M8.83246528,9.54861111 L1.67100694,9.54861111 C0.749565972,9.54861111 0,10.2981771 0,11.2196181 L0,21.2456597 C0,22.1671007 0.749565972,22.9166667 1.67100694,22.9166667 L8.83246528,22.9166667 C9.75390625,22.9166667 10.5034722,22.1671007 10.5034722,21.2456597 L10.5034722,11.2196181 C10.5034722,10.2981771 9.75390625,9.54861111 8.83246528,9.54861111 Z" id="Path"></path>
                    <path d="M21.2456597,15.2777778 L14.0842014,15.2777778 C13.1627604,15.2777778 12.4131944,16.0273438 12.4131944,16.9487847 L12.4131944,21.2456597 C12.4131944,22.1671007 13.1627604,22.9166667 14.0842014,22.9166667 L21.2456597,22.9166667 C22.1671007,22.9166667 22.9166667,22.1671007 22.9166667,21.2456597 L22.9166667,16.9487847 C22.9166667,16.0273438 22.1671007,15.2777778 21.2456597,15.2777778 Z" id="Path"></path>
                    <path d="M21.2456597,0 L14.0842014,0 C13.1627604,0 12.4131944,0.749565972 12.4131944,1.67100694 L12.4131944,11.6970486 C12.4131944,12.6184896 13.1627604,13.3680556 14.0842014,13.3680556 L21.2456597,13.3680556 C22.1671007,13.3680556 22.9166667,12.6184896 22.9166667,11.6970486 L22.9166667,1.67100694 C22.9166667,0.749565972 22.1671007,0 21.2456597,0 Z" id="Path" opacity="0.399996"></path>
                </g>
            </g>
        </g>
    </g>
</svg>
