<?xml version="1.0" encoding="UTF-8"?>
<svg width="24px" height="24px" viewBox="0 0 24 24" version="1.1" xmlns="http://www.w3.org/2000/svg" xmlns:xlink="http://www.w3.org/1999/xlink">
    <title>BC7C1B68-4E65-4F73-AFE1-D3B1F31FB072</title>
    <g id="Page-1" stroke="none" stroke-width="1" fill="none" fill-rule="evenodd">
        <g id="Index_Rating" transform="translate(-1432.000000, -1948.000000)" fill="#202023" fill-rule="nonzero">
            <g id="Icons/24x24/favorites_black_activ" transform="translate(1432.000000, 1948.000000)">
                <path d="M11.9999809,18.8133288 C12.0972389,18.8133288 12.1941539,18.8384188 12.2802074,18.8858422 L17.4471528,21.7335237 C17.5305767,21.7794689 17.6189168,21.802841 17.7097341,21.802841 C17.875934,21.802841 18.0339401,21.724934 18.1430886,21.589136 C18.2507127,21.4553357 18.2941967,21.2852587 18.2655376,21.1101876 L17.2787425,15.0786259 C17.2452434,14.8737903 17.309955,14.6649596 17.4519547,14.5198927 L21.6321049,10.2483105 C21.7869478,10.0900594 21.8416364,9.85781654 21.7748287,9.64223383 C21.7079829,9.42661116 21.533513,9.2723952 21.3194463,9.23975416 L15.5426187,8.35976436 C15.346502,8.32988003 15.1769865,8.20079408 15.0892562,8.01445646 L12.5057454,2.52676563 C12.4100118,2.32344828 12.2162199,2.19715899 11.9999809,2.19715899 C11.7837039,2.19715899 11.589912,2.32344828 11.4942165,2.52676563 L8.91070573,8.01445646 C8.82297536,8.20079408 8.65349797,8.32991998 8.45734322,8.35976436 L2.68047746,9.23979411 C2.46644889,9.2723952 2.29197902,9.42661116 2.22517132,9.64223383 C2.15836361,9.8578565 2.21305218,10.0900993 2.36789514,10.2483505 L6.5480453,14.5199326 C6.69000691,14.6649995 6.75475665,14.8738702 6.72121941,15.0786658 L5.73442424,21.1102276 C5.70580325,21.2852987 5.74928733,21.4554156 5.85687328,21.589216 C5.96605986,21.724934 6.12402788,21.802841 6.29022777,21.802841 C6.3810832,21.802841 6.46942334,21.7795089 6.55280911,21.7335637 L11.7197544,18.8858822 C11.8058842,18.8384188 11.9027611,18.8133288 11.9999809,18.8133288 Z" id="Shape"></path>
            </g>
        </g>
    </g>
</svg>