<?xml version="1.0" encoding="UTF-8"?>
<svg width="80px" height="80px" viewBox="0 0 80 80" version="1.1" xmlns="http://www.w3.org/2000/svg" xmlns:xlink="http://www.w3.org/1999/xlink">
    <title>A82A5868-E5A7-4DBD-B255-B3E85CA9895A</title>
    <g id="Page-1" stroke="none" stroke-width="1" fill="none" fill-rule="evenodd">
        <g id="Index_Geolocation" transform="translate(-1116.000000, -4440.000000)">
            <g id="Icons/80x80/Courses" transform="translate(1116.000000, 4440.000000)">
                <path d="M9.47232904,7.38689745 C4.21223644,10.7126414 -0.93028325,23.8675586 1.71903359,29.4966377 C3.60438298,33.5024933 12.38266,41.6070155 12.4174835,45.9072441 C12.7079612,81.7772753 45.3006886,76.9152903 54.3747981,73.996823 C63.4489076,71.0783558 66.1204873,58.8627903 72.0650071,52.1631764 C78.0035976,45.4702448 81.1124837,29.4339119 77.1518601,23.0548809 C66.4276032,5.78225581 22.0274346,-0.551188262 9.47232904,7.38689745 Z" id="Path-9" fill="#F4F5F8"></path>
                <g id="Icons/64x64/Courses" transform="translate(9.000000, 7.000000)">
                    <g id="Group" transform="translate(0.707500, 8.254125)">
                        <path d="M62.584,15.5707507 C62.532,15.1167507 62.393,13.9107507 60.629,13.0637507 L35.483,0.779750722 C33.403,-0.258249278 29.758,-0.261249278 27.684,0.778750722 L1.953,13.0647507 C0.254,13.8797507 0,14.9947507 0,15.5847507 C0,16.1467507 0.255,17.2217507 1.964,18.1107507 L4.191,19.1857507 L4.191,31.0757507 L4.032,31.1377507 C2.807,31.6147507 1.951,32.8557507 1.951,34.1567507 C1.951,35.4467507 2.779,36.6887507 3.964,37.1777507 L4.176,37.2647507 L0.958,47.4917507 L9.381,47.4917507 L6.161,37.2607507 L6.379,37.1747507 C7.581,36.7077507 8.388,35.4957507 8.388,34.1567507 C8.388,32.8137507 7.571,31.6287507 6.307,31.1377507 L6.148,31.0757507 L6.148,20.1697507 L10.478,22.2937507 L10.478,37.4807507 C10.478,37.6487507 10.535,37.8157507 10.658,37.9997507 L10.705,38.0567507 C12.451,40.2707507 19.092,47.4917507 31.256,47.4917507 C43.843,47.4917507 50.543,39.6097507 51.762,38.0247507 C51.9,37.8237507 51.962,37.6557507 51.962,37.4807507 L51.962,22.3667507 L60.628,18.1067507 C62.33,17.2897507 62.585,16.1767507 62.585,15.5847507 L62.584,15.5707507 Z" id="Fill-1" fill="#FFFFFF"></path>
                        <path d="M44.4261063,24.7943512 L51.0405422,21.92798 L50.7408482,36.67487 C50.0374209,38.1761518 49.2325974,39.3398794 48.3263779,40.166053 C47.4201583,40.9922265 46.0413649,41.8192378 44.1899975,42.6470869 L44.4261063,24.7943512 Z" id="Rectangle" fill="#3384F7"></path>
                        <path d="M28.397,28.8157507 L8.329,19.1957507 L31.371,16.4937507 C31.617,16.4657507 31.836,16.3457507 31.986,16.1567507 C32.126,15.9797507 32.191,15.7557507 32.165,15.5447507 C32.137,15.2957507 32.017,15.0777507 31.827,14.9277507 C31.647,14.7867507 31.424,14.7257507 31.216,14.7487507 L5.417,17.7927507 L2.748,16.5327507 C2.035,16.2147507 1.849,15.7957507 1.835,15.7687507 L1.812,15.6577507 C1.812,15.4457507 2.059,15.0877507 2.759,14.7767507 L28.472,2.42475072 C30.305,1.59075072 33.321,1.74175072 34.693,2.42575072 L59.841,14.7117507 C60.651,15.0727507 60.772,15.4587507 60.772,15.6577507 L60.772,15.7267507 L60.737,15.7857507 C60.711,15.8297507 60.46,16.2217507 59.847,16.5287507 L34.686,28.8187507 C33.938,29.2097507 32.804,29.4347507 31.575,29.4347507 C30.344,29.4347507 29.186,29.2087507 28.397,28.8157507 Z M12.417,37.2757507 L12.363,37.2067507 L12.363,23.0637507 L27.679,30.3907507 C28.729,30.8797507 30.138,31.1607507 31.545,31.1607507 C33.065,31.1607507 34.46,30.8637507 35.471,30.3247507 L50.15,23.1317507 L50.15,37.2067507 L50.095,37.2757507 C48.963,38.6907507 42.735,45.7507507 31.256,45.7507507 C19.777,45.7507507 13.549,38.6907507 12.417,37.2757507 Z M62.584,15.5707507 C62.532,15.1167507 62.393,13.9107507 60.629,13.0637507 L35.483,0.779750722 C33.403,-0.258249278 29.758,-0.261249278 27.684,0.778750722 L1.953,13.0647507 C0.254,13.8797507 0,14.9947507 0,15.5847507 C0,16.1467507 0.255,17.2217507 1.964,18.1107507 L4.191,19.1857507 L4.191,31.0757507 L4.032,31.1377507 C2.807,31.6147507 1.951,32.8557507 1.951,34.1567507 C1.951,35.4467507 2.779,36.6887507 3.964,37.1777507 L4.176,37.2647507 L0.958,47.4917507 L9.381,47.4917507 L6.161,37.2607507 L6.379,37.1747507 C7.581,36.7077507 8.388,35.4957507 8.388,34.1567507 C8.388,32.8137507 7.571,31.6287507 6.307,31.1377507 L6.148,31.0757507 L6.148,20.1697507 L10.478,22.2937507 L10.478,37.4807507 C10.478,37.6487507 10.535,37.8157507 10.658,37.9997507 L10.705,38.0567507 C12.451,40.2707507 19.092,47.4917507 31.256,47.4917507 C43.843,47.4917507 50.543,39.6097507 51.762,38.0247507 C51.9,37.8237507 51.962,37.6557507 51.962,37.4807507 L51.962,22.3667507 L60.628,18.1067507 C62.33,17.2897507 62.585,16.1767507 62.585,15.5847507 L62.584,15.5707507 Z" id="Fill-1-Copy-4" fill="#202023"></path>
                        <path d="M5.30617836,30.7382024 C7.17178574,30.7382024 8.68415934,32.250576 8.68415934,34.1161834 C8.68415934,35.5925606 7.73702132,36.8477219 6.41721494,37.3071976 L9.34584396,47.4824972 L0.975022276,47.4570369 L4.10729433,37.2752344 C2.83350967,36.7915577 1.92819737,35.559594 1.92819737,34.1161834 C1.92819737,32.250576 3.44057097,30.7382024 5.30617836,30.7382024 Z" id="Combined-Shape" fill="#3384F7"></path>
                    </g>
                </g>
            </g>
        </g>
    </g>
</svg>