<svg width="25" height="24" viewBox="0 0 25 24" xmlns="http://www.w3.org/2000/svg">
    <path d="M22.646 1.855a2.71 2.71 0 0 0-1.986-.83H4.34a2.71 2.71 0 0 0-1.985.83 2.709 2.709 0 0 0-.83 1.986v16.318c0 .772.277 1.434.83 1.986a2.71 2.71 0 0 0 1.986.83h16.318a2.71 2.71 0 0 0 1.987-.83 2.709 2.709 0 0 0 .828-1.986V3.841c0-.772-.276-1.434-.828-1.986zm-13.24 7.08c.863-.834 1.899-1.25 3.109-1.25 1.219 0 2.26.416 3.122 1.25.862.833 1.293 1.84 1.293 3.022 0 1.181-.431 2.189-1.293 3.022-.863.834-1.903 1.25-3.122 1.25-1.21 0-2.246-.417-3.108-1.25-.863-.833-1.294-1.84-1.294-3.022 0-1.181.431-2.189 1.294-3.022zm11.582 10.639a.833.833 0 0 1-.257.621.852.852 0 0 1-.615.25H4.841a.844.844 0 0 1-.621-.25.843.843 0 0 1-.25-.621v-9.26h2.014c-.19.6-.286 1.224-.286 1.872 0 1.83.667 3.389 2 4.68 1.335 1.29 2.94 1.936 4.817 1.936a6.869 6.869 0 0 0 3.43-.886 6.672 6.672 0 0 0 2.486-2.408 6.332 6.332 0 0 0 .914-3.322c0-.648-.095-1.272-.286-1.872h1.93v9.26zm0-12.761c0 .276-.095.51-.286.7a.951.951 0 0 1-.7.286h-2.486a.952.952 0 0 1-.7-.286.952.952 0 0 1-.286-.7V4.455a.96.96 0 0 1 .286-.693.94.94 0 0 1 .7-.293h2.486a.94.94 0 0 1 .7.293c.191.195.286.426.286.693v2.358z" fill="#FFF" fill-rule="nonzero"/>
</svg>
