<?xml version="1.0" encoding="UTF-8"?>
<svg width="24px" height="24px" viewBox="0 0 24 24" version="1.1" xmlns="http://www.w3.org/2000/svg" xmlns:xlink="http://www.w3.org/1999/xlink">
    <title>2906A203-400B-4710-B675-E2648A994280</title>
    <g id="Page-1" stroke="none" stroke-width="1" fill="none" fill-rule="evenodd">
        <g id="Index_Rating" transform="translate(-620.000000, -5480.000000)">
            <g id="Icons/24x24/stability" transform="translate(620.000000, 5480.000000)">
                <path d="M21.411,4.1515 L12.263,0.3525 C12.178,0.3175 12.089,0.2995 12,0.2995 C11.911,0.2995 11.822,0.3175 11.737,0.3525 L2.589,4.1515 C2.333,4.2575 2.167,4.5055 2.167,4.7825 L2.167,9.4005 C2.167,15.6825 5.926,21.2755 11.742,23.6495 C11.906,23.7175 12.094,23.7175 12.258,23.6495 C18.074,21.2755 21.833,15.6825 21.833,9.4005 L21.833,4.7825 C21.833,4.5055 21.667,4.2575 21.411,4.1515 L21.411,4.1515 Z" id="Combined-Shape" fill="#FFFFFF"></path>
                <circle id="Oval" fill="#CBEC4C" cx="11.8938226" cy="11.5274246" r="5.89937064"></circle>
                <g id="Group-6" transform="translate(2.131006, 0.192172)" fill="#202023">
                    <path d="M9.82820933,0 C9.89925907,0 9.96827882,0.0142099484 10.0362836,0.0426298453 L10.0362836,0.0426298453 L19.3214699,3.89860085 C19.5244691,3.98284555 19.6554037,4.17873983 19.6554037,4.39797904 L19.6554037,4.39797904 L19.6554037,9.08523203 C19.6554037,15.3995241 15.8786024,21.0205737 10.0312086,23.4068301 C9.90230406,23.4606249 9.7551296,23.4606249 9.62419507,23.4068301 C3.77781629,21.0205737 0,15.3995241 0,9.08523203 L0,9.08523203 L0,4.39797904 C0,4.17873983 0.130934525,3.98284555 0.333933788,3.89860085 L0.333933788,3.89860085 L9.62013509,0.0426298453 C9.68712484,0.0142099484 9.75614459,0 9.82820933,0 Z M9.82820933,1.1286759 L1.08300107,4.75931773 L1.08300107,9.08523203 C1.08300107,14.7844363 4.45177384,19.9507676 9.66377993,22.2477043 L9.66377993,22.2477043 L9.82820933,22.320784 L9.99162374,22.2487193 C15.2046448,19.9507676 18.5734176,14.7844363 18.5734176,9.08523203 L18.5734176,9.08523203 L18.5734176,4.75931773 L9.82820933,1.1286759 Z M13.5228974,8.34174723 C13.6578919,8.33870224 13.8091264,8.39655703 13.906566,8.49399667 C14.0090807,8.5965113 14.0649055,8.73150581 14.0649055,8.87563529 C14.0649055,9.02077976 14.0090807,9.15678927 13.905551,9.2593039 L13.905551,9.2593039 L9.16247325,14.0013667 C8.95947398,14.204366 8.60321028,14.2084259 8.39716603,14.0013667 L8.39716603,14.0013667 L5.74904064,11.3532413 C5.647541,11.2517417 5.59070121,11.1157322 5.59070121,10.9705877 C5.59070121,10.8264582 5.647541,10.6904487 5.75005563,10.5879341 C5.85155526,10.4854194 5.98756477,10.4295946 6.13270924,10.4295946 C6.27785372,10.4295946 6.41284823,10.4854194 6.51536285,10.5879341 L6.51536285,10.5879341 L8.77981964,12.8523909 L13.1402438,8.49399667 C13.2366685,8.39655703 13.376738,8.34174723 13.5228974,8.34174723 Z" id="Combined-Shape"></path>
                </g>
            </g>
        </g>
    </g>
</svg>