<?xml version="1.0" encoding="UTF-8"?>
<svg width="24px" height="25px" viewBox="0 0 24 25" version="1.1" xmlns="http://www.w3.org/2000/svg" xmlns:xlink="http://www.w3.org/1999/xlink">
    <title>297B1041-75B7-41D3-B498-269963EC2DDC</title>
    <g id="Page-1" stroke="none" stroke-width="1" fill="none" fill-rule="evenodd">
        <g id="Index_Geolocation" transform="translate(-888.000000, -1466.000000)" fill="#FFFFFF">
            <g id="Icons/24x24/Comparison" transform="translate(888.000000, 1466.069287)">
                <g id="Icons/24х24/comparison2-Copy" transform="translate(2.750392, 2.022268)">
                    <path d="M12.9554467,18.7347306 L17.4438288,18.7347306 L17.4438288,4.55802411 L12.9554467,4.55802411 L12.9554467,18.7347306 Z M7.14083715,18.7357399 L11.6282099,18.7357399 L11.6282099,8.43476694 L7.14083715,8.43476694 L7.14083715,18.7357399 Z M1.32723687,18.7357399 L5.81561889,18.7357399 L5.81561889,1.32824618 L1.32723687,1.32824618 L1.32723687,18.7357399 Z M18.1059332,3.23078724 L12.292333,3.23078724 C11.925955,3.23078724 11.6282099,3.52853239 11.6282099,3.89390102 L11.6282099,7.10652076 L7.14083715,7.10652076 L7.14083715,0.664123088 C7.14083715,0.297745153 6.843092,0 6.47772337,0 L0.663113782,0 C0.297745153,0 0,0.297745153 0,0.664123088 L0,19.399863 C0,19.7652317 0.297745153,20.0629768 0.663113782,20.0629768 L18.1059332,20.0629768 C18.4723112,20.0629768 18.7700563,19.7652317 18.7700563,19.399863 L18.7700563,3.89390102 C18.7700563,3.52853239 18.4723112,3.23078724 18.1059332,3.23078724 L18.1059332,3.23078724 Z" id="Fill-1"></path>
                </g>
            </g>
        </g>
    </g>
</svg>