<svg width="24" height="24" viewBox="0 0 24 24" xmlns="http://www.w3.org/2000/svg">
    <g fill-rule="nonzero" fill="none">
        <path d="M12.607 1.467c-4.68 0-8.493 3.779-8.549 8.445l-1.017 2.969c-.28.815-.262 1.533.05 1.97a.963.963 0 0 0 .79.41h.177v1.036a2.272 2.272 0 0 0 2.27 2.27c.57 0 1.035.464 1.035 1.035v.66a2.272 2.272 0 0 0 2.27 2.27h4.627a2.272 2.272 0 0 0 2.27-2.27v-2.648a8.565 8.565 0 0 0 3.236-2.923 8.513 8.513 0 0 0 1.39-4.674c0-4.714-3.835-8.55-8.549-8.55z" fill="#FFF"/>
        <path d="m12.135 6.17 1.445 2.207 2.547.501-1.584 2.162.33 2.674-2.423-.9-2.314 1.15.068-2.696L8.421 9.29l2.493-.773 1.22-2.345z" stroke="#202023" stroke-width=".9" fill="#CBEC4C"/>
        <path d="M12.607 1.467c-4.68 0-8.493 3.779-8.549 8.445l-1.017 2.969c-.28.815-.262 1.533.05 1.97a.963.963 0 0 0 .79.41h.177v1.036a2.272 2.272 0 0 0 2.27 2.27c.57 0 1.035.464 1.035 1.035v.66a2.272 2.272 0 0 0 2.27 2.27h4.627a2.272 2.272 0 0 0 2.27-2.27v-2.648a8.565 8.565 0 0 0 3.236-2.923 8.513 8.513 0 0 0 1.39-4.674c0-4.714-3.835-8.55-8.549-8.55zm3.048 15.2c-.22.101-.36.32-.36.561v3.035c0 .57-.464 1.035-1.035 1.035H9.633c-.571 0-1.036-.464-1.036-1.035v-.661a2.272 2.272 0 0 0-2.27-2.27 1.037 1.037 0 0 1-1.035-1.035v-1.653a.617.617 0 0 0-.617-.617H4.08c-.01-.138.004-.388.127-.746l1.05-3.064a.62.62 0 0 0 .034-.2c0-4.034 3.282-7.315 7.315-7.315 4.034 0 7.315 3.281 7.315 7.315 0 2.85-1.675 5.46-4.267 6.65z" fill="#202023"/>
    </g>
</svg>
