<svg width="64" height="64" viewBox="0 0 64 64" xmlns="http://www.w3.org/2000/svg">
    <g fill="none" fill-rule="evenodd">
        <path d="M62.436 12.57a13.216 13.216 0 0 0 1.482-2.714 1.624 1.624 0 0 0-.574-1.816c-.86-.54-1.781-.974-2.745-1.295a13.483 13.483 0 0 0-3.693-.554 14.666 14.666 0 0 0-1.646-3.539A12.992 12.992 0 0 0 53.283.364a1.65 1.65 0 0 0-1.98-.039 13.006 13.006 0 0 0-2.025 2.328 14.658 14.658 0 0 0-1.646 3.538 13.51 13.51 0 0 0-3.707.558c-.896.304-1.757.701-2.57 1.185a17.175 17.175 0 0 0-3.95-.507 17.384 17.384 0 0 0-1.987-4.32A14.865 14.865 0 0 0 33.04.355 1.703 1.703 0 0 0 30.966.35c-.9.813-1.698 1.734-2.374 2.741a17.415 17.415 0 0 0-1.997 4.336c-1.333.01-2.659.18-3.95.507a13.522 13.522 0 0 0-2.584-1.189 13.483 13.483 0 0 0-3.693-.554 14.666 14.666 0 0 0-1.647-3.539A12.992 12.992 0 0 0 12.744.364a1.65 1.65 0 0 0-1.98-.039A13.006 13.006 0 0 0 8.74 2.653 14.658 14.658 0 0 0 7.094 6.19a13.51 13.51 0 0 0-3.707.558c-.956.32-1.87.75-2.724 1.286A1.624 1.624 0 0 0 .08 9.848c.387.964.886 1.879 1.487 2.726a14.248 14.248 0 0 0 2.707 2.737 15.048 15.048 0 0 0-.661 3.91c-.01 1.033.1 2.063.325 3.071.186.699.823 1.18 1.546 1.17 1.01-.09 2.005-.307 2.961-.648a13.544 13.544 0 0 0 3.286-1.816 13.532 13.532 0 0 0 3.283 1.815c.96.343 1.962.56 2.979.649a1.56 1.56 0 0 0 1.522-1.14c.231-1.024.343-2.07.333-3.12a15.05 15.05 0 0 0-.66-3.892c.26-.2.5-.409.739-.62l.043.061a16.676 16.676 0 0 0 3.33 3.336 17.928 17.928 0 0 0-.826 4.755 15.877 15.877 0 0 0 .377 3.638c.201.74.874 1.252 1.64 1.25a13.804 13.804 0 0 0 3.5-.77c.286-.115.552-.23.809-.345v11.628c.049 1.015-.054 2.03-.306 3.014a.715.715 0 0 1-.51.473.663.663 0 0 1-.632-.164 12.328 12.328 0 0 1-1.803-2.153c-1.502-2.244-5.554-6.645-8.116-6.645a3.65 3.65 0 0 0-3.366 2.075c-.437 1.16-.1 2.47.844 3.274 1.603 1.598 5.217 7.562 6.992 11.987a24.963 24.963 0 0 0 5.746 7.747 4.184 4.184 0 0 1 1.255 2.996v.322A2.836 2.836 0 0 0 31.74 64h14.154a2.837 2.837 0 0 0 2.837-2.83v-2.71a.63.63 0 0 1 .175-.462c3.325-3.03 3.363-8.078 3.363-8.291v-13.96a3.81 3.81 0 0 0-3.45-3.85c-.65-.041-1.3.09-1.884.38V31.19a3.708 3.708 0 0 0-3.695-3.712 3.772 3.772 0 0 0-1.702.418 3.706 3.706 0 0 0-.454-1.248c.018-.046.043-.089.056-.136.27-1.204.4-2.436.386-3.67a17.932 17.932 0 0 0-.826-4.754 16.675 16.675 0 0 0 3.328-3.333l.046-.064c.237.21.478.42.739.62a15.056 15.056 0 0 0-.662 3.91c-.009 1.033.1 2.064.325 3.072.186.698.823 1.18 1.546 1.17 1.01-.09 2.006-.307 2.961-.648a13.544 13.544 0 0 0 3.286-1.816 13.532 13.532 0 0 0 3.283 1.815c.961.343 1.962.56 2.98.649a1.56 1.56 0 0 0 1.52-1.14c.232-1.024.344-2.07.334-3.12-.048-1.32-.27-2.629-.66-3.891a14.264 14.264 0 0 0 2.71-2.74z" fill="#FFF" fill-rule="nonzero"/>
        <path fill="#3384F7" d="m19.434 11.273 3.015-2.041h4.41l3.796-7.435h1.913L36 8.5l8.693 2.773-5.03 6.508.86 6.719-.86 2.849-4.388-1.282v-9.573l-2.707-.915-1.913.915-1.46 1.287v7.44L26.86 27.35h-3.417V17.78l-1.967-2.202-2.042-3.271z"/>
        <path d="M62.436 12.57a13.216 13.216 0 0 0 1.482-2.714 1.624 1.624 0 0 0-.574-1.816c-.86-.54-1.781-.974-2.745-1.295a13.483 13.483 0 0 0-3.693-.554 14.666 14.666 0 0 0-1.646-3.539A12.992 12.992 0 0 0 53.283.364a1.65 1.65 0 0 0-1.98-.039 13.006 13.006 0 0 0-2.025 2.328 14.658 14.658 0 0 0-1.646 3.538 13.51 13.51 0 0 0-3.707.558c-.896.304-1.757.701-2.57 1.185a17.175 17.175 0 0 0-3.95-.507 17.384 17.384 0 0 0-1.987-4.32A14.865 14.865 0 0 0 33.04.355 1.703 1.703 0 0 0 30.966.35c-.9.813-1.698 1.734-2.374 2.741a17.415 17.415 0 0 0-1.997 4.336c-1.333.01-2.659.18-3.95.507a13.522 13.522 0 0 0-2.584-1.189 13.483 13.483 0 0 0-3.693-.554 14.666 14.666 0 0 0-1.647-3.539A12.992 12.992 0 0 0 12.744.364a1.65 1.65 0 0 0-1.98-.039A13.006 13.006 0 0 0 8.74 2.653 14.658 14.658 0 0 0 7.094 6.19a13.51 13.51 0 0 0-3.707.558c-.956.32-1.87.75-2.724 1.286A1.624 1.624 0 0 0 .08 9.848c.387.964.886 1.879 1.487 2.726a14.248 14.248 0 0 0 2.707 2.737 15.048 15.048 0 0 0-.661 3.91c-.01 1.033.1 2.063.325 3.071.186.699.823 1.18 1.546 1.17 1.01-.09 2.005-.307 2.961-.648a13.544 13.544 0 0 0 3.286-1.816 13.532 13.532 0 0 0 3.283 1.815c.96.343 1.962.56 2.979.649a1.56 1.56 0 0 0 1.522-1.14c.231-1.024.343-2.07.333-3.12a15.05 15.05 0 0 0-.66-3.892c.26-.2.5-.409.739-.62l.043.061a16.676 16.676 0 0 0 3.33 3.336 17.928 17.928 0 0 0-.826 4.755 15.877 15.877 0 0 0 .377 3.638c.201.74.874 1.252 1.64 1.25a13.804 13.804 0 0 0 3.5-.77c.286-.115.552-.23.809-.345v11.628c.049 1.015-.054 2.03-.306 3.014a.715.715 0 0 1-.51.473.663.663 0 0 1-.632-.164 12.328 12.328 0 0 1-1.803-2.153c-1.502-2.244-5.554-6.645-8.116-6.645a3.65 3.65 0 0 0-3.366 2.075c-.437 1.16-.1 2.47.844 3.274 1.603 1.598 5.217 7.562 6.992 11.987a24.963 24.963 0 0 0 5.746 7.747 4.184 4.184 0 0 1 1.255 2.996v.322A2.836 2.836 0 0 0 31.74 64h14.154a2.837 2.837 0 0 0 2.837-2.83v-2.71a.63.63 0 0 1 .175-.462c3.325-3.03 3.363-8.078 3.363-8.291v-13.96a3.81 3.81 0 0 0-3.45-3.85c-.65-.041-1.3.09-1.884.38V31.19a3.708 3.708 0 0 0-3.695-3.712 3.772 3.772 0 0 0-1.702.418 3.706 3.706 0 0 0-.454-1.248c.018-.046.043-.089.056-.136.27-1.204.4-2.436.386-3.67a17.932 17.932 0 0 0-.826-4.754 16.675 16.675 0 0 0 3.328-3.333l.046-.064c.237.21.478.42.739.62a15.056 15.056 0 0 0-.662 3.91c-.009 1.033.1 2.064.325 3.072.186.698.823 1.18 1.546 1.17 1.01-.09 2.006-.307 2.961-.648a13.544 13.544 0 0 0 3.286-1.816 13.532 13.532 0 0 0 3.283 1.815c.961.343 1.962.56 2.98.649a1.56 1.56 0 0 0 1.52-1.14c.232-1.024.344-2.07.334-3.12-.048-1.32-.27-2.629-.66-3.891a14.264 14.264 0 0 0 2.71-2.74zm-45.509 2.713c.472 1.28.739 2.628.79 3.992-.004.67-.056 1.34-.154 2.004a12.269 12.269 0 0 1-1.778-.455 11.378 11.378 0 0 1-3.364-2.005 1.065 1.065 0 0 0-1.38 0 11.39 11.39 0 0 1-3.367 2.006c-.58.195-1.173.347-1.776.456a14.354 14.354 0 0 1-.152-1.988c.049-1.37.315-2.724.789-4.01.043-.121.064-.249.064-.377 0-.352-.174-.682-.465-.88a11.984 11.984 0 0 1-2.864-2.737A13.424 13.424 0 0 1 2.258 9.55c.56-.294 1.14-.547 1.737-.757a11.038 11.038 0 0 1 3.843-.45c.527.022.993-.338 1.104-.853.328-1.31.868-2.557 1.598-3.693.362-.516.76-1.005 1.193-1.463.43.459.827.947 1.189 1.462a12.424 12.424 0 0 1 1.584 3.643 1.068 1.068 0 0 0 1.117.903c1.293-.077 2.59.074 3.83.447.104.032.279.097.481.178-.38.18-.745.392-1.09.633a1.745 1.745 0 0 0-.625 1.952c.158.436.35.86.572 1.268a11.76 11.76 0 0 1-1.467 1.206 1.087 1.087 0 0 0-.397 1.256zm26.314 14.328a1.553 1.553 0 0 1 1.56 1.579v6.172a1.067 1.067 0 0 0 2.134 0v-1.764a1.63 1.63 0 0 1 1.732-1.573 1.692 1.692 0 0 1 1.469 1.723v13.957c0 .043-.047 4.329-2.667 6.717a2.752 2.752 0 0 0-.872 2.04v2.708a.7.7 0 0 1-.703.696H31.74a.7.7 0 0 1-.703-.697v-.322a6.329 6.329 0 0 0-1.905-4.528c-1.488-1.44-4.148-4.267-5.248-7.01-1.744-4.343-5.512-10.754-7.466-12.702-.362-.361-.49-.68-.378-.949a1.564 1.564 0 0 1 1.394-.756c1.058 0 4.451 2.872 6.343 5.699a14.509 14.509 0 0 0 2.116 2.523c.698.655 1.682.91 2.61.677a2.85 2.85 0 0 0 2.011-1.858c.337-1.203.479-2.452.42-3.7v-20.67a1.68 1.68 0 0 1 1.69-1.579 1.51 1.51 0 0 1 1.51 1.58v18.69a1.067 1.067 0 0 0 2.133 0v-7.72c.036-.89.775-1.59 1.665-1.578a1.54 1.54 0 0 1 1.536 1.578v7.72a1.067 1.067 0 0 0 2.133 0V31.19a1.631 1.631 0 0 1 1.64-1.579zm-.91-16.15a14.575 14.575 0 0 1-3.496 3.337 1.086 1.086 0 0 0-.4 1.261c.579 1.562.903 3.207.96 4.871-.001.72-.05 1.438-.144 2.152a3.693 3.693 0 0 0-1.318-.25 3.823 3.823 0 0 0-1.666.392v-7.65a3.639 3.639 0 0 0-3.642-3.713 3.82 3.82 0 0 0-3.825 3.712v6.673c-.52.272-1.052.516-1.597.731-.774.266-1.57.464-2.378.59a15.97 15.97 0 0 1-.22-2.636c.058-1.665.382-3.31.96-4.871a1.13 1.13 0 0 0 .066-.38c0-.353-.174-.683-.466-.882a14.574 14.574 0 0 1-3.497-3.34c-.226-.314-.436-.64-.629-.975-.253-.428-.482-.87-.687-1.322a14.658 14.658 0 0 1 2.375-1.051 13.733 13.733 0 0 1 4.616-.528 1.08 1.08 0 0 0 1.099-.848 15.49 15.49 0 0 1 1.962-4.517 14.714 14.714 0 0 1 1.597-1.934 14.75 14.75 0 0 1 1.605 1.95 15.454 15.454 0 0 1 1.938 4.448c.084.541.565.93 1.113.9a13.68 13.68 0 0 1 4.616.528c.023.01.047.017.07.024.796.276 1.567.62 2.304 1.028-.203.451-.431.89-.683 1.316-.195.339-.406.667-.634.984zm15.534.565a1.086 1.086 0 0 0-.4 1.257c.473 1.28.74 2.628.79 3.992-.004.67-.055 1.34-.154 2.004a12.269 12.269 0 0 1-1.778-.455 11.378 11.378 0 0 1-3.363-2.005 1.065 1.065 0 0 0-1.38 0 11.39 11.39 0 0 1-3.367 2.006c-.58.195-1.174.347-1.777.456a14.354 14.354 0 0 1-.152-1.988c.049-1.37.315-2.724.79-4.01.042-.121.064-.248.064-.377 0-.35-.173-.68-.462-.879a11.773 11.773 0 0 1-1.467-1.206 9.38 9.38 0 0 0 .58-1.294 1.73 1.73 0 0 0-.619-1.916c-.35-.244-.72-.46-1.106-.643.2-.08.37-.144.47-.174a11.036 11.036 0 0 1 3.843-.45c.526.022.992-.337 1.104-.852.328-1.31.867-2.558 1.597-3.694.362-.516.76-1.005 1.193-1.463.43.459.828.947 1.189 1.462a12.427 12.427 0 0 1 1.584 3.643 1.07 1.07 0 0 0 1.117.904c1.293-.078 2.59.074 3.83.446.602.21 1.187.466 1.75.763-.292.602-.63 1.182-1.01 1.733a11.982 11.982 0 0 1-2.866 2.74z" fill="#000" fill-rule="nonzero"/>
    </g>
</svg>
