<?xml version="1.0" encoding="UTF-8"?>
<svg width="80px" height="80px" viewBox="0 0 80 80" version="1.1" xmlns="http://www.w3.org/2000/svg" xmlns:xlink="http://www.w3.org/1999/xlink">
    <title>2855FF45-18CE-4C8E-BB6C-6E8AEA2A7B27</title>
    <g id="Page-1" stroke="none" stroke-width="1" fill="none" fill-rule="evenodd">
        <g id="Index_Geolocation" transform="translate(-892.000000, -4440.000000)">
            <g id="Icons/80x80/Find-a-franchise" transform="translate(892.000000, 4440.000000)">
                <path d="M36.884504,4.89752908 C33.0211105,5.80226476 23.3797275,17.4988643 22.389022,18.2413368 C17.9989854,21.5313979 12.2338755,25.8206218 7.43875921,28.7262774 C-9.19325133,38.8046343 5.15443679,66.9809183 21.5676434,73.5454934 C33.6469069,78.376678 56.1386898,76.7368096 63.0572343,62.6428122 C64.836408,59.0183981 65.9610216,54.2614218 73.3323212,47.0209026 C84.4415463,36.1087755 79.1495268,26.1172607 69.1366844,18.645902 C59.1238421,11.1745433 54.0028542,0.888726463 36.884504,4.89752908 Z" id="Path-8" fill="#F4F5F8"></path>
                <g id="Group" transform="translate(16.784652, 16.000000)">
                    <path d="M45.1127819,16.1517225 C45.7957331,14.7827444 46.2118961,13.4360988 46.3852081,12.0350258 C46.5934233,10.3527219 46.080441,8.6832559 44.9778499,7.45496006 C43.8990625,6.25340991 42.4116009,5.60562928 40.789341,5.63077023 C39.7257986,5.64721883 38.6952872,5.9713766 37.7265583,6.59428373 L37.6880445,6.6190235 L37.6510017,6.59201035 C33.9949995,3.93068041 30.1561906,2.31938628 26.2411564,1.802927 C22.325721,1.28660144 18.2040764,1.84812722 13.9916301,3.47279419 L13.9341269,3.49499311 L13.8433253,3.30536617 C13.8018694,3.21804149 13.7636231,3.13767069 13.7235046,3.05863717 C12.7797829,1.20529454 10.8008692,0 8.82837455,0 C8.58806452,0 8.34815567,0.0177858842 8.1099853,0.0545612087 C5.51458349,0.454944196 3.67461371,2.23460245 3.3084652,4.69921783 C3.04608998,6.46470086 3.40047038,8.23285847 4.42389423,10.2637925 C4.63732484,10.6873105 4.61699811,10.9622562 4.34325597,11.3531445 C0.525308644,16.8073931 -0.78469528,22.8262433 0.44961834,29.242802 C1.53001051,34.8591295 4.61579456,39.8434564 9.13862456,43.2774693 C13.6563729,46.7074704 19.3018532,48.3622263 25.0363968,47.9334929 C30.1797268,47.5499597 34.7496292,45.6044782 38.6194632,42.151342 C42.1238173,39.0241022 44.5766645,35.0089054 45.712554,30.539433 C46.8457689,26.0803915 46.6168258,21.3768944 45.0504645,16.9372435 C44.9714309,16.7131146 44.9976417,16.3828053 45.1127819,16.1517225 L45.1127819,16.1517225 Z" id="Fill-1" fill="#FFFFFF"></path>
                    <g id="Group-10" transform="translate(0.000000, 0.000000)">
                        <polygon id="Path-16" fill="#3384F7" points="19.2673024 36.7825163 23.2153485 30.4659946 22.478139 25.4937927 20.9801453 23.225358 17.615619 22.3313616 15.3413008 23.999978 14.2060647 26.3606863 14.2060647 29.4324008 16.0661661 33.5513129"></polygon>
                        <polygon id="Path-12" fill="#3384F7" points="23.2153485 12.0461119 28.3905338 8.84331548 31.4888366 8.84331548 35.2521821 5.56289622 23.4429853 2.13281689 20.7436178 6.4292762 20.0137244 10.2505534 20.9801453 11.1808683"></polygon>
                        <path d="M44.5126086,29.158553 C43.7721542,32.8093398 42.148557,36.1179154 39.6868837,38.9921411 L39.6268396,39.0622148 L39.5788311,38.983315 C38.7037121,37.5419897 38.0882937,35.9141133 37.6974055,34.0067444 C37.1905746,31.5325005 36.4069259,29.8075372 35.1562974,28.4134181 C33.959294,27.0788081 32.4438832,26.1669138 30.9846383,25.3801893 C30.7449969,25.2508739 30.5034834,25.1236982 30.261836,24.9963887 C29.3475346,24.514565 28.4020745,24.0165603 27.5570444,23.4058224 C25.9279643,22.2287446 25.2737648,20.6187878 25.6650542,18.7500664 C25.9056317,17.6001354 26.629905,16.6899795 27.8789287,15.9677122 C28.803661,15.4327984 29.7778728,15.1569166 30.7746847,15.147823 C32.2831416,15.134049 33.8266354,14.8988207 35.4934268,14.4288989 C35.5556106,14.4113804 35.6196665,14.4009496 35.6619247,14.3939957 L35.7449701,14.378617 L35.7683725,14.4220787 C35.9406148,14.7419572 36.1068393,15.0689232 36.2674471,15.3850573 C36.6370726,16.1128075 36.9863713,16.8003055 37.4225935,17.4487548 C38.1634491,18.5494737 39.0004555,19.6139522 39.8097801,20.6432601 C39.9564802,20.8298113 40.1030466,21.0163625 40.2492118,21.2030474 C40.4286754,21.4322579 40.6374255,21.5550207 40.8531295,21.5579627 C41.0806016,21.5655852 41.3032595,21.4352 41.5031835,21.1938201 C42.048127,20.5358761 42.5738135,19.878467 43.1301239,19.1824105 C43.3622765,18.892086 43.5969699,18.598552 43.8362101,18.3010062 L43.9151099,18.2028495 L43.9522864,18.3232051 C45.0562148,21.9031158 45.2447719,25.5486872 44.5126086,29.158553 L44.5126086,29.158553 Z M38.5531338,40.2180298 C35.2461629,43.46723 31.3985279,45.4428005 26.7905129,46.2581428 L26.690484,46.275795 L26.713619,46.1769697 C26.7965306,45.8232579 26.8726221,45.4712846 26.9463065,45.1309457 C27.1131996,44.3589313 27.2707317,43.6294426 27.4959305,42.9101173 C27.7201931,42.1941351 27.9962086,41.4826998 28.2632643,40.7945332 C28.453025,40.3057557 28.6492046,39.8002621 28.8247901,39.297978 C28.8953987,39.0963155 28.9682807,38.894653 29.0411627,38.6927231 C29.3316209,37.8887476 29.6322425,37.0572241 29.7801462,36.2170082 C30.0937394,34.4356115 29.4268356,32.9415972 27.8520493,31.8967768 C26.6339169,31.0885221 25.2312391,30.7899064 24.0199268,30.6044251 C23.9772674,30.5978724 23.934608,30.5922558 23.8919487,30.5865054 C23.8179968,30.5766095 23.7441787,30.5665799 23.6710293,30.5529396 C23.6302421,30.5453171 23.593333,30.5275312 23.5609707,30.5117512 C23.5479991,30.5055997 23.5351611,30.4991808 23.521922,30.4936979 L23.472175,30.4728363 L23.4820709,30.4198798 C23.5272712,30.1771627 23.5756809,29.9356491 23.6240906,29.6944029 C23.7269277,29.1808857 23.8333756,28.6497163 23.9031818,28.1249658 C24.2884535,25.2274714 22.5961199,22.6013121 19.8794264,21.8806494 C18.0262175,21.3889299 16.1581648,21.8109769 14.7545509,23.0387378 C13.3343548,24.2810752 12.6608983,26.108207 12.9069586,28.0516826 C12.9920099,28.7225983 13.1828404,29.3941826 13.3673857,30.0435679 C13.4648737,30.3873838 13.5659724,30.7429677 13.6506226,31.0954759 C13.6980962,31.2935278 13.7324644,31.5564379 13.6260165,31.6842823 C12.5262337,33.0044496 12.402,34.552089 13.2463614,36.4157287 C13.6348426,37.2725269 14.3002754,38.0405294 14.8366602,38.6140907 C15.460236,39.2805933 16.1310179,39.9250308 16.7796009,40.5482054 C17.2685121,41.0178597 17.7741394,41.5036951 18.2566317,41.996217 C19.4231449,43.1864003 20.1878042,44.4056026 20.5943387,45.7234965 C20.6336549,45.8506722 20.6684243,45.982261 20.6979783,46.1145185 C20.7072056,46.1558406 20.7014552,46.1962266 20.6965073,46.2317983 C20.6947688,46.2449037 20.6927629,46.2581428 20.6918268,46.2709808 L20.6871463,46.3383799 L20.6197471,46.332897 C17.3224047,46.0689171 13.8283477,44.7510232 10.7814786,42.6224674 C7.46474552,40.3054882 4.91507883,37.216361 3.40795917,33.689273 L3.36824182,33.596198 L3.46947426,33.596198 C3.62259334,33.596198 3.77357276,33.5992738 3.92294744,33.6023495 C4.24536674,33.6091697 4.55000016,33.6154549 4.8557034,33.5908489 C6.4466708,33.461266 7.54979681,32.6428479 8.13432388,31.1581946 C8.59261129,29.9946233 8.77528435,28.7284823 8.6772614,27.3952097 C8.50060611,24.9914407 9.41263416,23.1102826 11.4653659,21.644485 C12.1389561,21.1631963 12.8105404,20.5607496 13.5785429,19.7483493 C15.056911,18.1842613 15.8999351,16.3127316 16.0842129,14.1859143 C16.2400066,12.3855281 15.6034592,10.7224811 14.137929,9.10169222 C13.877426,8.81337368 13.8632508,8.57453466 13.9290452,8.20798497 C14.028138,7.65595392 14.1022235,7.08894528 14.1737683,6.54065863 C14.2228466,6.16488613 14.2736634,5.77626679 14.331969,5.3951407 C14.3575112,5.22931742 14.4536619,4.95704629 14.6141361,4.88643766 C16.9086489,3.87571802 19.2755087,3.29667382 21.6493225,3.16488613 C21.6807487,3.16307909 21.706692,3.17150399 21.7461419,3.18353955 C21.767271,3.18995851 21.7940167,3.19811595 21.8301234,3.20734321 L21.9203901,3.23061196 L21.7490839,3.49285346 C21.669248,3.61494754 21.5926216,3.7318262 21.5170651,3.84923978 C20.5435219,5.36170859 19.6437969,6.86428148 19.3316747,8.61665913 C19.0824049,10.0158599 19.429029,11.0509182 20.3912052,11.7809418 C21.5558463,12.6643519 22.760071,12.7645145 23.9707147,12.0779527 C24.3981108,11.8356367 24.8066513,11.5399631 25.2018188,11.2539179 C25.4180578,11.0973219 25.6417855,10.9355105 25.866583,10.783595 C25.9972357,10.6954679 26.1261499,10.6027941 26.2553316,10.5099866 C26.6149274,10.251222 26.98696,9.98389883 27.396169,9.81700572 C27.9173088,9.60464494 28.5896955,9.37396335 29.1644604,9.47987629 C31.2280241,9.85819408 32.8283525,9.13833382 34.2017437,7.21478376 C34.3107324,7.06233332 34.4122323,6.90774323 34.5297796,6.72881456 C34.5872829,6.64122242 34.6478618,6.54894979 34.71379,6.45025819 L34.7515014,6.39382478 L36.5771622,7.65862849 L36.5341017,7.71425953 C35.4380633,9.1316474 35.0879622,10.805259 35.4640066,12.8305764 L35.4749723,12.8894169 L35.4176028,12.9068016 C33.7394445,13.4141674 32.4342548,13.6449827 31.1853647,13.6555472 C29.8094327,13.6671816 28.601731,13.9481451 27.4932559,14.5142176 C25.5027079,15.530955 24.2959423,17.1628434 24.0952159,19.1095284 C23.8926173,21.0754704 24.7532936,23.0392728 26.3977524,24.3627833 C27.0880587,24.918425 27.8905631,25.3625372 28.6668568,25.792073 C29.0561403,26.0076432 29.4587967,26.2304348 29.8435334,26.4651283 C30.1569929,26.6564937 30.4807495,26.845452 30.7940753,27.0279913 C31.6038011,27.5004539 32.4409412,27.9886965 33.1884832,28.5701478 C34.7321108,29.770227 35.6871994,31.5018767 36.1938965,34.0194486 C36.6840113,36.4554461 37.436635,38.398253 38.5623611,40.1339146 L38.5920488,40.1797835 L38.5531338,40.2180298 Z M15.4269376,24.4459624 C16.229977,23.5687037 17.3507551,23.11055 18.5845338,23.1542792 C19.7479714,23.1960025 20.7917219,23.7076476 21.5233503,24.5948021 C22.2937599,25.5288954 22.620726,26.7962399 22.4205345,28.0718756 C22.2678166,29.0448838 21.9634506,30.0716509 21.5402001,31.0411822 C20.8097753,32.71466 19.7086552,34.1184076 18.4504042,35.6498659 L18.3982501,35.7133869 L18.3466309,35.6491972 C16.3119525,33.1118335 14.7266017,30.938345 14.3612556,28.0138375 C14.1932926,26.6698665 14.5817738,25.3693573 15.4269376,24.4459624 L15.4269376,24.4459624 Z M24.7380486,46.495912 C24.72949,46.495912 24.7209313,46.495912 24.712239,46.4956446 C24.1735808,46.4822717 23.6425451,46.4849463 23.0804844,46.4877546 C22.8491342,46.4888244 22.6152431,46.490028 22.3780088,46.490028 L22.3267908,46.490028 L22.313418,46.4405484 C22.2814569,46.3209952 22.2497633,46.1982325 22.2178022,46.0737313 C22.1470598,45.7978495 22.0737766,45.5126067 21.9869868,45.2325793 C21.4881797,43.6227562 20.537103,42.1744771 18.9029413,40.536571 C18.4197804,40.0519391 17.9164265,39.5709178 17.4297886,39.1055428 C16.9313827,38.6290683 16.4159932,38.136279 15.9210642,37.6392103 C15.2081578,36.9229607 14.4336026,36.0580051 14.266977,34.8552514 C14.1852689,34.2655089 14.1333823,33.6407296 14.4679709,33.0528593 L14.5193226,32.9624589 L14.5803028,33.0467078 C14.7645806,33.3015942 14.9467187,33.555812 15.1280545,33.8088262 C15.5436825,34.3888065 15.9736195,34.9885787 16.4074346,35.5649483 C16.7861536,36.067901 17.1984384,36.5597542 17.5972167,37.0355601 L17.7308114,37.1949644 C17.9564113,37.4642935 18.1820112,37.6012314 18.4015933,37.6019001 L18.403198,37.6019001 C18.6249198,37.6019001 18.8549328,37.4630899 19.0869516,37.1894815 C20.3330333,35.7191372 21.6208383,34.106907 22.5973235,32.282316 C22.6803689,32.1270572 22.9529075,31.9541463 23.1176609,31.9894506 C23.3758906,32.044948 23.6363936,32.0962997 23.8968966,32.1476514 C24.7233384,32.3102652 25.5777295,32.4784956 26.3652564,32.7875421 C28.066416,33.4549808 28.7005564,34.7295466 28.2500252,36.5759354 C28.0871439,37.2440427 27.8735796,37.8501001 27.61535,38.3771239 C26.5900539,40.4706428 25.8750079,42.8028671 25.2974347,45.9387993 C25.2432747,46.232467 25.1592932,46.495912 24.7380486,46.495912 L24.7380486,46.495912 Z M2.25481872,30.5302058 C0.620924488,24.1641965 1.6051659,18.1668766 5.17972744,12.7046042 C5.23522475,12.6199541 5.29393154,12.5406531 5.36159814,12.4489154 C5.39436161,12.4046513 5.42886355,12.3581138 5.46523769,12.3076982 L5.51819416,12.234415 L5.57262164,12.3064946 C5.7280141,12.5115003 5.88099945,12.7147676 6.0330487,12.9165638 C6.39612145,13.3987886 6.7390012,13.8542677 7.0961899,14.31309 C7.38985758,14.6906055 7.72310889,15.0943317 8.1146658,15.5472699 C8.33625384,15.8037611 8.55891172,15.9337451 8.77635418,15.9337451 L8.77836011,15.9337451 C8.99700613,15.9329428 9.22006519,15.8005516 9.44125205,15.5405835 C10.7004392,14.0599421 12.0032217,12.4296585 13.0011035,10.5428838 C13.0220988,10.5034339 13.0467049,10.4681296 13.0809393,10.4194524 C13.0993939,10.3932416 13.1207904,10.3626178 13.1460651,10.3250401 L13.1960795,10.2505534 L13.2531816,10.319691 C14.45754,11.7785347 14.8659467,13.2745549 14.501403,14.8932041 C14.0863099,16.7374531 13.1365704,18.3079601 11.679064,19.5611294 C11.3494233,19.8445 11.0168407,20.1242599 10.684258,20.4040199 C10.2948408,20.7316546 9.89205066,21.0706562 9.50129612,21.4096578 C8.00072915,22.7112369 7.25532676,24.3559631 7.22229583,26.4377139 C7.19982945,27.8537645 7.10180649,29.0114517 6.9133831,30.0812794 C6.67360799,31.4437048 5.94933469,32.0593906 4.49169455,32.1405638 C4.20591685,32.1564775 3.96467072,32.1677107 3.75939755,32.1677107 C2.73423523,32.1677107 2.6034488,31.8887531 2.25481872,30.5302058 L2.25481872,30.5302058 Z M5.83245602,2.75039309 C6.64712975,1.87634392 7.77352451,1.43156309 9.00529729,1.49495037 C10.1696709,1.55606428 11.2082061,2.08134964 11.9294036,2.97425452 C12.6907197,3.91717384 12.9973591,5.13624241 12.7926208,6.40693017 C12.6348212,7.3860899 12.3299204,8.41272324 11.9108154,9.37610301 C11.1905539,11.0319287 10.0862244,12.4438337 8.82289168,13.9866589 L8.77060386,14.0505811 L8.71898467,13.9859902 C7.03293634,11.8752203 5.12195675,9.48295204 4.73574898,6.35223524 C4.56778604,4.9914145 4.96750039,3.67846855 5.83245602,2.75039309 L5.83245602,2.75039309 Z M23.6446847,3.40913945 C23.7571504,3.26136951 24.0181883,3.11119245 24.2214556,3.12041972 C27.4211763,3.28116132 30.4331422,4.08513678 33.1732382,5.51001344 C33.213223,5.53074135 33.2490622,5.55601603 33.3036234,5.59426236 C33.3359857,5.61686247 33.3755693,5.64467799 33.427456,5.67971485 L33.4877675,5.72023457 L33.4424336,5.77693543 C33.3183336,5.93179298 33.2003851,6.08598189 33.0845762,6.23762995 C32.8292886,6.5715499 32.5881762,6.88688159 32.310021,7.17466522 C31.5751832,7.93477775 30.7155767,8.2264395 29.7550052,8.04135932 C28.3591476,7.77269886 27.0329626,8.12948637 25.5813402,9.16467833 C25.3477166,9.33117025 25.1154303,9.4996681 24.8832777,9.66816595 C24.3805924,10.0328434 23.8606562,10.4099577 23.3352371,10.7605937 C23.0454475,10.953965 22.7408141,11.0509182 22.4323026,11.0509182 C22.1883819,11.0509182 21.9421878,10.9903392 21.6984008,10.86878 C20.8299683,10.4356335 20.5689303,9.81861046 20.7972048,8.73915439 C21.0627895,7.48344422 21.6454444,6.39168513 22.4384541,5.13864953 C22.7987186,4.56910005 23.2045844,3.98711382 23.6446847,3.40913945 L23.6446847,3.40913945 Z M36.8741731,10.41865 C37.2629217,8.38878584 39.1151945,6.96618256 41.1895903,7.11261522 C43.2433919,7.25623958 44.918207,9.02359481 44.9233174,11.0522554 C44.9254283,11.9114607 44.8080148,12.76973 44.5837522,13.5342555 C43.892911,15.8898822 42.3824481,17.7791978 40.9215985,19.6061959 L40.8695781,19.6713217 L40.8172903,19.6064634 C39.0650464,17.4296316 37.6750728,15.5736144 37.0537704,13.1717177 C36.7729407,12.0861101 36.7175771,11.2370682 36.8741731,10.41865 L36.8741731,10.41865 Z M45.1127819,16.1517225 C45.7957331,14.7827444 46.2118961,13.4360988 46.3852081,12.0350258 C46.5934233,10.3527219 46.080441,8.6832559 44.9778499,7.45496006 C43.8990625,6.25340991 42.4116009,5.60562928 40.789341,5.63077023 C39.7257986,5.64721883 38.6952872,5.9713766 37.7265583,6.59428373 L37.6880445,6.6190235 L37.6510017,6.59201035 C33.9949995,3.93068041 30.1561906,2.31938628 26.2411564,1.802927 C22.325721,1.28660144 18.2040764,1.84812722 13.9916301,3.47279419 L13.9341269,3.49499311 L13.8433253,3.30536617 C13.8018694,3.21804149 13.7636231,3.13767069 13.7235046,3.05863717 C12.7797829,1.20529454 10.8008692,0 8.82837455,0 C8.58806452,0 8.34815567,0.0177858842 8.1099853,0.0545612087 C5.51458349,0.454944196 3.67461371,2.23460245 3.3084652,4.69921783 C3.04608998,6.46470086 3.40047038,8.23285847 4.42389423,10.2637925 C4.63732484,10.6873105 4.61699811,10.9622562 4.34325597,11.3531445 C0.525308644,16.8073931 -0.78469528,22.8262433 0.44961834,29.242802 C1.53001051,34.8591295 4.61579456,39.8434564 9.13862456,43.2774693 C13.6563729,46.7074704 19.3018532,48.3622263 25.0363968,47.9334929 C30.1797268,47.5499597 34.7496292,45.6044782 38.6194632,42.151342 C42.1238173,39.0241022 44.5766645,35.0089054 45.712554,30.539433 C46.8457689,26.0803915 46.6168258,21.3768944 45.0504645,16.9372435 C44.9714309,16.7131146 44.9976417,16.3828053 45.1127819,16.1517225 L45.1127819,16.1517225 Z" id="Fill-1" fill="#000000"></path>
                        <path d="M40.2672518,10.562261 C40.4392266,10.3945655 40.6628205,10.3056361 40.900456,10.3147296 C41.3703778,10.3310445 41.7448175,10.7270145 41.735189,11.1974712 C41.7254268,11.6661894 41.3374806,12.0461119 40.8695647,12.0461119 L40.8658203,12.0461119 C40.3954974,12.0439723 40.0090221,11.6600379 40.0042079,11.1902498 C40.0018008,10.9566262 40.0975504,10.7278168 40.2672518,10.562261 M40.8293125,13.5183285 C41.462383,13.5238113 42.0581432,13.2860421 42.507872,12.8439359 C42.9541239,12.4054403 43.2019227,11.8201108 43.205978,11.1958664 C43.2136908,9.91768987 42.1831793,8.86243865 40.9084797,8.84358294 C40.8967116,8.84331548 40.8848098,8.84331548 40.8730417,8.84331548 C40.259763,8.84331548 39.6809862,9.07947993 39.2394149,9.51048673 C38.7886163,9.95045334 38.5372068,10.5385911 38.5315902,11.1665799 C38.5200895,12.4273717 39.5723987,13.504287 40.8293125,13.5183285" id="Fill-4" fill="#000000"></path>
                        <path d="M17.5377209,27.219223 C17.5414653,26.7525107 17.937034,26.3606863 18.402944,26.3606863 L18.4092292,26.3606863 C18.638306,26.3624248 18.8550799,26.4556335 19.0191647,26.623329 C19.1821796,26.7896872 19.270173,27.0060599 19.2672309,27.2325959 C19.260812,27.7073319 18.8723308,28.0915337 18.4004031,28.0915337 L18.3949202,28.0915337 C18.1674481,28.0903301 17.9524128,27.9984587 17.7892641,27.8331703 C17.625313,27.6669459 17.5359824,27.4488348 17.5377209,27.219223 M20.0416524,28.8900263 C20.4921836,28.4463153 20.7414534,27.8587125 20.7436055,27.2355379 C20.7477386,25.9573613 19.7125467,24.905587 18.4358412,24.8911444 C18.4266139,24.8910106 18.4175204,24.8910106 18.4084268,24.8910106 C17.7903339,24.8910106 17.2070104,25.1309195 16.7635669,25.5683453 C16.3153091,26.0103178 16.0677777,26.5971182 16.0661661,27.220694 C16.0630972,28.4998067 17.0972193,29.5529182 18.3716515,29.5680296 C18.9970995,29.5759195 19.5901852,29.3346734 20.0416524,28.8900263" id="Fill-6" fill="#000000"></path>
                        <path d="M8.78647742,4.69669036 C9.25626548,4.70351051 9.63926377,5.09145676 9.64033584,5.56151227 C9.64140342,6.03237015 9.25987615,6.42151995 8.78982064,6.42914247 C8.78554132,6.4292762 8.78099456,6.4292762 8.77658152,6.4292762 C8.54830705,6.4292762 8.32457935,6.33499764 8.16102945,6.16930808 C7.99427007,6.00054278 7.90266608,5.77026238 7.90921877,5.53744115 C7.92285908,5.06725191 8.31347989,4.68719564 8.78647742,4.69669036 M8.81001363,7.90176019 C10.0679972,7.88972463 11.1225798,6.81428041 11.1126839,5.55348856 C11.1077359,4.92643584 10.8573962,4.33816438 10.4076675,3.89712794 C9.96475882,3.46251047 9.38237141,3.22407264 8.76561579,3.22407264 C8.75638852,3.22407264 8.74729499,3.22407264 8.73820145,3.22420637 C7.46055981,3.2389165 6.42737379,4.29216179 6.43521888,5.57221054 C6.43900816,6.19632123 6.68801054,6.78298795 7.13586713,7.22389066 C7.58613083,7.66706676 8.18095499,7.90630696 8.81001363,7.90176019" id="Fill-8" fill="#000000"></path>
                    </g>
                </g>
            </g>
        </g>
    </g>
</svg>