<svg width="24" height="24" xmlns="http://www.w3.org/2000/svg">
    <g fill="none" fill-rule="evenodd">
        <path d="m6.94 9.79.186 5.744 1.715 3.759c1.918 1.287 3.714 2.122 5.388 2.505C12 23.038 2.844 19.384 2.96 12.007c.116-7.377 4.436-9.48 9.212-9.593 1.138-.027-2.046.874-3.47 2.317-.95.962-1.537 2.649-1.761 5.06z" fill="#3384F7"/>
        <path d="M11.96 1.964C6.41 1.964 2 6.544 2 12.003a9.955 9.955 0 0 0 9.96 9.96c5.466 0 10.04-4.414 10.04-9.96 0-5.48-4.514-10.04-10.04-10.04zM8.53 3.84c-1.623 2.008-2.33 4.976-2.417 7.577h-2.92A8.88 8.88 0 0 1 8.529 3.84zm-5.337 8.749h2.92c.086 2.595.791 5.516 2.392 7.494-2.962-1.272-5.09-4.127-5.312-7.494zm8.183 8.132c-.974-.237-1.892-1.06-2.632-2.376-.87-1.547-1.381-3.573-1.459-5.756h4.091v8.132zm0-9.304h-4.09c.152-4.177 1.915-7.669 4.09-8.209v8.21zm9.433 0h-2.92c-.107-3.123-1.062-5.868-2.48-7.584 3.011 1.275 5.176 4.169 5.4 7.584zm-8.261-8.206c2.17.548 4.014 3.975 4.169 8.206h-4.17V3.211zm0 17.51v-8.14h4.168c-.152 4.153-1.969 7.613-4.168 8.14zm2.894-.635c1.639-1.995 2.358-4.927 2.447-7.505h2.92c-.225 3.37-2.374 6.235-5.367 7.505z" fill="#202023" fill-rule="nonzero"/>
    </g>
</svg>
