<svg width="32" height="32" viewBox="0 0 32 32" fill="none" xmlns="http://www.w3.org/2000/svg">
<mask id="path-1-inside-1_518_3629" fill="white">
<path d="M32 16C32 24.8366 24.8366 32 16 32C7.16344 32 0 24.8366 0 16C0 7.16344 7.16344 0 16 0C24.8366 0 32 7.16344 32 16ZM3.25116 16C3.25116 23.041 8.95901 28.7488 16 28.7488C23.041 28.7488 28.7488 23.041 28.7488 16C28.7488 8.95901 23.041 3.25116 16 3.25116C8.95901 3.25116 3.25116 8.95901 3.25116 16Z"/>
</mask>
<path d="M32 16C32 24.8366 24.8366 32 16 32C7.16344 32 0 24.8366 0 16C0 7.16344 7.16344 0 16 0C24.8366 0 32 7.16344 32 16ZM3.25116 16C3.25116 23.041 8.95901 28.7488 16 28.7488C23.041 28.7488 28.7488 23.041 28.7488 16C28.7488 8.95901 23.041 3.25116 16 3.25116C8.95901 3.25116 3.25116 8.95901 3.25116 16Z" stroke="#EAEBED" stroke-width="4" mask="url(#path-1-inside-1_518_3629)"/>
<mask id="path-2-inside-2_518_3629" fill="white">
<path d="M30.3744 16C31.2722 16 32.0086 16.7297 31.9175 17.6228C31.6906 19.8488 30.9985 22.0088 29.8793 23.9602C28.4898 26.383 26.4902 28.3999 24.0794 29.8102C21.6687 31.2206 18.9307 31.9753 16.1378 31.9994C13.3449 32.0235 10.5944 31.316 8.15967 29.9474C5.72497 28.5787 3.69095 26.5966 2.25987 24.1981C0.828783 21.7996 0.0504886 19.0682 0.00237425 16.2756C-0.0457401 13.483 0.638002 10.7265 1.98561 8.28009C3.07101 6.30971 4.55661 4.59581 6.34034 3.24495C7.05605 2.70294 8.06213 2.95276 8.52877 3.71975C8.9954 4.48674 8.74387 5.47918 8.04245 6.03956C6.73682 7.08265 5.64472 8.37576 4.8333 9.84876C3.75953 11.7981 3.21472 13.9945 3.25306 16.2196C3.29139 18.4448 3.91154 20.6211 5.05183 22.5323C6.19212 24.4434 7.81283 26.0228 9.7528 27.1133C11.6928 28.2038 13.8844 28.7675 16.1098 28.7484C18.3352 28.7292 20.5168 28.1278 22.4377 27.004C24.3586 25.8802 25.9519 24.2732 27.0591 22.3427C27.8957 20.8839 28.4328 19.2788 28.6453 17.6212C28.7595 16.7307 29.4766 16 30.3744 16Z"/>
</mask>
<path d="M30.3744 16C31.2722 16 32.0086 16.7297 31.9175 17.6228C31.6906 19.8488 30.9985 22.0088 29.8793 23.9602C28.4898 26.383 26.4902 28.3999 24.0794 29.8102C21.6687 31.2206 18.9307 31.9753 16.1378 31.9994C13.3449 32.0235 10.5944 31.316 8.15967 29.9474C5.72497 28.5787 3.69095 26.5966 2.25987 24.1981C0.828783 21.7996 0.0504886 19.0682 0.00237425 16.2756C-0.0457401 13.483 0.638002 10.7265 1.98561 8.28009C3.07101 6.30971 4.55661 4.59581 6.34034 3.24495C7.05605 2.70294 8.06213 2.95276 8.52877 3.71975C8.9954 4.48674 8.74387 5.47918 8.04245 6.03956C6.73682 7.08265 5.64472 8.37576 4.8333 9.84876C3.75953 11.7981 3.21472 13.9945 3.25306 16.2196C3.29139 18.4448 3.91154 20.6211 5.05183 22.5323C6.19212 24.4434 7.81283 26.0228 9.7528 27.1133C11.6928 28.2038 13.8844 28.7675 16.1098 28.7484C18.3352 28.7292 20.5168 28.1278 22.4377 27.004C24.3586 25.8802 25.9519 24.2732 27.0591 22.3427C27.8957 20.8839 28.4328 19.2788 28.6453 17.6212C28.7595 16.7307 29.4766 16 30.3744 16Z" stroke="#CDD2DB" stroke-width="4" mask="url(#path-2-inside-2_518_3629)"/>
</svg>
