<svg width="24" height="24" viewBox="0 0 24 24" fill="none" xmlns="http://www.w3.org/2000/svg">
<path d="M23.7038 9.44732C22.7126 8.34473 22.1667 6.92176 22.1667 5.4405V3.27426C22.1667 2.0202 21.1444 1 19.8878 1H10.15C8.89344 1 7.87109 2.02025 7.87109 3.27426V9.08754C7.87109 10.3415 8.89339 11.3618 10.15 11.3618H22.8475C23.3078 11.3618 23.7103 11.1012 23.8979 10.6818C24.0856 10.2623 24.0112 9.78927 23.7038 9.44732ZM14.7863 6.88265H11.3566C10.9682 6.88265 10.6534 6.56844 10.6534 6.18092C10.6534 5.7934 10.9683 5.47919 11.3566 5.47919H14.7863C15.1746 5.47919 15.4894 5.7934 15.4894 6.18092C15.4894 6.56844 15.1747 6.88265 14.7863 6.88265ZM16.6936 6.88265H16.6931C16.3048 6.88265 15.99 6.56844 15.99 6.18092C15.99 5.7934 16.3048 5.47919 16.6931 5.47919C17.0815 5.47919 17.3965 5.7934 17.3965 6.18092C17.3965 6.56844 17.0819 6.88265 16.6936 6.88265ZM18.6419 6.88265H18.6415C18.2531 6.88265 17.9383 6.56844 17.9383 6.18092C17.9383 5.7934 18.2532 5.47919 18.6415 5.47919C19.0298 5.47919 19.3449 5.7934 19.3449 6.18092C19.3449 6.56844 19.0302 6.88265 18.6419 6.88265Z" fill="#202023"/>
<path d="M13.85 12.6382H4.11226C2.85569 12.6382 1.83334 13.6584 1.83334 14.9124V17.0787C1.83334 18.5599 1.28749 19.983 0.296363 21.0855C-0.01109 21.4275 -0.0854806 21.9004 0.102113 22.3199C0.28966 22.7394 0.692175 23 1.15249 23H13.85C15.1066 23 16.1289 21.9797 16.1289 20.7257V14.9124C16.1289 13.6584 15.1066 12.6382 13.85 12.6382ZM5.35857 18.5207C4.97022 18.5207 4.65522 18.2065 4.65522 17.819C4.65522 17.4314 4.96989 17.1173 5.3582 17.1173H5.35857C5.74693 17.1173 6.06175 17.4315 6.06175 17.819C6.06179 18.2066 5.74698 18.5207 5.35857 18.5207ZM7.30693 18.5207C6.91857 18.5207 6.60357 18.2065 6.60357 17.819C6.60357 17.4314 6.9182 17.1173 7.30656 17.1173H7.30698C7.69534 17.1173 8.01015 17.4315 8.01015 17.819C8.0102 18.2066 7.69529 18.5207 7.30693 18.5207ZM12.6435 18.5207H9.21376C8.8254 18.5207 8.51059 18.2065 8.51059 17.819C8.51059 17.4314 8.82545 17.1173 9.21376 17.1173H12.6435C13.0318 17.1173 13.3466 17.4315 13.3466 17.819C13.3466 18.2066 13.0319 18.5207 12.6435 18.5207Z" fill="#202023"/>
</svg>
