<svg width="24" height="17" xmlns="http://www.w3.org/2000/svg">
    <g transform="translate(.494 .264)" fill-rule="nonzero" fill="none">
        <path d="M11.253 11.928a7.148 7.148 0 0 1-5.088-2.107L2.673 6.329a.675.675 0 0 1 .955-.955L7.12 8.866a5.845 5.845 0 0 0 8.266 0l3.492-3.492a.675.675 0 0 1 .954.955L16.341 9.82a7.149 7.149 0 0 1-5.088 2.107z" fill="#A4CC11"/>
        <circle fill="#2370DE" cx="2.251" cy="2.251" r="2.251"/>
        <path d="m2.25 0 .335.67a1.093 1.093 0 0 1-.977 1.58H0A2.25 2.25 0 0 1 2.25 0z" fill="#3781EA"/>
        <path d="M2.7 4.051a1.35 1.35 0 0 1 1.274.9h.077v.9a.9.9 0 0 1-.9.9h-1.8a.9.9 0 0 1-.9-.9l.076.001a1.35 1.35 0 0 1 1.273-1.8h.9zm16.655 2.7a.9.9 0 0 1-.9-.9l.077.001a1.35 1.35 0 0 1 1.273-1.8h.9a1.35 1.35 0 0 1 1.274.899h.077v.9a.9.9 0 0 1-.9.9z" fill="#7DB1FA"/>
        <path d="M3.15 6.752v8.102a.9.9 0 0 1 .901.9v.45a.45.45 0 0 1-.37.443l-.08.007H.9a.45.45 0 0 1-.45-.45v-.45a.9.9 0 0 1 .9-.9V6.752h1.8zm18.006 0v8.102a.9.9 0 0 1 .9.9v.45a.45.45 0 0 1-.37.443l-.08.007h-2.701a.45.45 0 0 1-.45-.45v-.45a.9.9 0 0 1 .9-.9V6.752h1.8z" fill="#3384F7"/>
        <circle fill="#7DB1FA" cx="1.35" cy="1.35" r="1"/>
        <circle fill="#2370DE" cx="20.255" cy="2.251" r="2.251"/>
        <path d="m20.255 0 .335.67a1.093 1.093 0 0 1-.977 1.58h-1.608A2.25 2.25 0 0 1 20.255 0z" fill="#3781EA"/>
        <circle fill="#7DB1FA" cx="19.355" cy="1.35" r="1"/>
    </g>
</svg>
