<svg width="32" height="32" viewBox="0 0 32 32" fill="none" xmlns="http://www.w3.org/2000/svg">
<rect x="7" y="22.3491" width="18" height="2.65089" fill="#3384F7"/>
<path fill-rule="evenodd" clip-rule="evenodd" d="M7.005 22.4206L8.3194 21.545C8.50384 21.4211 8.61563 21.2143 8.61563 20.9916V13.3167C8.61563 9.24308 11.9282 5.93053 16.0009 5.93053C20.0726 5.93053 23.3861 9.24308 23.3861 13.3167V20.9916C23.3861 21.2143 23.497 21.4211 23.6823 21.545L24.9958 22.4206V24.62H7.005V22.4206ZM18.8383 26.1291C18.4685 27.3895 17.3022 28.2698 16.0009 28.2698C14.6995 28.2698 13.5332 27.3895 13.1634 26.1291L13.1112 25.9502H18.8905L18.8383 26.1291ZM5.67383 22.0648V25.2851C5.67383 25.6521 5.97285 25.9502 6.33988 25.9502H11.7624L11.7838 26.0648C12.1573 28.1133 13.931 29.6 16.0009 29.6C18.0707 29.6 19.8444 28.1133 20.2179 26.0648L20.2384 25.9502H25.6619C26.0289 25.9502 26.327 25.6521 26.327 25.2851V22.0648C26.327 21.8412 26.2161 21.6344 26.0307 21.5105L24.7173 20.6349V13.3167C24.7173 8.85183 21.2361 5.03904 16.7927 4.63569L16.666 4.62451V3.06511C16.666 2.69809 16.3679 2.39999 16.0009 2.39999C15.6338 2.39999 15.3348 2.69809 15.3348 3.06511V4.62451L15.2081 4.63569C10.7647 5.03904 7.28446 8.85183 7.28446 13.3167V20.6349L5.97006 21.5105C5.78468 21.6344 5.67383 21.8412 5.67383 22.0648Z" fill="#202023"/>
</svg>
