<?xml version="1.0" encoding="utf-8"?>
<svg width="33px" height="33px" viewBox="0 0 33 33" version="1.1" xmlns:xlink="http://www.w3.org/1999/xlink" xmlns="http://www.w3.org/2000/svg">
  <g id="pdf" transform="translate(0.5 0.5)">
    <path d="M16 32C24.8366 32 32 24.8366 32 16C32 7.16344 24.8366 0 16 0C7.16344 0 0 7.16344 0 16C0 24.8366 7.16344 32 16 32Z" id="Oval" fill="#3384F7" fill-rule="evenodd" stroke="none" />
    <path d="M3.11445 0L10.9465 0L15.8757 4.91198L15.8757 17.4246C15.8757 18.5693 14.9443 19.5 13.8009 19.5L3.11445 19.5C1.97027 19.5 1.03903 18.5694 1.03903 17.4246L1.03903 16.4945L0.836317 16.4945C0.374478 16.4945 0 16.1204 0 15.6583L0 10.5863C0 10.1241 0.374519 9.74998 0.836317 9.74998L1.03903 9.74998L1.03903 2.07542C1.03903 0.931888 1.97027 0 3.11445 0ZM3.11445 18.229L13.8009 18.229C14.2439 18.229 14.604 17.8682 14.604 17.4245L14.574 5.41547L11.9103 5.42312C11.1154 5.42312 10.4709 4.77806 10.4709 3.98381L10.4709 1.26459L3.11445 1.27227C2.67146 1.27227 2.31065 1.63304 2.31065 2.07542L2.31065 9.74998L12.2726 9.74998C12.7345 9.74998 13.109 10.1241 13.109 10.5863L13.109 15.6583C13.109 16.1204 12.7345 16.4945 12.2726 16.4945L2.31065 16.4945L2.31065 17.4246C2.31065 17.8682 2.67142 18.229 3.11445 18.229ZM3.26899 11.429C2.78361 11.429 2.4391 11.4602 2.19401 11.5016L2.19401 14.9725L2.98187 14.9725L2.98187 13.7148C3.05516 13.7249 3.14887 13.7301 3.25342 13.7301C3.72318 13.7301 4.12476 13.6154 4.39631 13.3598C4.60508 13.1615 4.71982 12.8689 4.71982 12.5247C4.71982 12.1805 4.5684 11.8879 4.34401 11.7107C4.10911 11.5226 3.7595 11.429 3.26899 11.429ZM5.22785 11.5016L5.22785 14.9565C5.42607 14.9826 5.71828 15.0087 6.13074 15.0087C6.81947 15.0087 7.38323 14.8627 7.75359 14.5549C8.09304 14.2681 8.33813 13.8034 8.33813 13.1302C8.33813 12.5088 8.10869 12.076 7.74343 11.8044C7.40402 11.5488 6.97086 11.429 6.30287 11.429C5.90093 11.429 5.52006 11.4551 5.22785 11.5016ZM10.9236 13.558L10.9236 12.911L9.66048 12.911L9.66048 12.1072L11.0121 12.1072L11.0121 11.4551L8.8621 11.4551L8.8621 14.9725L9.66048 14.9725L9.66048 13.558L10.9236 13.558ZM3.93196 12.5457C3.93196 12.2219 3.70725 12.0288 3.31077 12.0288C3.14887 12.0288 3.03922 12.0447 2.98187 12.06L2.98187 13.099C3.04978 13.1143 3.13326 13.1194 3.24832 13.1194C3.67093 13.1194 3.93196 12.9059 3.93196 12.5457ZM6.38635 12.0396C6.2088 12.0396 6.09406 12.055 6.02619 12.0709L6.02619 14.372C6.0941 14.3879 6.20374 14.3879 6.30287 14.3879C7.02315 14.393 7.49292 13.9966 7.49292 13.1564C7.49801 12.4259 7.06995 12.0396 6.38635 12.0396Z" transform="translate(8 6.25)" id="Combined-Shape" fill="#FFFFFF" fill-rule="evenodd" stroke="none" />
  </g>
</svg>