<svg width="24" height="24" viewBox="0 0 24 24" fill="none" xmlns="http://www.w3.org/2000/svg">
<path d="M20.7273 23H3.27273C2.40475 23 1.57232 22.6523 0.95856 22.0335C0.344804 21.4146 0 20.5752 0 19.7V8.70001C0 7.82479 0.344804 6.98542 0.95856 6.36655C1.57232 5.74768 2.40475 5.4 3.27273 5.4H5.69455L6.16364 3.497C6.34113 2.78359 6.74991 2.15042 7.32505 1.69803C7.9002 1.24564 8.60874 0.999958 9.33818 1H14.6618C15.3913 0.999958 16.0998 1.24564 16.6749 1.69803C17.2501 2.15042 17.6589 2.78359 17.8364 3.497L18.3055 5.4H20.7273C21.5953 5.4 22.4277 5.74768 23.0414 6.36655C23.6552 6.98542 24 7.82479 24 8.70001V19.7C24 20.5752 23.6552 21.4146 23.0414 22.0335C22.4277 22.6523 21.5953 23 20.7273 23ZM3.27273 7.60001C2.9834 7.60001 2.70592 7.7159 2.50134 7.92219C2.29675 8.12848 2.18182 8.40827 2.18182 8.70001V19.7C2.18182 19.9918 2.29675 20.2715 2.50134 20.4778C2.70592 20.6841 2.9834 20.8 3.27273 20.8H20.7273C21.0166 20.8 21.2941 20.6841 21.4987 20.4778C21.7032 20.2715 21.8182 19.9918 21.8182 19.7V8.70001C21.8182 8.40827 21.7032 8.12848 21.4987 7.92219C21.2941 7.7159 21.0166 7.60001 20.7273 7.60001H17.4545C17.2053 7.60733 16.9612 7.52836 16.7627 7.37625C16.5642 7.22414 16.4234 7.00807 16.3636 6.764L15.6873 4.036C15.6275 3.79194 15.4867 3.57587 15.2882 3.42376C15.0897 3.27165 14.8456 3.19268 14.5964 3.2H9.33818C9.08898 3.19268 8.84481 3.27165 8.64632 3.42376C8.44783 3.57587 8.307 3.79194 8.24727 4.036L7.63636 6.764C7.57664 7.00807 7.4358 7.22414 7.23732 7.37625C7.03883 7.52836 6.79466 7.60733 6.54545 7.60001H3.27273ZM12 18.6C10.9212 18.6 9.86661 18.2774 8.96962 17.6731C8.07262 17.0687 7.3735 16.2098 6.96066 15.2048C6.54782 14.1998 6.4398 13.0939 6.65026 12.027C6.86073 10.9601 7.38022 9.98011 8.14305 9.21092C8.90589 8.44173 9.87779 7.9179 10.9359 7.70569C11.9939 7.49347 13.0907 7.60239 14.0874 8.01867C15.0841 8.43495 15.9359 9.1399 16.5353 10.0444C17.1346 10.9488 17.4545 12.0122 17.4545 13.1C17.4545 14.5587 16.8799 15.9576 15.8569 16.9891C14.834 18.0206 13.4466 18.6 12 18.6V18.6ZM12 9.80001C11.3527 9.80001 10.72 9.99355 10.1818 10.3562C9.64357 10.7188 9.2241 11.2342 8.97639 11.8372C8.72869 12.4401 8.66388 13.1037 8.79016 13.7438C8.91644 14.3839 9.22813 14.972 9.68583 15.4335C10.1435 15.895 10.7267 16.2093 11.3615 16.3366C11.9964 16.4639 12.6544 16.3986 13.2524 16.1488C13.8504 15.899 14.3616 15.4761 14.7212 14.9334C15.0808 14.3907 15.2727 13.7527 15.2727 13.1C15.2727 12.2248 14.9279 11.3854 14.3142 10.7666C13.7004 10.1477 12.868 9.80001 12 9.80001Z" fill="#202023" fill-opacity="0.2"/>
</svg>
