<?xml version="1.0" encoding="utf-8"?>
<svg width="32px" height="33px" viewBox="0 0 32 33" version="1.1" xmlns:xlink="http://www.w3.org/1999/xlink" xmlns="http://www.w3.org/2000/svg">
  <path d="M17.5894 3.42248L30.116 27.5808Q30.1455 27.6377 30.1712 27.6963Q30.197 27.7549 30.219 27.815Q30.2409 27.8752 30.259 27.9366Q30.2771 27.998 30.2912 28.0605Q30.3053 28.1229 30.3154 28.1861Q30.3255 28.2494 30.3315 28.3131Q30.3375 28.3768 30.3395 28.4408Q30.3414 28.5048 30.3392 28.5688Q30.337 28.6328 30.3308 28.6965Q30.3245 28.7602 30.3142 28.8234Q30.3039 28.8866 30.2895 28.949Q30.2752 29.0114 30.2568 29.0728Q30.2385 29.1341 30.2163 29.1942Q30.1941 29.2542 30.1681 29.3127Q30.1421 29.3712 30.1124 29.428Q30.0828 29.4847 30.0495 29.5394Q30.0162 29.5941 29.9795 29.6466Q29.9429 29.6991 29.9029 29.7491Q29.8629 29.7991 29.8198 29.8464Q29.7767 29.8938 29.7307 29.9383Q29.6847 29.9828 29.6359 30.0242Q29.5871 30.0657 29.5357 30.104Q29.4844 30.1422 29.4307 30.1771Q29.377 30.212 29.3212 30.2434Q29.2654 30.2748 29.2077 30.3025Q29.15 30.3303 29.0907 30.3543Q29.0313 30.3783 28.9705 30.3984Q28.9097 30.4186 28.8478 30.4348Q28.7859 30.451 28.723 30.4632Q28.6602 30.4754 28.5967 30.4836Q28.5332 30.4918 28.4693 30.4959Q28.4054 30.5 28.3414 30.5L3.28827 30.5Q3.22424 30.5 3.16035 30.4959Q3.09645 30.4918 3.03295 30.4836Q2.96945 30.4754 2.9066 30.4632Q2.84375 30.451 2.78182 30.4348Q2.71988 30.4186 2.65911 30.3984Q2.59834 30.3783 2.53898 30.3543Q2.47962 30.3303 2.42192 30.3025Q2.36422 30.2748 2.30841 30.2434Q2.25261 30.212 2.19892 30.1771Q2.14524 30.1422 2.0939 30.104Q2.04256 30.0657 1.99377 30.0242Q1.94498 29.9828 1.89895 29.9383Q1.85291 29.8938 1.80982 29.8464Q1.76673 29.7991 1.72675 29.7491Q1.68678 29.6991 1.65009 29.6466Q1.61339 29.5941 1.58014 29.5394Q1.54688 29.4847 1.51719 29.428Q1.4875 29.3712 1.4615 29.3127Q1.4355 29.2542 1.4133 29.1942Q1.3911 29.1341 1.37278 29.0728Q1.35447 29.0114 1.34012 28.949Q1.32577 28.8866 1.31544 28.8234Q1.30512 28.7602 1.29885 28.6965Q1.29259 28.6328 1.29042 28.5688Q1.28825 28.5048 1.29017 28.4408Q1.2921 28.3768 1.29812 28.3131Q1.30414 28.2494 1.31422 28.1861Q1.32431 28.1229 1.33842 28.0605Q1.35253 27.998 1.3706 27.9366Q1.38868 27.8752 1.41065 27.815Q1.43262 27.7549 1.4584 27.6963Q1.48417 27.6377 1.51365 27.5808L14.0402 3.42248Q14.0716 3.36188 14.1071 3.30356Q14.1426 3.24523 14.182 3.18947Q14.2214 3.1337 14.2645 3.08076Q14.3076 3.02781 14.3542 2.97792Q14.4008 2.92804 14.4507 2.88145Q14.5006 2.83486 14.5535 2.79179Q14.6065 2.74871 14.6623 2.70935Q14.7181 2.66999 14.7764 2.63453Q14.8347 2.59906 14.8954 2.56766Q14.956 2.53626 15.0186 2.50907Q15.0812 2.48188 15.1456 2.45902Q15.2099 2.43616 15.2756 2.41775Q15.3414 2.39933 15.4082 2.38545Q15.4751 2.37156 15.5427 2.36227Q15.6103 2.35297 15.6784 2.34832Q15.7465 2.34366 15.8148 2.34366Q15.8831 2.34366 15.9512 2.34832Q16.0193 2.35297 16.0869 2.36227Q16.1546 2.37156 16.2214 2.38545Q16.2883 2.39933 16.354 2.41775Q16.4197 2.43616 16.4841 2.45902Q16.5484 2.48188 16.611 2.50907Q16.6736 2.53626 16.7343 2.56766Q16.7949 2.59906 16.8532 2.63453Q16.9116 2.66999 16.9673 2.70935Q17.0231 2.74871 17.0761 2.79179Q17.129 2.83486 17.179 2.88145Q17.2289 2.92804 17.2755 2.97792Q17.3221 3.02781 17.3652 3.08076Q17.4083 3.1337 17.4477 3.18947Q17.487 3.24523 17.5225 3.30356Q17.558 3.36188 17.5894 3.42248L17.5894 3.42248Z" transform="matrix(-4.371139E-08 1 -1 -4.371139E-08 31 0.5)" id="Triangle" fill="#CBEC4C" fill-rule="evenodd" stroke="none" />
</svg>