<svg width="63" height="45" viewBox="0 0 63 45" fill="none" xmlns="http://www.w3.org/2000/svg">
<g opacity="0.7">
<path d="M22.2656 7.37231V35.1062L40.5209 29.8403L47.5421 23.8722V14.7446L22.2656 7.37231Z" fill="white" stroke="black"/>
<path d="M60.339 3.7931C58.0726 1.09896 53.8882 0 45.8969 0H16.8887C8.71452 0 4.45924 1.16985 2.20137 4.03817C0 6.83479 0 10.9554 0 16.6584V27.5283C0 38.5769 2.61191 44.1865 16.8887 44.1865H45.8971C52.8271 44.1865 56.6672 43.2168 59.1515 40.8392C61.6992 38.4011 62.7862 34.4202 62.7862 27.5283V16.6584C62.7862 10.6441 62.6159 6.49918 60.339 3.7931ZM40.309 23.594L27.1364 30.4785C26.8419 30.6324 26.5199 30.7087 26.1983 30.7087C25.8341 30.7087 25.4707 30.6107 25.1489 30.4159C24.5429 30.0487 24.1729 29.3919 24.1729 28.6834V14.9587C24.1729 14.2515 24.5419 13.5952 25.1467 13.2278C25.7517 12.8604 26.5041 12.8353 27.1317 13.1614L40.3043 20.0015C40.9745 20.3494 41.3954 21.0413 41.3964 21.7961C41.3972 22.5516 40.9781 23.2445 40.309 23.594Z" fill="black"/>
</g>
</svg>
