<svg width="32" height="32" viewBox="0 0 32 32" fill="none" xmlns="http://www.w3.org/2000/svg">
<path fill-rule="evenodd" clip-rule="evenodd" d="M25.441 27.5674H7.139V4.1384H22.066L25.441 7.5134V27.5674ZM26.01 3.0004H6.569C6.255 3.0004 6 3.2554 6 3.5704V28.1374C6 28.4514 6.255 28.7074 6.569 28.7074H26.009C26.323 28.7074 26.579 28.4514 26.579 28.1374V3.5694C26.579 3.4184 26.52 3.2744 26.413 3.1674C26.305 3.0594 26.162 3.0004 26.01 3.0004Z" fill="#202023"/>
<path fill-rule="evenodd" clip-rule="evenodd" d="M9.78418 12.056H12.9882V8.85199H9.78418V12.056Z" fill="#3384F7"/>
<path fill-rule="evenodd" clip-rule="evenodd" d="M14.5322 9.784H22.7942V8.851H14.5322V9.784Z" fill="#202023"/>
<path fill-rule="evenodd" clip-rule="evenodd" d="M14.5322 12.056H22.7942V11.123H14.5322V12.056Z" fill="#202023"/>
<path fill-rule="evenodd" clip-rule="evenodd" d="M9.78418 17.938H12.9882V14.735H9.78418V17.938Z" fill="#3384F7"/>
<path fill-rule="evenodd" clip-rule="evenodd" d="M14.5322 15.668H22.7942V14.735H14.5322V15.668Z" fill="#202023"/>
<path fill-rule="evenodd" clip-rule="evenodd" d="M14.5322 17.938H22.7942V17.005H14.5322V17.938Z" fill="#202023"/>
<path fill-rule="evenodd" clip-rule="evenodd" d="M9.78418 23.822H12.9882V20.619H9.78418V23.822Z" fill="#3384F7"/>
<path fill-rule="evenodd" clip-rule="evenodd" d="M14.5322 21.552H22.7942V20.619H14.5322V21.552Z" fill="#202023"/>
<path fill-rule="evenodd" clip-rule="evenodd" d="M14.5322 23.823H22.7942V22.889H14.5322V23.823Z" fill="#202023"/>
</svg>
