<svg width="24" height="24" viewBox="0 0 24 24" fill="none" xmlns="http://www.w3.org/2000/svg">
<path fill-rule="evenodd" clip-rule="evenodd" d="M12.1449 22.7307L9.14857 19.0769H2.36496C1.53517 19.0769 0.860352 18.402 0.860352 17.5722V4.67758C0.860352 3.84779 1.53517 3.17297 2.36496 3.17297H21.9249C22.7547 3.17297 23.4295 3.84779 23.4295 4.67758V17.5722C23.4295 18.402 22.7547 19.0768 21.9249 19.0768H15.1413L12.1449 22.7307ZM2.36496 4.67758V17.5722H9.86048L12.1449 20.3577L14.4294 17.5722H21.9249V4.67758H2.36496ZM15.3286 15.2099L12.1449 13.6678L8.96125 15.2099L9.57099 11.9328L6.91588 9.54808L10.5775 9.05765L12.1449 6.13149L13.7124 9.05765L17.374 9.54808L14.7189 11.9328L15.3286 15.2099ZM12.1449 11.9957L13.3046 12.5578L13.0849 11.3782L13.9438 10.6068L12.7492 10.447L12.1449 9.31855L11.5407 10.447L10.3461 10.6068L11.2049 11.3782L10.9852 12.5578L12.1449 11.9957Z" fill="#3384F7"/>
</svg>
