<svg width="100" height="100" viewBox="0 0 100 100" fill="none" xmlns="http://www.w3.org/2000/svg">
<path d="M76.0417 100H23.9583C17.6375 100 12.5 94.8625 12.5 88.5417V11.4583C12.5 5.1375 17.6375 0 23.9583 0H76.0417C82.3625 0 87.5 5.1375 87.5 11.4583V88.5417C87.5 94.8625 82.3625 100 76.0417 100ZM23.9583 6.25C21.0875 6.25 18.75 8.5875 18.75 11.4583V88.5417C18.75 91.4125 21.0875 93.75 23.9583 93.75H76.0417C78.9125 93.75 81.25 91.4125 81.25 88.5417V11.4583C81.25 8.5875 78.9125 6.25 76.0417 6.25H23.9583Z" fill="#3384F7"/>
<path d="M67.7096 66.6666H32.293C30.568 66.6666 29.168 65.2666 29.168 63.5416C29.168 61.8166 30.568 60.4166 32.293 60.4166H67.7096C69.4346 60.4166 70.8346 61.8166 70.8346 63.5416C70.8346 65.2666 69.4346 66.6666 67.7096 66.6666Z" fill="#3384F7"/>
<path d="M67.7096 83.3334H32.293C30.568 83.3334 29.168 81.9334 29.168 80.2084C29.168 78.4834 30.568 77.0834 32.293 77.0834H67.7096C69.4346 77.0834 70.8346 78.4834 70.8346 80.2084C70.8346 81.9334 69.4346 83.3334 67.7096 83.3334Z" fill="#3384F7"/>
<path d="M50.0013 29.1667C54.6037 29.1667 58.3346 25.4357 58.3346 20.8333C58.3346 16.231 54.6037 12.5 50.0013 12.5C45.3989 12.5 41.668 16.231 41.668 20.8333C41.668 25.4357 45.3989 29.1667 50.0013 29.1667Z" fill="#3384F7"/>
<path d="M63.5404 50H36.457C34.732 50 33.332 48.6 33.332 46.875V44.7917C33.332 38.4709 38.4695 33.3334 44.7904 33.3334H55.207C61.5279 33.3334 66.6654 38.4709 66.6654 44.7917V46.875C66.6654 48.6 65.2654 50 63.5404 50Z" fill="#3384F7"/>
</svg>
