<svg width="25" height="16" viewBox="0 0 25 16" xmlns="http://www.w3.org/2000/svg">
    <path d="M7.438 11.724V15.1a.587.587 0 0 1-.587.588H3.89a.587.587 0 0 1-.587-.588v-4.272l-2.24-.486a.587.587 0 0 1-.462-.573L.6 4.682c0-.29.212-.532.49-.579L17.568.533c.366-.08.71.202.71.573V3.93c2.552 1.004 2.488 5.615 0 6.594v2.822a.588.588 0 0 1-.738.568l-10.103-2.19zM18.28 5.299v3.853c.97-.902.967-2.95 0-3.853zm2.812 2.513c-.772 0-.772-1.174 0-1.174h2.33c.772 0 .772 1.174 0 1.174h-2.33zm.447-3.013c-.666.383-1.248-.631-.582-1.013l2.017-1.165c.667-.383 1.248.631.583 1.014l-2.018 1.164zm-.585 5.866c-.666-.386-.078-1.4.587-1.014l2.018 1.165c.666.386.079 1.4-.587 1.014l-2.018-1.165zm-16.477.417v3.431h1.787V11.47l-1.787-.387zm12.629-9.248L1.774 5.155v4.141l15.332 3.322V1.834z" fill="#202023" fill-rule="nonzero" stroke="#202023" stroke-width=".1"/>
</svg>
