<svg width="32" height="32" viewBox="0 0 32 32" fill="none" xmlns="http://www.w3.org/2000/svg">
<path d="M31.3686 0.0515625C30.9905 -0.07925 30.5715 0.0445625 30.3249 0.359125L25.3249 6.73413C25.1954 6.89919 25.1251 7.10287 25.1251 7.31269V18.875H23.1251V7.3125C23.1251 6.79475 22.7053 6.375 22.1876 6.375H20.0001V3.5625C20.0001 3.04475 19.5803 2.625 19.0626 2.625H16.2501V0.9375C16.2501 0.41975 15.8303 0 15.3126 0C14.7948 0 14.3751 0.41975 14.3751 0.9375V2.625H11.5626C11.0448 2.625 10.6251 3.04475 10.6251 3.5625V6.375H8.43756C7.91981 6.375 7.50006 6.79475 7.50006 7.3125V8.875H0.9375C0.41975 8.875 0 9.29475 0 9.8125V31.0625C0 31.5802 0.41975 32 0.9375 32H31.0625C31.5802 32 32 31.5802 32 31.0625V0.937625C32 0.537875 31.7464 0.182063 31.3686 0.0515625ZM7.5 30.125H5.625V28.5625C5.625 28.0448 5.20525 27.625 4.6875 27.625C4.16975 27.625 3.75 28.0448 3.75 28.5625V30.125H1.875V10.75H7.5V30.125ZM12.5 4.5H18.125V6.375H12.5V4.5ZM17.5 30.125H13.125V27H17.5V30.125ZM21.25 30.125H19.375V26.0625C19.375 25.5448 18.9552 25.125 18.4375 25.125H12.1875C11.6698 25.125 11.25 25.5448 11.25 26.0625V30.125H9.375V8.25H21.25V30.125ZM30.125 30.125H23.125V20.75H30.125V30.125ZM30.125 18.875H27V7.63644L30.125 3.65206V18.875Z" fill="#202023"/>
<path d="M12.1875 23.25H18.4375C18.9552 23.25 19.375 22.8303 19.375 22.3125C19.375 21.7947 18.9552 21.375 18.4375 21.375H12.1875C11.6697 21.375 11.25 21.7947 11.25 22.3125C11.25 22.8303 11.6697 23.25 12.1875 23.25Z" fill="#202023"/>
<path d="M12.1875 19.5H18.4375C18.9552 19.5 19.375 19.0803 19.375 18.5625C19.375 18.0447 18.9552 17.625 18.4375 17.625H12.1875C11.6697 17.625 11.25 18.0447 11.25 18.5625C11.25 19.0803 11.6697 19.5 12.1875 19.5Z" fill="#202023"/>
<path d="M12.1875 15.75H18.4375C18.9552 15.75 19.375 15.3303 19.375 14.8125C19.375 14.2947 18.9552 13.875 18.4375 13.875H12.1875C11.6697 13.875 11.25 14.2947 11.25 14.8125C11.25 15.3303 11.6697 15.75 12.1875 15.75Z" fill="#202023"/>
<path d="M12.1875 12H18.4375C18.9552 12 19.375 11.5803 19.375 11.0625C19.375 10.5447 18.9552 10.125 18.4375 10.125H12.1875C11.6697 10.125 11.25 10.5447 11.25 11.0625C11.25 11.5803 11.6697 12 12.1875 12Z" fill="#202023"/>
<path d="M26.0625 24.5H27.3125C27.8303 24.5 28.25 24.0803 28.25 23.5625C28.25 23.0447 27.8303 22.625 27.3125 22.625H26.0625C25.5447 22.625 25.125 23.0447 25.125 23.5625C25.125 24.0803 25.5447 24.5 26.0625 24.5Z" fill="#202023"/>
<path d="M26.0625 28.25H27.3125C27.8303 28.25 28.25 27.8303 28.25 27.3125C28.25 26.7947 27.8303 26.375 27.3125 26.375H26.0625C25.5447 26.375 25.125 26.7947 25.125 27.3125C25.125 27.8303 25.5447 28.25 26.0625 28.25Z" fill="#202023"/>
<path d="M4.6875 25.75C5.20525 25.75 5.625 25.3303 5.625 24.8125V23.5625C5.625 23.0447 5.20525 22.625 4.6875 22.625C4.16975 22.625 3.75 23.0447 3.75 23.5625V24.8125C3.75 25.3303 4.16975 25.75 4.6875 25.75Z" fill="#202023"/>
<path d="M4.6875 20.75C5.20525 20.75 5.625 20.3303 5.625 19.8125V18.5625C5.625 18.0447 5.20525 17.625 4.6875 17.625C4.16975 17.625 3.75 18.0447 3.75 18.5625V19.8125C3.75 20.3303 4.16975 20.75 4.6875 20.75Z" fill="#202023"/>
<path d="M4.6875 15.75C5.20525 15.75 5.625 15.3303 5.625 14.8125V13.5625C5.625 13.0447 5.20525 12.625 4.6875 12.625C4.16975 12.625 3.75 13.0447 3.75 13.5625V14.8125C3.75 15.3303 4.16975 15.75 4.6875 15.75Z" fill="#202023"/>
</svg>
