<svg width="48" height="48" viewBox="0 0 48 48" fill="none" xmlns="http://www.w3.org/2000/svg">
<path opacity="0.3" fill-rule="evenodd" clip-rule="evenodd" d="M36.2942 47.717L23.9998 40.9559L11.7055 47.717C10.916 48.1482 9.96121 48.0743 9.24103 47.5262C8.52085 46.9782 8.15964 46.0506 8.30872 45.1321L10.6534 30.8112L0.706663 20.6696C0.0682929 20.0175 -0.160962 19.0429 0.115245 18.1553C0.391453 17.2678 1.12525 16.6211 2.00824 16.4872L15.7515 14.396L21.8986 1.36759C22.2936 0.530189 23.1087 0 24.0013 0C24.8939 0 25.7091 0.530189 26.104 1.36759L32.2512 14.396L45.9944 16.4872C46.8768 16.6221 47.6097 17.2691 47.8852 18.1565C48.1608 19.0439 47.9312 20.0179 47.2929 20.6696L37.3493 30.8112L39.6939 45.1321C39.8108 45.8443 39.6215 46.5743 39.1765 47.1271C38.7315 47.6799 38.0761 47.9993 37.3853 48C37.005 47.9998 36.6305 47.9026 36.2942 47.717Z" fill="url(#paint0_linear_0_3851)"/>
<defs>
<linearGradient id="paint0_linear_0_3851" x1="21.6155" y1="-7.57085" x2="-9.39972" y2="32.4924" gradientUnits="userSpaceOnUse">
<stop stop-color="white" stop-opacity="0.32933"/>
<stop offset="1" stop-color="white"/>
</linearGradient>
</defs>
</svg>
