<svg width="22" height="22" xmlns="http://www.w3.org/2000/svg">
    <path d="M11 17.68c.097 0 .194.026.28.073l5.156 2.842a.538.538 0 0 0 .694-.145.598.598 0 0 0 .122-.478l-.984-6.018a.649.649 0 0 1 .172-.558l4.172-4.262a.606.606 0 0 0 .142-.605.568.568 0 0 0-.454-.402l-5.765-.878a.604.604 0 0 1-.452-.345l-2.578-5.476A.557.557 0 0 0 11 1.1a.557.557 0 0 0-.505.328L7.917 6.904a.604.604 0 0 1-.452.345L1.7 8.127a.567.567 0 0 0-.454.402.606.606 0 0 0 .142.605l4.172 4.262a.649.649 0 0 1 .172.558l-.984 6.019a.598.598 0 0 0 .122.478.538.538 0 0 0 .694.144l5.156-2.842a.581.581 0 0 1 .28-.072z" fill-rule="nonzero" stroke="#202023" stroke-width="1.3" fill="none"/>
</svg>
