<svg width="32" height="32" viewBox="0 0 32 32" fill="none" xmlns="http://www.w3.org/2000/svg">
<path d="M5.71429 14.8571H5.81714C6.72 18.0571 9.10846 20.64 12.1714 21.8286C12.1717 21.8287 12.1718 21.8287 12.172 21.8288C12.2423 23.0091 12.245 24.1985 12.1595 25.3711C12.0167 27.3153 11.6797 28.2321 11.2544 29.3928C11.2174 29.4933 11.1781 29.6107 11.1403 29.7143H9.24663C8.61497 29.7143 8.10377 30.2261 8.10377 30.8571C8.10377 31.4882 8.61497 32 9.24663 32H11.9475H20.0525H22.7534C23.385 32 23.8962 31.4882 23.8962 30.8571C23.8962 30.2261 23.385 29.7143 22.7534 29.7143H20.8597C20.8219 29.6109 20.7826 29.4933 20.7456 29.3928C20.3203 28.2321 19.9833 27.3152 19.8405 25.3715C19.755 24.1984 19.7577 23.009 19.828 21.8287C19.8282 21.8287 19.8283 21.8286 19.8286 21.8286C22.8915 20.64 25.28 18.0571 26.1829 14.8571H26.2857C29.44 14.8571 32 12.2971 32 9.14286V4.26286C32 3.62286 31.4857 3.12 30.8571 3.12H26.5943V1.14286C26.5943 0.514286 26.0914 0 25.4514 0H6.54857C5.90857 0 5.40571 0.514286 5.40571 1.14286V3.12H1.14286C0.514286 3.12 0 3.62286 0 4.26286V9.14286C0 12.2971 2.56 14.8571 5.71429 14.8571ZM17.5614 25.5385C17.7065 27.5139 18.048 28.6451 18.4307 29.7143H13.5691C13.952 28.6451 14.2935 27.5139 14.4385 25.5379C14.5134 24.509 14.5141 23.4693 14.4786 22.4318C14.483 22.4323 14.487 22.4337 14.4913 22.4343C14.9827 22.5143 15.4856 22.5486 15.9999 22.5486C16.5142 22.5486 17.017 22.5143 17.5085 22.4343C17.5128 22.4337 17.5168 22.4323 17.5211 22.4318C17.4858 23.4693 17.4865 24.5093 17.5614 25.5385ZM29.7143 5.40571V9.14286C29.7143 10.9257 28.3429 12.4 26.5943 12.56V11.9429V5.40571H29.7143ZM7.69143 2.28571H24.3086V4.26286V11.9429C24.3086 16.5257 20.5829 20.2629 16 20.2629C11.4171 20.2629 7.69143 16.5257 7.69143 11.9429V4.26286V2.28571ZM2.28571 5.40571H5.40571V11.9429V12.56C3.65714 12.4 2.28571 10.9257 2.28571 9.14286V5.40571Z" fill="#202023"/>
<path d="M16 14.8572C18.2057 14.8572 20 13.0629 20 10.8572C20 8.65146 18.2057 6.85718 16 6.85718C13.7943 6.85718 12 8.65146 12 10.8572C12 13.0629 13.7943 14.8572 16 14.8572ZM16 9.14289C16.9486 9.14289 17.7143 9.90861 17.7143 10.8572C17.7143 11.8057 16.9486 12.5715 16 12.5715C15.0514 12.5715 14.2857 11.8057 14.2857 10.8572C14.2857 9.90861 15.0514 9.14289 16 9.14289Z" fill="#202023"/>
</svg>
