<svg width="24" height="24" viewBox="0 0 24 24" fill="none" xmlns="http://www.w3.org/2000/svg">
<path d="M13.08 0H3.72C3.32237 0 3 0.314812 3 0.703125V2.8125H13.08V0Z" fill="#202023"/>
<path d="M17.3995 0.703125C17.3995 0.314812 17.0772 0 16.6795 0H14.5195V2.8125H17.3995V0.703125Z" fill="#202023"/>
<path d="M7.32031 15.75H13.0803V17.2031H7.32031V15.75Z" fill="#202023"/>
<path d="M17.4 19.7812V4.21875H3V19.7812C3 20.1696 3.32237 20.4844 3.72 20.4844H16.68C17.0776 20.4844 17.4 20.1696 17.4 19.7812ZM14.52 17.9062C14.52 18.2946 14.1976 18.6094 13.8 18.6094H6.6C6.20237 18.6094 5.88 18.2946 5.88 17.9062V15.0469C5.88 14.6586 6.20237 14.3437 6.6 14.3437H13.8C14.1976 14.3437 14.52 14.6586 14.52 15.0469V17.9062ZM13.8 12.8906H6.6C6.20237 12.8906 5.88 12.5758 5.88 12.1875C5.88 11.7992 6.20237 11.4844 6.6 11.4844H13.8C14.1976 11.4844 14.52 11.7992 14.52 12.1875C14.52 12.5758 14.1976 12.8906 13.8 12.8906ZM13.8 10.0781H6.6C6.20237 10.0781 5.88 9.76331 5.88 9.375C5.88 8.98669 6.20237 8.67187 6.6 8.67187H13.8C14.1976 8.67187 14.52 8.98669 14.52 9.375C14.52 9.76331 14.1976 10.0781 13.8 10.0781ZM13.8 7.26562H6.6C6.20237 7.26562 5.88 6.95081 5.88 6.5625C5.88 6.17419 6.20237 5.85937 6.6 5.85937H13.8C14.1976 5.85937 14.52 6.17419 14.52 6.5625C14.52 6.95081 14.1976 7.26562 13.8 7.26562Z" fill="#202023"/>
<path d="M20.2798 2.8125H18.8398V5.625H20.9998V3.51562C20.9998 3.12731 20.6775 2.8125 20.2798 2.8125Z" fill="#202023"/>
<path d="M18.8399 19.7812C18.8399 20.9444 17.8709 21.8906 16.6799 21.8906H5.87988V23.2969C5.87988 23.6852 6.20225 24 6.59988 24H20.2799C20.6775 24 20.9999 23.6852 20.9999 23.2969V7.03125H18.8399V19.7812Z" fill="#202023"/>
</svg>
