<svg width="32" height="33" viewBox="0 0 32 33" fill="none" xmlns="http://www.w3.org/2000/svg">
<circle cx="16" cy="16.5" r="15.5" stroke="#B5B9C9"/>
<path fill-rule="evenodd" clip-rule="evenodd" d="M11.7812 12.7188C11.7812 10.3925 13.6738 8.5 16 8.5C18.3262 8.5 20.2188 10.3925 20.2188 12.7188C20.2188 15.045 18.3262 16.9375 16 16.9375C13.6738 16.9375 11.7812 15.045 11.7812 12.7188ZM16.9375 17.875C18.5628 17.875 20.0939 18.5208 21.2489 19.6936C22.3983 20.8606 23.0312 22.401 23.0312 24.0312C23.0312 24.2901 22.8214 24.5 22.5625 24.5H9.4375C9.17862 24.5 8.96875 24.2901 8.96875 24.0312C8.96875 22.401 9.60172 20.8606 10.7511 19.6936C11.9061 18.5208 13.4373 17.875 15.0625 17.875H16.9375Z" fill="#B5B9C9"/>
</svg>
