<?xml version="1.0" encoding="utf-8"?>
<svg width="21px" height="12px" viewBox="0 0 21 12" version="1.1" xmlns:xlink="http://www.w3.org/1999/xlink" xmlns="http://www.w3.org/2000/svg">
  <path d="M11.275 11.4519C11.275 11.4519 11.6456 11.4115 11.8354 11.2114C12.0092 11.028 12.0032 10.6819 12.0032 10.6819C12.0032 10.6819 11.9801 9.06601 12.7444 8.82742C13.4977 8.59277 14.4649 10.3901 15.4914 11.0812C16.2668 11.6038 16.8554 11.4894 16.8554 11.4894L19.5984 11.4519C19.5984 11.4519 21.0327 11.3652 20.3528 10.258C20.2965 10.1673 19.956 9.43869 18.3138 7.94206C16.5933 6.37544 16.8243 6.62882 18.8954 3.91853C20.1569 2.26811 20.6611 1.2605 20.5034 0.829652C20.3538 0.417538 19.4257 0.526975 19.4257 0.526975L16.3382 0.545708C16.3382 0.545708 16.1091 0.515144 15.9394 0.614722C15.7737 0.712328 15.6662 0.940075 15.6662 0.940075C15.6662 0.940075 15.1781 2.21684 14.5262 3.30332C13.1512 5.59459 12.6018 5.71586 12.3768 5.57389C11.8535 5.24164 11.9841 4.24093 11.9841 3.53008C11.9841 1.30881 12.3276 0.383031 11.3161 0.143453C10.9807 0.0635937 10.7336 0.0113401 9.87482 0.0024668C8.77299 -0.0083783 7.84091 0.00641049 7.31259 0.259791C6.96105 0.428383 6.68986 0.805004 6.85559 0.826694C7.05948 0.853314 7.52151 0.948948 7.76658 1.27627C8.08297 1.69923 8.07192 2.64769 8.07192 2.64769C8.07192 2.64769 8.25372 5.26234 7.64706 5.58671C7.23124 5.80952 6.66073 5.35502 5.43436 3.27572C4.80661 2.21092 4.33253 1.03374 4.33253 1.03374C4.33253 1.03374 4.24113 0.813877 4.07741 0.695567C3.87954 0.552609 3.60333 0.508243 3.60333 0.508243L0.669473 0.526975C0.669473 0.526975 0.22854 0.538806 0.0668313 0.727117C-0.0767983 0.893737 0.0557829 1.23979 0.0557829 1.23979C0.0557829 1.23979 2.35285 6.51544 4.95425 9.17446C7.33971 11.6117 10.0476 11.4519 10.0476 11.4519L11.275 11.4519Z" id="Shape" fill="#FFFFFF" stroke="none" />
</svg>