<?xml version="1.0" encoding="utf-8"?>
<svg width="25px" height="24px" viewBox="0 0 25 24" version="1.1" xmlns:xlink="http://www.w3.org/1999/xlink" xmlns="http://www.w3.org/2000/svg">
  <g id="youtube">
    <path d="M16.311 14.4383C16.2154 14.4379 16.1229 14.4728 16.0514 14.5362C15.9801 14.5915 15.9445 14.8004 15.9445 15.1629L15.9445 15.344L15.9674 15.3665L16.6318 15.3665L16.6547 15.344L16.6547 14.8987C16.6547 14.5915 16.5401 14.438 16.311 14.4382L16.311 14.4383ZM13.4167 14.423C13.2755 14.4249 13.1431 14.4917 13.0577 14.6041L13.0577 17.2236C13.1748 17.3494 13.2945 17.4123 13.4167 17.4123L13.4854 17.4123C13.6433 17.4123 13.7222 17.2915 13.7221 17.0498L13.7221 14.8233C13.7018 14.5564 13.6 14.423 13.4167 14.423ZM9.22402 13.8116L10.0106 13.8116L10.0106 17.0425C10.0106 17.2286 10.0691 17.3216 10.1862 17.3216L10.2397 17.3216C10.3619 17.3216 10.5147 17.216 10.6979 17.0048L10.6979 13.8116L11.4922 13.8116L11.4922 18.0237L10.6979 18.0237L10.6979 17.5709L10.6903 17.5709C10.3746 17.9128 10.0691 18.0839 9.77388 18.084L9.75861 18.084C9.60163 18.0896 9.45238 18.0158 9.36148 17.8877C9.26983 17.7923 9.22401 17.5131 9.22402 17.0498L9.22402 13.8116ZM16.2881 13.7136L16.3721 13.7136C17.1053 13.7136 17.4719 14.1539 17.4719 15.0345L17.4719 16.0084L15.9674 16.0084L15.9445 16.0309L15.9445 16.7556C15.9445 17.1882 16.0489 17.4046 16.2576 17.4047L16.3263 17.4047C16.3991 17.4028 16.4702 17.382 16.5325 17.3445C16.614 17.2839 16.6547 17.1178 16.6547 16.8463L16.6547 16.5215L17.4719 16.5215L17.4719 16.7026C17.4719 17.0349 17.4413 17.2841 17.3802 17.4501C17.2122 17.9079 16.8482 18.1369 16.2882 18.137C16.1234 18.1386 15.9599 18.1078 15.807 18.0463C15.3641 17.845 15.1426 17.4576 15.1426 16.884L15.1426 14.9136C15.1434 14.7434 15.1744 14.5747 15.2342 14.4154C15.4633 13.9477 15.8146 13.7137 16.2882 13.7136L16.2881 13.7136ZM12.2712 12.317L13.0577 12.317L13.0577 14.144L13.073 14.144C13.3021 13.8871 13.5337 13.7587 13.7679 13.759C14.2822 13.759 14.5393 14.1212 14.5393 14.8458L14.5393 17.1558C14.5381 17.2928 14.5227 17.4294 14.4935 17.5633C14.3764 17.9003 14.1702 18.0689 13.8749 18.0691L13.7679 18.0691C13.5185 18.0691 13.2868 17.9534 13.073 17.7218L13.0577 17.7218L13.0577 18.0238L12.2712 18.0238L12.2712 12.317ZM6.49762 12.317L9.23163 12.317L9.23163 13.1323L8.3305 13.1323L8.30762 13.1548L8.30762 18.0237L7.42172 18.0237L7.42172 13.1548L7.39879 13.1323L6.49762 13.1323L6.49762 12.317ZM11.3624 10.8375C10.2473 10.8375 9.30037 10.8527 8.52143 10.8829C7.51333 10.9031 6.96858 10.9408 6.88718 10.9961C6.40348 11.1623 6.05217 11.4265 5.83323 11.7886C5.68054 12.0806 5.59654 12.2844 5.58123 12.4C5.50484 13.2204 5.46666 14.0759 5.46669 14.9666L5.46669 15.3969C5.46669 16.1467 5.4896 16.7934 5.53542 17.3368C5.53542 18.0615 5.73397 18.5924 6.13106 18.9295C6.45693 19.2165 6.78786 19.3825 7.12385 19.4277C8.35594 19.4982 9.7764 19.5334 11.3852 19.5333L12.6148 19.5333C13.9436 19.5333 15.1146 19.5107 16.1277 19.4654C16.7234 19.4654 17.1435 19.4 17.3878 19.2691C17.8715 19.0225 18.1973 18.6577 18.3653 18.1747C18.4468 18.0386 18.5028 17.1403 18.5333 15.4797L18.5333 14.8911C18.5333 14.1562 18.5104 13.5448 18.4646 13.0569C18.4646 12.3322 18.2813 11.8063 17.9148 11.4791C17.6958 11.2226 17.3496 11.0414 16.8761 10.9356C15.6542 10.8703 14.2363 10.8377 12.6224 10.8376L11.3624 10.8375ZM11.9027 6.59527L12.0478 6.61811C12.1853 6.6734 12.2541 6.78407 12.254 6.95014L12.254 9.13169C12.254 9.4134 12.1395 9.55432 11.9104 9.55446L11.9027 9.55446C11.694 9.55446 11.5896 9.44124 11.5896 9.21481L11.5896 6.88991C11.5896 6.71876 11.694 6.62055 11.9027 6.59528L11.9027 6.59527ZM13.7585 5.96134L13.7356 5.98385L13.7356 9.41838C13.7336 9.57058 13.749 9.72252 13.7814 9.87124C13.8629 10.1281 14.0334 10.2565 14.2931 10.2562C14.5833 10.2562 14.8862 10.0852 15.2019 9.74311L15.2019 10.1659L15.2248 10.1884L15.9885 10.1884L16.0114 10.1659L16.0114 5.98385L15.9885 5.96134L15.2248 5.96134L15.2019 5.98385L15.2019 9.16944C15.0186 9.37071 14.8684 9.47135 14.7513 9.47135L14.7208 9.47135C14.5986 9.47135 14.5375 9.35813 14.5375 9.1317L14.5375 5.98385L14.5146 5.96134L13.7585 5.96134ZM11.9027 5.86303C11.5871 5.86303 11.33 5.94612 11.1314 6.11231C10.8819 6.26824 10.7572 6.60038 10.7572 7.10873L10.7572 8.92018C10.7549 9.09438 10.7651 9.26852 10.7878 9.44125C10.9507 10.0149 11.3249 10.3017 11.9104 10.3016L12.2922 10.2563C12.8115 10.0904 13.0712 9.72815 13.0712 9.16947L13.0712 6.91243C13.073 6.78584 13.0496 6.66015 13.0024 6.54266C12.809 6.08947 12.4654 5.86293 11.9715 5.86304L11.9027 5.86303ZM7.82464 4.46671L7.80937 4.48194L7.93922 4.91957C8.55524 6.8823 8.86325 7.89881 8.86327 7.9691L8.86327 10.1659L8.88619 10.1884L9.74915 10.1884L9.77207 10.1659L9.77207 7.86349C9.77207 7.81814 10.1183 6.69096 10.8107 4.48193L10.8031 4.48193L10.7878 4.4667L9.89425 4.4667L9.34439 6.74624L9.29093 6.74624C9.12289 6.04179 8.97269 5.45552 8.84035 4.98743C8.76396 4.64017 8.7156 4.46659 8.69527 4.4667L7.82464 4.46671ZM12 0C18.6274 0 24.0001 5.37276 24.0001 12.0002C24.0001 18.6276 18.6274 24 12 24C5.37264 24 0 18.6276 0 12.0002C0 5.37277 5.3726 0 12 0Z" id="Shape" fill="#D4D6DF" fill-rule="evenodd" stroke="none" />
  </g>
</svg>