<svg width="496" height="320" xmlns="http://www.w3.org/2000/svg" xmlns:xlink="http://www.w3.org/1999/xlink">
    <defs>
        <path d="M8 0h480a8 8 0 0 1 8 8v304a8 8 0 0 1-8 8H20c-11.046 0-20-8.954-20-20V8a8 8 0 0 1 8-8z" id="a"/>
        <path id="c" d="M0 0h640v289.798H0z"/>
        <path id="e" d="M0 0h640v289.797H0z"/>
        <path id="g" d="M0 0h13.71v40.047H0z"/>
    </defs>
    <g fill="none" fill-rule="evenodd">
        <mask id="b" fill="#fff">
            <use xlink:href="#a"/>
        </mask>
        <use fill-opacity="0" fill="#24262D" xlink:href="#a"/>
        <g mask="url(#b)">
            <g transform="matrix(-1 0 0 1 484 42.54)">
                <g transform="translate(0 21.395)">
                    <mask id="d" fill="#fff">
                        <use xlink:href="#c"/>
                    </mask>
                    <path d="M363.072 2.27a14.202 14.202 0 0 0-1.697-.201L361.458 0c.636.033 1.269.108 1.896.222l-.282 2.048zm-9.726 1.915-.86-1.822c.56-.35 1.137-.661 1.722-.935l.681 1.92c-.522.244-1.039.522-1.543.837zm17.49 1.874L369.27 5.02l.903-1.793 1.565 1.037-.904 1.795zm-25.118 3.173-.903-1.793 1.565-1.036.903 1.793-1.565 1.036zm32.763 1.892-1.564-1.036.903-1.793 1.564 1.036-.903 1.793zm-40.41 3.172-.904-1.793 1.563-1.037.904 1.793-1.563 1.037zm48.06 1.892-1.567-1.036.904-1.793 1.566 1.036-.903 1.793zm-55.708 3.176-.903-1.795 1.564-1.037.904 1.795-1.565 1.037zm63.354 1.89-1.565-1.037.903-1.795 1.565 1.037-.903 1.795zm-71.002 3.173-.903-1.793 1.566-1.036.904 1.793-1.567 1.036zm78.65 1.893-1.565-1.037.903-1.793 1.565 1.037-.904 1.793zm-86.297 3.173-.904-1.793 1.565-1.036.903 1.793-1.564 1.036zm93.944 1.89-1.565-1.036.904-1.793 1.564 1.036-.903 1.793zM307.48 34.56l-.904-1.795 1.567-1.037.903 1.795-1.566 1.037zm109.238 1.892-1.565-1.036.904-1.795 1.564 1.036-.903 1.795zm-116.886 3.174-.903-1.793 1.564-1.037.904 1.793-1.565 1.037zm124.536 1.89-1.565-1.036.903-1.793 1.565 1.036-.903 1.793zm-132.182 3.173-.903-1.793 1.564-1.036.904 1.793-1.565 1.036zm139.828 1.893-1.565-1.037.903-1.793 1.565 1.037-.903 1.793zm-147.476 3.175-.903-1.795 1.563-1.036.903 1.795-1.563 1.036zm155.125 1.89-1.566-1.036.903-1.793 1.566 1.037-.903 1.792zM276.891 54.82l-.904-1.793 1.565-1.037.903 1.793-1.564 1.037zm170.418 1.892-1.565-1.036.904-1.793 1.564 1.036-.903 1.793zm-178.066 3.174-.903-1.793 1.564-1.037.903 1.793-1.564 1.037zm185.712 1.89-1.563-1.036.904-1.793 1.562 1.036-.903 1.793zm-193.36 3.175-.903-1.795 1.564-1.036.904 1.795-1.565 1.036zm201.01 1.893-1.565-1.037.903-1.793 1.565 1.037-.904 1.793zm-208.656 3.173-.903-1.793 1.564-1.036.904 1.793-1.565 1.036zm216.301 1.89-1.562-1.036.903-1.793 1.563 1.037-.904 1.792zM246.3 75.081l-.904-1.793 1.565-1.036.903 1.792-1.564 1.037zm231.6 1.892-1.566-1.036.903-1.793 1.566 1.036-.903 1.793zm-395.112.073L82.492 75a15.07 15.07 0 0 1 1.897-.234l.092 2.068c-.567.034-1.13.104-1.693.212zm9.733 1.842a14.156 14.156 0 0 0-1.545-.827l.67-1.923c.588.27 1.162.576 1.728.922l-.853 1.828zm146.13 1.26-.902-1.792 1.564-1.037.903 1.793-1.564 1.037zm-163.619.726-.903-1.793 1.566-1.036.903 1.793-1.566 1.036zm410.514 1.165-1.565-1.036.904-1.793 1.564 1.036-.903 1.793zm-385.399 1.89-1.565-1.036.904-1.793 1.564 1.036-.903 1.793zm130.857 1.283-.903-1.793 1.566-1.036.904 1.793-1.567 1.036zm-163.62.73-.903-1.795 1.566-1.036.904 1.795-1.567 1.036zm40.41 3.051-1.564-1.036.903-1.793 1.565 1.036-.903 1.793zm378.457 1.266-.907-1.795.276-.182c.343-.23.638-.516.876-.856l1.406 1.304a5.236 5.236 0 0 1-1.375 1.345l-.276.184zm-262.895.017-.903-1.793 1.566-1.036.904 1.793-1.567 1.036zm-163.62.73-.903-1.793 1.567-1.037.903 1.793-1.566 1.037zm532.817 2.425-.903-1.793 1.564-1.037.904 1.793-1.565 1.037zm-477.11.63-1.565-1.036.903-1.795 1.565 1.036-.904 1.795zm363.156 1.262-.903-1.793 1.566-1.036.904 1.793-1.567 1.036zm-262.889.02-.903-1.792 1.565-1.036.903 1.793-1.565 1.036zm-163.621.728-.903-1.792 1.564-1.037.903 1.793-1.564 1.036zm532.814 2.423L584 96.702l1.565-1.037.903 1.793-1.565 1.036zm-461.813.63-1.564-1.036.903-1.793 1.565 1.037-.904 1.793zm347.863 1.265-.903-1.793 1.564-1.036.904 1.793-1.565 1.036zm-262.89.019-.904-1.793 1.565-1.037.903 1.793-1.564 1.037zm-163.62.73-.903-1.796 1.562-1.036.904 1.795-1.563 1.036zm532.814 2.422-.903-1.795 1.565-1.036.903 1.795-1.565 1.036zm-446.52.63-1.564-1.036.904-1.793 1.564 1.036-.903 1.793zm332.568 1.265-.903-1.795 1.565-1.037.903 1.795-1.565 1.037zm-262.888.018-.904-1.793 1.563-1.036.904 1.793-1.563 1.036zm-163.622.728-.903-1.793 1.563-1.036.903 1.793-1.563 1.036zm532.813 2.425-.903-1.793 1.566-1.036.903 1.793-1.566 1.036zm-431.222.63-1.565-1.036.903-1.795 1.565 1.036-.903 1.795zm317.272 1.264-.904-1.792 1.565-1.037.903 1.793-1.564 1.036zm-262.889.02-.903-1.794 1.564-1.036.904 1.793-1.565 1.036zm-163.622.727-.903-1.793 1.565-1.037.903 1.793-1.565 1.037zm532.815 2.423-.903-1.793 1.564-1.037.904 1.793-1.565 1.037zm-415.93.632-1.565-1.036.903-1.793 1.565 1.036-.903 1.793zm301.982 1.264-.907-1.793 1.562-1.038.907 1.793-1.562 1.038zm-262.893.019-.903-1.793 1.565-1.036.903 1.793-1.565 1.036zm-163.621.727-.904-1.792 1.567-1.037.903 1.793-1.566 1.036zm532.816 2.426-.903-1.795 1.562-1.037.904 1.795-1.563 1.037zm-400.637.628-1.564-1.037.903-1.793 1.565 1.037-.904 1.793zm286.683 1.266-.903-1.793 1.565-1.036.903 1.793-1.565 1.036zm-262.89.019-.904-1.795 1.567-1.037.903 1.795-1.566 1.037zm-163.62.727-.903-1.793 1.566-1.036.903 1.793-1.566 1.036zm532.814 2.423-.903-1.793 1.565-1.036.903 1.793-1.565 1.036zm-384.943.249a16.087 16.087 0 0 1-1.796-.728l.695-1.915c.53.253 1.065.47 1.61.655l-.51 1.988zm7.34.58-.265-2.048a14.443 14.443 0 0 0 1.673-.393l.457 2.004c-.614.184-1.24.334-1.865.437zm263.653 1.068-.903-1.793 1.565-1.036.903 1.792-1.565 1.037zm-426.51.744-.903-1.793 1.564-1.036.904 1.793-1.565 1.036zm532.815 2.425-.904-1.793 1.563-1.036.903 1.793-1.562 1.036zm-113.954 1.895-.904-1.793 1.567-1.037.903 1.793-1.566 1.037zM.266 133.283a6.418 6.418 0 0 1-.233-2.495l1.794.236c-.013.137-.02.278-.02.419 0 .4.056.796.168 1.169l-1.71.671zm531.105.67-.903-1.793 1.566-1.036.903 1.792-1.566 1.037zm-113.95 1.896-.904-1.793 1.565-1.036.903 1.793-1.564 1.036zm106.304 3.17-.903-1.793 1.564-1.037.904 1.793-1.565 1.037zm-516.106.73-1.565-1.037.904-1.795 1.564 1.036-.903 1.795zm402.156 1.164-.903-1.793 1.562-1.036.904 1.793-1.563 1.036zm106.302 3.17-.903-1.794 1.565-1.036.903 1.793-1.565 1.036zm-500.81.73-1.565-1.035.903-1.793 1.565 1.036-.903 1.793zm386.858 1.166-.903-1.793 1.565-1.036.903 1.792-1.565 1.037zm106.305 3.171-.904-1.793 1.565-1.036.903 1.793-1.564 1.036zm-485.517.728-1.565-1.037.903-1.793 1.565 1.037-.903 1.793zm371.566 1.167-.903-1.793 1.565-1.037.903 1.793-1.565 1.037zm106.305 3.169-.904-1.793 1.563-1.036.903 1.792-1.562 1.037zm-470.224.731-1.564-1.036.903-1.795 1.565 1.036-.904 1.795zm358.022 1.713-1.795-.208c.074-.845.314-1.67.695-2.385l1.541 1.08a3.95 3.95 0 0 0-.44 1.513zm104.552 2.622-.903-1.793 1.564-1.037.904 1.793-1.565 1.037zm-454.928.73-1.563-1.037.904-1.793 1.563 1.036-.904 1.793zm354.66 4.319-1.565-1.037.904-1.793 1.564 1.037-.903 1.793zm92.622.016-.903-1.793 1.563-1.036.903 1.793-1.563 1.036zm-439.634.73-1.563-1.036.903-1.793 1.563 1.036-.903 1.793zm354.66 4.317-1.565-1.036.904-1.793 1.564 1.037-.903 1.792zm77.325.02-.904-1.794 1.567-1.036.903 1.793-1.566 1.036zm-424.336.729-1.564-1.037.903-1.795 1.565 1.037-.904 1.795zm354.659 4.32-1.565-1.037.903-1.795 1.565 1.036-.903 1.795zm62.03.016-.903-1.795 1.565-1.036.903 1.795-1.564 1.036zm-409.04.73-1.567-1.037.903-1.793 1.567 1.037-.904 1.793zm354.655 4.317-1.564-1.036.903-1.793 1.565 1.036-.904 1.793zm46.738.019-.903-1.793 1.564-1.037.903 1.793-1.564 1.037zm-393.746.727-1.566-1.036.903-1.793 1.566 1.036-.903 1.793zm354.658 4.32-1.565-1.037.904-1.792 1.564 1.036-.903 1.793zm31.44.016-.903-1.793 1.564-1.036.904 1.793-1.565 1.036zm-378.45.732-1.567-1.036.904-1.793 1.566 1.036-.903 1.793zm354.69 4.328c-.177-.108-.352-.22-.525-.334l-1.074-.713.904-1.793 1.075.711c.157.104.312.203.468.299l-.848 1.83zm16.083.012-.852-1.826c.166-.103.332-.207.495-.315l1.048-.694.903 1.795-1.048.694c-.18.118-.363.234-.546.346zm-363.127.724-1.565-1.037.903-1.793 1.565 1.037-.903 1.793zm355.015 1.565c-.294 0-.59-.01-.888-.031l.104-2.069c.288.017.571.035.86.027.286 0 .566-.01.848-.027l.094 2.069c-.338.022-.683.03-1.018.03zM91.74 195.465l-1.564-1.036.903-1.793 1.565 1.037-.904 1.792zm7.648 5.068-1.564-1.036.903-1.793 1.564 1.036-.903 1.793zm7.648 5.064-1.567-1.036.904-1.793 1.566 1.036-.903 1.793zm7.646 5.068-1.565-1.037.904-1.795 1.564 1.037-.903 1.795zm7.648 5.064-1.565-1.037.903-1.793 1.565 1.037-.903 1.793zm7.647 5.065-1.564-1.036.903-1.793 1.565 1.036-.904 1.793zm7.648 5.066-1.563-1.036.904-1.795 1.562 1.036-.903 1.795zm6.002 6.782-1.716-.645a4.06 4.06 0 0 0 .13-1.591l1.792-.264a6.396 6.396 0 0 1-.206 2.5zm-7.33 6.504-.903-1.793 1.566-1.036.904 1.793-1.567 1.036zm-7.646 5.064-.903-1.793 1.564-1.036.904 1.793-1.565 1.036zm-7.648 5.066-.903-1.793 1.565-1.036.903 1.792-1.565 1.037zm-7.647 5.066-.904-1.793 1.565-1.037.903 1.793-1.564 1.037zm-7.646 5.063-.904-1.793 1.565-1.036.903 1.793-1.564 1.036zm-7.65 5.066-.903-1.793 1.566-1.036.904 1.793-1.567 1.036zm-7.648 5.066-.903-1.793 1.567-1.036.903 1.792-1.567 1.037zm-7.645 5.066-.904-1.793 1.563-1.037.903 1.793-1.562 1.037zm-7.648 5.065-.904-1.795 1.563-1.036.904 1.795-1.563 1.036zm-7.648 5.066-.903-1.793 1.564-1.036.904 1.793-1.565 1.036zm-7.648 5.064-.903-1.793 1.565-1.036.903 1.792-1.565 1.037z" fill="#73CFFE" mask="url(#d)"/>
                </g>
                <mask id="f" fill="#fff">
                    <use xlink:href="#e"/>
                </mask>
                <path d="M363.074 2.27a14.202 14.202 0 0 0-1.697-.202L361.46 0c.636.033 1.269.107 1.895.221l-.281 2.048zm-9.728 1.914-.86-1.821c.56-.35 1.137-.662 1.722-.935l.681 1.92c-.522.244-1.037.521-1.543.836zm17.49 1.872L369.27 5.02l.903-1.793 1.565 1.036-.904 1.793zM345.717 9.23l-.903-1.792L346.38 6.4l.903 1.793-1.565 1.036zm32.763 1.893-1.563-1.036.904-1.793 1.562 1.036-.903 1.793zm-40.41 3.173-.904-1.793 1.565-1.036.903 1.793-1.564 1.036zm48.06 1.893-1.565-1.037.903-1.793 1.565 1.037-.903 1.793zm-55.708 3.171-.903-1.793 1.564-1.036.904 1.793-1.565 1.036zm63.354 1.894-1.565-1.036.903-1.793 1.565 1.037-.903 1.792zm-71.002 3.172-.903-1.793 1.566-1.037.904 1.793-1.567 1.037zm78.651 1.894-1.566-1.036.903-1.795 1.567 1.036-.904 1.795zm-86.297 3.172-.903-1.793 1.563-1.037.903 1.793-1.563 1.037zm93.943 1.894-1.565-1.036.904-1.793 1.564 1.036-.903 1.793zM307.48 34.558l-.904-1.795 1.567-1.036.903 1.795-1.566 1.036zm109.24 1.893-1.565-1.037.904-1.795 1.564 1.037-.903 1.795zm-116.886 3.171-.904-1.793 1.565-1.036.903 1.793-1.564 1.036zm124.534 1.895-1.565-1.037.903-1.793 1.565 1.037-.903 1.793zm-132.182 3.17-.903-1.792 1.564-1.036.904 1.792-1.565 1.037zm139.828 1.893-1.563-1.036.903-1.793 1.563 1.036-.903 1.793zm-147.476 3.174-.903-1.795 1.565-1.037.903 1.795-1.565 1.037zm155.125 1.894-1.566-1.036.903-1.793 1.566 1.036-.903 1.793zM276.891 54.82l-.904-1.793 1.565-1.036.903 1.793-1.564 1.036zm170.418 1.893-1.563-1.037.904-1.793 1.562 1.037-.903 1.793zm-178.066 3.171-.903-1.793 1.566-1.036.903 1.793-1.566 1.036zm185.714 1.895-1.565-1.037.904-1.793 1.564 1.037-.903 1.793zm-193.36 3.173-.903-1.795 1.562-1.036.904 1.795-1.563 1.036zm201.007 1.892-1.564-1.036.903-1.793 1.565 1.036-.904 1.793zM253.95 70.015l-.903-1.793 1.564-1.037.904 1.793-1.565 1.037zm216.303 1.892-1.564-1.036.903-1.793 1.565 1.036-.904 1.793zm-223.95 3.173-.904-1.793 1.563-1.036.903 1.793-1.563 1.036zM477.9 76.973l-1.566-1.037.903-1.792 1.566 1.036-.903 1.793zM82.494 74.997a15.07 15.07 0 0 1 1.897-.234l.09 2.069c-.565.033-1.13.103-1.693.211l-.294-2.046zm10.027 3.891a14.156 14.156 0 0 0-1.545-.827l.67-1.924c.588.27 1.162.577 1.728.923l-.853 1.828zm146.133 1.258-.904-1.793 1.565-1.036.903 1.793-1.564 1.036zm-163.622.728-.903-1.793 1.566-1.037.903 1.793-1.566 1.037zm410.514 1.165-1.563-1.037.903-1.793 1.563 1.037-.903 1.793zm-385.397 1.89-1.567-1.036.904-1.793 1.566 1.036-.903 1.793zm130.857 1.283-.903-1.793 1.564-1.036.904 1.793-1.565 1.036zm-163.622.727-.903-1.795 1.566-1.036.904 1.795-1.567 1.036zm40.41 3.056-1.564-1.037.903-1.793 1.565 1.037-.903 1.793zm378.457 1.264-.907-1.795.276-.182c.345-.228.638-.514.876-.854l1.406 1.303c-.38.54-.844.991-1.377 1.346l-.274.182zm-262.893.017-.903-1.793 1.564-1.037.904 1.793-1.565 1.037zm-163.621.73-.904-1.794 1.567-1.036.903 1.793-1.566 1.036zm55.705 3.054-1.564-1.036.903-1.795 1.565 1.036-.904 1.795zM478.6 95.323l-.903-1.793 1.566-1.037.904 1.793-1.567 1.037zm-262.889.02-.903-1.792 1.565-1.037.903 1.793-1.565 1.036zm-163.62.726-.903-1.793 1.565-1.036.903 1.793-1.564 1.036zm71 3.057-1.564-1.036.903-1.793 1.565 1.036-.904 1.793zm347.863 1.263-.903-1.793 1.563-1.037.903 1.793-1.563 1.037zm-262.888.018-.904-1.793 1.563-1.036.903 1.793-1.562 1.036zm-163.622.73-.903-1.795 1.564-1.037.904 1.795-1.565 1.037zm532.814 2.423-.903-1.795 1.563-1.037.903 1.795-1.563 1.037zm-446.52.63-1.564-1.036.904-1.793 1.564 1.036-.903 1.793zm332.568 1.264-.903-1.795 1.565-1.036.903 1.795-1.565 1.036zm-262.888.019-.904-1.793 1.565-1.036.903 1.793-1.564 1.036zm-163.622.727-.903-1.792 1.564-1.037.904 1.793-1.565 1.036zm532.813 2.424-.903-1.793 1.566-1.037.903 1.793-1.566 1.037zm-431.222.634-1.565-1.037.903-1.795 1.565 1.037-.903 1.795zm317.272 1.262-.904-1.793 1.565-1.036.903 1.793-1.564 1.036zm-262.889.019-.903-1.793 1.564-1.037.904 1.793-1.565 1.037zm-163.622.727-.903-1.793 1.565-1.036.903 1.793-1.565 1.036zm532.815 2.423-.903-1.793 1.562-1.036.904 1.793-1.563 1.036zm-415.929.632-1.564-1.036.903-1.793 1.565 1.037-.904 1.792zm301.977 1.263-.903-1.793 1.564-1.037.904 1.793-1.565 1.037zm-262.889.02-.903-1.792 1.565-1.037.903 1.793-1.565 1.037zm-163.62.728-.903-1.793 1.565-1.036.903 1.793-1.565 1.036zm532.813 2.423-.903-1.795 1.564-1.036.904 1.795-1.565 1.036zm-400.635.632-1.562-1.036.903-1.793 1.563 1.036-.904 1.793zm286.683 1.265-.903-1.793 1.566-1.037.904 1.793-1.567 1.037zm-262.888.018-.904-1.795 1.565-1.036.903 1.795-1.564 1.036zm-163.62.728-.904-1.793 1.565-1.036.903 1.792-1.564 1.037zm532.812 2.423-.903-1.793 1.565-1.036.903 1.792-1.565 1.037zm-384.941.249a15.948 15.948 0 0 1-1.796-.728l.695-1.915c.528.253 1.064.47 1.61.655l-.51 1.988zm7.338.58-.265-2.048a14.443 14.443 0 0 0 1.673-.394l.457 2.005c-.614.184-1.24.333-1.865.437zm263.652 1.065-.904-1.793 1.565-1.036.903 1.793-1.564 1.036zm-426.509.747-.903-1.793 1.564-1.037.904 1.793-1.565 1.037zm532.813 2.423-.904-1.793 1.565-1.037.903 1.793-1.564 1.037zm-113.952 1.896-.904-1.793 1.567-1.036.903 1.793-1.566 1.036zM.266 133.285a6.535 6.535 0 0 1-.233-2.498l1.794.237a4.142 4.142 0 0 0 .148 1.59l-1.71.671zm531.105.667-.903-1.793 1.566-1.036.903 1.793-1.566 1.036zm-113.95 1.895-.904-1.793 1.563-1.036.904 1.792-1.563 1.037zm106.304 3.17-.903-1.794 1.562-1.036.904 1.793-1.563 1.036zm-516.106.73-1.565-1.036.904-1.795 1.564 1.037-.903 1.795zm402.154 1.166-.903-1.793 1.564-1.037.904 1.793-1.565 1.037zm106.304 3.169-.903-1.793 1.565-1.036.903 1.792-1.565 1.037zm-500.81.73-1.565-1.037.903-1.793 1.565 1.037-.903 1.792zm386.858 1.166-.903-1.795 1.563-1.036.903 1.795-1.563 1.036zm106.305 3.17-.904-1.793 1.563-1.037.903 1.793-1.562 1.037zm-485.517.73-1.563-1.037.903-1.793 1.563 1.036-.903 1.793zm371.565 1.166-.904-1.793 1.565-1.036.903 1.793-1.564 1.036zm106.304 3.17-.904-1.794 1.565-1.036.903 1.793-1.564 1.036zm-470.222.729-1.563-1.036.904-1.795 1.563 1.036-.904 1.795zm358.02 1.716-1.795-.207c.074-.846.314-1.67.695-2.386l1.541 1.08c-.24.452-.392.974-.44 1.513zm104.554 2.618-.903-1.793 1.566-1.036.903 1.793-1.566 1.036zm-454.926.732-1.565-1.037.904-1.793 1.564 1.037-.903 1.793zm354.658 4.32-1.565-1.037.904-1.793 1.564 1.036-.903 1.793zm92.62.016-.903-1.793 1.565-1.036.903 1.793-1.565 1.036zm-439.63.727-1.565-1.036.903-1.793 1.565 1.037-.903 1.792zm354.658 4.32-1.567-1.036.904-1.793 1.566 1.036-.903 1.793zm77.325.017-.904-1.793 1.567-1.037.903 1.793-1.566 1.037zm-424.336.731-1.564-1.036.903-1.795 1.565 1.036-.904 1.795zm354.659 4.318-1.565-1.037.903-1.792 1.565 1.036-.903 1.793zm62.03.018-.903-1.795 1.563-1.036.903 1.795-1.562 1.036zm-409.04.728-1.565-1.036.903-1.793 1.565 1.036-.904 1.793zm354.655 4.32-1.564-1.037.903-1.793 1.565 1.037-.904 1.793zm46.738.016-.903-1.793 1.564-1.036.903 1.793-1.564 1.036zm-393.746.73-1.565-1.037.904-1.792 1.564 1.036-.903 1.793zm354.658 4.317-1.565-1.036.904-1.793 1.564 1.036-.903 1.793zm31.44.019-.903-1.793 1.563-1.036.903 1.793-1.563 1.036zm-378.45.73-1.565-1.037.903-1.793 1.565 1.037-.903 1.793zm354.69 4.327c-.177-.107-.352-.22-.525-.333l-1.074-.71.904-1.796 1.075.709c.157.105.312.205.468.3l-.848 1.83zm16.082.015-.853-1.826 1.545-1.012.903 1.795-1.595 1.043zm-363.126.723-1.563-1.036.903-1.793 1.563 1.036-.903 1.793zm355.015 1.565c-.294 0-.59-.01-.888-.03l.104-2.07c.288.017.571.034.86.028.286 0 .566-.01.844-.027l.098 2.068c-.338.023-.682.025-1.018.031zM91.74 195.465l-1.562-1.036.903-1.793 1.563 1.036-.904 1.793zm7.648 5.068-1.564-1.036.903-1.793 1.564 1.036-.903 1.793zm7.648 5.064-1.567-1.037.904-1.793 1.566 1.037-.903 1.793zm7.648 5.067-1.567-1.036.904-1.795 1.566 1.036-.903 1.795zm7.647 5.064-1.566-1.036.903-1.793 1.567 1.036-.904 1.793zm7.646 5.066-1.564-1.036.903-1.793 1.565 1.036-.904 1.793zm7.648 5.066-1.563-1.037.904-1.795 1.562 1.037-.903 1.795zm6.002 6.782-1.716-.645a4.075 4.075 0 0 0 .13-1.592l1.792-.263a6.4 6.4 0 0 1-.206 2.5zm-7.33 6.502-.903-1.793 1.564-1.036.904 1.792-1.565 1.037zm-7.646 5.064-.903-1.793 1.563-1.037.903 1.793-1.563 1.037zm-7.648 5.065-.903-1.793 1.563-1.036.903 1.793-1.563 1.036zm-7.647 5.066-.904-1.793 1.565-1.036.903 1.793-1.564 1.036zm-7.648 5.066-.903-1.793 1.566-1.036.903 1.793-1.566 1.036zm-7.648 5.066-.903-1.795 1.566-1.037.904 1.795-1.567 1.037zm-7.648 5.065-.903-1.792 1.567-1.037.903 1.793-1.567 1.036zm-7.645 5.064-.904-1.793 1.563-1.036.903 1.793-1.562 1.036zm-7.648 5.068-.904-1.795 1.563-1.036.904 1.795-1.563 1.036zm-7.648 5.064-.903-1.793 1.563-1.037.903 1.793-1.563 1.037zm-7.648 5.065-.903-1.792 1.565-1.037.903 1.793-1.565 1.036z" fill="#CBEC4C" mask="url(#f)"/>
            </g>
        </g>
        <g mask="url(#b)">
            <path d="M287.653 165.98c0-28.663-24.97-51.898-55.77-51.898-30.802 0-55.771 23.235-55.771 51.898 0 28.662 24.969 51.898 55.77 51.898.63 0 1.258-.014 1.884-.033l8.406 12.016 27.963-26.119a54.04 54.04 0 0 0 2.45-2.289l.074-.068h-.005c9.303-9.273 14.999-21.72 14.999-35.405" fill="#C4E838"/>
            <path d="M307.433 215.956c3.474-12.226 6.408-24.602 7.949-37.233a173.799 173.799 0 0 0 1.274-19.435c.06-6.486-.563-12.9-2.27-19.173-3.047-11.196-8.982-21.451-16.506-30.227-7.381-8.609-16.6-15.755-26.728-20.85-10.867-5.465-22.777-8.674-34.928-9.332-12.119-.655-24.496 1.342-35.769 5.845-10.7 4.274-20.574 10.446-28.93 18.401-8.297 7.897-14.906 17.446-19.323 28.01a65.434 65.434 0 0 0-4.659 17.968c-.716 6.352-.468 12.792-.053 19.157.832 12.765 3.116 25.415 6.347 37.783a442.894 442.894 0 0 0 2.493 9.086c.417 1.465 2.08 2.523 3.586 2.036 1.493-.484 2.482-2.015 2.036-3.586-1.71-6.012-3.337-12.047-4.677-18.153a208.38 208.38 0 0 1-1.769-8.982 192.726 192.726 0 0 1-1.065-6.86c.01.07.045.337 0-.007a150.453 150.453 0 0 1-.238-1.88 173.016 173.016 0 0 1-1.263-18.534c-.041-3.145.044-6.294.364-9.423.038-.372.082-.743.124-1.115.005-.039.317-2.131.455-2.878.276-1.493.608-2.975.995-4.443a66.222 66.222 0 0 1 2.785-8.236c.22-.535.076-.184.028-.07a64.248 64.248 0 0 1 .61-1.394 75.307 75.307 0 0 1 2.715-5.439 78.407 78.407 0 0 1 6.316-9.714c.03-.039.357-.466.193-.253-.198.255.155-.197.197-.25a80.495 80.495 0 0 1 2.284-2.774c3.548-4.121 7.508-7.859 11.776-11.228.06-.047.435-.336.072-.057a74.79 74.79 0 0 1 1.114-.841 85.206 85.206 0 0 1 5.176-3.556 87.74 87.74 0 0 1 10.805-5.84c.595-.27 1.195-.529 1.793-.79.309-.135.002-.002-.052.02a93.12 93.12 0 0 1 1.593-.648 81.406 81.406 0 0 1 8.396-2.797 82.968 82.968 0 0 1 9.7-2.043c.124-.019 1.044-.15.564-.085a82.973 82.973 0 0 1 6.582-.607 82.014 82.014 0 0 1 14.302.5c.13.016.847.106.399.047a84.903 84.903 0 0 1 20.896 5.646c.055.023.615.258.333.138-.249-.106.197.085.196.085a85.43 85.43 0 0 1 5.087 2.395 84.862 84.862 0 0 1 12.076 7.517c.261.195.52.391.78.588.377.287-.301-.236.073.055l.44.345a84.49 84.49 0 0 1 6.203 5.402 82.086 82.086 0 0 1 7.846 8.692c.105.133.25.323.062.079a82.694 82.694 0 0 1 2.485 3.418 78.583 78.583 0 0 1 4.28 6.952 73.515 73.515 0 0 1 2.9 5.942c.028.062.255.599.13.299-.113-.27.064.158.07.171l.263.652a66.38 66.38 0 0 1 2.616 7.955 62.99 62.99 0 0 1 1.341 6.615c.008.055.097.693.057.391a71.886 71.886 0 0 1 .17 1.486c.635 6.238.317 12.629-.121 18.871a174.936 174.936 0 0 1-1.055 10.516l-.086.622a186.165 186.165 0 0 1-1.091 6.814c-1.088 6.07-2.464 12.083-4.011 18.05a388.032 388.032 0 0 1-2.354 8.634c-.417 1.466.51 3.238 2.035 3.586 1.551.353 3.14-.466 3.586-2.036" fill="#6A6F7A"/>
            <path d="M237.976 268.551c13.68-2.093 26.76-7.622 37.833-15.916 10.744-8.047 19.737-18.421 25.784-30.436 3.498-6.95 6.03-14.377 7.383-22.042.182-1.032-.279-2.094-1.358-2.39-.938-.258-2.207.318-2.39 1.357-2.294 13.001-7.99 25.308-16.289 35.569-8.14 10.065-18.56 18.282-30.333 23.685-6.865 3.151-14.2 5.284-21.664 6.426-1.038.159-1.611 1.463-1.357 2.39.305 1.11 1.349 1.517 2.39 1.357" fill="#676C76"/>
            <path d="m320.98 180.345-8.067 41.498c-1.08 5.556-6.46 9.184-12.02 8.104-5.554-1.08-9.183-6.46-8.104-12.015l8.067-41.499c1.08-5.56 6.46-9.188 12.016-8.109 2.778.54 5.08 2.155 6.543 4.332a10.21 10.21 0 0 1 1.565 7.689" fill="#23569D"/>
            <g transform="translate(313.055 181.069)">
                <mask id="h" fill="#fff">
                    <use xlink:href="#g"/>
                </mask>
                <path d="M13.176 21.828C11.526 30.309 6.368 37.017 0 40.047L7.784 0c4.77 5.194 7.04 13.347 5.392 21.828" fill="#3384F7" mask="url(#h)"/>
            </g>
            <path d="m142.785 180.345 8.066 41.498c1.08 5.556 6.46 9.184 12.02 8.104 5.555-1.08 9.184-6.46 8.104-12.015l-8.067-41.499c-1.08-5.56-6.46-9.188-12.016-8.109a10.212 10.212 0 0 0-6.543 4.332 10.211 10.211 0 0 0-1.564 7.689" fill="#23569D"/>
            <path d="M137.534 202.896c1.649 8.482 6.808 15.19 13.176 18.22l-7.785-40.047c-4.769 5.194-7.04 13.346-5.39 21.827" fill="#3384F7"/>
            <path d="M237.435 165.98a5.553 5.553 0 1 1-11.107 0 5.553 5.553 0 0 1 11.107 0M259.262 165.98a5.553 5.553 0 1 1-11.106 0 5.553 5.553 0 0 1 11.106 0M204.501 165.98a5.553 5.553 0 1 0 11.107 0 5.553 5.553 0 0 0-11.107 0" fill="#24262D"/>
        </g>
    </g>
</svg>
