<svg width="111" height="81" viewBox="0 0 111 81" xmlns="http://www.w3.org/2000/svg">
    <g fill="none" fill-rule="evenodd">
        <path d="m9.76 56.36 26.754 18.106a37 37 0 0 0 42.464-.693l24.45-17.736c7.152-5.19 8.744-15.194 3.555-22.347a16 16 0 0 0-2.655-2.851L77.997 8.7a35 35 0 0 0-40.062-3.499L11.007 20.795C.97 26.607-2.455 39.455 3.357 49.491a21 21 0 0 0 6.402 6.869z" fill="#F4F5F8"/>
        <path d="M66.318 29.408c1.58.64 3.044.722 4.389.249 1.345-.473 2.322-1.466 2.933-2.978.527-1.304.58-2.48.156-3.53-.422-1.05-1.191-1.834-2.306-2.349l.21-.52L75.896 19l1.034-2.56-8.946-3.614-.833 2.06 6.18 2.496-.202.5-4.176 1.29-.89 2.205c.394.063.847.198 1.36.405.93.375 1.548.912 1.856 1.609.307.697.29 1.468-.052 2.314-.342.846-.875 1.406-1.598 1.678-.723.273-1.535.227-2.437-.137-.79-.32-1.368-.799-1.73-1.438-.364-.639-.432-1.34-.204-2.103l-2.434-.983c-.472 1.326-.392 2.617.238 3.872s1.716 2.193 3.256 2.815z" fill="#3384F7" fill-rule="nonzero"/>
        <path fill="#3384F7" d="M56.859 35.047h5v24.395h-5z"/>
        <path d="M75.74 33.816H47.725l12.764-10.76a1.016 1.016 0 0 0 .122-1.431l-4.685-5.558a1.015 1.015 0 0 0-1.43-.122l-8.589 7.24a5.034 5.034 0 0 0-.494-5.026 5.02 5.02 0 0 0-7-1.125 5.03 5.03 0 0 0-1.766 5.801l1.484 4.013-3.704-2.141a5.03 5.03 0 0 0-6.016.758 4.98 4.98 0 0 0-1.506 3.53 4.98 4.98 0 0 0 1.43 3.56 5.022 5.022 0 0 0 4.871 1.336l-7.985 6.731a1.016 1.016 0 0 0-.122 1.432l4.685 5.557a1.026 1.026 0 0 0 1.431.122l5.223-4.403v15.36c0 .561.455 1.016 1.016 1.016H75.74c.56 0 1.015-.455 1.015-1.016V34.832c0-.561-.455-1.016-1.015-1.016zm-34.026 2.41-3.376-4.005 5.656-4.768 3.376 4.004-5.656 4.768zm13.313-18.073 3.375 4.004-9.479 7.991-3.376-4.004 9.48-7.991zM39.6 18.68a2.981 2.981 0 0 1 4.165.669 2.992 2.992 0 0 1-.084 3.606l-3.296 4.138-1.834-4.962a2.992 2.992 0 0 1 1.05-3.45zm-9.815 12.454a2.986 2.986 0 0 1 .045-4.217 2.992 2.992 0 0 1 3.578-.451l4.58 2.647-4.635 2.549a2.991 2.991 0 0 1-3.568-.528zm.895 14.392-3.375-4.005 9.479-7.991 3.376 4.005-9.48 7.99zm7.788-3.908 6.847-5.772.026.001h5.525v21.828H38.469V41.618zm36.256 16.057H62.327v-6.348a1.016 1.016 0 1 0-2.031 0v6.348h-7.398V35.847h7.398v15.665h2.03V35.847h12.399v21.828z" fill="#000" fill-rule="nonzero"/>
    </g>
</svg>
