<?xml version="1.0" encoding="UTF-8"?>
<svg width="80px" height="80px" viewBox="0 0 80 80" version="1.1" xmlns="http://www.w3.org/2000/svg" xmlns:xlink="http://www.w3.org/1999/xlink">
    <title>2152D946-397B-4697-A829-598B6BE2FFAE</title>
    <g id="Page-1" stroke="none" stroke-width="1" fill="none" fill-rule="evenodd">
        <g id="Index_Rating" transform="translate(-644.000000, -1413.000000)" fill-rule="nonzero">
            <g id="Icons/80x80/rating" transform="translate(643.999357, 1413.000000)">
                <path d="M7.65189112,18.161678 L7.74749298,18.1706214 C8.33697614,18.3390452 8.58961179,19.0127403 8.50539991,19.7706472 C8.0843405,21.9601561 8.00012862,23.0549105 8.00012862,25.1602075 C8.42118803,24.4023006 8.84224743,23.6443937 9.51594247,23.0549105 C11.0317563,21.6233085 12.9686296,21.6233085 13.9791721,21.7075204 C14.3160196,21.7917323 14.5686553,22.1285798 14.4002315,22.5496392 C13.9791721,23.5601818 13.3054771,25.5812669 11.8738751,27.0128689 C10.6949088,28.2760471 9.17909495,28.7813184 8.16855238,29.033954 C8.33697614,30.9708272 8.50539991,31.8971579 8.92645931,33.7498193 C9.09488307,32.9077005 9.34751871,32.0655817 9.85278999,31.3918866 C11.0317563,29.707649 12.8844177,29.2865896 13.8949602,29.1181659 C14.2318078,29.033954 14.4844434,29.3708015 14.4844434,29.7918609 C14.3160196,30.8024035 14.063384,32.9077005 13.0528414,34.5919381 C12.1265108,36.1077519 10.7791207,37.0340826 9.85278999,37.455142 C10.526485,39.2235915 10.8633326,40.1499222 11.7054514,41.8341598 C11.7054514,40.992041 11.7896632,40.0657103 12.1265108,39.3078034 C12.8844177,37.3709301 14.5686553,36.4445995 15.494986,36.1077519 C15.8318335,35.9393282 16.168681,36.1919638 16.2528929,36.6130232 C16.4213166,37.7077777 16.5897404,39.7288628 16.0002572,41.5815242 C15.494986,43.1815499 14.4002315,44.3605162 13.5581127,45.0342112 C14.5686553,46.634237 15.1581384,47.3921439 16.3371048,48.8237459 C16.168681,47.9816271 16.0002572,47.1395083 16.168681,46.2973895 C16.5055285,44.2763043 17.9371305,43.0131261 18.7792493,42.423643 C19.0318849,42.2552192 19.4529443,42.423643 19.6213681,42.7604905 C20.0424275,43.771033 20.7161225,45.6236944 20.5476988,47.6447795 C20.379275,49.413229 19.6213681,50.7606191 18.9476731,51.6027379 C20.2950631,52.950128 21.0529701,53.5396112 22.5687839,54.7185775 C22.1477245,53.9606706 21.8950889,53.1185518 21.810877,52.276433 C21.6424532,50.1711359 22.7372077,48.6553221 23.4109027,47.8974152 C23.6635384,47.5605677 24.0845978,47.6447795 24.3372334,47.9816271 C24.9267166,48.8237459 26.021471,50.5921953 26.3583185,52.5290686 C26.6109542,54.2133062 26.1898948,55.8133319 25.7688354,56.7396626 C27.3688611,57.7502052 28.2951918,58.1712646 30.0636412,58.9291715 C29.4741581,58.2554764 28.9688868,57.5817814 28.7162512,56.7396626 C28.0425561,54.7185775 28.800463,52.950128 29.2215224,52.1080092 C29.3899462,51.7711617 29.8952175,51.7711617 30.1478531,52.0237973 C30.9899719,52.7817042 32.5057858,54.2133062 33.3479046,56.0659676 C34.1058115,57.6659933 34.0215996,59.266019 33.8531759,60.2765616 C34.6952947,60.5291972 35.1163541,60.697621 35.9584729,60.8660447 C36.6321679,61.1186804 37.2216511,61.6239517 37.2216511,62.2976467 C37.1374392,62.8871299 36.3795323,63.1397655 35.6216253,62.9713417 C34.6952947,62.802918 34.2742353,62.6344942 33.3479046,62.3818586 C32.9268452,63.3924011 32.0005145,64.7397912 30.0636412,65.4134863 C27.7899205,66.1713932 24.8425047,65.4976981 23.3266908,64.9924269 C22.8214195,64.8240031 22.484572,64.3187318 22.6529958,63.9818843 C23.1582671,63.1397655 24.4214453,61.7081635 26.6109542,61.2028923 C27.5372848,61.0344685 28.4636155,60.9502566 29.3899462,60.9502566 C27.5372848,60.1081378 26.6109542,59.6028665 24.8425047,58.592324 C24.2530215,59.4344428 23.0740552,60.6134091 21.0529701,60.7818329 C18.6950374,61.0344685 16.0844691,59.7712903 14.737079,58.9291715 C14.2318078,58.6765358 14.063384,58.0870527 14.3160196,57.834417 C14.9897147,57.160722 16.5897404,56.0659676 18.7792493,56.0659676 C19.70558,56.0659676 20.6319107,56.2343913 21.4740295,56.4028151 C19.8740037,55.1396369 19.1160968,54.5501537 17.6844949,53.1185518 C16.8423761,53.7922468 15.4107741,54.6343656 13.4739008,54.38173 C11.2001801,54.1290943 8.92645931,52.276433 7.83170486,51.1816785 C7.41064546,50.7606191 7.32643358,50.1711359 7.6632811,50.0027122 C8.50539991,49.5816528 10.2738494,48.8237459 12.4633583,49.3290171 C13.389689,49.4974409 14.2318078,49.8342884 14.9897147,50.2553478 C13.7265365,48.739534 13.1370533,47.8974152 12.0422989,46.2131776 C11.1159682,46.634237 9.51594247,47.1395083 7.6632811,46.4658132 C5.5579841,45.6236944 3.78953461,43.3499736 2.94741581,42.0025836 C2.61056829,41.4973123 2.69478017,40.9078291 3.03162769,40.8236172 C3.95795837,40.5709816 5.81061974,40.318346 7.83170486,41.2446766 C8.67382367,41.665736 9.43173059,42.1710073 10.1054256,42.7604905 C9.17909495,40.9078291 8.84224743,40.0657103 8.16855238,38.1288371 C7.15800982,38.3814727 5.47377222,38.4656846 3.87374649,37.3709301 C1.93687325,36.0235401 0.757906922,33.3287599 0.252635641,31.812946 C0.0842118803,31.2234629 0.336847521,30.6339797 0.673695042,30.6339797 C1.60002572,30.6339797 3.53689897,30.8024035 5.22113658,32.2340055 C5.9790435,32.8234886 6.56852666,33.5813955 7.07379794,34.2550906 C6.56852666,32.3182173 6.4001029,31.3076748 6.23167914,29.2865896 C5.1369247,29.2023778 3.53689897,28.9497421 2.18950889,27.4339283 C0.673695042,25.6654788 0.0842118803,22.6338511 0,21.0338254 C0,20.4443422 0.336847521,19.8548591 0.673695042,19.9390709 C1.60002572,20.1074947 3.36847521,20.7811897 4.71586529,22.6338511 C5.22113658,23.391758 5.64219598,24.2338768 5.9790435,25.0759956 C5.9790435,22.8864867 6.14746726,21.7075204 6.48431478,19.4337997 C6.65273854,18.5916809 7.2422217,18.0864096 7.74749298,18.1706214 Z M72.2537933,17.9179858 C72.8432764,17.8337739 73.3485477,18.3390452 73.5169715,19.181164 C73.853819,21.4548848 74.0222427,22.5496392 74.0222427,24.82336 C74.3590903,23.9812412 74.7801497,23.1391224 75.2854209,22.3812155 C76.5485991,20.5285541 78.3170486,19.8548591 79.3275912,19.6864353 C79.6644387,19.6864353 80.0012862,20.1917066 80.0012862,20.7811897 C79.9170744,22.4654273 79.3275912,25.4128432 77.8117774,27.1812926 C76.4643873,28.6971065 74.7801497,29.033954 73.7696071,29.033954 C73.5169715,31.0550391 73.3485477,32.0655817 72.9274883,34.0024549 C73.4327596,33.244548 74.1064546,32.570853 74.7801497,31.9813698 C76.4643873,30.5497678 78.3170486,30.2971322 79.3275912,30.3813441 C79.6644387,30.465556 79.9170744,30.9708272 79.8328625,31.3918866 C79.3275912,32.9077005 78.1486249,35.6866925 76.2117516,36.9498707 C74.6117259,38.0446252 72.9274883,37.9604133 71.9169457,37.7077777 C71.2432507,39.6446509 70.9064032,40.5709816 69.9800725,42.3394311 C70.6537675,41.7499479 71.4116745,41.2446766 72.2537933,40.8236172 C74.2748784,39.8972866 76.1275397,40.1499222 77.0538704,40.4025578 C77.3907179,40.4867697 77.3907179,41.0762529 77.1380823,41.5815242 C76.3801754,42.9289142 74.527514,45.202635 72.422217,46.0447538 C70.5695556,46.7184489 68.9695299,46.2131776 68.0431992,45.7921182 C66.9484448,47.4763558 66.3589616,48.3184746 65.0957834,49.8342884 C65.8536904,49.413229 66.780021,49.0763815 67.6221398,48.9079577 C69.8116487,48.4026865 71.5800982,49.0763815 72.422217,49.5816528 C72.7590645,49.7500765 72.6748527,50.3395597 72.2537933,50.7606191 C71.1590388,51.8553735 68.885318,53.623823 66.6115973,53.9606706 C64.674724,54.2133062 63.2431221,53.3711874 62.4010033,52.6974924 C60.9694013,54.1290943 60.2114944,54.8027894 58.6114687,55.9817557 C59.4535875,55.8133319 60.3799181,55.6449082 61.3062488,55.6449082 C63.4957577,55.6449082 65.0115716,56.7396626 65.7694785,57.4133576 C66.0221141,57.6659933 65.8536904,58.1712646 65.3484191,58.5081121 C64.001029,59.3502309 61.3062488,60.6134091 59.0325281,60.3607735 C57.0956548,60.1923497 55.9166885,59.0133834 55.2429934,58.1712646 C53.474544,59.266019 52.6324252,59.6870784 50.6955519,60.5291972 C51.6218826,60.5291972 52.5482133,60.5291972 53.474544,60.7818329 C55.579841,61.371316 56.927231,62.7187061 57.4325023,63.5608249 C57.685138,63.8976724 57.2640786,64.4029437 56.7588073,64.5713675 C55.2429934,65.0766387 52.2113658,65.7503338 50.0218569,64.9924269 C48.0849836,64.3187318 47.1586529,62.8871299 46.7375935,61.9607992 C45.8112629,62.2134348 45.3902035,62.2976467 44.4638728,62.5502823 C43.7059658,62.7187061 42.9480589,62.3818586 42.863847,61.8765873 C42.7796352,61.371316 43.2849064,60.7818329 44.0428134,60.6134091 C44.8849322,60.3607735 45.3059916,60.2765616 46.1481104,60.0239259 C45.9796866,59.0133834 45.8954747,57.4133576 46.6533817,55.8133319 C47.4955005,53.9606706 49.0113143,52.5290686 49.8534331,51.7711617 C50.1902806,51.518526 50.61134,51.518526 50.7797638,51.8553735 C51.2008232,52.7817042 51.9587301,54.5501537 51.2850351,56.487027 C51.0323994,57.3291458 50.5271282,58.0028408 49.937645,58.6765358 C51.7060945,57.9186289 52.5482133,57.4975695 54.2324509,56.487027 C53.8113915,55.5606963 53.3903321,53.9606706 53.6429677,52.276433 C53.9798152,50.3395597 55.0745697,48.6553221 55.6640528,47.7289914 C55.9166885,47.3921439 56.3377479,47.3921439 56.5903835,47.6447795 C57.2640786,48.4026865 58.358833,50.0027122 58.1904093,52.0237973 C58.1061974,52.8659161 57.8535617,53.7080349 57.4325023,54.4659418 C58.9483162,53.2869755 59.7062231,52.6974924 61.0536132,51.3501023 C60.3799181,50.5079835 59.6220112,49.0763815 59.4535875,47.3921439 C59.3693756,45.4552706 60.0430706,43.5183974 60.3799181,42.5078548 C60.5483419,42.0867954 60.9694013,42.0025836 61.2220369,42.1710073 C62.0641557,42.7604905 63.4957577,44.0236687 63.8326052,46.0447538 C64.001029,46.8868726 63.9168171,47.7289914 63.6641815,48.5711102 C64.8431478,47.1395083 65.432631,46.3816013 66.4431735,44.7815756 C65.6010547,44.1920924 64.5063003,43.0131261 64.001029,41.3288885 C63.4115458,39.4762272 63.5799696,37.455142 63.7483933,36.3603876 C63.8326052,35.9393282 64.1694528,35.6866925 64.5063003,35.8551163 C65.3484191,36.2761757 67.1168686,37.1182945 67.8747755,39.0551678 C68.211623,39.8972866 68.2958349,40.7394054 68.2958349,41.5815242 C69.1379537,39.8972866 69.5590131,38.9709559 70.1484962,37.2025064 C69.1379537,36.6972351 67.8747755,35.8551163 66.9484448,34.3393025 C65.8536904,32.6550649 65.6010547,30.6339797 65.5168428,29.5392253 C65.432631,29.1181659 65.7694785,28.7813184 66.106326,28.8655302 C67.1168686,28.9497421 68.9695299,29.4550134 70.1484962,31.139251 C70.5695556,31.812946 70.9064032,32.6550649 71.0748269,33.4971837 C71.4958863,31.6445223 71.6643101,30.7181916 71.8327339,28.7813184 C70.8221913,28.6128946 69.3063774,28.0234114 68.1274111,26.7602332 C66.6958092,25.3286313 65.9379022,23.391758 65.6010547,22.2970036 C65.432631,21.8759442 65.6852666,21.4548848 66.0221141,21.4548848 C66.9484448,21.3706729 68.885318,21.3706729 70.4853438,22.8022749 C71.1590388,23.391758 71.6643101,24.1496649 72.0011576,24.9075719 C71.9169457,22.8022749 71.8327339,21.7075204 71.4958863,19.5180115 C71.4116745,18.7601046 71.748522,18.0021977 72.2537933,17.9179858 Z" id="Combined-Shape" fill="#EDF3FE"></path>
                <path d="M44.7030822,68.7050807 L49.7590482,26.4941168 L31.5036224,26.7527978 L36.8698273,68.6614656 L44.7030822,68.7050807 Z M47.9516431,28.119 L43.2836431,67.097 L38.2786431,67.069 L33.3176431,28.326 L47.9516431,28.119 Z" id="Path" fill="#202023"></path>
                <polygon id="Path" fill="#FFFFFF" points="34.4554203 19.8623268 40.6386431 8.937 47.0872951 19.6661632 61.1606431 21.53 51.2693765 31.7416565 53.9196431 45.91 40.5921293 39.3796186 28.4396431 46.241 30.6509625 32.0458535 20.1296431 22.157"></polygon>
                <path d="M48.0606431,18.181 L40.5978029,5.76253757 L33.4416431,18.404 L16.6610458,21.0928962 L28.9396431,32.633 L26.3505751,49.2586968 L40.6446431,41.187 L56.0795265,48.7509948 L52.9936431,32.26 L64.521523,20.3616882 L48.0606431,18.181 Z M34.4554203,19.8623268 L40.6386431,8.937 L47.0872951,19.6661632 L61.1606431,21.53 L51.2693765,31.7416565 L53.9196431,45.91 L40.5921293,39.3796186 L28.4396431,46.241 L30.6509625,32.0458535 L20.1296431,22.157 L34.4554203,19.8623268 Z" id="Path-Copy" fill="#202023"></path>
                <polygon id="Path" fill="#3384F7" points="50.2302917 31.388408 59.2430041 22.0270947 46.424221 20.3748622 40.5351734 10.4031443 40.6892066 38.374495 52.6980645 44.2124193"></polygon>
                <path d="M50.0995821,67.1256363 L31.3578439,67.1256363 C28.3068221,67.1256363 25.8334802,69.5989782 25.8334802,72.65 L25.8334802,73.45 L55.6421322,73.45 L55.6188823,72.4157657 C55.4856461,69.4539129 53.0565241,67.1256363 50.0995821,67.1256363 Z M50.0995821,68.7256363 L50.3016312,68.7307593 C52.0418578,68.8192024 53.4900786,70.043584 53.9046501,71.6851174 L53.9416431,71.849 L27.5146431,71.849 L27.5570295,71.6692404 C27.9925607,69.9764675 29.5291286,68.7256363 31.3578439,68.7256363 L50.0995821,68.7256363 Z" id="Rectangle-Copy-42" fill="#202023"></path>
            </g>
        </g>
    </g>
</svg>