<svg width="80" height="80" xmlns="http://www.w3.org/2000/svg">
    <g transform="translate(5.281 5.273)" fill="none" fill-rule="evenodd">
        <path d="M6.624 28.008C6.625 21.11 9.674 14.733 15 10.4a2.522 2.522 0 0 0 2.92.102c3.387-2.24 7.353-3.423 11.469-3.423 3.467 0 6.92.875 9.986 2.532.961.512 2.125.333 2.902-.336a22.862 22.862 0 0 1 3.21 2.638c4.298 4.299 5.567 3.565 1.002-1.001a24.273 24.273 0 0 0-3.454-2.854c.327-1.205-.214-2.359-1.212-2.904A26.017 26.017 0 0 0 29.39 1.989a25.866 25.866 0 0 0-14.28 4.264 2.51 2.51 0 0 0-.953 3.009c-5.69 4.603-8.947 11.397-8.948 18.746H4.185h2.439zm9.265-20.574a24.453 24.453 0 0 1 13.5-4.028 24.6 24.6 0 0 1 11.755 2.991c.534.29.76.982.4 1.604-.31.47-.966.645-1.498.362a22.494 22.494 0 0 0-10.657-2.7c-4.395 0-8.63 1.265-12.244 3.654-1.29.837-2.446-1.093-1.256-1.883z" fill="#202023" fill-rule="nonzero"/>
        <path d="M3 28.152h11v23.333H3a3 3 0 0 1-3-3V31.152a3 3 0 0 1 3-3z" stroke="#202023" stroke-width="1.7" fill="#EDF3FE"/>
        <g transform="matrix(-1 0 0 1 60.543 25.953)">
            <path d="M3 2.312h11v23.333H3a3 3 0 0 1-3-3V5.312a3 3 0 0 1 3-3z" stroke="#202023" stroke-width="1.7" fill="#EDF3FE"/>
            <rect fill="#202023" x="13.107" width="1.867" height="28" rx=".933"/>
        </g>
        <rect fill="#202023" x="13.107" y="25.84" width="1.867" height="28" rx=".933"/>
        <path d="M41.72 8.084c8.678 5.828 12.906 12.356 12.684 19.584-.018.6-.476.708-.476.708" stroke="#202023" stroke-width="1.5"/>
        <g transform="translate(44.745)">
            <path d="M5 0h18.755a5 5 0 0 1 5 5v10.81a5 5 0 0 1-5 5h-5.273l-6.736 4.856.341-4.857H5a5 5 0 0 1-5-5V5a5 5 0 0 1 5-5z" fill="#3384F7"/>
            <circle fill="#FFF" cx="7.127" cy="10.446" r="2.423"/>
            <circle fill="#FFF" cx="14.44" cy="10.4" r="2.423"/>
            <circle fill="#FFF" cx="21.823" cy="10.507" r="2.423"/>
        </g>
        <path d="M53.544 51.598c.003 8.933-6.65 13.447-19.962 13.54-.335.003-.615.013-.839.03" stroke="#202023" stroke-width="1.5"/>
        <rect stroke="#202023" stroke-width="1.5" fill="#EDF3FE" x="31.705" y="61.722" width="11.136" height="5.6" rx="2.8"/>
    </g>
</svg>
