<svg width="210" height="48" viewBox="0 0 210 48" xmlns="http://www.w3.org/2000/svg" xmlns:xlink="http://www.w3.org/1999/xlink">
    <defs>
        <path id="a" d="M0 0h21.381v39.275H0z"/>
        <path id="c" d="M0 0h21.378v39.275H0z"/>
        <path id="e" d="M0 0h25.357v34.208H0z"/>
        <path id="g" d="M0 0h23.897v39.275H0z"/>
        <path id="i" d="M0 0h21.381v39.275H0z"/>
        <path id="k" d="M0 0h21.378v39.275H0z"/>
        <path id="m" d="M0 0h25.357v34.208H0z"/>
        <path id="o" d="M0 0h23.897v39.275H0z"/>
    </defs>
    <g fill="none" fill-rule="evenodd">
        <g transform="translate(67.361)">
            <mask id="b" fill="#fff">
                <use xlink:href="#a"/>
            </mask>
            <path d="m20.708 27.975.466-3.295c.346-2.4.255-4.427-.247-6.097-.501-1.66-1.423-2.93-2.784-3.796-1.36-.868-3.14-1.306-5.348-1.306-.493 0-1.04.009-1.661.037-.603.036-1.242.09-1.872.164-.656.054-1.277.146-1.88.255L9.209.867A.732.732 0 0 0 8.46 0H6.14a.894.894 0 0 0-.648.266 1.097 1.097 0 0 0-.31.603l-2.31 16.41c-.173.75 1.096.383 1.716.302 2.62-.366 5.066-.585 7.704-.585 1.487 0 2.62.3 3.413.903.786.603 1.287 1.47 1.497 2.611.21 1.15.192 2.537-.055 4.171l-.465 3.295c-.22 1.661-.602 3.076-1.131 4.235-.53 1.15-1.27 2.026-2.237 2.629-.95.602-2.181.913-3.678.913-.52 0-1.104-.019-1.716-.037-.639-.037-1.26-.072-1.89-.11-.61-.036-1.185-.091-1.706-.127l2.309-15.544c.008-.191-.21-.32-.529-.32-.484 0-2.237.2-2.875.293-.466.072-.694.027-.713.475L.027 37.43c-.047.32-.038.568.072.722.091.155.347.283.74.337 1.368.274 2.765.475 4.152.594a48.94 48.94 0 0 0 4.144.192c2.29-.019 4.236-.484 5.832-1.407 1.607-.93 2.884-2.235 3.834-3.923.949-1.68 1.588-3.67 1.907-5.97" fill="#FFEC00" mask="url(#b)"/>
        </g>
        <path d="m193.078 22.316.201-1.387c.055-.402-.146-.603-.621-.603-.757 0-1.542.129-2.364.365-.822.257-1.688.667-2.61 1.252l.1-.704c.019-.191-.009-.346-.11-.474a.522.522 0 0 0-.429-.2h-1.578a.705.705 0 0 0-.493.2.765.765 0 0 0-.237.474L182.49 38.38a.627.627 0 0 0 .127.475c.11.127.247.2.42.2h1.652a.715.715 0 0 0 .502-.21c.146-.137.237-.282.256-.465l2.008-14.083c.903-.501 1.734-.867 2.518-1.087a8.522 8.522 0 0 1 2.31-.328c.246 0 .429-.055.557-.146a.598.598 0 0 0 .237-.42m14.065 16.064 2.437-17.141a.636.636 0 0 0-.128-.474.53.53 0 0 0-.42-.2h-1.652a.74.74 0 0 0-.502.2c-.145.145-.237.292-.265.474l-2.007 14.184c-.84.393-1.652.712-2.456.95-.812.236-1.56.365-2.281.365-.849 0-1.524-.129-2.036-.403-.502-.265-.84-.73-1.013-1.378-.164-.648-.173-1.533-.009-2.656l1.57-11.062a.601.601 0 0 0-.137-.474.558.558 0 0 0-.447-.2h-1.607a.723.723 0 0 0-.501.2.861.861 0 0 0-.274.474l-1.57 11.062c-.201 1.497-.183 2.756.09 3.797.266 1.04.786 1.826 1.57 2.374.805.547 1.854.82 3.204.82.658 0 1.288-.054 1.872-.163a11.318 11.318 0 0 0 1.807-.52c.593-.229 1.223-.52 1.889-.867l-.1.638a.67.67 0 0 0 .118.475c.1.127.238.2.43.2h1.68c.2 0 .345-.073.492-.2a.859.859 0 0 0 .246-.475M175.563 38.763a2.239 2.239 0 0 0 2.236-2.235 2.24 2.24 0 0 0-2.236-2.237 2.24 2.24 0 0 0-2.236 2.237 2.239 2.239 0 0 0 2.236 2.235" fill="#FEFEFE"/>
        <g transform="translate(.5)">
            <mask id="d" fill="#fff">
                <use xlink:href="#c"/>
            </mask>
            <path d="m20.712 27.975.465-3.295c.339-2.4.247-4.427-.255-6.097-.501-1.66-1.423-2.93-2.783-3.796-1.351-.868-3.13-1.306-5.35-1.306-.492 0-1.04.009-1.66.037-.603.036-1.233.09-1.872.164-.656.054-1.268.146-1.88.255L9.205.867a.725.725 0 0 0-.165-.62A.76.76 0 0 0 8.463 0H6.136a.91.91 0 0 0-.648.265 1.027 1.027 0 0 0-.3.603l-2.31 16.41c-.173.75 1.086.383 1.716.302 2.61-.366 5.065-.585 7.703-.585 1.488 0 2.62.3 3.405.903.785.603 1.287 1.47 1.506 2.611.2 1.15.191 2.537-.055 4.171l-.465 3.295c-.22 1.661-.603 3.076-1.141 4.235-.53 1.15-1.27 2.026-2.227 2.629-.95.602-2.182.913-3.678.913-.53 0-1.105-.019-1.726-.037-.63-.037-1.25-.072-1.88-.11-.621-.036-1.186-.091-1.716-.127l2.31-15.544c.008-.191-.21-.32-.52-.32-.494 0-2.2.146-2.83.247-.475.064-.694.028-.721.484L.03 37.43c-.054.32-.036.568.064.722.1.155.356.283.74.337 1.377.274 2.765.475 4.162.594 1.377.118 2.774.192 4.143.192 2.291-.019 4.225-.484 5.823-1.407 1.607-.93 2.893-2.235 3.834-3.923.958-1.68 1.588-3.67 1.916-5.97" fill="#FFEC00" mask="url(#d)"/>
        </g>
        <path d="m41.694 38.033 3.304-23.33c.027-.254-.027-.464-.165-.637-.146-.174-.337-.256-.574-.274h-2.246c-.255.018-.483.11-.684.292-.192.181-.32.382-.356.62l-2.738 19.304c-1.141.539-2.246.958-3.34 1.287-1.096.32-2.119.492-3.086.492-1.159.011-2.08-.164-2.775-.537-.685-.366-1.149-.986-1.387-1.87-.228-.886-.228-2.091-.019-3.625l2.146-15.051a.813.813 0 0 0-.183-.638c-.155-.174-.356-.256-.611-.274h-2.19a1.096 1.096 0 0 0-1.041.912l-2.136 15.051c-.302 2.035-.256 3.76.109 5.167.366 1.413 1.078 2.491 2.146 3.23 1.076.74 2.519 1.104 4.344 1.123.895 0 1.752-.082 2.556-.238a13.606 13.606 0 0 0 2.445-.693c.822-.32 1.68-.712 2.574-1.178l-.118.867a.856.856 0 0 0 .146.648c.128.164.328.266.594.266h2.281a.95.95 0 0 0 .657-.266c.192-.173.292-.392.347-.648" fill="#FFEC00"/>
        <g transform="translate(43.586 13.792)">
            <mask id="f" fill="#fff">
                <use xlink:href="#e"/>
            </mask>
            <path d="M25.344.784c.036-.236 0-.42-.11-.565C25.125.08 24.961 0 24.732 0h-2.565c-.219.018-.41.081-.584.21a1.151 1.151 0 0 0-.383.482l-8.543 20.903h-.73a.576.576 0 0 1-.31-.074c-.101-.027-.183-.128-.257-.274-.072-.137-.127-.364-.164-.656L8.614.739a.922.922 0 0 0-.21-.503A.643.643 0 0 0 7.937 0h-2.51c-.274 0-.493.081-.648.219-.164.145-.246.329-.283.565a.704.704 0 0 0-.018.155c-.01.065 0 .12.018.165l3.112 20.892c.11.702.257 1.268.448 1.697.192.42.41.74.666.95.265.201.538.356.849.42.301.073.63.1.977.091h.638l-.72 1.88c-.402 1.059-.831 1.863-1.288 2.428-.446.565-.985.949-1.587 1.16-.612.21-1.351.319-2.209.301-.257 0-.558-.01-.914-.037-.356-.017-.71-.046-1.104-.064a30.373 30.373 0 0 1-1.095-.1c-.355-.028-.657-.055-.912-.073H1.22c-.255 0-.475.055-.656.173-.175.119-.284.3-.32.557l-.238 1.688c-.027.229.037.383.202.484.164.11.382.183.647.247.32.082.694.145 1.114.21.429.055.866.11 1.332.146.457.036.914.054 1.342.054 1.305 0 2.437-.11 3.377-.364.95-.238 1.771-.63 2.473-1.17.685-.528 1.315-1.23 1.863-2.09.565-.865 1.104-1.906 1.615-3.148l11.29-26.332c.018-.046.046-.1.055-.165.028-.063.028-.117.028-.155" fill="#FFEC00" mask="url(#f)"/>
        </g>
        <path d="m104.608 16.173.265-1.87c.082-.549-.201-.822-.84-.822-1.031-.018-2.1.156-3.213.493-1.123.347-2.291.904-3.55 1.698l.136-.968c.028-.255-.017-.465-.145-.638-.147-.174-.339-.256-.593-.274h-2.155a1.06 1.06 0 0 0-.666.274 1.112 1.112 0 0 0-.329.638l-3.304 23.329a.799.799 0 0 0 .173.649.711.711 0 0 0 .558.264h2.245c.255 0 .484-.11.693-.292.183-.174.311-.383.356-.621l2.711-19.166c1.223-.676 2.374-1.169 3.442-1.48a11.67 11.67 0 0 1 3.139-.437c.329 0 .575-.064.749-.2a.858.858 0 0 0 .328-.577M121.21 38.033l2.264-15.954c.273-1.807.19-3.35-.238-4.637-.428-1.277-1.25-2.263-2.464-2.938-1.214-.676-2.884-1.023-4.993-1.023-1.031 0-1.962.018-2.81.082-.85.046-1.625.12-2.337.21-.712.091-1.388.192-2.027.293-.319.054-.574.145-.748.291-.191.128-.301.329-.338.585l-.219 1.597c-.036.292.019.483.174.593.146.091.328.145.538.145h.237a50.993 50.993 0 0 1 3.104-.255c1.15-.073 2.464-.11 3.942-.11 1.187-.017 2.11.147 2.784.475.676.329 1.114.876 1.333 1.635.21.766.228 1.78.046 3.057l-.265 1.826h-3.387c-2.026 0-3.769.145-5.21.456-1.461.31-2.657.775-3.606 1.387-.958.62-1.688 1.396-2.209 2.318-.52.931-.866 2.009-1.05 3.25l-.072.547c-.192 1.424-.155 2.612.11 3.56.264.967.711 1.716 1.332 2.282a5.44 5.44 0 0 0 2.209 1.214c.857.238 1.77.356 2.755.356.85-.02 1.69-.11 2.51-.31.84-.183 1.653-.457 2.446-.785.42-.173.356-.329.394-.53l.3-2.218c-.054-.137-.155-.192-.282-.21-.448.173-.585.165-.995.292-1.04.302-2.09.457-3.131.457-.886.018-1.634-.1-2.218-.348a2.194 2.194 0 0 1-1.26-1.258c-.246-.621-.292-1.461-.137-2.557l.073-.548c.11-.802.32-1.496.612-2.061.301-.585.73-1.04 1.305-1.397.575-.356 1.324-.612 2.255-.777.94-.164 2.08-.236 3.468-.236h3.377c-.54 3.779-1.04 8.013-1.497 11.244-.027.256.028.475.165.648a.832.832 0 0 0 .62.266h2.09c.274 0 .503-.102.703-.266.192-.173.31-.392.347-.648M143.946 38.033l2.136-15.04c.283-2.045.255-3.762-.11-5.176-.365-1.416-1.086-2.491-2.163-3.232-1.058-.739-2.51-1.104-4.345-1.104-.885 0-1.743.073-2.545.219-.814.155-1.634.393-2.447.703-.812.32-1.67.703-2.574 1.177l.119-.876a.867.867 0 0 0-.137-.638c-.146-.174-.338-.256-.593-.274h-2.292c-.264.018-.473.1-.665.274a1.107 1.107 0 0 0-.33.638l-3.312 23.329a.865.865 0 0 0 .173.648.73.73 0 0 0 .566.266h2.245c.265 0 .484-.11.693-.293.192-.174.311-.384.348-.621l2.738-19.294a23.92 23.92 0 0 1 3.34-1.297c1.087-.31 2.128-.484 3.094-.493 1.16-.018 2.072.173 2.766.54.694.374 1.16.994 1.379 1.879.236.885.236 2.09.027 3.624l-2.136 15.041c-.027.256.027.475.164.648a.834.834 0 0 0 .62.266h2.19c.266 0 .486-.102.686-.266.192-.173.32-.392.365-.648" fill="#FFEC00"/>
        <g transform="translate(148.392)">
            <mask id="h" fill="#fff">
                <use xlink:href="#g"/>
            </mask>
            <path d="m.245 27.975.52-3.295c.374-2.4 1.068-4.427 2.072-6.097 1.004-1.66 2.3-2.93 3.925-3.796 1.616-.868 3.523-1.306 5.74-1.306.494 0 1.041.009 1.634.037.603.036 1.224.09 1.845.164.63.054 1.223.146 1.798.255l2.08-13.07a1.07 1.07 0 0 1 .356-.62c.201-.164.42-.247.649-.247h2.327c.256 0 .448.101.566.265a.797.797 0 0 1 .128.603l-2.602 16.41c-.063.75-1.195.383-1.807.302-2.51-.366-4.902-.585-7.53-.585-1.487 0-2.71.3-3.687.903-.958.603-1.716 1.47-2.273 2.611-.548 1.15-.949 2.537-1.196 4.171l-.52 3.295c-.274 1.661-.31 3.076-.127 4.235.173 1.15.665 2.026 1.442 2.629.776.602 1.907.913 3.413.913.52 0 1.105-.019 1.735-.037.638-.037 1.268-.072 1.907-.11.63-.036 1.214-.091 1.743-.127l2.346-15.544c.055-.191.31-.32.62-.32.494 0 2.127.2 2.748.293.438.072.712.118.603.565L18.107 37.43c-.055.32-.137.568-.292.722-.155.155-.429.283-.84.337-1.45.274-2.91.475-4.335.594a50.95 50.95 0 0 1-4.199.192c-2.281-.019-4.089-.484-5.412-1.407-1.333-.93-2.218-2.235-2.665-3.923-.438-1.68-.484-3.67-.119-5.97" fill="#FFEC00" mask="url(#h)"/>
        </g>
        <g transform="translate(67.361)">
            <mask id="j" fill="#fff">
                <use xlink:href="#i"/>
            </mask>
            <path d="m20.708 27.975.466-3.295c.346-2.4.255-4.427-.247-6.097-.501-1.66-1.423-2.93-2.784-3.796-1.36-.868-3.14-1.306-5.348-1.306-.493 0-1.04.009-1.661.037-.603.036-1.242.09-1.872.164-.656.054-1.277.146-1.88.255L9.209.867A.732.732 0 0 0 8.46 0H6.14a.894.894 0 0 0-.648.266 1.097 1.097 0 0 0-.31.603l-2.31 16.41c-.173.75 1.096.383 1.716.302 2.62-.366 5.066-.585 7.704-.585 1.487 0 2.62.3 3.413.903.786.603 1.287 1.47 1.497 2.611.21 1.15.192 2.537-.055 4.171l-.465 3.295c-.22 1.661-.602 3.076-1.131 4.235-.53 1.15-1.27 2.026-2.237 2.629-.95.602-2.181.913-3.678.913-.52 0-1.104-.019-1.716-.037-.639-.037-1.26-.072-1.89-.11-.61-.036-1.185-.091-1.706-.127l2.309-15.544c.008-.191-.21-.32-.529-.32-.484 0-2.237.2-2.875.293-.466.072-.694.027-.713.475L.027 37.43c-.047.32-.038.568.072.722.091.155.347.283.74.337 1.368.274 2.765.475 4.152.594a48.94 48.94 0 0 0 4.144.192c2.29-.019 4.236-.484 5.832-1.407 1.607-.93 2.884-2.235 3.834-3.923.949-1.68 1.588-3.67 1.907-5.97" fill="#A1C518" mask="url(#j)"/>
        </g>
        <path d="m193.078 22.316.201-1.387c.055-.402-.146-.603-.621-.603-.757 0-1.542.129-2.364.365-.822.257-1.688.667-2.61 1.252l.1-.704c.019-.191-.009-.346-.11-.474a.522.522 0 0 0-.429-.2h-1.578a.705.705 0 0 0-.493.2.765.765 0 0 0-.237.474L182.49 38.38a.627.627 0 0 0 .127.475c.11.127.247.2.42.2h1.652a.715.715 0 0 0 .502-.21c.146-.137.237-.282.256-.465l2.008-14.083c.903-.501 1.734-.867 2.518-1.087a8.522 8.522 0 0 1 2.31-.328c.246 0 .429-.055.557-.146a.598.598 0 0 0 .237-.42m14.065 16.064 2.437-17.141a.636.636 0 0 0-.128-.474.53.53 0 0 0-.42-.2h-1.652a.74.74 0 0 0-.502.2c-.145.145-.237.292-.265.474l-2.007 14.184c-.84.393-1.652.712-2.456.95-.812.236-1.56.365-2.281.365-.849 0-1.524-.129-2.036-.403-.502-.265-.84-.73-1.013-1.378-.164-.648-.173-1.533-.009-2.656l1.57-11.062a.601.601 0 0 0-.137-.474.558.558 0 0 0-.447-.2h-1.607a.723.723 0 0 0-.501.2.861.861 0 0 0-.274.474l-1.57 11.062c-.201 1.497-.183 2.756.09 3.797.266 1.04.786 1.826 1.57 2.374.805.547 1.854.82 3.204.82.658 0 1.288-.054 1.872-.163a11.318 11.318 0 0 0 1.807-.52c.593-.229 1.223-.52 1.889-.867l-.1.638a.67.67 0 0 0 .118.475c.1.127.238.2.43.2h1.68c.2 0 .345-.073.492-.2a.859.859 0 0 0 .246-.475M175.563 38.763a2.239 2.239 0 0 0 2.236-2.235 2.24 2.24 0 0 0-2.236-2.237 2.24 2.24 0 0 0-2.236 2.237 2.239 2.239 0 0 0 2.236 2.235" fill="#0496CD"/>
        <g transform="translate(.5)">
            <mask id="l" fill="#fff">
                <use xlink:href="#k"/>
            </mask>
            <path d="M21.177 24.68c.339-2.4.247-4.427-.255-6.097-.501-1.66-1.423-2.93-2.783-3.796-1.351-.868-3.13-1.306-5.35-1.306-.492 0-1.04.009-1.66.037-.603.036-1.233.09-1.872.164-.656.054-1.268.146-1.88.255L9.205.867a.725.725 0 0 0-.165-.62A.76.76 0 0 0 8.463 0H6.136a.91.91 0 0 0-.648.265 1.027 1.027 0 0 0-.3.603l-2.31 16.41c-.173.75 1.086.383 1.716.302 2.61-.366 5.065-.585 7.703-.585 1.488 0 2.62.3 3.405.903.785.603 1.287 1.47 1.506 2.611.2 1.15.191 2.537-.055 4.171l-.465 3.295c-.22 1.661-.603 3.076-1.141 4.235-.53 1.15-1.27 2.026-2.227 2.629-.95.602-2.182.913-3.678.913-.53 0-1.105-.019-1.726-.037-.63-.037-1.25-.072-1.88-.11-.621-.036-1.186-.091-1.716-.127l2.31-15.544c.008-.191-.21-.32-.52-.32-.494 0-2.2.146-2.83.247-.475.064-.694.028-.721.484L.03 37.43c-.054.32-.036.568.064.722.1.155.356.283.74.337 1.377.274 2.765.475 4.162.594 1.377.118 2.774.192 4.143.192 2.291-.019 4.225-.484 5.823-1.407 1.607-.93 2.893-2.235 3.834-3.923.958-1.68 1.588-3.67 1.916-5.97l.465-3.295z" fill="#A1C518" mask="url(#l)"/>
        </g>
        <path d="m41.694 38.033 3.304-23.33c.027-.254-.027-.464-.165-.637-.146-.174-.337-.256-.574-.274h-2.246c-.255.018-.483.11-.684.292-.192.181-.32.382-.356.62l-2.738 19.304c-1.141.539-2.246.958-3.34 1.287-1.096.32-2.119.492-3.086.492-1.159.011-2.08-.164-2.775-.537-.685-.366-1.149-.986-1.387-1.87-.228-.886-.228-2.091-.019-3.625l2.146-15.051a.813.813 0 0 0-.183-.638c-.155-.174-.356-.256-.611-.274h-2.19a1.096 1.096 0 0 0-1.041.912l-2.136 15.051c-.302 2.035-.256 3.76.109 5.167.366 1.413 1.078 2.491 2.146 3.23 1.076.74 2.519 1.104 4.344 1.123.895 0 1.752-.082 2.556-.238a13.606 13.606 0 0 0 2.445-.693c.822-.32 1.68-.712 2.574-1.178l-.118.867a.856.856 0 0 0 .146.648c.128.164.328.266.594.266h2.281a.95.95 0 0 0 .657-.266c.192-.173.292-.392.347-.648" fill="#A1C518"/>
        <g transform="translate(43.586 13.792)">
            <mask id="n" fill="#fff">
                <use xlink:href="#m"/>
            </mask>
            <path d="M25.344.784c.036-.236 0-.42-.11-.565C25.125.08 24.961 0 24.732 0h-2.565c-.219.018-.41.081-.584.21a1.151 1.151 0 0 0-.383.482l-8.543 20.903h-.73a.576.576 0 0 1-.31-.074c-.101-.027-.183-.128-.257-.274-.072-.137-.127-.364-.164-.656L8.614.739a.922.922 0 0 0-.21-.503A.643.643 0 0 0 7.937 0h-2.51c-.274 0-.493.081-.648.219-.164.145-.246.329-.283.565a.704.704 0 0 0-.018.155c-.01.065 0 .12.018.165l3.112 20.892c.11.702.257 1.268.448 1.697.192.42.41.74.666.95.265.201.538.356.849.42.301.073.63.1.977.091h.638l-.72 1.88c-.402 1.059-.831 1.863-1.288 2.428-.446.565-.985.949-1.587 1.16-.612.21-1.351.319-2.209.301-.257 0-.558-.01-.914-.037-.356-.017-.71-.046-1.104-.064a30.373 30.373 0 0 1-1.095-.1c-.355-.028-.657-.055-.912-.073H1.22c-.255 0-.475.055-.656.173-.175.119-.284.3-.32.557l-.238 1.688c-.027.229.037.383.202.484.164.11.382.183.647.247.32.082.694.145 1.114.21.429.055.866.11 1.332.146.457.036.914.054 1.342.054 1.305 0 2.437-.11 3.377-.364.95-.238 1.771-.63 2.473-1.17.685-.528 1.315-1.23 1.863-2.09.565-.865 1.104-1.906 1.615-3.148l11.29-26.332c.018-.046.046-.1.055-.165.028-.063.028-.117.028-.155" fill="#A1C518" mask="url(#n)"/>
        </g>
        <path d="m104.608 16.173.265-1.87c.082-.549-.201-.822-.84-.822-1.031-.018-2.1.156-3.213.493-1.123.347-2.291.904-3.55 1.698l.136-.968c.028-.255-.017-.465-.145-.638-.147-.174-.339-.256-.593-.274h-2.155a1.06 1.06 0 0 0-.666.274 1.112 1.112 0 0 0-.329.638l-3.304 23.329a.799.799 0 0 0 .173.649.711.711 0 0 0 .558.264h2.245c.255 0 .484-.11.693-.292.183-.174.311-.383.356-.621l2.711-19.166c1.223-.676 2.374-1.169 3.442-1.48a11.67 11.67 0 0 1 3.139-.437c.329 0 .575-.064.749-.2a.858.858 0 0 0 .328-.577M121.21 38.033l2.264-15.954c.273-1.807.19-3.35-.238-4.637-.428-1.277-1.25-2.263-2.464-2.938-1.214-.676-2.884-1.023-4.993-1.023-1.031 0-1.962.018-2.81.082-.85.046-1.625.12-2.337.21-.712.091-1.388.192-2.027.293-.319.054-.574.145-.748.291-.191.128-.301.329-.338.585l-.219 1.597c-.036.292.019.483.174.593.146.091.328.145.538.145h.237a50.993 50.993 0 0 1 3.104-.255c1.15-.073 2.464-.11 3.942-.11 1.187-.017 2.11.147 2.784.475.676.329 1.114.876 1.333 1.635.21.766.228 1.78.046 3.057l-.265 1.826h-3.387c-2.026 0-3.769.145-5.21.456-1.461.31-2.657.775-3.606 1.387-.958.62-1.688 1.396-2.209 2.318-.52.931-.866 2.009-1.05 3.25l-.072.547c-.192 1.424-.155 2.612.11 3.56.264.967.711 1.716 1.332 2.282a5.44 5.44 0 0 0 2.209 1.214c.857.238 1.77.356 2.755.356.85-.02 1.69-.11 2.51-.31.84-.183 1.653-.457 2.446-.785.42-.173.356-.329.394-.53l.3-2.218c-.054-.137-.155-.192-.282-.21-.448.173-.585.165-.995.292-1.04.302-2.09.457-3.131.457-.886.018-1.634-.1-2.218-.348a2.194 2.194 0 0 1-1.26-1.258c-.246-.621-.292-1.461-.137-2.557l.073-.548c.11-.802.32-1.496.612-2.061.301-.585.73-1.04 1.305-1.397.575-.356 1.324-.612 2.255-.777.94-.164 2.08-.236 3.468-.236h3.377c-.54 3.779-1.04 8.013-1.497 11.244-.027.256.028.475.165.648a.832.832 0 0 0 .62.266h2.09c.274 0 .503-.102.703-.266.192-.173.31-.392.347-.648M143.946 38.033l2.136-15.04c.283-2.045.255-3.762-.11-5.176-.365-1.416-1.086-2.491-2.163-3.232-1.058-.739-2.51-1.104-4.345-1.104-.885 0-1.743.073-2.545.219-.814.155-1.634.393-2.447.703-.812.32-1.67.703-2.574 1.177l.119-.876a.867.867 0 0 0-.137-.638c-.146-.174-.338-.256-.593-.274h-2.292c-.264.018-.473.1-.665.274a1.107 1.107 0 0 0-.33.638l-3.312 23.329a.865.865 0 0 0 .173.648.73.73 0 0 0 .566.266h2.245c.265 0 .484-.11.693-.293.192-.174.311-.384.348-.621l2.738-19.294a23.92 23.92 0 0 1 3.34-1.297c1.087-.31 2.128-.484 3.094-.493 1.16-.018 2.072.173 2.766.54.694.374 1.16.994 1.379 1.879.236.885.236 2.09.027 3.624l-2.136 15.041c-.027.256.027.475.164.648a.834.834 0 0 0 .62.266h2.19c.266 0 .486-.102.686-.266.192-.173.32-.392.365-.648" fill="#A1C518"/>
        <g transform="translate(148.392)">
            <mask id="p" fill="#fff">
                <use xlink:href="#o"/>
            </mask>
            <path d="m.245 27.975.52-3.295c.374-2.4 1.068-4.427 2.072-6.097 1.004-1.66 2.3-2.93 3.925-3.796 1.616-.868 3.523-1.306 5.74-1.306.494 0 1.041.009 1.634.037.603.036 1.224.09 1.845.164.63.054 1.223.146 1.798.255l2.08-13.07a1.07 1.07 0 0 1 .356-.62c.201-.164.42-.247.649-.247h2.327c.256 0 .448.101.566.265a.797.797 0 0 1 .128.603l-2.602 16.41c-.063.75-1.195.383-1.807.302-2.51-.366-4.902-.585-7.53-.585-1.487 0-2.71.3-3.687.903-.958.603-1.716 1.47-2.273 2.611-.548 1.15-.949 2.537-1.196 4.171l-.52 3.295c-.274 1.661-.31 3.076-.127 4.235.173 1.15.665 2.026 1.442 2.629.776.602 1.907.913 3.413.913.52 0 1.105-.019 1.735-.037.638-.037 1.268-.072 1.907-.11.63-.036 1.214-.091 1.743-.127l2.346-15.544c.055-.191.31-.32.62-.32.494 0 2.127.2 2.748.293.438.072.712.118.603.565L18.107 37.43c-.055.32-.137.568-.292.722-.155.155-.429.283-.84.337-1.45.274-2.91.475-4.335.594a50.95 50.95 0 0 1-4.199.192c-2.281-.019-4.089-.484-5.412-1.407-1.333-.93-2.218-2.235-2.665-3.923-.438-1.68-.484-3.67-.119-5.97" fill="#A1C518" mask="url(#p)"/>
        </g>
    </g>
</svg>
