<svg width="304" height="65" xmlns="http://www.w3.org/2000/svg" xmlns:xlink="http://www.w3.org/1999/xlink">
    <defs>
        <path id="a" d="M0 0h21.381v39.275H0z"/>
        <path id="c" d="M0 0h21.378v39.275H0z"/>
        <path id="e" d="M0 0h25.357v34.208H0z"/>
        <path id="g" d="M0 0h23.897v39.275H0z"/>
        <path id="i" d="M0 0h21.381v39.275H0z"/>
        <path id="k" d="M0 0h21.378v39.275H0z"/>
        <path id="m" d="M0 0h25.357v34.208H0z"/>
        <path id="o" d="M0 0h23.897v39.275H0z"/>
    </defs>
    <g fill="none" fill-rule="evenodd">
        <g transform="translate(67.361)">
            <mask id="b" fill="#fff">
                <use xlink:href="#a"/>
            </mask>
            <path d="m20.708 27.975.466-3.295c.346-2.4.255-4.427-.247-6.097-.501-1.66-1.423-2.93-2.784-3.796-1.36-.868-3.14-1.306-5.348-1.306-.493 0-1.04.009-1.661.037-.603.036-1.242.09-1.872.164-.656.054-1.277.146-1.88.255L9.209.867A.732.732 0 0 0 8.46 0H6.14a.894.894 0 0 0-.648.266 1.097 1.097 0 0 0-.31.603l-2.31 16.41c-.173.75 1.096.383 1.716.302 2.62-.366 5.066-.585 7.704-.585 1.487 0 2.62.3 3.413.903.786.603 1.287 1.47 1.497 2.611.21 1.15.192 2.537-.055 4.171l-.465 3.295c-.22 1.661-.602 3.076-1.131 4.235-.53 1.15-1.27 2.026-2.237 2.629-.95.602-2.181.913-3.678.913-.52 0-1.104-.019-1.716-.037-.639-.037-1.26-.072-1.89-.11-.61-.036-1.185-.091-1.706-.127l2.309-15.544c.008-.191-.21-.32-.529-.32-.484 0-2.237.2-2.875.293-.466.072-.694.027-.713.475L.027 37.43c-.047.32-.038.568.072.722.091.155.347.283.74.337 1.368.274 2.765.475 4.152.594a48.94 48.94 0 0 0 4.144.192c2.29-.019 4.236-.484 5.832-1.407 1.607-.93 2.884-2.235 3.834-3.923.949-1.68 1.588-3.67 1.907-5.97" fill="#FFEC00" mask="url(#b)"/>
        </g>
        <path d="m193.078 22.316.201-1.387c.055-.402-.146-.603-.621-.603-.757 0-1.542.129-2.364.365-.822.257-1.688.667-2.61 1.252l.1-.704c.019-.191-.009-.346-.11-.474a.522.522 0 0 0-.429-.2h-1.578a.705.705 0 0 0-.493.2.765.765 0 0 0-.237.474L182.49 38.38a.627.627 0 0 0 .127.475c.11.127.247.2.42.2h1.652a.715.715 0 0 0 .502-.21c.146-.137.237-.282.256-.465l2.008-14.083c.903-.501 1.734-.867 2.518-1.087a8.522 8.522 0 0 1 2.31-.328c.246 0 .429-.055.557-.146a.598.598 0 0 0 .237-.42m14.065 16.064 2.437-17.141a.636.636 0 0 0-.128-.474.53.53 0 0 0-.42-.2h-1.652a.74.74 0 0 0-.502.2c-.145.145-.237.292-.265.474l-2.007 14.184c-.84.393-1.652.712-2.456.95-.812.236-1.56.365-2.281.365-.849 0-1.524-.129-2.036-.403-.502-.265-.84-.73-1.013-1.378-.164-.648-.173-1.533-.009-2.656l1.57-11.062a.601.601 0 0 0-.137-.474.558.558 0 0 0-.447-.2h-1.607a.723.723 0 0 0-.501.2.861.861 0 0 0-.274.474l-1.57 11.062c-.201 1.497-.183 2.756.09 3.797.266 1.04.786 1.826 1.57 2.374.805.547 1.854.82 3.204.82.658 0 1.288-.054 1.872-.163a11.318 11.318 0 0 0 1.807-.52c.593-.229 1.223-.52 1.889-.867l-.1.638a.67.67 0 0 0 .118.475c.1.127.238.2.43.2h1.68c.2 0 .345-.073.492-.2a.859.859 0 0 0 .246-.475M175.563 38.763a2.239 2.239 0 0 0 2.236-2.235 2.24 2.24 0 0 0-2.236-2.237 2.24 2.24 0 0 0-2.236 2.237 2.239 2.239 0 0 0 2.236 2.235" fill="#FEFEFE"/>
        <g transform="translate(.5)">
            <mask id="d" fill="#fff">
                <use xlink:href="#c"/>
            </mask>
            <path d="m20.712 27.975.465-3.295c.339-2.4.247-4.427-.255-6.097-.501-1.66-1.423-2.93-2.783-3.796-1.351-.868-3.13-1.306-5.35-1.306-.492 0-1.04.009-1.66.037-.603.036-1.233.09-1.872.164-.656.054-1.268.146-1.88.255L9.205.867a.725.725 0 0 0-.165-.62A.76.76 0 0 0 8.463 0H6.136a.91.91 0 0 0-.648.265 1.027 1.027 0 0 0-.3.603l-2.31 16.41c-.173.75 1.086.383 1.716.302 2.61-.366 5.065-.585 7.703-.585 1.488 0 2.62.3 3.405.903.785.603 1.287 1.47 1.506 2.611.2 1.15.191 2.537-.055 4.171l-.465 3.295c-.22 1.661-.603 3.076-1.141 4.235-.53 1.15-1.27 2.026-2.227 2.629-.95.602-2.182.913-3.678.913-.53 0-1.105-.019-1.726-.037-.63-.037-1.25-.072-1.88-.11-.621-.036-1.186-.091-1.716-.127l2.31-15.544c.008-.191-.21-.32-.52-.32-.494 0-2.2.146-2.83.247-.475.064-.694.028-.721.484L.03 37.43c-.054.32-.036.568.064.722.1.155.356.283.74.337 1.377.274 2.765.475 4.162.594 1.377.118 2.774.192 4.143.192 2.291-.019 4.225-.484 5.823-1.407 1.607-.93 2.893-2.235 3.834-3.923.958-1.68 1.588-3.67 1.916-5.97" fill="#FFEC00" mask="url(#d)"/>
        </g>
        <path d="m41.694 38.033 3.304-23.33c.027-.254-.027-.464-.165-.637-.146-.174-.337-.256-.574-.274h-2.246c-.255.018-.483.11-.684.292-.192.181-.32.382-.356.62l-2.738 19.304c-1.141.539-2.246.958-3.34 1.287-1.096.32-2.119.492-3.086.492-1.159.011-2.08-.164-2.775-.537-.685-.366-1.149-.986-1.387-1.87-.228-.886-.228-2.091-.019-3.625l2.146-15.051a.813.813 0 0 0-.183-.638c-.155-.174-.356-.256-.611-.274h-2.19a1.096 1.096 0 0 0-1.041.912l-2.136 15.051c-.302 2.035-.256 3.76.109 5.167.366 1.413 1.078 2.491 2.146 3.23 1.076.74 2.519 1.104 4.344 1.123.895 0 1.752-.082 2.556-.238a13.606 13.606 0 0 0 2.445-.693c.822-.32 1.68-.712 2.574-1.178l-.118.867a.856.856 0 0 0 .146.648c.128.164.328.266.594.266h2.281a.95.95 0 0 0 .657-.266c.192-.173.292-.392.347-.648" fill="#FFEC00"/>
        <g transform="translate(43.586 13.792)">
            <mask id="f" fill="#fff">
                <use xlink:href="#e"/>
            </mask>
            <path d="M25.344.784c.036-.236 0-.42-.11-.565C25.125.08 24.961 0 24.732 0h-2.565c-.219.018-.41.081-.584.21a1.151 1.151 0 0 0-.383.482l-8.543 20.903h-.73a.576.576 0 0 1-.31-.074c-.101-.027-.183-.128-.257-.274-.072-.137-.127-.364-.164-.656L8.614.739a.922.922 0 0 0-.21-.503A.643.643 0 0 0 7.937 0h-2.51c-.274 0-.493.081-.648.219-.164.145-.246.329-.283.565a.704.704 0 0 0-.018.155c-.01.065 0 .12.018.165l3.112 20.892c.11.702.257 1.268.448 1.697.192.42.41.74.666.95.265.201.538.356.849.42.301.073.63.1.977.091h.638l-.72 1.88c-.402 1.059-.831 1.863-1.288 2.428-.446.565-.985.949-1.587 1.16-.612.21-1.351.319-2.209.301-.257 0-.558-.01-.914-.037-.356-.017-.71-.046-1.104-.064a30.373 30.373 0 0 1-1.095-.1c-.355-.028-.657-.055-.912-.073H1.22c-.255 0-.475.055-.656.173-.175.119-.284.3-.32.557l-.238 1.688c-.027.229.037.383.202.484.164.11.382.183.647.247.32.082.694.145 1.114.21.429.055.866.11 1.332.146.457.036.914.054 1.342.054 1.305 0 2.437-.11 3.377-.364.95-.238 1.771-.63 2.473-1.17.685-.528 1.315-1.23 1.863-2.09.565-.865 1.104-1.906 1.615-3.148l11.29-26.332c.018-.046.046-.1.055-.165.028-.063.028-.117.028-.155" fill="#FFEC00" mask="url(#f)"/>
        </g>
        <path d="m104.608 16.173.265-1.87c.082-.549-.201-.822-.84-.822-1.031-.018-2.1.156-3.213.493-1.123.347-2.291.904-3.55 1.698l.136-.968c.028-.255-.017-.465-.145-.638-.147-.174-.339-.256-.593-.274h-2.155a1.06 1.06 0 0 0-.666.274 1.112 1.112 0 0 0-.329.638l-3.304 23.329a.799.799 0 0 0 .173.649.711.711 0 0 0 .558.264h2.245c.255 0 .484-.11.693-.292.183-.174.311-.383.356-.621l2.711-19.166c1.223-.676 2.374-1.169 3.442-1.48a11.67 11.67 0 0 1 3.139-.437c.329 0 .575-.064.749-.2a.858.858 0 0 0 .328-.577M121.21 38.033l2.264-15.954c.273-1.807.19-3.35-.238-4.637-.428-1.277-1.25-2.263-2.464-2.938-1.214-.676-2.884-1.023-4.993-1.023-1.031 0-1.962.018-2.81.082-.85.046-1.625.12-2.337.21-.712.091-1.388.192-2.027.293-.319.054-.574.145-.748.291-.191.128-.301.329-.338.585l-.219 1.597c-.036.292.019.483.174.593.146.091.328.145.538.145h.237a50.993 50.993 0 0 1 3.104-.255c1.15-.073 2.464-.11 3.942-.11 1.187-.017 2.11.147 2.784.475.676.329 1.114.876 1.333 1.635.21.766.228 1.78.046 3.057l-.265 1.826h-3.387c-2.026 0-3.769.145-5.21.456-1.461.31-2.657.775-3.606 1.387-.958.62-1.688 1.396-2.209 2.318-.52.931-.866 2.009-1.05 3.25l-.072.547c-.192 1.424-.155 2.612.11 3.56.264.967.711 1.716 1.332 2.282a5.44 5.44 0 0 0 2.209 1.214c.857.238 1.77.356 2.755.356.85-.02 1.69-.11 2.51-.31.84-.183 1.653-.457 2.446-.785.42-.173.356-.329.394-.53l.3-2.218c-.054-.137-.155-.192-.282-.21-.448.173-.585.165-.995.292-1.04.302-2.09.457-3.131.457-.886.018-1.634-.1-2.218-.348a2.194 2.194 0 0 1-1.26-1.258c-.246-.621-.292-1.461-.137-2.557l.073-.548c.11-.802.32-1.496.612-2.061.301-.585.73-1.04 1.305-1.397.575-.356 1.324-.612 2.255-.777.94-.164 2.08-.236 3.468-.236h3.377c-.54 3.779-1.04 8.013-1.497 11.244-.027.256.028.475.165.648a.832.832 0 0 0 .62.266h2.09c.274 0 .503-.102.703-.266.192-.173.31-.392.347-.648M143.946 38.033l2.136-15.04c.283-2.045.255-3.762-.11-5.176-.365-1.416-1.086-2.491-2.163-3.232-1.058-.739-2.51-1.104-4.345-1.104-.885 0-1.743.073-2.545.219-.814.155-1.634.393-2.447.703-.812.32-1.67.703-2.574 1.177l.119-.876a.867.867 0 0 0-.137-.638c-.146-.174-.338-.256-.593-.274h-2.292c-.264.018-.473.1-.665.274a1.107 1.107 0 0 0-.33.638l-3.312 23.329a.865.865 0 0 0 .173.648.73.73 0 0 0 .566.266h2.245c.265 0 .484-.11.693-.293.192-.174.311-.384.348-.621l2.738-19.294a23.92 23.92 0 0 1 3.34-1.297c1.087-.31 2.128-.484 3.094-.493 1.16-.018 2.072.173 2.766.54.694.374 1.16.994 1.379 1.879.236.885.236 2.09.027 3.624l-2.136 15.041c-.027.256.027.475.164.648a.834.834 0 0 0 .62.266h2.19c.266 0 .486-.102.686-.266.192-.173.32-.392.365-.648" fill="#FFEC00"/>
        <g transform="translate(148.392)">
            <mask id="h" fill="#fff">
                <use xlink:href="#g"/>
            </mask>
            <path d="m.245 27.975.52-3.295c.374-2.4 1.068-4.427 2.072-6.097 1.004-1.66 2.3-2.93 3.925-3.796 1.616-.868 3.523-1.306 5.74-1.306.494 0 1.041.009 1.634.037.603.036 1.224.09 1.845.164.63.054 1.223.146 1.798.255l2.08-13.07a1.07 1.07 0 0 1 .356-.62c.201-.164.42-.247.649-.247h2.327c.256 0 .448.101.566.265a.797.797 0 0 1 .128.603l-2.602 16.41c-.063.75-1.195.383-1.807.302-2.51-.366-4.902-.585-7.53-.585-1.487 0-2.71.3-3.687.903-.958.603-1.716 1.47-2.273 2.611-.548 1.15-.949 2.537-1.196 4.171l-.52 3.295c-.274 1.661-.31 3.076-.127 4.235.173 1.15.665 2.026 1.442 2.629.776.602 1.907.913 3.413.913.52 0 1.105-.019 1.735-.037.638-.037 1.268-.072 1.907-.11.63-.036 1.214-.091 1.743-.127l2.346-15.544c.055-.191.31-.32.62-.32.494 0 2.127.2 2.748.293.438.072.712.118.603.565L18.107 37.43c-.055.32-.137.568-.292.722-.155.155-.429.283-.84.337-1.45.274-2.91.475-4.335.594a50.95 50.95 0 0 1-4.199.192c-2.281-.019-4.089-.484-5.412-1.407-1.333-.93-2.218-2.235-2.665-3.923-.438-1.68-.484-3.67-.119-5.97" fill="#FFEC00" mask="url(#h)"/>
        </g>
        <g transform="translate(67.361)">
            <mask id="j" fill="#fff">
                <use xlink:href="#i"/>
            </mask>
            <path d="m20.708 27.975.466-3.295c.346-2.4.255-4.427-.247-6.097-.501-1.66-1.423-2.93-2.784-3.796-1.36-.868-3.14-1.306-5.348-1.306-.493 0-1.04.009-1.661.037-.603.036-1.242.09-1.872.164-.656.054-1.277.146-1.88.255L9.209.867A.732.732 0 0 0 8.46 0H6.14a.894.894 0 0 0-.648.266 1.097 1.097 0 0 0-.31.603l-2.31 16.41c-.173.75 1.096.383 1.716.302 2.62-.366 5.066-.585 7.704-.585 1.487 0 2.62.3 3.413.903.786.603 1.287 1.47 1.497 2.611.21 1.15.192 2.537-.055 4.171l-.465 3.295c-.22 1.661-.602 3.076-1.131 4.235-.53 1.15-1.27 2.026-2.237 2.629-.95.602-2.181.913-3.678.913-.52 0-1.104-.019-1.716-.037-.639-.037-1.26-.072-1.89-.11-.61-.036-1.185-.091-1.706-.127l2.309-15.544c.008-.191-.21-.32-.529-.32-.484 0-2.237.2-2.875.293-.466.072-.694.027-.713.475L.027 37.43c-.047.32-.038.568.072.722.091.155.347.283.74.337 1.368.274 2.765.475 4.152.594a48.94 48.94 0 0 0 4.144.192c2.29-.019 4.236-.484 5.832-1.407 1.607-.93 2.884-2.235 3.834-3.923.949-1.68 1.588-3.67 1.907-5.97" fill="#A1C518" mask="url(#j)"/>
        </g>
        <path d="m193.078 22.316.201-1.387c.055-.402-.146-.603-.621-.603-.757 0-1.542.129-2.364.365-.822.257-1.688.667-2.61 1.252l.1-.704c.019-.191-.009-.346-.11-.474a.522.522 0 0 0-.429-.2h-1.578a.705.705 0 0 0-.493.2.765.765 0 0 0-.237.474L182.49 38.38a.627.627 0 0 0 .127.475c.11.127.247.2.42.2h1.652a.715.715 0 0 0 .502-.21c.146-.137.237-.282.256-.465l2.008-14.083c.903-.501 1.734-.867 2.518-1.087a8.522 8.522 0 0 1 2.31-.328c.246 0 .429-.055.557-.146a.598.598 0 0 0 .237-.42m14.065 16.064 2.437-17.141a.636.636 0 0 0-.128-.474.53.53 0 0 0-.42-.2h-1.652a.74.74 0 0 0-.502.2c-.145.145-.237.292-.265.474l-2.007 14.184c-.84.393-1.652.712-2.456.95-.812.236-1.56.365-2.281.365-.849 0-1.524-.129-2.036-.403-.502-.265-.84-.73-1.013-1.378-.164-.648-.173-1.533-.009-2.656l1.57-11.062a.601.601 0 0 0-.137-.474.558.558 0 0 0-.447-.2h-1.607a.723.723 0 0 0-.501.2.861.861 0 0 0-.274.474l-1.57 11.062c-.201 1.497-.183 2.756.09 3.797.266 1.04.786 1.826 1.57 2.374.805.547 1.854.82 3.204.82.658 0 1.288-.054 1.872-.163a11.318 11.318 0 0 0 1.807-.52c.593-.229 1.223-.52 1.889-.867l-.1.638a.67.67 0 0 0 .118.475c.1.127.238.2.43.2h1.68c.2 0 .345-.073.492-.2a.859.859 0 0 0 .246-.475M175.563 38.763a2.239 2.239 0 0 0 2.236-2.235 2.24 2.24 0 0 0-2.236-2.237 2.24 2.24 0 0 0-2.236 2.237 2.239 2.239 0 0 0 2.236 2.235" fill="#0496CD"/>
        <g transform="translate(.5)">
            <mask id="l" fill="#fff">
                <use xlink:href="#k"/>
            </mask>
            <path d="M21.177 24.68c.339-2.4.247-4.427-.255-6.097-.501-1.66-1.423-2.93-2.783-3.796-1.351-.868-3.13-1.306-5.35-1.306-.492 0-1.04.009-1.66.037-.603.036-1.233.09-1.872.164-.656.054-1.268.146-1.88.255L9.205.867a.725.725 0 0 0-.165-.62A.76.76 0 0 0 8.463 0H6.136a.91.91 0 0 0-.648.265 1.027 1.027 0 0 0-.3.603l-2.31 16.41c-.173.75 1.086.383 1.716.302 2.61-.366 5.065-.585 7.703-.585 1.488 0 2.62.3 3.405.903.785.603 1.287 1.47 1.506 2.611.2 1.15.191 2.537-.055 4.171l-.465 3.295c-.22 1.661-.603 3.076-1.141 4.235-.53 1.15-1.27 2.026-2.227 2.629-.95.602-2.182.913-3.678.913-.53 0-1.105-.019-1.726-.037-.63-.037-1.25-.072-1.88-.11-.621-.036-1.186-.091-1.716-.127l2.31-15.544c.008-.191-.21-.32-.52-.32-.494 0-2.2.146-2.83.247-.475.064-.694.028-.721.484L.03 37.43c-.054.32-.036.568.064.722.1.155.356.283.74.337 1.377.274 2.765.475 4.162.594 1.377.118 2.774.192 4.143.192 2.291-.019 4.225-.484 5.823-1.407 1.607-.93 2.893-2.235 3.834-3.923.958-1.68 1.588-3.67 1.916-5.97l.465-3.295z" fill="#A1C518" mask="url(#l)"/>
        </g>
        <path d="m41.694 38.033 3.304-23.33c.027-.254-.027-.464-.165-.637-.146-.174-.337-.256-.574-.274h-2.246c-.255.018-.483.11-.684.292-.192.181-.32.382-.356.62l-2.738 19.304c-1.141.539-2.246.958-3.34 1.287-1.096.32-2.119.492-3.086.492-1.159.011-2.08-.164-2.775-.537-.685-.366-1.149-.986-1.387-1.87-.228-.886-.228-2.091-.019-3.625l2.146-15.051a.813.813 0 0 0-.183-.638c-.155-.174-.356-.256-.611-.274h-2.19a1.096 1.096 0 0 0-1.041.912l-2.136 15.051c-.302 2.035-.256 3.76.109 5.167.366 1.413 1.078 2.491 2.146 3.23 1.076.74 2.519 1.104 4.344 1.123.895 0 1.752-.082 2.556-.238a13.606 13.606 0 0 0 2.445-.693c.822-.32 1.68-.712 2.574-1.178l-.118.867a.856.856 0 0 0 .146.648c.128.164.328.266.594.266h2.281a.95.95 0 0 0 .657-.266c.192-.173.292-.392.347-.648" fill="#A1C518"/>
        <g transform="translate(43.586 13.792)">
            <mask id="n" fill="#fff">
                <use xlink:href="#m"/>
            </mask>
            <path d="M25.344.784c.036-.236 0-.42-.11-.565C25.125.08 24.961 0 24.732 0h-2.565c-.219.018-.41.081-.584.21a1.151 1.151 0 0 0-.383.482l-8.543 20.903h-.73a.576.576 0 0 1-.31-.074c-.101-.027-.183-.128-.257-.274-.072-.137-.127-.364-.164-.656L8.614.739a.922.922 0 0 0-.21-.503A.643.643 0 0 0 7.937 0h-2.51c-.274 0-.493.081-.648.219-.164.145-.246.329-.283.565a.704.704 0 0 0-.018.155c-.01.065 0 .12.018.165l3.112 20.892c.11.702.257 1.268.448 1.697.192.42.41.74.666.95.265.201.538.356.849.42.301.073.63.1.977.091h.638l-.72 1.88c-.402 1.059-.831 1.863-1.288 2.428-.446.565-.985.949-1.587 1.16-.612.21-1.351.319-2.209.301-.257 0-.558-.01-.914-.037-.356-.017-.71-.046-1.104-.064a30.373 30.373 0 0 1-1.095-.1c-.355-.028-.657-.055-.912-.073H1.22c-.255 0-.475.055-.656.173-.175.119-.284.3-.32.557l-.238 1.688c-.027.229.037.383.202.484.164.11.382.183.647.247.32.082.694.145 1.114.21.429.055.866.11 1.332.146.457.036.914.054 1.342.054 1.305 0 2.437-.11 3.377-.364.95-.238 1.771-.63 2.473-1.17.685-.528 1.315-1.23 1.863-2.09.565-.865 1.104-1.906 1.615-3.148l11.29-26.332c.018-.046.046-.1.055-.165.028-.063.028-.117.028-.155" fill="#A1C518" mask="url(#n)"/>
        </g>
        <path d="m104.608 16.173.265-1.87c.082-.549-.201-.822-.84-.822-1.031-.018-2.1.156-3.213.493-1.123.347-2.291.904-3.55 1.698l.136-.968c.028-.255-.017-.465-.145-.638-.147-.174-.339-.256-.593-.274h-2.155a1.06 1.06 0 0 0-.666.274 1.112 1.112 0 0 0-.329.638l-3.304 23.329a.799.799 0 0 0 .173.649.711.711 0 0 0 .558.264h2.245c.255 0 .484-.11.693-.292.183-.174.311-.383.356-.621l2.711-19.166c1.223-.676 2.374-1.169 3.442-1.48a11.67 11.67 0 0 1 3.139-.437c.329 0 .575-.064.749-.2a.858.858 0 0 0 .328-.577M121.21 38.033l2.264-15.954c.273-1.807.19-3.35-.238-4.637-.428-1.277-1.25-2.263-2.464-2.938-1.214-.676-2.884-1.023-4.993-1.023-1.031 0-1.962.018-2.81.082-.85.046-1.625.12-2.337.21-.712.091-1.388.192-2.027.293-.319.054-.574.145-.748.291-.191.128-.301.329-.338.585l-.219 1.597c-.036.292.019.483.174.593.146.091.328.145.538.145h.237a50.993 50.993 0 0 1 3.104-.255c1.15-.073 2.464-.11 3.942-.11 1.187-.017 2.11.147 2.784.475.676.329 1.114.876 1.333 1.635.21.766.228 1.78.046 3.057l-.265 1.826h-3.387c-2.026 0-3.769.145-5.21.456-1.461.31-2.657.775-3.606 1.387-.958.62-1.688 1.396-2.209 2.318-.52.931-.866 2.009-1.05 3.25l-.072.547c-.192 1.424-.155 2.612.11 3.56.264.967.711 1.716 1.332 2.282a5.44 5.44 0 0 0 2.209 1.214c.857.238 1.77.356 2.755.356.85-.02 1.69-.11 2.51-.31.84-.183 1.653-.457 2.446-.785.42-.173.356-.329.394-.53l.3-2.218c-.054-.137-.155-.192-.282-.21-.448.173-.585.165-.995.292-1.04.302-2.09.457-3.131.457-.886.018-1.634-.1-2.218-.348a2.194 2.194 0 0 1-1.26-1.258c-.246-.621-.292-1.461-.137-2.557l.073-.548c.11-.802.32-1.496.612-2.061.301-.585.73-1.04 1.305-1.397.575-.356 1.324-.612 2.255-.777.94-.164 2.08-.236 3.468-.236h3.377c-.54 3.779-1.04 8.013-1.497 11.244-.027.256.028.475.165.648a.832.832 0 0 0 .62.266h2.09c.274 0 .503-.102.703-.266.192-.173.31-.392.347-.648M143.946 38.033l2.136-15.04c.283-2.045.255-3.762-.11-5.176-.365-1.416-1.086-2.491-2.163-3.232-1.058-.739-2.51-1.104-4.345-1.104-.885 0-1.743.073-2.545.219-.814.155-1.634.393-2.447.703-.812.32-1.67.703-2.574 1.177l.119-.876a.867.867 0 0 0-.137-.638c-.146-.174-.338-.256-.593-.274h-2.292c-.264.018-.473.1-.665.274a1.107 1.107 0 0 0-.33.638l-3.312 23.329a.865.865 0 0 0 .173.648.73.73 0 0 0 .566.266h2.245c.265 0 .484-.11.693-.293.192-.174.311-.384.348-.621l2.738-19.294a23.92 23.92 0 0 1 3.34-1.297c1.087-.31 2.128-.484 3.094-.493 1.16-.018 2.072.173 2.766.54.694.374 1.16.994 1.379 1.879.236.885.236 2.09.027 3.624l-2.136 15.041c-.027.256.027.475.164.648a.834.834 0 0 0 .62.266h2.19c.266 0 .486-.102.686-.266.192-.173.32-.392.365-.648" fill="#A1C518"/>
        <g transform="translate(148.392)">
            <mask id="p" fill="#fff">
                <use xlink:href="#o"/>
            </mask>
            <path d="m.245 27.975.52-3.295c.374-2.4 1.068-4.427 2.072-6.097 1.004-1.66 2.3-2.93 3.925-3.796 1.616-.868 3.523-1.306 5.74-1.306.494 0 1.041.009 1.634.037.603.036 1.224.09 1.845.164.63.054 1.223.146 1.798.255l2.08-13.07a1.07 1.07 0 0 1 .356-.62c.201-.164.42-.247.649-.247h2.327c.256 0 .448.101.566.265a.797.797 0 0 1 .128.603l-2.602 16.41c-.063.75-1.195.383-1.807.302-2.51-.366-4.902-.585-7.53-.585-1.487 0-2.71.3-3.687.903-.958.603-1.716 1.47-2.273 2.611-.548 1.15-.949 2.537-1.196 4.171l-.52 3.295c-.274 1.661-.31 3.076-.127 4.235.173 1.15.665 2.026 1.442 2.629.776.602 1.907.913 3.413.913.52 0 1.105-.019 1.735-.037.638-.037 1.268-.072 1.907-.11.63-.036 1.214-.091 1.743-.127l2.346-15.544c.055-.191.31-.32.62-.32.494 0 2.127.2 2.748.293.438.072.712.118.603.565L18.107 37.43c-.055.32-.137.568-.292.722-.155.155-.429.283-.84.337-1.45.274-2.91.475-4.335.594a50.95 50.95 0 0 1-4.199.192c-2.281-.019-4.089-.484-5.412-1.407-1.333-.93-2.218-2.235-2.665-3.923-.438-1.68-.484-3.67-.119-5.97" fill="#A1C518" mask="url(#p)"/>
        </g>
        <path d="M2.853 62v-8.216h5.096V62h1.17v-9.282H1.683V62h1.17zm11.228.169c.996 0 1.783-.325 2.36-.975.576-.65.864-1.473.864-2.47 0-.997-.288-1.82-.865-2.47-.576-.65-1.363-.975-2.36-.975-.996 0-1.785.325-2.365.975-.572.65-.858 1.473-.858 2.47 0 .997.288 1.82.864 2.47.576.65 1.363.975 2.36.975zm0-.962c-.685 0-1.21-.238-1.573-.715-.364-.485-.546-1.075-.546-1.768 0-.693.182-1.28.546-1.761.364-.482.888-.722 1.573-.722.684 0 1.209.24 1.573.721.364.481.546 1.069.546 1.762 0 .693-.182 1.28-.546 1.762-.364.48-.889.721-1.573.721zm5.95 3.393v-3.302h.285c.434.58 1.101.871 2.002.871.884 0 1.584-.32 2.1-.962.515-.641.773-1.469.773-2.483 0-.997-.258-1.82-.773-2.47-.516-.65-1.216-.975-2.1-.975-.892 0-1.573.29-2.04.871h-.287v-.702h-1.066V64.6h1.105zm2.04-3.393c-.684 0-1.198-.238-1.54-.715-.342-.477-.514-1.066-.514-1.768s.172-1.291.514-1.768c.342-.477.856-.715 1.54-.715.642 0 1.138.227 1.489.682.35.456.526 1.056.526 1.801 0 .745-.175 1.346-.526 1.8-.351.456-.847.683-1.489.683zm7.315.793v-5.59h2.262v-.962h-5.642v.962h2.275V62h1.105zm5.456.169c.91 0 1.59-.286 2.04-.858h.287V62h1.04v-4.459c0-.728-.24-1.287-.722-1.677-.48-.39-1.142-.585-1.982-.585-.746 0-1.355.169-1.827.507-.472.338-.73.806-.773 1.404h1.105c.06-.633.567-.949 1.52-.949.547 0 .95.123 1.21.37.26.248.39.579.39.995v.26h-2.132c-.841 0-1.47.212-1.885.637a2.113 2.113 0 0 0-.624 1.534c0 .59.212 1.092.637 1.508.424.416.996.624 1.716.624zm.273-.962c-.486 0-.86-.108-1.125-.325-.264-.217-.396-.511-.396-.884 0-.832.524-1.248 1.573-1.248h1.963v.598c0 .52-.2.96-.598 1.32-.399.36-.871.539-1.417.539zm4.493.793c.824 0 1.415-.295 1.775-.884.36-.59.54-1.625.54-3.107V56.41h2.872V62h1.118v-6.552h-5.018v2.535c0 1.127-.1 1.905-.299 2.334-.199.428-.528.643-.988.643h-.22V62h.22zm14.643.169c.996 0 1.783-.325 2.36-.975.576-.65.864-1.473.864-2.47 0-.997-.288-1.82-.865-2.47-.576-.65-1.363-.975-2.36-.975-.996 0-1.785.325-2.365.975-.572.65-.858 1.473-.858 2.47 0 .997.288 1.82.864 2.47.577.65 1.363.975 2.36.975zm0-.962c-.685 0-1.21-.238-1.573-.715-.364-.485-.546-1.075-.546-1.768 0-.693.182-1.28.546-1.761.364-.482.888-.722 1.573-.722.684 0 1.209.24 1.573.721.364.481.546 1.069.546 1.762 0 .693-.182 1.28-.546 1.762-.364.48-.889.721-1.573.721zM66.735 64.6V62c1.092 0 1.937-.29 2.535-.871.598-.58.897-1.382.897-2.405 0-.97-.284-1.76-.852-2.366-.567-.607-1.358-.91-2.372-.91h-.208v-2.899h-1.092v2.899h-.221c-1.023 0-1.816.301-2.379.904-.563.602-.845 1.393-.845 2.372 0 .97.286 1.76.858 2.366.572.607 1.365.91 2.379.91h.208v2.6h1.092zm-1.092-3.536h-.208c-.702 0-1.235-.221-1.599-.663-.364-.442-.546-1.001-.546-1.677 0-.676.182-1.235.546-1.677.373-.442.906-.663 1.599-.663h.208v4.68zm1.274 0h-.182v-4.68h.182c.702 0 1.237.221 1.605.663.369.442.553 1.001.553 1.677 0 .676-.184 1.235-.553 1.677-.368.442-.903.663-1.605.663zm5.976 3.536v-3.302h.286c.433.58 1.1.871 2.002.871.884 0 1.584-.32 2.1-.962.515-.641.773-1.469.773-2.483 0-.997-.258-1.82-.774-2.47-.516-.65-1.215-.975-2.1-.975-.892 0-1.572.29-2.04.871h-.286v-.702h-1.066V64.6h1.105zm2.04-3.393c-.684 0-1.198-.238-1.54-.715-.342-.477-.513-1.066-.513-1.768s.17-1.291.513-1.768c.343-.477.856-.715 1.54-.715.642 0 1.138.227 1.49.682.35.456.526 1.056.526 1.801 0 .745-.176 1.346-.527 1.8-.35.456-.847.683-1.488.683zm6.587.962c.91 0 1.59-.286 2.041-.858h.286V62h1.04v-4.459c0-.728-.24-1.287-.721-1.677-.481-.39-1.142-.585-1.983-.585-.745 0-1.354.169-1.826.507-.472.338-.73.806-.774 1.404h1.105c.061-.633.568-.949 1.521-.949.546 0 .95.123 1.21.37.26.248.39.579.39.995v.26h-2.133c-.84 0-1.469.212-1.885.637a2.113 2.113 0 0 0-.624 1.534c0 .59.213 1.092.637 1.508.425.416.997.624 1.716.624zm.273-.962c-.485 0-.86-.108-1.124-.325-.264-.217-.397-.511-.397-.884 0-.832.525-1.248 1.573-1.248h1.963v.598c0 .52-.199.96-.598 1.32-.398.36-.87.539-1.417.539zm6.119.793v-2.886h3.627V62h1.105v-6.552h-1.105v2.704h-3.627v-2.704h-1.105V62h1.105zm11.89 0v-6.552h-1.117v2.99a7.718 7.718 0 0 1-1.638.169c-.382 0-.691-.035-.93-.104-.238-.07-.405-.178-.5-.325a1.258 1.258 0 0 1-.182-.396 2.365 2.365 0 0 1-.04-.488v-1.846h-1.104v1.937c0 .26.01.477.032.65.022.173.08.368.176.585.095.217.227.388.396.514.17.125.416.233.741.325a4.41 4.41 0 0 0 1.177.136c.667 0 1.291-.06 1.872-.182V62h1.118zm3.766.169c.91 0 1.59-.286 2.041-.858h.286V62h1.04v-4.459c0-.728-.24-1.287-.721-1.677-.481-.39-1.142-.585-1.983-.585-.745 0-1.354.169-1.826.507-.472.338-.73.806-.774 1.404h1.105c.061-.633.568-.949 1.521-.949.546 0 .95.123 1.21.37.26.248.39.579.39.995v.26h-2.133c-.84 0-1.469.212-1.885.637a2.113 2.113 0 0 0-.624 1.534c0 .59.213 1.092.637 1.508.425.416.997.624 1.716.624zm.273-.962c-.485 0-.86-.108-1.124-.325-.264-.217-.397-.511-.397-.884 0-.832.525-1.248 1.573-1.248h1.963v.598c0 .52-.199.96-.598 1.32-.398.36-.87.539-1.417.539zm7.913-6.721c.624 0 1.114-.165 1.469-.494.355-.33.542-.797.559-1.404h-.897c-.043.737-.42 1.105-1.131 1.105-.728 0-1.1-.368-1.118-1.105h-.897c.017.607.204 1.075.559 1.404.355.33.84.494 1.456.494zM110.415 62l2.925-5.07h.286V62h1.079v-6.552h-1.612l-2.873 5.07h-.286v-5.07h-1.079V62h1.56zm8.68.169c.849 0 1.514-.188 1.995-.566.481-.377.722-.847.722-1.41 0-.416-.09-.747-.267-.994-.177-.247-.4-.41-.67-.488v-.286c.2-.078.367-.232.501-.461.134-.23.202-.518.202-.865 0-.52-.224-.953-.67-1.3-.446-.347-1.06-.52-1.84-.52-.762 0-1.382.173-1.858.52-.477.347-.746.832-.806 1.456h1.053c.078-.355.245-.613.5-.774.256-.16.618-.24 1.086-.24.433 0 .782.087 1.046.26.264.173.397.42.397.741a.846.846 0 0 1-.306.676c-.204.173-.526.26-.968.26h-1.105v.962h1.157c.52 0 .89.084 1.111.254.221.169.332.422.332.76a.862.862 0 0 1-.442.786c-.295.178-.685.267-1.17.267-1.04 0-1.669-.355-1.885-1.066h-1.066c.104.641.403 1.14.897 1.495.494.355 1.178.533 2.054.533zM125.03 62l2.925-5.07h.286V62h1.08v-6.552h-1.613l-2.873 5.07h-.286v-5.07h-1.079V62h1.56zm7.419 0v-2.886h3.627V62h1.105v-6.552h-1.105v2.704h-3.627v-2.704h-1.105V62h1.105zm7.86 0v-5.59h3.81v-.962h-4.914V62h1.105zm7.627.169c.78 0 1.41-.182 1.892-.546.48-.364.778-.84.89-1.43h-1.118c-.208.676-.762 1.014-1.664 1.014-.667 0-1.178-.219-1.534-.657-.355-.437-.541-1.05-.559-1.839h4.992v-.377c-.017-.867-.277-1.593-.78-2.178-.502-.584-1.217-.877-2.145-.877-.979 0-1.75.308-2.314.923-.563.615-.845 1.434-.845 2.457 0 1.04.282 1.885.845 2.535.564.65 1.344.975 2.34.975zm1.755-4.381h-3.783c.078-.45.286-.821.624-1.111.338-.29.789-.436 1.352-.436.529 0 .954.147 1.274.442.321.295.499.663.533 1.105zM157.51 62l2.925-5.07h.286V62h1.079v-6.552h-1.612l-2.873 5.07h-.286v-5.07h-1.08V62h1.56zm10.924 0v-5.59h3.575V62h1.105v-6.552h-5.785V62h1.105zm8.55.169c.91 0 1.59-.286 2.04-.858h.287V62h1.04v-4.459c0-.728-.24-1.287-.722-1.677-.48-.39-1.142-.585-1.982-.585-.746 0-1.355.169-1.827.507-.472.338-.73.806-.773 1.404h1.105c.06-.633.567-.949 1.52-.949.547 0 .95.123 1.21.37.26.248.39.579.39.995v.26h-2.132c-.841 0-1.47.212-1.885.637a2.113 2.113 0 0 0-.624 1.534c0 .59.212 1.092.637 1.508.424.416.996.624 1.716.624zm.273-.962c-.486 0-.86-.108-1.125-.325-.264-.217-.396-.511-.396-.884 0-.832.524-1.248 1.573-1.248h1.963v.598c0 .52-.2.96-.598 1.32-.399.36-.871.539-1.417.539zm6.118 3.393v-3.302h.286c.434.58 1.101.871 2.002.871.884 0 1.584-.32 2.1-.962.516-.641.773-1.469.773-2.483 0-.997-.257-1.82-.773-2.47-.516-.65-1.216-.975-2.1-.975-.892 0-1.573.29-2.04.871h-.287v-.702h-1.066V64.6h1.105zm2.041-3.393c-.684 0-1.198-.238-1.54-.715-.343-.477-.514-1.066-.514-1.768s.172-1.291.514-1.768c.342-.477.856-.715 1.54-.715.642 0 1.138.227 1.489.682.35.456.526 1.056.526 1.801 0 .745-.175 1.346-.526 1.8-.351.456-.847.683-1.489.683zm7.315.793v-5.59h2.262v-.962h-5.642v.962h2.275V62h1.105zm4.715 0v-2.886h3.627V62h1.105v-6.552h-1.105v2.704h-3.627v-2.704h-1.105V62h1.105zm9.537.169c.78 0 1.41-.182 1.892-.546.48-.364.778-.84.89-1.43h-1.118c-.208.676-.762 1.014-1.664 1.014-.667 0-1.178-.219-1.534-.657-.355-.437-.541-1.05-.559-1.839h4.992v-.377c-.017-.867-.277-1.593-.78-2.178-.502-.584-1.217-.877-2.145-.877-.979 0-1.75.308-2.314.923-.563.615-.845 1.434-.845 2.457 0 1.04.282 1.885.845 2.535.564.65 1.344.975 2.34.975zm1.755-4.381h-3.783c.078-.45.286-.821.624-1.111.338-.29.789-.436 1.352-.436.529 0 .954.147 1.274.442.321.295.499.663.533 1.105zm3.857 6.812v-3.302h.286c.433.58 1.1.871 2.002.871.884 0 1.584-.32 2.1-.962.515-.641.773-1.469.773-2.483 0-.997-.258-1.82-.774-2.47-.515-.65-1.215-.975-2.099-.975-.893 0-1.573.29-2.041.871h-.286v-.702h-1.066V64.6h1.105zm2.041-3.393c-.685 0-1.198-.238-1.54-.715-.343-.477-.514-1.066-.514-1.768s.171-1.291.513-1.768c.343-.477.856-.715 1.541-.715.641 0 1.138.227 1.489.682.35.456.526 1.056.526 1.801 0 .745-.175 1.346-.526 1.8-.351.456-.848.683-1.489.683zm7.523.962c.745 0 1.358-.193 1.84-.578.48-.386.786-.908.916-1.567h-1.105c-.182.789-.733 1.183-1.651 1.183-.694 0-1.214-.238-1.56-.715-.347-.477-.52-1.075-.52-1.794 0-.71.17-1.298.513-1.761.343-.464.865-.696 1.567-.696.84 0 1.378.368 1.612 1.105h1.105c-.113-.624-.406-1.124-.878-1.502-.472-.377-1.085-.565-1.84-.565-.996 0-1.776.32-2.34.962-.563.641-.844 1.469-.844 2.483 0 1.005.284 1.83.851 2.477.568.645 1.346.968 2.334.968zm5.403-.169v-2.886h1.963L230.981 62h1.183l-1.69-3.393 1.6-3.159h-1.158l-1.365 2.704h-1.989v-2.704h-1.105V62h1.105zm8.693.169c.997 0 1.783-.325 2.36-.975.576-.65.864-1.473.864-2.47 0-.997-.288-1.82-.865-2.47-.576-.65-1.362-.975-2.359-.975-.997 0-1.785.325-2.366.975-.572.65-.858 1.473-.858 2.47 0 .997.288 1.82.864 2.47.577.65 1.363.975 2.36.975zm0-.962c-.685 0-1.209-.238-1.573-.715-.364-.485-.546-1.075-.546-1.768 0-.693.182-1.28.546-1.761.364-.482.888-.722 1.573-.722.685 0 1.209.24 1.573.721.364.481.546 1.069.546 1.762 0 .693-.182 1.28-.546 1.762-.364.48-.888.721-1.573.721zm5.924.793v-5.265h.286l1.52 2.808h1.223l1.52-2.808h.287V62h1.079v-6.552h-1.73l-1.611 2.99h-.286l-1.612-2.99H241.1V62h1.079zm14.304.169c.988 0 1.774-.316 2.36-.949.584-.633.877-1.426.877-2.379 0-.962-.277-1.757-.832-2.386-.555-.628-1.313-.942-2.275-.942-.477 0-.882.07-1.215.208-.334.139-.635.386-.904.741h-.286c.078-.598.245-1.077.5-1.437.256-.36.657-.587 1.203-.682l2.015-.338c.477-.087.806-.25.988-.488.182-.238.282-.56.299-.968h-1.027c-.017.182-.067.303-.15.364-.082.06-.244.108-.487.143l-1.742.286c-.442.07-.823.217-1.144.442-.32.225-.572.488-.754.787-.182.299-.327.66-.435 1.085a7.213 7.213 0 0 0-.208 1.222c-.03.39-.046.832-.046 1.326 0 1.274.284 2.253.851 2.938.568.685 1.372 1.027 2.412 1.027zm-.026-.962c-.685 0-1.213-.23-1.586-.689-.364-.468-.546-1.031-.546-1.69s.184-1.218.553-1.677c.368-.46.894-.689 1.579-.689.685 0 1.211.23 1.58.689.368.46.552 1.018.552 1.677s-.184 1.22-.553 1.683c-.368.464-.894.696-1.579.696zm6.444.793 2.925-5.07h.286V62h1.079v-6.552h-1.612l-2.873 5.07h-.286v-5.07h-1.08V62h1.56zm8.68.169c.849 0 1.514-.188 1.995-.566.48-.377.721-.847.721-1.41 0-.416-.089-.747-.266-.994-.178-.247-.401-.41-.67-.488v-.286c.2-.078.367-.232.5-.461.135-.23.202-.518.202-.865 0-.52-.223-.953-.67-1.3-.445-.347-1.059-.52-1.839-.52-.762 0-1.382.173-1.859.52-.476.347-.745.832-.806 1.456h1.053c.078-.355.245-.613.5-.774.257-.16.618-.24 1.086-.24.434 0 .782.087 1.047.26.264.173.396.42.396.741a.846.846 0 0 1-.305.676c-.204.173-.527.26-.969.26h-1.105v.962h1.157c.52 0 .89.084 1.112.254.22.169.331.422.331.76a.862.862 0 0 1-.442.786c-.294.178-.684.267-1.17.267-1.04 0-1.668-.355-1.885-1.066h-1.066c.104.641.403 1.14.897 1.495.494.355 1.179.533 2.054.533zm5.481-.169v-2.886h3.627V62h1.105v-6.552h-1.105v2.704h-3.627v-2.704h-1.105V62h1.105zm9.538.169c.78 0 1.41-.182 1.891-.546.481-.364.778-.84.89-1.43h-1.117c-.208.676-.763 1.014-1.664 1.014-.668 0-1.179-.219-1.534-.657-.356-.437-.542-1.05-.56-1.839h4.993v-.377c-.018-.867-.278-1.593-.78-2.178-.503-.584-1.218-.877-2.145-.877-.98 0-1.751.308-2.314.923-.564.615-.845 1.434-.845 2.457 0 1.04.281 1.885.845 2.535.563.65 1.343.975 2.34.975zm1.755-4.381h-3.783c.078-.45.286-.821.624-1.111.338-.29.788-.436 1.352-.436.528 0 .953.147 1.274.442.32.295.498.663.533 1.105zm5.533 4.381c.746 0 1.359-.193 1.84-.578.48-.386.786-.908.916-1.567h-1.105c-.182.789-.732 1.183-1.65 1.183-.694 0-1.214-.238-1.56-.715-.347-.477-.52-1.075-.52-1.794 0-.71.17-1.298.513-1.761.342-.464.864-.696 1.566-.696.841 0 1.378.368 1.612 1.105h1.105c-.112-.624-.405-1.124-.877-1.502-.473-.377-1.086-.565-1.84-.565-.996 0-1.776.32-2.34.962-.563.641-.845 1.469-.845 2.483 0 1.005.284 1.83.852 2.477.567.645 1.345.968 2.333.968zm7.081 0c.78 0 1.41-.182 1.892-.546.48-.364.777-.84.89-1.43h-1.118c-.208.676-.763 1.014-1.664 1.014-.667 0-1.179-.219-1.534-.657-.355-.437-.542-1.05-.559-1.839h4.992v-.377c-.017-.867-.277-1.593-.78-2.178-.503-.584-1.218-.877-2.145-.877-.98 0-1.75.308-2.314.923-.563.615-.845 1.434-.845 2.457 0 1.04.282 1.885.845 2.535.563.65 1.343.975 2.34.975zm1.755-4.381h-3.783c.078-.45.286-.821.624-1.111.338-.29.789-.436 1.352-.436.529 0 .953.147 1.274.442.32.295.498.663.533 1.105z" fill="#202023" fill-rule="nonzero"/>
    </g>
</svg>
