<svg width="369" height="240" xmlns="http://www.w3.org/2000/svg" xmlns:xlink="http://www.w3.org/1999/xlink">
    <defs>
        <path id="a" d="M0 0h60.384v47.681H0z"/>
    </defs>
    <g transform="translate(.054)" fill="none" fill-rule="evenodd">
        <rect fill="#F7F8FA" width="368" height="240" rx="4"/>
        <path d="M57.738 102.869a21.474 21.474 0 0 0 3.067 17.657c1.2 1.747 2.2 3.345 2.658 4.403 1.294 2.997 2.507 2.21 3.23 3.315 1.775 2.716 1.047 7.905 2.037 10.167 1.347 3.078 3.229 2.769 3.229 2.769l21.33-2.303s1.016-3.476-.374-9.561c-.508-2.224-.464-7.899.81-11.309 1.777-4.754-.007-10.857-1.12-16.602-.52-2.694-1.837-7.704-2.58-9.475-.781-1.867-1.1-9.148-3.822-9.013-4.812.239-2.095 18.276-4.896 16.332-3.58-2.486-7.225-5.546-11.39-9.3-9.28-8.365-9.749 3.746-12.18 12.92" fill="#E9D8D4"/>
        <path d="M78.693 127.233a.237.237 0 0 1-.204-.076c-.047-.052-1.157-1.295-1.71-3.388a9.094 9.094 0 0 1-.184-3.767c.252-1.583.915-3.172 1.971-4.723a.238.238 0 1 1 .393.267c-1.017 1.494-1.654 3.018-1.894 4.53a8.617 8.617 0 0 0 .174 3.571c.523 1.983 1.592 3.179 1.603 3.19a.238.238 0 0 1-.149.396" fill="#D1BBB6"/>
        <path d="M87.859 88.638c-.247 0-.555-.054-.882-.24-.132-.075-.783-.625-.54-4.037a.185.185 0 0 1 .369.027c-.099 1.391-.054 3.456.354 3.689.598.34 1.098.128 1.12.119a.186.186 0 0 1 .243.094.184.184 0 0 1-.093.243 1.48 1.48 0 0 1-.571.105" fill="#F8F0EE"/>
        <path d="M69.043 128.66a.23.23 0 0 1-.043.002c-2.103-.13-3.379-.884-4.079-1.493-.77-.671-1.033-1.317-1.044-1.344a.237.237 0 0 1 .441-.177c.002.006.243.584.938 1.182.643.553 1.82 1.237 3.773 1.357a.238.238 0 0 1 .014.473" fill="#D1BBB6"/>
        <path d="m56.165 119.051 6.406 1.253a3.285 3.285 0 0 0 2.508-6.072l-4.346-1.795c-2.972-1.178-5.456-1.456-6.57 1.244-1.57 3.812.38 4.7 2.002 5.37" fill="#EDD6D1"/>
        <path d="M63.517 120.88c-1.784 0-7.7-1.746-7.956-1.822a.246.246 0 1 1 .14-.472c.063.018 6.31 1.86 7.889 1.8 1.505-.06 2.218-.813 2.225-.82a.247.247 0 0 1 .365.33c-.034.038-.846.914-2.571.981-.03.002-.06.002-.092.002" fill="#D1BBB6"/>
        <path d="M65.646 109.258a4.314 4.314 0 0 1-3.383-5.077l8.482-42.35a4.314 4.314 0 1 1 8.46 1.694l-8.482 42.35a4.314 4.314 0 0 1-5.077 3.383" fill="#202023"/>
        <g transform="translate(46.288 32)">
            <mask id="b" fill="#fff">
                <use xlink:href="#a"/>
            </mask>
            <path d="M2.422 38.577a2.95 2.95 0 0 1-2.32-3.666L8.886 2.185a2.95 2.95 0 0 1 3.548-2.1l45.699 11.142a2.95 2.95 0 0 1 2.215 3.319l-4.77 30.64a2.95 2.95 0 0 1-3.442 2.447L2.422 38.577z" fill="#FFF" mask="url(#b)"/>
            <g mask="url(#b)" fill="#333336" fill-rule="nonzero">
                <path d="M39.191 24.902a1.4 1.4 0 0 0 .649-1.338 1.4 1.4 0 0 0-.913-1.175l-4.509-1.665a.621.621 0 0 1-.387-.43l-1.184-4.657a1.4 1.4 0 0 0-1.072-1.03 1.4 1.4 0 0 0-1.399.505L27.4 18.885a.622.622 0 0 1-.53.235l-4.795-.312a1.4 1.4 0 0 0-1.312.701 1.4 1.4 0 0 0 .048 1.486l2.669 3.997c.114.17.137.386.06.576l-1.778 4.464a1.38 1.38 0 0 0 .063 1.181c.307.575.991.875 1.627.696l4.626-1.303a.637.637 0 0 1 .566.12l3.696 3.072c.18.15.384.25.607.297.407.086.83-.012 1.162-.27.331-.257.522-.632.538-1.054l.19-4.802a.622.622 0 0 1 .29-.501l4.064-2.566z"/>
            </g>
        </g>
        <path d="m52.418 109.609 7.269 2.723a3.907 3.907 0 0 0 4.13-6.63l-4.745-2.956c-3.255-1.964-6.114-2.776-7.949.172-2.59 4.164-.475 5.588 1.295 6.69" fill="#EDD6D1"/>
        <path d="M61.689 113.214c-1.658 0-4.25-1.44-4.373-1.51a.247.247 0 1 1 .24-.43c.905.507 3.495 1.744 4.591 1.386a.247.247 0 0 1 .153.468 1.98 1.98 0 0 1-.611.086" fill="#D1BBB6"/>
        <path d="m54.713 100.488 6.803 3.737a3.906 3.906 0 0 0 5.038-5.97l-4.272-3.605c-2.94-2.41-5.654-3.624-7.892-.969-3.16 3.75-1.27 5.462.323 6.807" fill="#EDD6D1"/>
        <path d="M64.006 105.423c-2.738 0-7.523-3.638-7.742-3.805a.246.246 0 1 1 .3-.391c.056.042 5.608 4.264 7.932 3.645a.246.246 0 1 1 .127.476 2.39 2.39 0 0 1-.617.075" fill="#D1BBB6"/>
        <path d="m59.19 92.855 5.762 2.754a3.214 3.214 0 0 0 3.861-5.138l-3.677-2.764c-2.527-1.843-4.812-2.715-6.528-.43-2.421 3.228-.79 4.547.581 5.578" fill="#EDD6D1"/>
        <path d="M66.898 96.482c-2.276 0-6.199-2.646-6.382-2.77a.203.203 0 1 1 .228-.336c.048.032 4.808 3.243 6.686 2.626a.202.202 0 1 1 .127.386 2.111 2.111 0 0 1-.659.094" fill="#D1BBB6"/>
        <path d="M66.736 143.483s-.045-9.612 1.205-10.69c1.25-1.078 8.815.743 16.241-2.48 7.426-3.222 9.667-4.742 10.228-2.559.56 2.183.42 11.123.42 11.123l-28.094 4.606z" fill="#FFF"/>
        <path d="M120.281 240H61.06c-1.25-36.07 4.094-99.315 5.09-99.42.194-.023.405-.037.631-.042h.002c.342-.012.717-.007 1.12.01h.006c.74.028 1.578.087 2.498.14h.004c1.693.102 3.652.189 5.75.036h.01a25.819 25.819 0 0 0 1.977-.212c.004 0 .004 0 .007-.002.002.002.004 0 .007-.001a21.63 21.63 0 0 0 5.37-1.48c4.26-1.813 7.802-2.703 10.094-2.737a7.35 7.35 0 0 1 .824.027h.005c.139.014.268.032.39.054h.003c.806.138 1.331.454 1.521.936.121.316 11.229 42.455 18.405 74.521 2.565 11.47 4.631 21.652 5.507 28.17" fill="#2A292D"/>
        <path d="M121.683 119.648a21.475 21.475 0 0 0-.134 17.921c.868 1.933 1.568 3.684 1.828 4.806.739 3.18 2.073 2.623 2.586 3.84 1.263 2.989-.38 7.964.19 10.366.776 3.27 2.682 3.301 2.682 3.301l25.315-1.959s-.628-2.555-.908-8.79c-.103-2.28-.716-5.036 1.147-8.164 2.598-4.361 1.932-10.684 1.863-16.535-.032-2.744-.432-7.908-.846-9.784-.436-1.976.55-9.197-2.153-9.55-4.777-.625-5.324 17.607-7.732 15.194-3.08-3.085-6.12-6.747-9.548-11.184-7.636-9.887-10.26 1.945-14.29 10.538" fill="#E9D8D4"/>
        <path d="M137.952 147.362a.237.237 0 0 1-.187-.111c-.037-.06-.908-1.48-1.077-3.639a9.093 9.093 0 0 1 .49-3.74c.53-1.511 1.467-2.957 2.783-4.295a.238.238 0 0 1 .339.334c-1.267 1.288-2.166 2.673-2.673 4.119a8.617 8.617 0 0 0-.465 3.545c.16 2.044.998 3.411 1.006 3.425a.238.238 0 0 1-.216.362" fill="#D1BBB6"/>
        <path d="M158.925 240H99.847c1.605-8.826 3.79-18.52 6.204-28.17 7.756-31.004 17.865-61.558 18.617-61.511.49.034 1.072.133 1.729.283h.005c3.545.791 9.31 2.807 15.666 1.18 5.126-1.31 9.13-1.541 11.262-.924h.003l.004.002c.993.288 1.585.76 1.694 1.394.06.373 3.18 52.038 3.894 87.746" fill="#88AFE7"/>
        <path d="M154.159 111.052c-.272 0-.701-.07-1.122-.421-.117-.098-.659-.755.19-4.07a.185.185 0 0 1 .358.092c-.346 1.353-.671 3.393-.31 3.694.527.442 1.057.323 1.08.317a.185.185 0 0 1 .088.36 1.264 1.264 0 0 1-.284.028" fill="#FFEDE8"/>
        <path d="M128.201 147.044a.236.236 0 0 1-.042-.007c-2.046-.503-3.167-1.472-3.746-2.197-.64-.798-.783-1.48-.788-1.509a.238.238 0 0 1 .466-.095c0 .006.134.618.711 1.33.534.659 1.57 1.542 3.47 2.01a.238.238 0 0 1-.07.468" fill="#D1BBB6"/>
        <path d="m117.246 135.29 6.08 2.375a3.285 3.285 0 0 0 3.551-5.526l-3.955-2.542c-2.714-1.69-5.108-2.407-6.686.051-2.227 3.47-.465 4.693 1.01 5.641" fill="#E9D8D4"/>
        <path d="M124.935 138.465a4.91 4.91 0 0 1-.69-.05c-1.648-.233-7.352-3.105-7.594-3.227a.247.247 0 0 1 .222-.44c.058.03 5.873 2.957 7.44 3.18 1.506.212 2.327-.403 2.336-.41a.247.247 0 0 1 .3.391c-.034.027-.74.556-2.014.556" fill="#D1BBB6"/>
        <path d="M128.323 127.347a4.314 4.314 0 0 1-2.421-5.6l15.907-40.155a4.314 4.314 0 1 1 8.021 3.178l-15.907 40.155a4.314 4.314 0 0 1-5.6 2.422" fill="#202023"/>
        <path d="M116.212 89.432a2.777 2.777 0 0 1-1.533-3.787l11.844-29.033a2.777 2.777 0 0 1 3.64-1.35l42.252 18.2a2.776 2.776 0 0 1 1.494 3.447l-9.57 27.579a2.777 2.777 0 0 1-3.6 1.689l-44.527-16.745z" fill="#FFF"/>
        <path d="M154.063 82.522a1.4 1.4 0 0 0 .85-1.22 1.4 1.4 0 0 0-.718-1.303l-4.192-2.35a.621.621 0 0 1-.315-.485l-.441-4.785a1.4 1.4 0 0 0-.898-1.186 1.4 1.4 0 0 0-1.46.28l-3.53 3.262a.622.622 0 0 1-.56.15l-4.688-1.06a1.4 1.4 0 0 0-1.405.488 1.4 1.4 0 0 0-.185 1.476l2.01 4.364a.623.623 0 0 1-.03.579l-2.455 4.13a1.38 1.38 0 0 0-.122 1.177c.213.616.842 1.02 1.498.942l4.773-.563c.199-.024.408.057.54.207l3.17 3.612c.154.176.34.307.553.388.388.15.822.118 1.19-.085.367-.202.615-.542.697-.957l.939-4.712c.04-.201.176-.37.364-.45l4.415-1.899z" fill="#C1E632" fill-rule="nonzero"/>
        <path d="m115.246 125.33 6.665 3.977a3.907 3.907 0 0 0 5.248-5.786l-4.14-3.755c-2.853-2.514-5.52-3.824-7.852-1.25-3.292 3.634-1.465 5.412.08 6.813" fill="#E9D8D4"/>
        <path d="M124.127 130.57c-1.626 0-4.318-2.206-4.437-2.305a.247.247 0 0 1 .314-.38c.8.66 3.128 2.339 4.27 2.183a.246.246 0 1 1 .067.489c-.07.01-.14.014-.214.014" fill="#D1BBB6"/>
        <path d="m119.133 116.765 6.026 4.892a3.906 3.906 0 0 0 6.023-4.974l-3.56-4.31c-2.462-2.897-4.915-4.576-7.592-2.363-3.778 3.125-2.225 5.147-.897 6.755" fill="#E9D8D4"/>
        <path d="M127.851 123.323c-2.662 0-7.198-4.953-7.394-5.169a.247.247 0 0 1 .365-.332c.047.053 4.753 5.206 7.154 5.004a.246.246 0 0 1 .04.491 2.117 2.117 0 0 1-.165.006" fill="#D1BBB6"/>
        <path d="m124.9 110.054 5.178 3.74a3.214 3.214 0 0 0 4.717-4.367l-3.125-3.376c-2.157-2.265-4.25-3.53-6.346-1.588-2.959 2.742-1.59 4.331-.424 5.59" fill="#E9D8D4"/>
        <path d="M132.262 115.04c-2.206 0-6.041-3.741-6.21-3.907a.202.202 0 1 1 .285-.289c.04.04 4.152 4.048 6.109 3.778a.203.203 0 0 1 .056.402c-.077.01-.158.016-.24.016" fill="#D1BBB6"/>
        <path d="M190.395 111.816a21.474 21.474 0 0 0 3.658 17.545c1.257 1.705 2.312 3.269 2.804 4.31 1.394 2.953 2.58 2.126 3.34 3.206 1.865 2.655 1.31 7.865 2.376 10.092 1.45 3.032 3.32 2.66 3.32 2.66l24.328-7.268s-1.154-2.365-2.747-8.4c-.582-2.206-1.764-4.77-.604-8.221 1.617-4.812-.371-10.851-1.675-16.556-.612-2.675-2.095-7.638-2.897-9.383-.844-1.84-1.406-9.106-4.123-8.88-4.8.4-1.48 18.335-4.345 16.487-3.662-2.364-7.408-5.3-11.696-8.913-9.555-8.049-9.617 4.071-11.739 13.321" fill="#E9D8D4"/>
        <path d="M212.156 135.464a.238.238 0 0 1-.207-.07c-.048-.05-1.2-1.254-1.822-3.328a9.093 9.093 0 0 1-.31-3.759c.198-1.59.807-3.2 1.811-4.787a.238.238 0 0 1 .402.255c-.966 1.526-1.552 3.071-1.742 4.59a8.62 8.62 0 0 0 .295 3.564c.589 1.964 1.697 3.123 1.708 3.135a.238.238 0 0 1-.135.4" fill="#D1BBB6"/>
        <path d="m199.272 240-.026-.18c-.137-.986-.266-2-.385-3.037-.5-4.225-.878-8.837-1.158-13.68a339.795 339.795 0 0 1-.166-3.143c-.278-5.767-.426-11.806-.477-17.86a671.069 671.069 0 0 1 .109-17.544c.021-.99.044-1.973.066-2.95.135-5.653.327-11.053.55-15.96.046-1.027.096-2.036.144-3.02a561.608 561.608 0 0 1 .627-10.51c.48-6.748.956-10.91 1.242-10.95.488-.073 1.077-.1 1.749-.09 3.64.022 9.7.773 15.568-2.164 4.73-2.363 8.594-3.436 10.81-3.284h.009c1.031.073 1.71.408 1.948 1.002.038.102 1.182 4.157 2.992 10.706.247.893.508 1.834.776 2.819 1.031 3.748 2.228 8.117 3.522 12.905l.81 2.996c.999 3.704 2.05 7.622 3.118 11.659.253.948.505 1.9.76 2.862a2445.637 2445.637 0 0 1 4.285 16.43l.739 2.9a1342.254 1342.254 0 0 1 5.241 21.174 637.112 637.112 0 0 1 3.244 14.279c.213 1 .415 1.973.612 2.914.119.59.235 1.165.345 1.726h-57.054z" fill="#CBEC4C"/>
        <path d="M219.966 96.585c-.237 0-.525-.05-.833-.212-.135-.07-.803-.598-.675-4.017.004-.102.085-.177.192-.178.102.004.181.09.178.192-.053 1.395.061 3.457.477 3.676.617.324 1.117.084 1.122.082a.185.185 0 0 1 .163.331 1.51 1.51 0 0 1-.624.126" fill="#FAF2EF"/>
        <path d="M202.559 137.214a.227.227 0 0 1-.043.003c-2.106-.059-3.407-.77-4.126-1.355-.793-.645-1.078-1.282-1.09-1.308a.238.238 0 0 1 .436-.192c.002.006.262.575.976 1.15.662.53 1.86 1.175 3.818 1.23a.237.237 0 0 1 .029.472" fill="#D1BBB6"/>
        <path d="m189.366 128.042 6.445 1.037a3.285 3.285 0 0 0 2.302-6.152l-4.403-1.648c-3.01-1.078-5.502-1.273-6.524 1.463-1.443 3.863.537 4.685 2.18 5.3" fill="#EDD6D1"/>
        <path d="M197.857 127.427s-1.87.122-2.798-.246c-.928-.369.24-3.549 1.1-3.619.859-.07 2.382.39 2.559 1.2.177.81-.286 2.646-.861 2.665M126.02 136.611s-1.869.122-2.797-.246c-.928-.368.24-3.548 1.1-3.618.859-.07 2.381.39 2.558 1.2.178.81-.286 2.645-.86 2.664M63.72 118.98s-1.87.123-2.798-.245c-.928-.369.24-3.549 1.1-3.619.859-.07 2.381.39 2.558 1.2.178.81-.286 2.646-.86 2.665" fill="#F8F0EE"/>
        <path d="M196.67 129.624c-1.902 0-7.655-1.489-7.908-1.555a.247.247 0 0 1 .124-.477c.064.017 6.37 1.654 7.945 1.534 1.503-.109 2.19-.886 2.197-.894a.246.246 0 0 1 .376.32c-.033.038-.815.941-2.537 1.066-.06.004-.126.006-.198.006" fill="#D1BBB6"/>
        <path d="M198.513 117.937a4.314 4.314 0 0 1-3.55-4.96l7.056-42.612a4.314 4.314 0 1 1 8.512 1.41l-7.057 42.61a4.314 4.314 0 0 1-4.96 3.552" fill="#202023"/>
        <path d="M180.164 83.151a2.88 2.88 0 0 1-2.384-3.502l5.367-32.085a2.88 2.88 0 0 1 3.393-2.167l47.099 9.238a2.88 2.88 0 0 1 2.27 3.166l-3.651 30.058a2.88 2.88 0 0 1-3.28 2.502l-48.814-7.21z" fill="#FFF"/>
        <path d="M216.691 68.2a1.4 1.4 0 0 0 .578-1.37 1.4 1.4 0 0 0-.974-1.126l-4.59-1.426a.621.621 0 0 1-.408-.41l-1.426-4.588a1.4 1.4 0 0 0-1.125-.973 1.4 1.4 0 0 0-1.37.577l-2.775 3.924a.622.622 0 0 1-.516.263l-4.806-.061a1.4 1.4 0 0 0-1.273.769 1.4 1.4 0 0 0 .126 1.482l2.874 3.851a.623.623 0 0 1 .091.572l-1.543 4.551c-.136.4-.091.818.125 1.176a1.423 1.423 0 0 0 1.662.61l4.55-1.543a.637.637 0 0 1 .572.09l3.852 2.875c.187.14.397.229.621.264.411.065.83-.056 1.147-.331.317-.274.488-.658.482-1.08l-.06-4.805a.622.622 0 0 1 .262-.516l3.924-2.775z" fill="#333336" fill-rule="nonzero"/>
        <path d="m185.305 118.73 7.356 2.48a3.906 3.906 0 0 0 3.905-6.765l-4.841-2.796c-3.32-1.854-6.204-2.57-7.938.439-2.45 4.247-.288 5.6 1.518 6.642" fill="#EDD6D1"/>
        <path d="M195.384 119.672s-2.216-.223-3.233-.837c-1.016-.614.977-4.115 1.998-4.028 1.022.087 2.718.925 2.767 1.909.05.984-.854 3.046-1.532 2.956M126.063 128.966s-2.216-.223-3.233-.837.976-4.115 1.998-4.028c1.021.087 2.717.925 2.766 1.909.05.984-.853 3.046-1.531 2.956M62.771 111.335s-2.216-.222-3.233-.836c-1.016-.614.977-4.115 1.998-4.028 1.022.086 2.718.924 2.767 1.908.05.984-.854 3.047-1.532 2.956" fill="#F8F0EE"/>
        <path d="M194.59 122.024c-1.661 0-4.197-1.3-4.32-1.364a.247.247 0 0 1 .226-.437c.921.476 3.55 1.626 4.634 1.23a.246.246 0 1 1 .17.464 2.084 2.084 0 0 1-.71.107" fill="#D1BBB6"/>
        <path d="m187.293 109.538 6.924 3.507a3.907 3.907 0 0 0 4.835-6.135l-4.39-3.46c-3.02-2.31-5.773-3.433-7.92-.704-3.032 3.853-1.087 5.5.55 6.792" fill="#EDD6D1"/>
        <path d="M197.133 111.914s-2.161-.538-3.08-1.291c-.918-.754 1.556-3.933 2.555-3.7.999.232 2.557 1.304 2.464 2.285-.092.98-1.281 2.893-1.94 2.706M128.795 121.645s-2.161-.538-3.08-1.29c-.917-.754 1.557-3.933 2.555-3.701 1 .232 2.557 1.304 2.465 2.285-.092.981-1.282 2.893-1.94 2.706M64.414 103.817s-2.161-.538-3.08-1.291c-.917-.754 1.557-3.933 2.555-3.7 1 .232 2.557 1.304 2.465 2.285-.092.98-1.282 2.892-1.94 2.706" fill="#F8F0EE"/>
        <path d="M196.637 114.16c-2.754 0-7.535-3.387-7.756-3.544a.246.246 0 1 1 .286-.402c.057.041 5.75 4.074 8.05 3.378a.246.246 0 1 1 .143.471 2.497 2.497 0 0 1-.723.097" fill="#D1BBB6"/>
        <path d="m191.51 101.759 5.852 2.56a3.214 3.214 0 0 0 3.687-5.265l-3.768-2.639c-2.587-1.758-4.9-2.552-6.538-.21-2.313 3.306-.638 4.57.767 5.554" fill="#EDD6D1"/>
        <path d="M199.705 103.254s-1.8-.341-2.59-.918c-.79-.576 1.096-3.302 1.927-3.158.831.144 2.16.953 2.13 1.763-.03.81-.918 2.436-1.467 2.313M132.789 112.985s-1.8-.341-2.59-.917c-.79-.577 1.095-3.303 1.927-3.159.831.145 2.16.953 2.13 1.763-.03.81-.918 2.436-1.467 2.313M67.615 94.76s-1.8-.34-2.59-.917c-.789-.576 1.096-3.303 1.927-3.159.832.145 2.161.953 2.131 1.764-.03.81-.919 2.436-1.468 2.313" fill="#F8F0EE"/>
        <path d="M199.233 105.127c-2.291 0-6.184-2.44-6.368-2.556a.203.203 0 0 1 .217-.343c.049.03 4.913 3.081 6.77 2.4a.203.203 0 0 1 .14.381 2.214 2.214 0 0 1-.759.118" fill="#D1BBB6"/>
        <path d="M233.65 150.154c-2.454.47-15.05 2.917-22.027 5.024a21.93 21.93 0 0 1-6.344.92c-2.78 0-5.198-.494-6.924-.987a454.6 454.6 0 0 1 .202-2.996c2.45.771 7.199 1.788 12.223.272 7.01-2.118 19.11-4.48 22.094-5.052.247.894.507 1.835.776 2.819M237.982 166.056c-2.087-.196-12.24-.995-21.71.787-2.278.429-4.49.6-6.574.6-5.01 0-9.28-.992-11.914-1.796.047-1.029.098-2.037.145-3.02 3.18 1.03 10.18 2.787 17.802 1.353 8.807-1.657 17.906-1.197 21.442-.92l.81 2.996M241.1 177.715c-3.852.342-14.46 1.404-23.702 3.508-8.173 1.859-16.41.976-20.163.384-.022.976-.045 1.959-.066 2.948 2.187.337 5.539.717 9.463.717 3.49 0 7.435-.302 11.41-1.207 9.526-2.163 20.566-3.212 23.819-3.488l-.76-2.862M246.885 199.908c-3.682.098-14.613.585-24.474 2.973-3.23.784-6.62 1.076-9.885 1.076-6.302 0-12.14-1.09-15.465-1.858-.006-1-.011-2.003-.014-3.007 4.45 1.06 15.462 3.19 24.678.956 9.706-2.351 20.119-2.909 24.42-3.04l.74 2.9M252.125 221.08c-5.036.527-19.394 2.102-30.476 4.05a43.23 43.23 0 0 1-7.512.638c-6.902 0-12.893-1.516-16.435-2.664a352.639 352.639 0 0 1-.165-3.145c3.102 1.074 9.412 2.884 16.698 2.884 2.233 0 4.559-.168 6.91-.583 10.897-1.917 24.908-3.472 30.293-4.038.233.964.462 1.917.687 2.858" fill="#F1F0F4"/>
        <path d="M298.44 123.934a21.473 21.473 0 0 1 1.576 17.853c-.71 1.996-1.267 3.798-1.436 4.938-.48 3.229-1.855 2.78-2.27 4.034-1.017 3.082 1.021 7.908.646 10.349-.51 3.32-2.408 3.505-2.408 3.505l-25.39.085s.42-2.598.198-8.836c-.081-2.28.308-5.077-1.8-8.044-2.94-4.138-2.786-10.494-3.188-16.332-.19-2.737-.206-7.917.056-9.82.276-2.005-1.289-9.123 1.377-9.693 4.712-1.006 6.724 17.122 8.93 14.524 2.822-3.323 5.557-7.218 8.617-11.917 6.816-10.47 10.384 1.114 15.092 9.354" fill="#E9D8D4"/>
        <path d="M284.454 152.868a.238.238 0 0 0 .178-.126c.031-.062.785-1.549.78-3.714a9.088 9.088 0 0 0-.79-3.688c-.65-1.464-1.7-2.83-3.12-4.057a.238.238 0 0 0-.31.36c1.366 1.181 2.374 2.49 2.995 3.89a8.622 8.622 0 0 1 .75 3.496c.004 2.05-.72 3.48-.728 3.495a.238.238 0 0 0 .245.344" fill="#D1BBB6"/>
        <path d="M325.333 240h-54.722c-1.9-35.057-2.814-80.53-2.787-80.885.057-.64.608-1.154 1.576-1.524h.005c2.08-.787 6.086-.88 11.3.014 6.469 1.11 12.053-1.363 15.522-2.436l.005-.003c.641-.2 1.213-.347 1.702-.42 1.028-.148 20.102 50.637 27.4 85.254" fill="#E0EBFC"/>
        <path fill="#FFF" opacity=".662" d="m278.463 164.639-3.793 9.598 6.064 8.546 3.557-9.636zM295.866 185.328l-3.793 9.598 6.064 8.546 3.557-9.635zM276.106 191.017l-3.793 9.599 6.064 8.546 3.557-9.636zM291.606 216.017l-3.793 9.599 6.064 8.546 3.557-9.636zM311.83 215.663l-3.792 9.598 6.063 8.546 3.558-9.636z"/>
        <path d="M265.254 117.984a1.03 1.03 0 0 1-.162-.01.185.185 0 1 1 .06-.365c.022.002.56.079 1.05-.403.336-.33-.152-2.337-.606-3.657a.185.185 0 0 1 .35-.12c1.112 3.235.625 3.933.516 4.04a1.72 1.72 0 0 1-1.208.515" fill="#F8F0EE"/>
        <path d="M294.147 151.766a.237.237 0 0 0 .041-.01c2-.666 3.039-1.723 3.558-2.491.572-.848.66-1.539.664-1.568a.238.238 0 0 0-.472-.057c0 .006-.084.626-.602 1.383-.48.7-1.44 1.663-3.298 2.282a.238.238 0 0 0 .109.46" fill="#D1BBB6"/>
        <path d="m304.12 139.168-5.868 2.858a3.285 3.285 0 0 1-3.984-5.223l3.737-2.852c2.57-1.903 4.899-2.81 6.669-.487 2.498 3.28.841 4.64-.553 5.704" fill="#EDD6D1"/>
        <path d="M296.355 142.967c-1.053 0-1.662-.386-1.695-.407a.247.247 0 0 1 .267-.414c.018.011.9.549 2.362.22 1.544-.347 7.105-3.733 7.16-3.767a.247.247 0 0 1 .257.42c-.231.142-5.686 3.463-7.31 3.828-.383.087-.731.12-1.041.12" fill="#D1BBB6"/>
        <path d="M292.44 132.143a4.314 4.314 0 0 0 1.964-5.776L275.317 87.62a4.314 4.314 0 0 0-7.74 3.813l19.087 38.745a4.314 4.314 0 0 0 5.776 1.964" fill="#202023"/>
        <path d="M302.149 91.665a2.929 2.929 0 0 0 1.29-4.111l-13.17-27.811a2.929 2.929 0 0 0-3.94-1.11l-44.634 21.01a2.93 2.93 0 0 0-1.279 3.751l12.403 28.188a2.93 2.93 0 0 0 3.93 1.47l45.4-21.387z" fill="#FFF"/>
        <path d="M279.773 81.298a1.4 1.4 0 0 0-.236-1.468 1.4 1.4 0 0 0-1.422-.438l-4.648 1.222a.621.621 0 0 1-.564-.13l-3.64-3.136a1.4 1.4 0 0 0-1.47-.23 1.4 1.4 0 0 0-.856 1.217l-.274 4.798a.622.622 0 0 1-.298.496l-4.108 2.495a1.4 1.4 0 0 0-.673 1.327 1.4 1.4 0 0 0 .893 1.19l4.478 1.743a.623.623 0 0 1 .38.437l1.103 4.677c.097.412.356.742.73.931.58.295 1.313.149 1.732-.363l3.041-3.72a.637.637 0 0 1 .533-.227l4.79.397c.233.02.457-.016.667-.105.383-.163.673-.487.797-.889.124-.4.065-.817-.163-1.171l-2.599-4.043a.622.622 0 0 1-.05-.577l1.857-4.433z" fill="#C1E632" fill-rule="nonzero"/>
        <path d="m305.313 129.08-6.324 4.501a3.906 3.906 0 0 1-5.696-5.345l3.825-4.077c2.64-2.735 5.195-4.255 7.726-1.878 3.573 3.358 1.896 5.277.469 6.799" fill="#EDD6D1"/>
        <path d="M296.75 135.024c-.028 0-.055 0-.081-.002a.247.247 0 0 1 .027-.492c1.145.075 3.336-1.797 4.08-2.52a.247.247 0 0 1 .344.354c-.114.11-2.758 2.66-4.37 2.66" fill="#D1BBB6"/>
        <path d="m300.75 120.856-5.613 5.36a3.906 3.906 0 0 1-6.404-4.473l3.202-4.583c2.221-3.085 4.531-4.956 7.377-2.965 4.017 2.81 2.632 4.95 1.438 6.66" fill="#EDD6D1"/>
        <path d="M292.425 128.101h-.002a.246.246 0 0 1 0-.493h.002c2.405 0 6.684-5.507 6.726-5.562a.246.246 0 1 1 .39.301c-.18.235-4.471 5.754-7.116 5.754" fill="#D1BBB6"/>
        <path d="m294.461 114.63-4.86 4.144a3.215 3.215 0 0 1-5.053-3.972l2.843-3.617c1.968-2.431 3.953-3.861 6.198-2.093 3.17 2.495 1.933 4.189.872 5.538" fill="#EDD6D1"/>
        <path d="M287.378 120.199c-.032 0-.063-.002-.094-.003a.203.203 0 1 1 .024-.405l.077.002c1.994 0 5.67-4.216 5.708-4.26a.203.203 0 1 1 .307.266c-.158.182-3.837 4.4-6.022 4.4" fill="#D1BBB6"/>
        <g fill="#F8F0EE">
            <path d="M295.623 140.32s1.87.122 2.797-.246c.929-.369-.24-3.549-1.099-3.618-.86-.07-2.382.39-2.559 1.2-.177.809.286 2.645.86 2.664M295.368 133.375s2.216-.222 3.233-.836c1.016-.614-.976-4.115-1.998-4.028-1.022.086-2.717.924-2.767 1.908-.05.984.854 3.047 1.532 2.956M291.517 126.67s2.162-.537 3.08-1.29c.918-.754-1.556-3.933-2.555-3.7-.998.231-2.556 1.304-2.464 2.284.092.981 1.282 2.893 1.94 2.706M286.514 118.858s1.8-.342 2.59-.918c.79-.576-1.095-3.303-1.927-3.158-.831.144-2.16.953-2.13 1.763.03.81.918 2.436 1.467 2.313"/>
        </g>
    </g>
</svg>
