<svg width="135" height="140" viewBox="0 0 135 140" fill="none" xmlns="http://www.w3.org/2000/svg">
<g opacity="0.500225" filter="url(#filter0_d_0_6322)">
<mask id="mask0_0_6322" style="mask-type:alpha" maskUnits="userSpaceOnUse" x="38" y="31" width="60" height="86">
<path fill-rule="evenodd" clip-rule="evenodd" d="M68.3729 31.2965L97.8859 72.5622L78.8122 116.431H57.2331L38.7361 88.9225L68.3729 31.2965Z" fill="white"/>
</mask>
<g mask="url(#mask0_0_6322)">
<path fill-rule="evenodd" clip-rule="evenodd" d="M38.7361 88.9225L57.2331 116.431H78.8122L97.8859 72.5622L68.3729 31.2965L38.7361 88.9225Z" fill="url(#paint0_linear_0_6322)"/>
</g>
<mask id="mask1_0_6322" style="mask-type:alpha" maskUnits="userSpaceOnUse" x="68" y="29" width="31" height="44">
<path fill-rule="evenodd" clip-rule="evenodd" d="M68.2019 29.5685L98.9182 72.5168L97.8859 72.5622L68.3729 31.2965L68.2019 29.5685Z" fill="white"/>
</mask>
<g mask="url(#mask1_0_6322)">
<path fill-rule="evenodd" clip-rule="evenodd" d="M97.8859 72.5622L98.9182 72.5168L68.2019 29.5685L68.3729 31.2965L97.8859 72.5622Z" fill="url(#paint1_linear_0_6322)"/>
</g>
<mask id="mask2_0_6322" style="mask-type:alpha" maskUnits="userSpaceOnUse" x="37" y="88" width="21" height="30">
<path fill-rule="evenodd" clip-rule="evenodd" d="M38.7361 88.9225L57.2331 116.431L56.7444 117.103L37.7039 88.9531L38.7361 88.9225Z" fill="white"/>
</mask>
<g mask="url(#mask2_0_6322)">
<path fill-rule="evenodd" clip-rule="evenodd" d="M56.7444 117.103L57.2331 116.431L38.7361 88.9225L37.7039 88.9531L56.7444 117.103Z" fill="url(#paint2_linear_0_6322)"/>
</g>
<mask id="mask3_0_6322" style="mask-type:alpha" maskUnits="userSpaceOnUse" x="56" y="116" width="24" height="2">
<path fill-rule="evenodd" clip-rule="evenodd" d="M78.8122 116.431L79.4691 117.103H56.7444L57.233 116.431H78.8122Z" fill="white"/>
</mask>
<g mask="url(#mask3_0_6322)">
<path fill-rule="evenodd" clip-rule="evenodd" d="M79.4691 117.103L78.8122 116.431H57.233L56.7444 117.103H79.4691Z" fill="url(#paint3_linear_0_6322)"/>
</g>
<mask id="mask4_0_6322" style="mask-type:alpha" maskUnits="userSpaceOnUse" x="78" y="72" width="21" height="46">
<path fill-rule="evenodd" clip-rule="evenodd" d="M98.9183 72.5168L79.4691 117.103L78.8123 116.431L97.8859 72.5168H98.9183Z" fill="white"/>
</mask>
<g mask="url(#mask4_0_6322)">
<path fill-rule="evenodd" clip-rule="evenodd" d="M98.9183 72.5168H97.8859L78.8123 116.431L79.4691 117.103L98.9183 72.5168Z" fill="url(#paint4_linear_0_6322)"/>
</g>
<mask id="mask5_0_6322" style="mask-type:alpha" maskUnits="userSpaceOnUse" x="68" y="28" width="36" height="45">
<path fill-rule="evenodd" clip-rule="evenodd" d="M68.311 28L68.9066 28.5938L103.546 63.1286L98.9182 72.5168L68.9066 30.5538L68.2019 29.5685L68.311 28Z" fill="white"/>
</mask>
<g mask="url(#mask5_0_6322)">
<path fill-rule="evenodd" clip-rule="evenodd" d="M68.311 28L68.9066 28.5938L103.546 63.1286L98.9182 72.5168L68.9066 30.5538L68.2019 29.5685L68.311 28Z" fill="url(#paint5_linear_0_6322)"/>
</g>
<path fill-rule="evenodd" clip-rule="evenodd" d="M67.6958 28.9647L68.311 28L68.2019 29.5685L67.6958 30.5538L38.5008 89.4774L32.5935 84.0085L67.6958 28.9647Z" fill="url(#paint6_linear_0_6322)"/>
<path fill-rule="evenodd" clip-rule="evenodd" d="M68.311 28L68.2837 31.6954L53.2091 60.9209L32.5935 84.0085L68.311 28Z" fill="url(#paint7_linear_0_6322)"/>
<path fill-rule="evenodd" clip-rule="evenodd" d="M50.6153 115.031L56.7491 117.071L37.8831 89.1098L32.5935 84.0085L50.6153 115.031Z" fill="url(#paint8_linear_0_6322)"/>
<mask id="mask6_0_6322" style="mask-type:alpha" maskUnits="userSpaceOnUse" x="85" y="63" width="19" height="53">
<path fill-rule="evenodd" clip-rule="evenodd" d="M103.546 63.1285L85.0901 115.036L92.5344 87.1516L98.9183 72.5167L103.546 63.1285Z" fill="white"/>
</mask>
<g mask="url(#mask6_0_6322)">
<path fill-rule="evenodd" clip-rule="evenodd" d="M85.0901 115.036L92.5344 87.1516L98.9183 72.5167L103.546 63.1285L85.0901 115.036Z" fill="url(#paint9_linear_0_6322)"/>
</g>
<mask id="mask7_0_6322" style="mask-type:alpha" maskUnits="userSpaceOnUse" x="68" y="28" width="20" height="20">
<path fill-rule="evenodd" clip-rule="evenodd" d="M68.311 28L87.4224 47.0119L68.2019 29.5685L68.311 28Z" fill="white"/>
</mask>
<g mask="url(#mask7_0_6322)">
<path fill-rule="evenodd" clip-rule="evenodd" d="M87.4224 47.0119L68.2019 29.5685L68.311 28L87.4224 47.0119Z" fill="url(#paint10_linear_0_6322)"/>
</g>
<path fill-rule="evenodd" clip-rule="evenodd" d="M79.4116 116.857L84.8265 116.759L98.916 72.6077L79.4116 116.857Z" fill="url(#paint11_linear_0_6322)"/>
</g>
<path opacity="0.551376" d="M43.8136 134.76C42.7098 134.359 42.2081 134.158 41.1043 133.757C41.5057 132.452 41.7063 130.345 40.9036 128.137C40.0005 125.629 38.1942 123.622 37.1908 122.518C36.7894 122.116 36.2877 122.116 35.9866 122.518C35.2842 123.622 34.0801 125.829 34.7825 128.539C35.0835 129.642 35.5853 130.646 36.2877 131.549C33.9797 130.345 32.9763 129.642 30.869 128.137C31.5714 126.933 32.2738 124.926 32.0732 122.718C31.8725 120.11 30.568 117.701 29.9659 116.497C29.7652 116.096 29.1631 115.895 28.7617 116.296C27.8586 117.199 26.1528 119.106 26.1528 121.815C26.1528 122.919 26.4538 124.023 26.8552 125.026C24.9486 123.321 24.1458 122.417 22.44 120.611C23.3431 119.608 24.5472 117.902 24.9486 115.594C25.35 112.985 24.7479 110.476 24.3465 109.071C24.2462 108.57 23.6441 108.369 23.2427 108.57C22.1389 109.272 20.0317 110.677 19.4296 113.286C19.1286 114.39 19.2289 115.494 19.3292 116.597C17.9244 114.59 17.3223 113.487 16.1182 111.279C17.222 110.476 18.8275 109.071 19.7306 106.964C20.7341 104.556 20.7341 101.947 20.6337 100.542C20.6337 100.04 20.132 99.639 19.7306 99.8397C18.5265 100.241 16.1182 101.144 14.914 103.552C14.4123 104.556 14.2116 105.66 14.1113 106.764C13.2082 104.456 12.8068 103.251 12.2047 100.843C13.5092 100.341 15.3154 99.3379 16.7203 97.5317C18.2254 95.4245 18.8275 92.8155 19.1286 91.4106C19.2289 90.9089 18.8275 90.4072 18.4261 90.5075C17.1216 90.6079 14.613 91.0092 12.9071 93.0162C12.2047 93.9193 11.703 94.9227 11.4019 96.0265C11.1009 93.5179 11.0005 92.3137 10.9002 89.7047C12.305 89.5041 14.312 89.0023 16.0178 87.4971C18.0247 85.7913 19.2289 83.2826 19.831 81.8778C20.0317 81.376 19.831 80.8743 19.3292 80.774C18.0247 80.5733 15.5161 80.3726 13.3085 81.9781C12.4054 82.6805 11.703 83.5837 11.1009 84.5871C11.4019 81.7774 11.6026 80.3726 12.305 77.5629C12.5057 76.5595 12.2047 75.6563 11.5023 75.4556C10.7999 75.255 9.99709 75.9574 9.7964 76.9608C9.09398 79.8709 8.79294 81.376 8.49191 84.2861C8.09052 83.1823 7.68914 81.9781 7.08706 80.9747C5.58188 78.3657 3.37427 77.3622 2.06978 76.9608C1.66839 76.8605 1.16667 77.4626 1.06632 78.2653C0.965974 80.3726 1.36736 84.3864 3.17358 86.8951C4.77911 89.0023 6.88637 89.6044 8.19087 89.7047C8.19087 92.4141 8.29121 93.7186 8.6926 96.3276C8.09052 95.3241 7.3881 94.3207 6.48499 93.5179C4.37773 91.511 1.96943 91.0092 0.664937 90.9089C0.163209 90.9089 -0.137829 91.6113 0.0628628 92.3137C0.564592 94.3206 1.86909 98.0334 4.17704 99.94C6.18395 101.646 8.39156 101.646 9.69605 101.445C10.2981 103.954 10.6995 105.258 11.703 107.667C10.9002 106.864 9.99709 106.061 8.99363 105.459C6.48499 103.954 3.97635 104.054 2.7722 104.355C2.27047 104.456 2.17012 105.258 2.47116 105.86C3.37427 107.667 5.48153 110.878 8.19087 112.182C10.4988 113.286 12.6061 112.885 13.9106 112.383C15.1147 114.691 15.8171 115.795 17.3223 118.002C16.3189 117.4 15.3154 116.798 14.1113 116.497C11.3016 115.594 8.99363 116.296 7.78948 116.898C7.3881 117.099 7.3881 117.902 7.88983 118.404C9.19433 120.009 12.004 122.618 14.914 123.321C17.4227 123.923 19.4296 122.919 20.5334 122.217C22.2393 124.224 23.1424 125.127 25.1493 126.933C24.0455 126.532 22.8413 126.231 21.6372 126.231C18.7272 126.03 16.6199 127.234 15.6165 128.037C15.2151 128.338 15.4158 129.04 16.0178 129.542C17.6234 130.746 21.0351 132.753 24.0455 132.753C26.6545 132.753 28.3604 131.348 29.2635 130.345C31.4711 131.95 32.5749 132.653 34.9832 133.857C33.779 133.757 32.5749 133.757 31.3707 133.957C28.4607 134.459 26.6545 136.064 25.8517 137.068C25.5507 137.469 25.9521 138.172 26.6545 138.473C28.5611 139.276 32.3742 140.48 35.3846 139.777C37.9936 139.175 39.298 137.469 40.0005 136.265C41.1043 136.767 41.7063 136.968 42.9105 137.369C43.9139 137.67 44.9174 137.369 45.1181 136.667C45.4191 135.864 44.7167 135.061 43.8136 134.76Z" fill="white"/>
<mask id="mask8_0_6322" style="mask-type:alpha" maskUnits="userSpaceOnUse" x="46" y="69" width="29" height="34">
<path fill-rule="evenodd" clip-rule="evenodd" d="M46.605 77.0993L60.5038 69.3951L74.6575 94.929L60.7587 102.633L46.605 77.0993Z" fill="white"/>
</mask>
<g mask="url(#mask8_0_6322)">
<path fill-rule="evenodd" clip-rule="evenodd" d="M69.2674 85.5131C68.6222 83.8306 67.8325 82.5457 66.9046 81.6412C65.9798 80.7421 64.923 80.2495 63.7267 80.1758C62.5357 80.0986 61.2206 80.4552 59.7782 81.2547C59.458 81.4322 59.1054 81.635 58.712 81.877C58.3331 82.1177 57.9432 82.3802 57.5543 82.6583C57.1469 82.9304 56.7823 83.2101 56.424 83.5014L52.9012 74.3466C52.8384 74.1637 52.7184 74.06 52.5704 74.0025C52.4104 73.9516 52.2559 73.9669 52.1073 74.0492L50.5945 74.8878C50.4224 74.9832 50.3218 75.1249 50.2687 75.2939C50.2211 75.4599 50.2255 75.636 50.2901 75.7939L54.7027 87.2951C54.86 87.8448 55.5472 87.1529 55.9269 86.8732C57.4924 85.6946 59.0094 84.6672 60.7243 83.7167C61.6918 83.1803 62.536 82.9681 63.2633 83.0768C63.9908 83.1859 64.6301 83.5689 65.1834 84.2318C65.7288 84.9075 66.2225 85.8122 66.6512 86.9633L67.5357 89.273C67.9919 90.4323 68.2524 91.4903 68.3202 92.4374C68.3905 93.3758 68.2254 94.2119 67.8197 94.9492C67.4193 95.6831 66.7304 96.3295 65.7577 96.8687C65.4136 97.0594 65.0327 97.2544 64.6225 97.4661C64.1998 97.6692 63.7835 97.8698 63.3605 98.0724C62.9435 98.2728 62.5564 98.4405 62.1995 98.6082L58.0989 87.6699C58.0356 87.5425 57.8472 87.5381 57.6457 87.6498C57.325 87.8276 56.2682 88.5373 55.8949 88.8296C55.6092 89.0421 55.4535 89.0977 55.6005 89.4042L60.1138 101.423C60.1936 101.651 60.2944 101.806 60.4151 101.869C60.5363 101.934 60.7485 101.925 61.0176 101.822C62.0121 101.504 62.9863 101.134 63.9374 100.708C64.8759 100.289 65.8102 99.8332 66.7004 99.3397C68.1832 98.5022 69.2731 97.5028 69.9795 96.327C70.6885 95.143 71.0549 93.8313 71.0583 92.3944C71.0752 90.9566 70.7677 89.4362 70.1523 87.8225L69.2674 85.5131Z" fill="white"/>
</g>
<mask id="mask9_0_6322" style="mask-type:alpha" maskUnits="userSpaceOnUse" x="61" y="59" width="29" height="34">
<path fill-rule="evenodd" clip-rule="evenodd" d="M61.7952 67.4044L75.694 59.7002L89.8477 85.2342L75.9489 92.9384L61.7952 67.4044Z" fill="white"/>
</mask>
<g mask="url(#mask9_0_6322)">
<path fill-rule="evenodd" clip-rule="evenodd" d="M84.4576 75.8182C83.8124 74.1357 83.0226 72.8509 82.0948 71.9463C81.1699 71.0472 80.1132 70.5546 78.9168 70.4809C77.7258 70.4037 76.4108 70.7603 74.9684 71.5598C74.6482 71.7374 74.2956 71.9401 73.9022 72.1821C73.5233 72.4229 73.1334 72.6853 72.7445 72.9634C72.3371 73.2355 71.9725 73.5152 71.6142 73.8065L68.0914 64.6517C68.0286 64.4688 67.9085 64.3651 67.7606 64.3076C67.6006 64.2567 67.4461 64.272 67.2975 64.3544L65.7847 65.1929C65.6126 65.2883 65.512 65.4301 65.4588 65.5991C65.4113 65.765 65.4157 65.9411 65.4803 66.099L69.8929 77.6002C70.0502 78.1499 70.7374 77.4581 71.1171 77.1784C72.6826 75.9997 74.1996 74.9723 75.9145 74.0218C76.882 73.4855 77.7261 73.2732 78.4535 73.3819C79.181 73.4911 79.8203 73.8741 80.3736 74.5369C80.919 75.2126 81.4126 76.1173 81.8414 77.2684L82.7259 79.5781C83.1821 80.7374 83.4426 81.7954 83.5104 82.7425C83.5806 83.6809 83.4156 84.517 83.0099 85.2544C82.6095 85.9882 81.9206 86.6346 80.9479 87.1738C80.6038 87.3645 80.2229 87.5595 79.8127 87.7712C79.39 87.9743 78.9737 88.1749 78.5507 88.3775C78.1337 88.578 77.7466 88.7456 77.3897 88.9134L73.2891 77.975C73.2257 77.8477 73.0374 77.8432 72.8359 77.9549C72.5152 78.1327 71.4584 78.8424 71.0851 79.1347C70.7994 79.3472 70.6437 79.4028 70.7907 79.7093L75.304 91.7284C75.3838 91.956 75.4846 92.1106 75.6053 92.1743C75.7265 92.2389 75.9387 92.2301 76.2077 92.1273C77.2023 91.8088 78.1765 91.4396 79.1276 91.0134C80.066 90.5937 81.0003 90.1383 81.8906 89.6448C83.3734 88.8073 84.4633 87.8079 85.1696 86.6321C85.8787 85.4481 86.2451 84.1365 86.2485 82.6995C86.2654 81.2617 85.9579 79.7413 85.3425 78.1276L84.4576 75.8182Z" fill="white"/>
</g>
<path opacity="0.551213" d="M130.805 100.04C133.113 98.1338 134.417 94.421 134.919 92.4141C135.12 91.7117 134.718 90.9089 134.317 91.0092C133.012 91.0092 130.604 91.511 128.497 93.6182C127.694 94.421 126.891 95.4244 126.289 96.4279C126.691 93.8189 126.791 92.5144 126.791 89.8051C128.196 89.6044 130.303 89.1027 131.808 86.9954C133.614 84.5871 134.016 80.5733 133.915 78.3657C133.915 77.5629 133.414 76.9608 132.912 77.0612C131.708 77.4626 129.4 78.466 127.895 81.075C127.293 82.0785 126.791 83.2826 126.49 84.3864C126.189 81.4764 125.988 79.9712 125.185 77.0612C124.884 76.0577 124.082 75.3553 123.479 75.556C122.777 75.7567 122.476 76.7601 122.677 77.6633C123.379 80.4729 123.58 81.8778 123.881 84.6875C123.279 83.684 122.576 82.7809 121.673 82.0785C119.466 80.3726 116.957 80.5733 115.653 80.8743C115.151 80.9747 114.95 81.4764 115.151 81.9781C115.753 83.2826 116.957 85.7913 118.964 87.5975C120.67 89.1027 122.777 89.7047 124.082 89.8051C124.082 92.3137 123.981 93.6182 123.58 96.1269C123.279 95.0231 122.777 94.0196 122.075 93.1165C120.369 91.0092 117.86 90.6079 116.556 90.6079C116.054 90.6079 115.753 91.0092 115.853 91.511C116.154 92.9158 116.656 95.5248 118.261 97.6321C119.566 99.4383 121.473 100.442 122.777 100.943C122.175 103.352 121.774 104.556 120.87 106.864C120.77 105.76 120.569 104.656 120.068 103.653C118.864 101.244 116.455 100.341 115.251 99.94C114.85 99.8397 114.348 100.141 114.348 100.642C114.248 102.047 114.248 104.757 115.251 107.065C116.154 109.172 117.659 110.577 118.864 111.379C117.76 113.587 117.057 114.691 115.653 116.698C115.853 115.594 115.853 114.49 115.552 113.386C114.95 110.777 112.843 109.272 111.739 108.67C111.338 108.469 110.836 108.67 110.635 109.172C110.234 110.476 109.632 113.085 110.033 115.694C110.435 117.902 111.639 119.708 112.542 120.712C110.936 122.618 110.033 123.521 108.127 125.127C108.528 124.123 108.829 123.02 108.829 121.916C108.829 119.206 107.123 117.3 106.22 116.397C105.919 116.096 105.317 116.196 105.016 116.597C104.313 117.802 103.109 120.21 102.909 122.819C102.708 125.127 103.511 127.033 104.113 128.238C102.106 129.743 101.002 130.445 98.6941 131.649C99.3965 130.746 99.9986 129.743 100.199 128.639C100.902 125.93 99.6975 123.722 98.9951 122.618C98.7944 122.217 98.1923 122.217 97.791 122.618C96.7875 123.622 94.9813 125.729 94.0782 128.238C93.2754 130.445 93.5764 132.552 93.8775 133.857C92.7737 134.258 92.2719 134.459 91.1681 134.86C90.1647 135.161 89.5626 135.964 89.7633 136.667C89.964 137.369 90.9675 137.67 91.9709 137.369C93.1751 136.968 93.6768 136.767 94.8809 136.265C95.5834 137.469 96.8879 139.175 99.4968 139.777C102.507 140.48 106.32 139.376 108.227 138.473C108.929 138.172 109.331 137.469 109.03 137.068C108.227 136.064 106.421 134.359 103.511 133.957C102.307 133.757 101.102 133.757 99.8982 133.857C102.307 132.552 103.41 131.85 105.618 130.345C106.521 131.348 108.227 132.753 110.836 132.753C113.846 132.753 117.258 130.846 118.864 129.542C119.466 129.141 119.666 128.338 119.265 128.037C118.261 127.234 116.054 126.03 113.244 126.231C112.04 126.331 110.836 126.632 109.732 126.933C111.739 125.127 112.642 124.224 114.348 122.217C115.452 123.02 117.459 123.923 119.967 123.321C122.877 122.718 125.687 120.009 126.992 118.404C127.493 117.802 127.493 117.099 127.092 116.898C125.888 116.296 123.58 115.694 120.77 116.497C119.666 116.798 118.563 117.4 117.559 118.002C119.064 115.895 119.767 114.691 120.971 112.383C122.275 112.885 124.383 113.386 126.691 112.182C129.4 110.878 131.507 107.667 132.41 105.86C132.711 105.158 132.611 104.456 132.109 104.355C130.805 104.054 128.396 103.954 125.888 105.459C124.884 106.061 123.981 106.864 123.178 107.667C124.182 105.258 124.583 103.954 125.185 101.445C126.59 101.646 128.798 101.646 130.805 100.04Z" fill="white"/>
<path fill-rule="evenodd" clip-rule="evenodd" d="M89.9868 115.825H47.0852V120.225H51.4854V138.376H52.0354H53.6855H58.0421V138.446H59.7176V138.376H85.3748V136.549H85.2566V120.225H89.9868V115.825ZM59.7176 136.549H65.1145V120.225H59.7176V136.549ZM58.0421 120.225H53.6855V136.549H58.0421V120.225ZM83.0566 120.225H80.2091V136.549H83.0566V120.225ZM76.543 120.225H79.0443V136.549H76.543V120.225ZM75.3783 120.225H66.2792V136.549H75.3783V120.225Z" fill="#9F9FA1"/>
<defs>
<filter id="filter0_d_0_6322" x="10.5935" y="0" width="114.953" height="133.103" filterUnits="userSpaceOnUse" color-interpolation-filters="sRGB">
<feFlood flood-opacity="0" result="BackgroundImageFix"/>
<feColorMatrix in="SourceAlpha" type="matrix" values="0 0 0 0 0 0 0 0 0 0 0 0 0 0 0 0 0 0 127 0" result="hardAlpha"/>
<feOffset dy="-6"/>
<feGaussianBlur stdDeviation="11"/>
<feColorMatrix type="matrix" values="0 0 0 0 0.426479 0 0 0 0 0.501183 0 0 0 0 0.909065 0 0 0 0.5 0"/>
<feBlend mode="normal" in2="BackgroundImageFix" result="effect1_dropShadow_0_6322"/>
<feBlend mode="normal" in="SourceGraphic" in2="effect1_dropShadow_0_6322" result="shape"/>
</filter>
<linearGradient id="paint0_linear_0_6322" x1="27.477" y1="43.8432" x2="60.7445" y2="122.261" gradientUnits="userSpaceOnUse">
<stop stop-color="#F6F9FF" stop-opacity="0.0987617"/>
<stop offset="1" stop-color="#B3CFF3" stop-opacity="0.565311"/>
</linearGradient>
<linearGradient id="paint1_linear_0_6322" x1="98.9182" y1="29.5684" x2="68.2018" y2="29.5684" gradientUnits="userSpaceOnUse">
<stop stop-color="#4180AA"/>
<stop offset="1" stop-color="#CCCCCC"/>
</linearGradient>
<linearGradient id="paint2_linear_0_6322" x1="57.2331" y1="88.9225" x2="37.7038" y2="88.9225" gradientUnits="userSpaceOnUse">
<stop stop-color="#4180AA"/>
<stop offset="1" stop-color="#CCCCCC"/>
</linearGradient>
<linearGradient id="paint3_linear_0_6322" x1="95.8108" y1="117.575" x2="95.8108" y2="115.935" gradientUnits="userSpaceOnUse">
<stop stop-color="#B3B3B3"/>
<stop offset="1" stop-color="#4180AA"/>
</linearGradient>
<linearGradient id="paint4_linear_0_6322" x1="97.1792" y1="74.7002" x2="77.5533" y2="73.8548" gradientUnits="userSpaceOnUse">
<stop stop-color="#4180AA"/>
<stop offset="1" stop-color="#CCCCCC"/>
</linearGradient>
<linearGradient id="paint5_linear_0_6322" x1="83.2398" y1="27.2101" x2="58.2576" y2="44.724" gradientUnits="userSpaceOnUse">
<stop stop-color="#F2F2F2"/>
<stop offset="1" stop-color="#143F59"/>
</linearGradient>
<linearGradient id="paint6_linear_0_6322" x1="61.5116" y1="28" x2="25.7941" y2="28" gradientUnits="userSpaceOnUse">
<stop stop-color="#999999"/>
<stop offset="1" stop-color="#142959" stop-opacity="0.733331"/>
</linearGradient>
<linearGradient id="paint7_linear_0_6322" x1="61.5116" y1="28" x2="25.7941" y2="28" gradientUnits="userSpaceOnUse">
<stop stop-color="#E6E6E6"/>
<stop offset="1" stop-color="#143F59"/>
</linearGradient>
<linearGradient id="paint8_linear_0_6322" x1="53.3741" y1="85.8336" x2="31.7564" y2="84.0353" gradientUnits="userSpaceOnUse">
<stop stop-color="#F2F2F2" stop-opacity="0.272353"/>
<stop offset="1" stop-color="#3049A9" stop-opacity="0.61983"/>
</linearGradient>
<linearGradient id="paint9_linear_0_6322" x1="100.033" y1="63.1286" x2="81.5767" y2="63.1286" gradientUnits="userSpaceOnUse">
<stop stop-color="#999999"/>
<stop offset="1" stop-color="#143F59"/>
</linearGradient>
<linearGradient id="paint10_linear_0_6322" x1="83.7635" y1="28" x2="64.5429" y2="28" gradientUnits="userSpaceOnUse">
<stop stop-color="#999999"/>
<stop offset="1" stop-color="#143F59"/>
</linearGradient>
<linearGradient id="paint11_linear_0_6322" x1="95.2031" y1="73.0895" x2="76.1233" y2="73.0895" gradientUnits="userSpaceOnUse">
<stop stop-color="#E6E6E6" stop-opacity="0.409856"/>
<stop offset="1" stop-color="#142659" stop-opacity="0.507244"/>
</linearGradient>
</defs>
</svg>
