<svg width="173" height="113" viewBox="0 0 173 113" xmlns="http://www.w3.org/2000/svg">
    <defs>
        <linearGradient x1="79.433%" y1="15.86%" x2="50%" y2="50%" id="a">
            <stop stop-color="#797A7F" stop-opacity=".731" offset="0%"/>
            <stop stop-color="#FFF" stop-opacity="0" offset="100%"/>
        </linearGradient>
    </defs>
    <g fill="none" fill-rule="evenodd">
        <path fill-opacity=".084" fill="#FFF" d="M115.333 113 58.619 80.256l56.712-32.743 56.714 32.744z"/>
        <path fill-opacity=".217" fill="#FFF" opacity=".766" d="M115.333 107.156 58.619 74.412 115.33 41.67l56.714 32.744z"/>
        <path d="M106.685 42.56a5.419 5.419 0 0 1-.015.288l-.007.088-.022.213-.012.095a5.834 5.834 0 0 1-.028.189l-.014.086a8.23 8.23 0 0 1-.11.521l-.019.075-.046.172-.018.063a6.45 6.45 0 0 1-.078.258l-.043.129a9.7 9.7 0 0 1-.124.346l-.024.06a9.188 9.188 0 0 1-.119.29l-.03.074c-.048.108-.097.215-.148.322l-.031.062c-.044.09-.09.18-.137.27-.013.025-.025.05-.04.075-.056.105-.114.21-.174.314l-.032.053c-.055.094-.112.186-.17.279a11.585 11.585 0 0 1-.254.384l-.043.059a9.507 9.507 0 0 1-.252.342l-.08.102c-.03.035-.058.072-.086.107l-.085.1-.088.105-.042.047a8.01 8.01 0 0 1-.162.18l-.07.073c-.047.05-.095.099-.143.147l-.088.088-.06.058-.122.113-.054.05a7.204 7.204 0 0 1-.176.153l-.009.007a6.29 6.29 0 0 1-.17.14l-.058.044a5.721 5.721 0 0 1-.128.097l-.064.046c-.043.031-.086.061-.13.09l-.057.04a8.11 8.11 0 0 1-.325.203c-.066.038-.13.073-.194.107l-.051.025c-.058.03-.116.059-.173.085l-.02.01a4.55 4.55 0 0 1-.363.147l-.045.016a4.11 4.11 0 0 1-.228.07c-.043.013-.086.022-.129.033l-.063.015a3.904 3.904 0 0 1-.19.035l-.005.001a2.994 2.994 0 0 1-.172.02l-.056.004a2.28 2.28 0 0 1-.12.007h-.178l-.043-.002a2.67 2.67 0 0 1-.157-.014l-.033-.005a2.395 2.395 0 0 1-.124-.02 1.847 1.847 0 0 1-.18-.043h-.001a2.854 2.854 0 0 1-.151-.05l-.038-.014a1.658 1.658 0 0 1-.11-.048l-.03-.012a1.927 1.927 0 0 1-.139-.074l2.762 1.605.023.013c.038.021.077.041.117.06l.028.014.066.03.046.017.037.014c.046.018.092.033.14.047h.002l.009.003c.045.013.092.024.139.034l.042.009.043.009.082.011.032.005c.046.005.093.01.14.013h.017c.014.002.029.002.043.002.041.002.082.003.124.002l.053-.001.042-.001c.026 0 .053-.003.08-.005.018-.002.036-.002.055-.005a2.76 2.76 0 0 0 .173-.02h.004c.063-.01.127-.022.19-.037l.063-.014c.04-.01.078-.018.118-.029a3.554 3.554 0 0 0 .24-.074h-.001l.045-.016a4.58 4.58 0 0 0 .188-.072 4.422 4.422 0 0 0 .176-.075l.02-.01c.056-.026.114-.055.172-.084.016-.01.033-.017.05-.027a4.78 4.78 0 0 0 .194-.106 5.948 5.948 0 0 0 .326-.203l.058-.039.13-.09c.02-.016.042-.031.064-.047l.127-.097.057-.044c.058-.046.115-.092.171-.14a6.44 6.44 0 0 0 .185-.161c.019-.016.036-.033.055-.048l.12-.114.061-.058.047-.045.042-.043.142-.146.07-.074.162-.18c.01-.013.023-.025.034-.038a.071.071 0 0 0 .007-.009c.031-.034.06-.07.09-.105l.084-.1.085-.107.076-.095.005-.006c.087-.112.17-.226.253-.343l.025-.034c.006-.008.01-.017.017-.025.073-.105.144-.211.213-.318l.015-.023.026-.043c.058-.092.115-.185.17-.279l.024-.038.008-.016c.06-.103.119-.208.175-.313l.016-.028.024-.047c.047-.09.092-.18.136-.27l.022-.043.009-.019c.05-.106.1-.214.147-.322l.012-.026.02-.047c.04-.096.08-.193.118-.29l.018-.042.006-.018c.044-.116.085-.231.124-.347l.012-.034.03-.095.028-.085c.017-.057.035-.115.051-.173l.019-.062a7.219 7.219 0 0 0 .045-.173l.02-.074c.02-.081.038-.163.055-.243V45.4c.02-.092.038-.185.054-.276l.014-.087c.01-.063.02-.127.028-.19.002-.013.005-.026.006-.04l.006-.054.022-.213.007-.087a5 5 0 0 0 .015-.289c.018-.705-.092-1.305-.305-1.786-.212-.48-.527-.842-.92-1.07l-2.761-1.604c.784.455 1.259 1.445 1.224 2.855" fill="#1D63C5"/>
        <path d="M105.975 34.77c-.065 0-.132.002-.2.004l-.031.001-.017.001a4.95 4.95 0 0 0-.25.018l-.052.006a5.74 5.74 0 0 0-.263.033h-.001l-.003.001a5.783 5.783 0 0 0-.32.059l-.025.005a6.84 6.84 0 0 0-.314.076l-.026.006-.022.007a10.38 10.38 0 0 0-.17.049c-.013.004-.027.007-.04.012-.07.022-.14.045-.212.07l-.06.02-.155.056-.077.03a9.508 9.508 0 0 0-.141.057c-.015.005-.03.01-.044.017l-.034.015a8.026 8.026 0 0 0-.204.088c-.013.007-.026.012-.04.018-.08.037-.161.076-.243.116a8.75 8.75 0 0 0-.254.13v.001a9.566 9.566 0 0 0-.32.176c-.125.073-.25.15-.374.228l-.12.078c-.085.055-.169.11-.252.168-.047.031-.093.064-.139.096a29.214 29.214 0 0 0-.37.272c-.078.06-.155.12-.231.182l-.13.103c-.087.072-.172.145-.258.218l-.094.08c-.117.102-.231.207-.346.313l-.071.07c-.076.07-.152.142-.227.216l-.05.05-.061.062c-.105.105-.209.212-.311.32l-.008.01c-.105.11-.208.224-.31.339l-.06.069-.054.06c-.047.054-.093.11-.14.166-.05.058-.099.116-.148.176-.06.072-.12.147-.179.22l-.141.178a16.43 16.43 0 0 0-.292.383l-.012.017c-.082.112-.163.224-.243.338l-.03.044-.074.11c-.067.096-.133.193-.197.29l-.086.132-.065.1c-.047.073-.092.147-.138.221l-.051.08c-.073.12-.145.24-.215.36l-.026.045-.056.098c-.062.109-.123.217-.182.326a7.3 7.3 0 0 0-.062.114l-.041.076c-.06.112-.12.226-.177.34l-.016.034c-.049.096-.097.193-.144.29l-.046.099-.057.12a19.84 19.84 0 0 0-.161.355l-.035.078c-.003.01-.008.018-.012.027-.058.134-.113.268-.168.402l-.043.11-.076.19-.052.14c-.017.046-.035.092-.05.138-.046.123-.09.246-.131.37l-.025.072-.006.018c-.048.144-.094.287-.137.43-.012.041-.023.082-.036.122-.024.082-.048.163-.07.245-.008.026-.015.053-.021.079l-.053.201c-.023.09-.046.18-.067.27a8.188 8.188 0 0 0-.047.204c-.01.048-.023.095-.033.143a10.14 10.14 0 0 0-.039.194 15.317 15.317 0 0 0-.147.891l-.007.062-.017.144-.03.3-.013.156c-.007.1-.013.201-.018.302l-.007.136c-.005.144-.008.288-.008.43.017 5.961 5.85 9.839 7.457 10.794l2.762 1.605c-1.606-.955-7.44-4.833-7.457-10.794 0-.142.003-.286.009-.43a10.109 10.109 0 0 1 .025-.438l.012-.156.03-.3c.006-.048.01-.096.017-.144.017-.134.036-.268.056-.404l.013-.072a13.8 13.8 0 0 1 .075-.429l.01-.049c.022-.111.047-.223.072-.336.015-.068.03-.136.047-.204.021-.09.044-.18.067-.27l.053-.2c.029-.109.06-.217.091-.325l.036-.12c.045-.15.093-.3.143-.45l.025-.073c.042-.123.085-.246.13-.369l.051-.138c.042-.11.084-.22.128-.33l.043-.11c.059-.144.118-.286.18-.429a19.84 19.84 0 0 1 .196-.434l.057-.119c.062-.13.125-.26.19-.39l.017-.033c.07-.14.143-.278.217-.415l.062-.114c.06-.11.12-.219.183-.327l.055-.097c.08-.136.16-.272.241-.405l.05-.08.204-.322.086-.131c.064-.098.13-.195.196-.292.026-.036.05-.073.075-.11.09-.127.18-.255.274-.38a17.014 17.014 0 0 1 .303-.4c.046-.06.094-.119.141-.178.06-.074.118-.149.179-.221.048-.06.099-.118.148-.176.064-.076.128-.152.194-.226a16.436 16.436 0 0 1 .37-.408l.008-.009c.102-.109.207-.215.311-.32l.062-.063c.091-.09.183-.18.276-.266l.071-.07c.114-.106.23-.21.346-.312.03-.027.063-.054.094-.08.086-.074.172-.147.258-.218.043-.036.087-.07.13-.104.077-.061.153-.122.23-.181l.14-.105c.077-.057.155-.113.232-.167a11.458 11.458 0 0 1 .39-.265l.12-.078a9.543 9.543 0 0 1 .624-.366l.071-.038c.063-.034.126-.066.19-.098l.064-.032a9.34 9.34 0 0 1 .242-.116l.04-.018a7.4 7.4 0 0 1 .204-.09l.077-.031.141-.056.079-.03a8.43 8.43 0 0 1 .155-.057l.06-.021c.07-.024.141-.048.212-.069l.039-.012.17-.05.048-.012a6.3 6.3 0 0 1 .314-.076l.025-.005c.107-.023.215-.042.32-.059h.004a5.67 5.67 0 0 1 .264-.034l.051-.005a5.52 5.52 0 0 1 .25-.019l.049-.001c.067-.003.133-.004.2-.004h.042c.076 0 .15.003.224.008.018 0 .035.002.052.003l.174.016.047.005c.069.008.138.018.205.03l.045.008c.053.01.107.02.16.032l.052.012c.065.015.13.031.193.05l.015.005c.059.017.116.035.173.055l.052.019.15.057.035.014c.059.025.118.052.176.08l.042.022.137.071.071.04-2.762-1.606-.043-.024-.028-.015a4.51 4.51 0 0 0-.137-.072l-.043-.021a3.4 3.4 0 0 0-.176-.08l-.009-.004-.025-.01c-.05-.02-.1-.04-.15-.057l-.052-.019a3.186 3.186 0 0 0-.173-.055l-.012-.004-.003-.001a3.91 3.91 0 0 0-.193-.05l-.053-.012a4.692 4.692 0 0 0-.16-.032l-.03-.006-.014-.003a4.406 4.406 0 0 0-.206-.03l-.045-.004a3.772 3.772 0 0 0-.175-.016l-.033-.003h-.019a4.744 4.744 0 0 0-.224-.009h-.043" fill="#64A1F8"/>
        <path d="M105.22 37.447c-4.319 2.494-7.808 8.538-7.794 13.5.017 5.961 5.851 9.84 7.457 10.794.112.067.258.047.405-.037.146-.085.292-.235.403-.43 1.595-2.809 7.39-13.428 7.373-19.356-.01-3.514-1.774-5.543-4.336-5.543-1.056 0-2.248.345-3.508 1.072M101.043 48.7c.063-2.57 1.85-5.664 4.051-7.016l.137-.082c2.368-1.367 4.284-.22 4.216 2.563-.064 2.57-1.85 5.664-4.05 7.016a4.07 4.07 0 0 1-.138.081c-.678.391-1.319.577-1.887.577-1.415 0-2.378-1.153-2.329-3.14" fill="#3384F7"/>
        <path d="M92.702.71c-.915.865-3.115 2.777-4.17 3.012-1.055.236-3.334 1.159-3.334 1.159s-.177-1.299-1.478-1.532c-1.301-.234-2.401.682-2.844 1.387-.444.704-2.161 1.308-2.161 1.308-.835.822-1.174 1.42-2.63 1.971-.729.276-1.848.275-3.232.815-4.144 1.62-3.167 3.01-4.465 3.789-1.298.777-3.331 2.151-3.331 2.151-4.778 6.69-12.187 13.47-17.99 18.293 6.428 4.393 11.92 14.02 12.798 23.002.054.554.084 1.09.101 1.615 5.183-1.882 9.943-1.534 13.426-2.49 4.942-1.356 11.79-7.997 11.79-7.997 3.103-.767 3.463-1.015 5.09-1.892 1.629-.877 8.795-2.768 10.733-2.942 1.938-.174 4.06-.575 4.748-1.795 1.05-1.858-.207-4.05-.207-4.05s.608.112 1.665-.869c1.057-.982.19-3.156-1.845-6.402-2.037-3.246-2.881-9.269-4.492-10.382-1.61-1.113-6.38-4.122-6.38-4.122 2.725-.512 7.225-2.623 8.557-3.112 1.331-.489 3.049-1.845 3.513-2.028.463-.184 2.751-1.537 2.076-3.92-.677-2.384-3.461-1.405-4.261-1.022-.8.383-.538.494-2.289.947-1.75.454-2.259.165-4.687.654-2.43.488-3.911.393-3.911.393 2.14-1.539 3.439-4.393 2.972-5.719C96.232.272 95.526 0 94.762 0c-.77 0-1.6.277-2.06.71m-1.937 33.18c-1.606-.349-4.668-3.275-3.51-4.78 1.157-1.504 1.426-5.073 1.426-5.073.387.351 2.461.008 2.461.008.572 1.221 4.314 2.06 4.314 2.06.402 2.296 2.446 4.72 2.9 5.238.453.518 1.156 1.977 1.156 1.977-.381-.062-1.902.215-1.902.215-1.9.5-3.239.671-4.31.671-.996 0-1.762-.147-2.535-.315" fill="#A4A4A8"/>
        <path d="M61.923 36.44s8.008 8.951 5.413 17.847c1.734-.033 4.155-.2 5.88-.81 2.982-1.053 9.43-5.819 11.966-6.284l-.022.022c-.432.415-6.991 6.664-11.768 7.975-2.64.725-6.013.7-9.747 1.463L65 54.528l-1.311-.011-1.767-18.078z" fill="#A2A3A7"/>
        <path d="M98.745 31.899s5.984 1.997 6.801 4.616l-.015-.02-.02-.022c-.347-.419-3.337-3.81-8.14-2.876 0 0 1.12-.302 2.048-.467-.136-.27-.405-.792-.674-1.231zm1.267-7.882s-1.302 1.855-4.38 2.797a5.8 5.8 0 0 1-.176-.71s-.324-.073-.792-.205c.012 0 3.135-.046 5.348-1.882zM88.7 20.74c-.138 1.165.552 3.444.553 3.448-.259-.015-.472-.06-.571-.15 0 0-.032.421-.12 1.035l-.024.157c-.522-1.907.162-4.49.162-4.49zm5.125.473c.125 1.742-2.077 3.465-2.082 3.468-.279-.197-.494-.409-.6-.635 0 0-.123.02-.312.046 1.926-.58 2.994-2.879 2.994-2.879zm-8.068-10.824c1.076.326 10.427 3.914 10.427 3.914l-1.69.437zm9.583-5.645a7.934 7.934 0 0 1-1.847 1.908s.065.004.19.005h.177c.308 0 .802-.017 1.449-.082v.003l-3.593.455c2.168-.521 3.321-1.883 3.624-2.289zm-10.446-.617c.248.382.305.755.305.755l.034-.013.094-.038c.184-.073.548-.217.98-.379-.458.17-1.474.698-1.6.764l-.012.006c.54-.262.267-.945.2-1.095z" fill="#9FA0A4"/>
        <path d="M98.957 33.337a4.23 4.23 0 0 1-.815.11c.251-.04.55-.083.815-.11" fill="#E28C61"/>
        <path d="M53.205 27.901c-2.768-1.256-5.184-1.12-6.992.123l-.002-.005-3.985 2.855c.771.162 1.573.42 2.406.799 7.426 3.371 14.246 14.292 15.233 24.392.254 2.602.093 4.89-.408 6.803L63.5 59.97v-.002c2.38-1.748 3.646-5.481 3.152-10.532-.872-8.917-6.893-18.558-13.448-21.535" fill="#D2D2D2"/>
        <path d="M8.865 44.431c12.983-9.53 25.05-15.349 27.1-16.75 2.05-1.403 4.789-1.557 7.923-.134 7.425 3.371 14.246 14.292 15.233 24.392.56 5.721-.874 9.95-3.57 11.93L27.898 79.183c-.02.016-.042.03-.063.046l-.227.163c-2.044 1.368-4.762 1.507-7.869.097C12.315 76.116 1.27 66.145.282 56.044c-.554-5.661-.504-5.075 2.138-7.081" fill="url(#a)" transform="translate(.744 4.126)"/>
        <path d="M134.101 75.79c3.633 2.183 4.759 5.02 2.552 6.43-2.436 1.557-7.88.837-11.891-1.573-3.633-2.184-4.759-5.02-2.553-6.43 2.437-1.558 7.88-.838 11.892 1.573m-27.193-10.084c1.074 2.572 5.574 12.263 14.264 17.28 7.274 4.2 16.868 5.47 21.43 2.836 4.56-2.634 2.363-8.173-4.911-12.372-8.74-5.046-25.484-7.623-29.932-8.237-.616-.085-1 .137-.851.493" fill="#3A3A3E"/>
    </g>
</svg>
