<svg width="1328" height="320" viewBox="0 0 1328 320" xmlns="http://www.w3.org/2000/svg" xmlns:xlink="http://www.w3.org/1999/xlink">
    <defs>
        <path d="M0 0h1308c11.046 0 20 8.954 20 20v280c0 11.046-8.954 20-20 20H20c-11.046 0-20-8.954-20-20V0z" id="a"/>
        <path id="c" d="M0 0h561.453v254.23H0z"/>
        <path id="e" d="M0 0h561.453v254.23H0z"/>
        <path d="M0 26.744c0 23.889 16.772 52.938 37.461 64.882 20.69 11.946 37.461 2.263 37.461-21.625 0-23.89-16.771-52.94-37.461-64.885C31.448 1.645 25.765 0 20.73 0 8.44 0 0 9.798 0 26.744" id="h"/>
        <path d="M0 23.463C0 44.423 14.716 69.91 32.867 80.39c18.152 10.48 32.867 1.985 32.867-18.974 0-20.96-14.715-46.446-32.867-56.926C27.591 1.443 22.607 0 18.188 0 7.405 0 0 8.596 0 23.463" id="j"/>
        <path d="M0 23.463C0 44.423 14.716 69.91 32.867 80.39c18.152 10.48 32.867 1.985 32.867-18.974 0-20.96-14.715-46.446-32.867-56.926C27.591 1.443 22.607 0 18.188 0 7.405 0 0 8.596 0 23.463z" id="l"/>
        <path d="M32.867 80.39c14.91 8.607 27.5 4.413 31.523-8.973.875-2.912 1.344-6.258 1.344-10.002 0-20.96-14.715-46.446-32.867-56.926C27.591 1.443 22.607 0 18.188 0 7.405 0 0 8.596 0 23.463 0 44.423 14.716 69.91 32.867 80.39z" id="n"/>
        <path d="m1.63.162.002-.005L0 1.165l1.125.183a2.556 2.556 0 0 0-.002.193l.29 9.196c.04 1.261.85 2.7 1.81 3.227l-.3 1.263 1.636-1.015-.004-.001c.404-.197.654-.71.63-1.453l-.29-9.195C4.855 2.295 4.037.844 3.068.324l-.262-.14A1.395 1.395 0 0 0 2.15 0a.885.885 0 0 0-.52.162" id="p"/>
        <path d="m.001 1.543.29 9.195c.041 1.27.86 2.72 1.828 3.239l.263.14c.969.52 1.721-.089 1.682-1.357l-.29-9.195c-.04-1.27-.859-2.72-1.828-3.24l-.262-.14A1.398 1.398 0 0 0 1.025 0C.396 0-.028.582.001 1.543" id="s"/>
        <radialGradient cx="-102.386%" cy="77.038%" fx="-102.386%" fy="77.038%" r="203.9%" gradientTransform="matrix(.9995 -.01076 .0316 .34045 -.025 .497)" id="q">
            <stop stop-color="#B6236E" offset="0%"/>
            <stop stop-color="#F9626B" offset="100%"/>
        </radialGradient>
        <linearGradient x1="50%" y1="10.379%" x2="91.446%" y2="46.98%" id="g">
            <stop stop-color="#DDFC64" offset="0%"/>
            <stop stop-color="#B2D919" offset="100%"/>
        </linearGradient>
    </defs>
    <g fill="none" fill-rule="evenodd">
        <mask id="b" fill="#fff">
            <use xlink:href="#a"/>
        </mask>
        <use fill="#24262D" xlink:href="#a"/>
        <g mask="url(#b)">
            <g transform="translate(-36 35.136)">
                <g transform="translate(0 18.77)">
                    <mask id="d" fill="#fff">
                        <use xlink:href="#c"/>
                    </mask>
                    <path d="M318.512 1.991c-.493-.089-.99-.147-1.488-.176L317.097 0c.558.03 1.112.095 1.662.195l-.247 1.796zm-8.532 1.68-.754-1.598c.491-.307.997-.58 1.51-.82l.598 1.684c-.458.214-.912.458-1.354.734zm15.343 1.644-1.373-.911.793-1.573 1.372.91-.792 1.574zm-22.035 2.784-.792-1.573 1.373-.91.792 1.574-1.373.909zm28.742 1.66-1.372-.91.792-1.572 1.373.91-.793 1.572zm-35.45 2.782-.793-1.573 1.37-.909.793 1.573-1.37.91zm42.16 1.66-1.373-.909.792-1.573 1.374.91-.792 1.572zm-48.87 2.786-.792-1.575 1.372-.909.793 1.575-1.373.909zm55.578 1.658-1.372-.909.792-1.574 1.373.909-.793 1.574zm-62.287 2.784-.792-1.573 1.374-.909.792 1.573-1.374.91zm68.997 1.66-1.373-.909.792-1.573 1.373.91-.792 1.572zm-75.706 2.784-.793-1.573 1.373-.909.793 1.573-1.373.91zm82.415 1.659-1.373-.91.793-1.572 1.372.909-.792 1.573zm-89.124 2.785-.793-1.574 1.374-.91.793 1.575-1.374.91zm95.831 1.66-1.372-.909.792-1.574 1.373.909-.793 1.575zm-102.54 2.784-.793-1.572 1.373-.91.792 1.573-1.372.91zm109.251 1.659-1.373-.91.793-1.572 1.372.909-.792 1.573zm-115.959 2.784-.792-1.573 1.372-.91.793 1.573-1.373.91zm122.667 1.66-1.373-.91.792-1.572 1.373.909-.792 1.573zM249.617 43.65l-.793-1.575 1.371-.91.793 1.575-1.371.91zm136.086 1.658-1.374-.91.793-1.572 1.374.909-.793 1.573zm-142.795 2.784-.793-1.573 1.373-.91.792 1.574-1.372.909zm149.503 1.66-1.373-.91.793-1.572 1.372.909-.792 1.573zm-156.212 2.784-.793-1.573 1.373-.91.792 1.574-1.372.909zm162.92 1.658-1.372-.909.793-1.573 1.37.91-.792 1.572zm-169.63 2.786-.792-1.575 1.373-.909.792 1.575-1.372.909zm176.34 1.66-1.373-.91.793-1.572 1.373.91-.793 1.572zm-183.047 2.784-.792-1.573 1.372-.91.793 1.574-1.373.909zm189.755 1.658-1.371-.909.792-1.573 1.371.91-.792 1.572zM216.07 65.866l-.792-1.573 1.372-.909.793 1.573-1.373.91zm203.176 1.66-1.374-.909.793-1.573 1.374.91-.793 1.572zm-346.62.064-.26-1.795a13.22 13.22 0 0 1 1.665-.205l.08 1.814c-.497.03-.991.091-1.484.186zm8.539 1.616a12.418 12.418 0 0 0-1.355-.725l.588-1.687c.515.236 1.019.505 1.515.809l-.748 1.603zm128.196 1.106-.792-1.573 1.372-.909.793 1.573-1.373.909zm-143.539.636-.792-1.572 1.374-.91.793 1.573-1.375.91zm360.132 1.022-1.373-.909.793-1.573 1.372.91-.792 1.572zm-338.1 1.659-1.372-.91.793-1.572 1.372.909-.792 1.573zm114.798 1.125-.792-1.573 1.374-.909.792 1.573-1.374.91zm-143.539.64-.792-1.574 1.374-.91.792 1.575-1.374.91zm35.451 2.677-1.373-.91.793-1.572 1.373.909-.793 1.573zm332.008 1.11-.796-1.574.243-.16c.301-.202.56-.453.769-.75l1.233 1.143a4.593 4.593 0 0 1-1.206 1.18l-.243.162zm-230.63.015-.792-1.572 1.375-.91.792 1.573-1.374.91zm-143.538.64-.792-1.572 1.374-.91.792 1.573-1.374.91zm467.424 2.128-.793-1.573 1.373-.909.792 1.573-1.372.909zm-418.555.553-1.372-.91.792-1.574 1.373.91-.793 1.574zm318.587 1.107-.793-1.573 1.374-.909.793 1.573-1.374.91zm-230.625.018-.792-1.573 1.372-.909.793 1.573-1.373.91zm-143.54.639-.792-1.573 1.372-.91.793 1.573-1.373.91zm467.422 2.125-.792-1.573 1.372-.909.793 1.573-1.373.91zm-405.135.553-1.372-.91.792-1.572 1.373.91-.793 1.572zm305.17 1.11-.792-1.574 1.372-.909.793 1.573-1.373.91zm-230.626.016-.792-1.573 1.372-.91.793 1.573-1.373.91zm-143.539.64-.792-1.575 1.37-.91.793 1.575-1.37.91zm467.423 2.125-.793-1.574 1.373-.91.792 1.575-1.372.91zm-391.719.553-1.372-.91.792-1.572 1.373.91-.793 1.572zm291.752 1.11-.792-1.575 1.372-.91.793 1.575-1.373.91zm-230.624.016-.793-1.573 1.371-.91.793 1.573-1.371.91zm-143.54.638-.793-1.573 1.37-.91.793 1.574-1.37.909zm467.42 2.127-.793-1.573 1.375-.909.792 1.573-1.374.91zm-378.298.553-1.373-.91.793-1.574 1.372.91-.792 1.574zm278.333 1.11-.793-1.574 1.373-.909.792 1.573-1.372.91zm-230.624.016-.793-1.573 1.373-.91.792 1.574-1.372.909zm-143.54.638-.793-1.573 1.372-.91.793 1.574-1.373.909zm467.421 2.126-.792-1.573 1.372-.91.793 1.573-1.373.91zm-364.883.554-1.372-.909.792-1.573 1.373.91-.793 1.572zm264.92 1.11-.796-1.574 1.371-.91.796 1.572-1.371.911zm-230.628.016-.792-1.573 1.372-.91.793 1.574-1.373.909zm-143.54.638-.792-1.573 1.374-.91.792 1.574-1.374.909zm467.424 2.127-.793-1.574 1.371-.91.793 1.575-1.371.91zm-351.467.551-1.372-.909.792-1.573 1.373.91-.793 1.572zm251.499 1.111-.793-1.572 1.373-.91.792 1.573-1.372.91zm-230.626.017-.793-1.575 1.374-.91.793 1.576-1.374.909zm-143.54.638-.792-1.573 1.375-.909.792 1.573-1.374.909zm467.423 2.126-.792-1.573 1.372-.91.793 1.573-1.373.91zm-337.7.218a14.112 14.112 0 0 1-1.575-.638l.61-1.68c.465.221.934.412 1.413.574l-.447 1.744zm6.44.509-.233-1.797c.493-.085.981-.2 1.468-.345l.4 1.758c-.538.162-1.086.293-1.635.384zm231.295.936-.792-1.572 1.372-.91.793 1.573-1.373.91zm-374.165.653-.792-1.573 1.372-.909.793 1.573-1.373.91zm467.423 2.128-.793-1.573 1.371-.91.793 1.574-1.371.909zm-99.969 1.662-.792-1.573 1.374-.91.793 1.574-1.375.909zM.233 116.925a5.63 5.63 0 0 1-.204-2.189l1.573.207c-.01.12-.017.244-.017.368 0 .35.05.698.147 1.025l-1.499.59zm465.923.588-.793-1.573 1.375-.91.792 1.574-1.374.909zm-99.965 1.664-.793-1.573 1.373-.91.792 1.573-1.372.91zm93.257 2.78-.792-1.573 1.372-.91.793 1.574-1.373.909zm-452.764.64-1.373-.91.793-1.574 1.372.91-.792 1.574zm352.8 1.022-.793-1.573 1.37-.91.793 1.574-1.37.909zm93.255 2.78-.792-1.573 1.372-.909.793 1.573-1.373.91zm-439.346.642-1.373-.91.793-1.572 1.372.91-.792 1.572zm339.38 1.022-.793-1.573 1.373-.91.792 1.574-1.372.909zm93.257 2.782-.792-1.573 1.372-.91.793 1.574-1.373.909zm-425.93.638-1.372-.909.792-1.573 1.373.91-.793 1.572zm325.965 1.024-.793-1.573 1.373-.91.793 1.574-1.373.909zm93.257 2.78-.792-1.573 1.371-.909.792 1.573-1.37.91zm-412.512.642-1.373-.91.793-1.574 1.372.91-.792 1.574zm314.082 1.502-1.576-.182a5.503 5.503 0 0 1 .61-2.093l1.352.948a3.465 3.465 0 0 0-.386 1.327zm91.72 2.3-.793-1.573 1.373-.909.792 1.573-1.372.91zm-399.095.64-1.37-.909.792-1.573 1.37.91-.792 1.572zm311.133 3.79-1.373-.91.793-1.572 1.372.909-.792 1.573zm81.254.014-.792-1.573 1.37-.909.793 1.573-1.37.91zm-385.678.64-1.37-.909.792-1.573 1.37.91-.792 1.572zm311.133 3.788-1.373-.91.793-1.572 1.372.91-.792 1.572zm67.834.016-.792-1.573 1.374-.909.793 1.573-1.375.91zm-372.256.64-1.373-.909.793-1.574 1.372.909-.792 1.574zm311.13 3.79-1.372-.91.793-1.574 1.372.91-.792 1.574zm54.419.014-.793-1.574 1.373-.91.792 1.575-1.372.91zm-358.84.64-1.374-.909.792-1.573 1.375.91-.793 1.572zm311.13 3.788-1.373-.91.792-1.572 1.373.91-.793 1.572zm41 .016-.792-1.572 1.373-.91.792 1.573-1.372.91zm-345.42.639-1.375-.91.793-1.572 1.374.909-.793 1.573zm311.13 3.79-1.372-.91.792-1.573 1.373.91-.793 1.572zm27.582.014-.793-1.573 1.373-.91.792 1.573-1.372.91zm-332.004.642-1.374-.91.793-1.573 1.374.91-.793 1.573zm311.16 3.796a15.78 15.78 0 0 1-.461-.293l-.942-.625.793-1.573.943.624c.138.09.274.178.41.262l-.743 1.605zm14.11.011-.749-1.602c.146-.09.292-.182.434-.276l.92-.61.792 1.575-.92.61c-.158.103-.318.205-.478.303zm-318.562.635-1.373-.91.793-1.572 1.372.909-.792 1.573zm311.445 1.373c-.259 0-.519-.01-.78-.028l.092-1.814c.252.014.5.03.754.023.25 0 .496-.009.744-.023l.082 1.814c-.296.02-.6.028-.892.028zM80.48 171.476l-1.372-.91.792-1.572 1.373.91-.793 1.572zm6.71 4.446-1.373-.91.792-1.572 1.373.909-.793 1.573zm6.708 4.442-1.374-.91.793-1.572 1.374.91-.793 1.572zm6.708 4.446-1.373-.91.793-1.574 1.372.91-.792 1.574zm6.71 4.442-1.374-.909.793-1.573 1.373.91-.793 1.572zm6.708 4.444-1.372-.909.792-1.573 1.373.91-.793 1.572zm6.71 4.444-1.372-.909.793-1.575 1.37.91-.792 1.574zm5.265 5.95-1.506-.566a3.562 3.562 0 0 0 .114-1.396l1.572-.231a5.61 5.61 0 0 1-.18 2.193zm-6.43 5.706-.793-1.573 1.374-.91.793 1.574-1.375.909zm-6.708 4.442-.793-1.573 1.373-.909.792 1.573-1.372.91zm-6.71 4.444-.792-1.573 1.373-.909.792 1.573-1.372.91zm-6.708 4.444-.793-1.573 1.373-.909.792 1.573-1.372.91zm-6.708 4.442-.792-1.572 1.372-.91.793 1.573-1.373.91zm-6.71 4.445-.793-1.573 1.374-.91.792 1.573-1.374.91zm-6.71 4.444-.792-1.573 1.374-.91.792 1.573-1.374.91zM72.61 240.9l-.793-1.573 1.371-.91.793 1.573-1.371.91zm-6.71 4.444-.792-1.575 1.371-.91.792 1.576-1.37.909zm-6.709 4.444-.792-1.573 1.372-.91.793 1.574-1.373.909zm-6.709 4.442-.792-1.573 1.372-.91.793 1.574-1.373.909z" fill="#73CFFE" mask="url(#d)"/>
                </g>
                <mask id="f" fill="#fff">
                    <use xlink:href="#e"/>
                </mask>
                <path d="M318.514 1.99c-.493-.088-.991-.147-1.489-.176L317.098 0c.558.029 1.113.094 1.663.194l-.247 1.797zm-8.534 1.68-.754-1.597c.491-.308.997-.58 1.51-.82l.598 1.683c-.458.215-.91.458-1.354.735zm15.343 1.643-1.373-.91.793-1.572 1.372.909-.792 1.573zm-22.035 2.784-.792-1.573 1.373-.91.792 1.574-1.373.909zm28.742 1.66-1.37-.91.792-1.572 1.37.909-.792 1.573zm-35.45 2.784-.793-1.573 1.372-.91.793 1.574-1.373.909zm42.16 1.66-1.372-.91.793-1.572 1.372.91-.792 1.572zm-48.87 2.782-.792-1.573 1.372-.909.793 1.573-1.373.909zm55.578 1.662-1.372-.91.792-1.572 1.373.91-.793 1.572zm-62.287 2.782-.792-1.573 1.374-.909.792 1.573-1.374.91zm68.998 1.662-1.374-.91.792-1.574 1.375.91-.793 1.574zm-75.705 2.782-.793-1.573 1.371-.909.793 1.573-1.371.91zm82.413 1.662-1.373-.91.793-1.572 1.372.91-.792 1.572zm-89.124 2.784-.793-1.575 1.374-.909.793 1.575-1.374.909zm95.833 1.66-1.373-.909.793-1.575 1.372.91-.792 1.574zm-102.54 2.782-.793-1.573 1.372-.909.793 1.573-1.373.91zm109.249 1.662-1.373-.909.793-1.573 1.372.91-.792 1.572zm-115.959 2.782-.792-1.573 1.372-.909.793 1.573-1.373.91zm122.667 1.66-1.371-.909.792-1.573 1.371.91-.792 1.572zm-129.376 2.784-.793-1.574 1.373-.91.793 1.575-1.373.91zm136.086 1.662-1.374-.909.793-1.573 1.374.91-.793 1.572zm-142.795 2.782-.793-1.572 1.373-.91.792 1.573-1.372.91zm149.503 1.66-1.371-.909.792-1.573 1.371.91-.792 1.573zm-156.212 2.783-.793-1.573 1.374-.91.793 1.573-1.374.91zm162.92 1.662-1.372-.91.793-1.572 1.372.909-.792 1.573zm-169.628 2.783-.792-1.574 1.37-.91.793 1.575-1.37.91zm176.338 1.66-1.373-.909.793-1.572 1.373.909-.793 1.573zm-183.047 2.783-.792-1.573 1.372-.91.793 1.574-1.373.909zm189.756 1.66-1.372-.91.792-1.572 1.373.909-.793 1.573zm-196.465 2.784-.793-1.573 1.371-.91.793 1.574-1.371.909zm203.174 1.66-1.374-.91.793-1.572 1.374.91-.793 1.572zM72.37 65.793a13.221 13.221 0 0 1 1.664-.205l.08 1.814c-.496.03-.992.091-1.485.186l-.259-1.795zm8.797 3.413a12.418 12.418 0 0 0-1.355-.725l.588-1.688c.515.237 1.019.506 1.515.81l-.748 1.603zm128.198 1.104-.793-1.573 1.373-.91.792 1.574-1.372.909zm-143.54.638-.793-1.573 1.374-.909.793 1.573-1.375.91zm360.13 1.022-1.37-.91.792-1.572 1.371.91-.792 1.572zM87.859 73.628l-1.375-.909.793-1.573 1.374.91-.792 1.572zm114.797 1.126-.793-1.573 1.373-.91.792 1.574-1.372.909zm-143.54.638-.793-1.575 1.374-.909.792 1.575-1.374.91zm35.45 2.68-1.373-.909.793-1.573 1.373.91-.793 1.572zm332.008 1.11-.796-1.575.243-.16c.303-.2.56-.451.769-.75l1.233 1.144c-.333.473-.74.87-1.208 1.18l-.241.16zm-230.628.014-.792-1.573 1.373-.909.792 1.573-1.373.91zm-143.54.64-.792-1.573 1.374-.909.792 1.573-1.374.91zm48.87 2.68-1.373-.909.792-1.574 1.373.909-.793 1.574zm318.586 1.108-.793-1.573 1.374-.91.793 1.574-1.374.909zm-230.625.018-.792-1.573 1.372-.91.793 1.574-1.373.909zm-143.538.636-.793-1.572 1.373-.91.792 1.573-1.372.91zm62.285 2.682-1.372-.909.792-1.573 1.373.91-.793 1.572zm305.17 1.108-.792-1.573 1.37-.91.793 1.574-1.37.909zm-230.624.016-.793-1.573 1.371-.909.793 1.573-1.371.91zm-143.54.64-.793-1.574 1.373-.91.792 1.575-1.373.91zM506.41 90.85l-.793-1.575 1.371-.909.793 1.575-1.371.909zm-391.719.553-1.372-.91.792-1.572 1.373.909-.793 1.573zm291.752 1.109-.792-1.575 1.372-.909.793 1.575-1.373.909zm-230.624.016-.793-1.573 1.373-.909.792 1.573-1.372.91zm-143.54.639-.793-1.573 1.372-.91.793 1.573-1.373.91zm467.42 2.125-.793-1.573 1.375-.909.792 1.573-1.374.91zm-378.298.557-1.373-.91.793-1.574 1.372.909-.792 1.575zm278.333 1.107-.793-1.573 1.373-.91.792 1.574-1.372.909zm-230.624.016-.793-1.573 1.373-.909.792 1.573-1.372.91zm-143.54.639-.793-1.573 1.372-.91.793 1.573-1.373.91zm467.421 2.125-.792-1.573 1.37-.909.793 1.573-1.37.91zm-364.881.555-1.373-.91.793-1.572 1.372.909-.792 1.573zm264.915 1.107-.793-1.573 1.373-.909.792 1.573-1.372.91zm-230.625.018-.792-1.573 1.372-.909.793 1.573-1.373.91zm-143.538.639-.793-1.573 1.373-.91.792 1.573-1.372.91zm467.42 2.125-.792-1.574 1.372-.91.793 1.575-1.373.91zm-351.465.555-1.37-.91.792-1.572 1.37.909-.792 1.573zm251.499 1.11-.793-1.574 1.374-.909.793 1.573-1.374.91zm-230.625.015-.792-1.574 1.372-.91.793 1.575-1.373.91zm-143.539.639-.792-1.573 1.373-.91.792 1.573-1.373.91zm467.421 2.125-.792-1.573 1.372-.909.793 1.573-1.373.91zm-337.698.219a13.99 13.99 0 0 1-1.575-.639l.61-1.68c.463.222.933.413 1.412.575l-.447 1.744zm6.438.509-.233-1.797c.493-.085.981-.2 1.468-.345l.4 1.758c-.538.162-1.086.293-1.635.384zm231.293.934-.792-1.573 1.373-.909.792 1.573-1.373.91zm-374.163.655-.792-1.573 1.372-.91.793 1.574-1.373.909zm467.421 2.126-.793-1.573 1.373-.91.793 1.573-1.373.91zm-99.967 1.663-.792-1.573 1.374-.909.793 1.573-1.375.91zM.233 116.927a5.733 5.733 0 0 1-.204-2.191l1.573.207a3.634 3.634 0 0 0 .13 1.395l-1.499.589zm465.923.585-.793-1.572 1.375-.91.792 1.573-1.374.91zm-99.965 1.662-.793-1.572 1.371-.91.793 1.573-1.371.91zm93.257 2.78-.792-1.572 1.37-.91.793 1.573-1.37.91zm-452.764.643-1.373-.91.793-1.574 1.372.909-.792 1.575zm352.798 1.021-.793-1.572 1.373-.91.792 1.573-1.372.91zm93.257 2.78-.792-1.572 1.372-.91.793 1.574-1.373.909zm-439.346.64-1.373-.908.793-1.573 1.372.909-.792 1.573zm339.38 1.024-.793-1.574 1.371-.91.793 1.575-1.371.91zm93.257 2.78-.792-1.572 1.37-.91.793 1.574-1.371.909zm-425.93.64-1.37-.908.792-1.573 1.37.909-.792 1.573zm325.963 1.025-.792-1.573 1.372-.91.793 1.573-1.373.91zm93.258 2.78-.793-1.573 1.373-.91.792 1.574-1.372.909zm-412.511.64-1.371-.91.792-1.574 1.371.91-.792 1.574zm314.08 1.505-1.575-.181a5.503 5.503 0 0 1 .61-2.093l1.352.947c-.211.396-.344.855-.387 1.327zm91.722 2.297-.793-1.573 1.374-.909.793 1.573-1.374.909zm-399.093.642-1.373-.91.793-1.572 1.372.909-.792 1.573zm311.13 3.79-1.372-.91.793-1.573 1.372.91-.792 1.572zm81.254.014-.793-1.573 1.373-.91.792 1.574-1.372.909zm-385.675.638-1.373-.909.793-1.573 1.372.91-.792 1.572zm311.13 3.79-1.373-.91.792-1.572 1.374.909-.792 1.573zm67.835.014-.792-1.573 1.374-.909.793 1.573-1.375.91zm-372.256.642-1.373-.91.793-1.574 1.372.91-.792 1.574zm311.13 3.788-1.372-.91.793-1.572 1.372.909-.792 1.573zm54.419.016-.793-1.575 1.371-.909.793 1.575-1.371.909zm-358.84.638-1.372-.909.792-1.573 1.373.91-.793 1.572zm311.13 3.79-1.373-.91.792-1.572 1.373.909-.793 1.573zm41 .014-.792-1.573 1.373-.909.792 1.573-1.372.91zm-345.42.64-1.373-.909.792-1.573 1.373.91-.793 1.572zm311.13 3.788-1.372-.91.792-1.572 1.373.909-.793 1.573zm27.582.016-.793-1.573 1.371-.909.793 1.573-1.371.91zm-332.004.64-1.372-.909.792-1.573 1.373.91-.793 1.572zm311.16 3.797a15.78 15.78 0 0 1-.461-.293l-.942-.622.793-1.576.943.622c.138.093.274.18.41.263l-.743 1.606zm14.108.013-.749-1.602 1.356-.888.792 1.575-1.4.915zm-318.56.634-1.371-.909.792-1.573 1.371.91-.792 1.572zm311.445 1.373c-.259 0-.519-.009-.78-.027l.092-1.815c.252.015.5.03.754.024.25 0 .496-.01.74-.024l.086 1.815c-.296.02-.598.022-.892.027zm-304.736 3.07-1.37-.91.792-1.572 1.37.909-.792 1.573zm6.71 4.445-1.373-.909.792-1.573 1.373.91-.793 1.572zm6.708 4.443-1.374-.91.793-1.572 1.374.909-.793 1.573zm6.71 4.446-1.375-.91.793-1.574 1.374.909-.792 1.575zm6.709 4.442-1.375-.91.793-1.572 1.374.909-.792 1.573zm6.707 4.444-1.372-.91.792-1.572 1.373.909-.793 1.573zm6.71 4.444-1.372-.91.793-1.574 1.37.91-.792 1.574zm5.265 5.95-1.506-.566a3.575 3.575 0 0 0 .114-1.396l1.572-.231a5.614 5.614 0 0 1-.18 2.193zm-6.43 5.704-.793-1.573 1.372-.91.793 1.574-1.373.909zm-6.708 4.442-.793-1.573 1.371-.91.793 1.574-1.371.909zm-6.71 4.444-.792-1.573 1.371-.909.793 1.573-1.371.909zm-6.708 4.444-.793-1.573 1.373-.909.792 1.573-1.372.91zm-6.71 4.444-.792-1.573 1.374-.909.793 1.573-1.375.91zm-6.709 4.444-.792-1.575 1.374-.909.792 1.575-1.374.91zm-6.709 4.444-.792-1.573 1.374-.909.792 1.573-1.374.91zm-6.707 4.442-.793-1.572 1.371-.91.793 1.573-1.371.91zm-6.71 4.446-.792-1.574 1.371-.91.792 1.575-1.37.91zm-6.709 4.443-.792-1.573 1.37-.91.793 1.573-1.37.91zm-6.709 4.444-.792-1.573 1.372-.91.793 1.573-1.373.91z" fill="#CBEC4C" mask="url(#f)"/>
            </g>
        </g>
        <ellipse fill="#7EB3FF" opacity=".539" style="mix-blend-mode:hard-light" mask="url(#b)" transform="rotate(-77 224.958 162.923)" cx="224.958" cy="162.923" rx="104" ry="120"/>
        <g mask="url(#b)">
            <path d="M272.173 86.54c-2.632 0-5.061.612-7.198 1.847-5.23 3.018-8.11 9.407-8.11 17.988 0 17.835 12.567 39.6 28.012 48.518 7.432 4.29 14.405 4.99 19.634 1.971 5.23-3.019 8.11-9.407 8.11-17.987 0-17.836-12.567-39.601-28.013-48.52-4.393-2.536-8.628-3.818-12.435-3.818m25.141 72.712c-3.902 0-8.227-1.306-12.706-3.892-15.594-9.004-28.281-30.978-28.281-48.984 0-8.782 2.975-15.336 8.378-18.455 5.402-3.12 12.568-2.42 20.172 1.972 15.595 9.003 28.282 30.978 28.282 48.985 0 8.78-2.975 15.334-8.378 18.454-2.222 1.282-4.741 1.92-7.467 1.92" fill="#FFF"/>
            <path d="M259.816 103.893c-3.901 2.253-6.05 6.98-6.05 13.31 0 12.947 9.122 28.748 20.334 35.221 3.226 1.863 6.343 2.803 9.157 2.803 1.97 0 3.79-.46 5.397-1.387 3.902-2.253 6.051-6.98 6.051-13.311 0-12.947-9.122-28.748-20.335-35.221-3.226-1.863-6.343-2.803-9.157-2.803-1.969 0-3.79.46-5.397 1.388m14.554 48.065c-11.064-6.388-20.066-21.979-20.066-34.755 0-6.13 2.054-10.692 5.782-12.844 1.523-.878 3.253-1.315 5.128-1.315 2.72 0 5.746.917 8.886 2.73 11.065 6.388 20.067 21.98 20.067 34.755 0 6.13-2.054 10.691-5.783 12.844-1.522.88-3.252 1.316-5.128 1.316-2.72 0-5.745-.917-8.886-2.73" fill="#FFF" opacity=".542"/>
            <path d="m241.856 165.59 1.263 47.688c.085 3.21 1.35 5.344 3.217 5.998v.003l6.578 3.876.723-3.094.95-5.626c1.791-2.81 2.917-6.369 2.832-9.594l-.164-6.209 6.282-37.207-7.382-4.273-14.3 8.438z" fill="#363F51"/>
            <path d="m249.236 169.862 1.265 47.689c.139 5.267 3.453 7.648 7.402 5.319 3.95-2.33 7.037-8.49 6.897-13.757l-1.263-47.688-14.301 8.437z" fill="#7182A4"/>
            <path d="m266.596 115.833-36.112 6.858 25.909 44.621 23.877-27.81c1.06-1.201 1.68-3.03 1.68-5.382 0-6.278-4.409-13.912-9.846-17.052-1.58-.912-3.073-1.344-4.395-1.344a5.54 5.54 0 0 0-1.113.11" fill="#CBEC4C"/>
            <path d="M257.498 121.127c-2.802-1.617-5.428-2.28-7.704-2.103l-1.843.35c-3.706 1.163-6.096 4.96-6.096 10.784 0 9.975 7.004 22.106 15.643 27.094 2.037 1.176 3.982 1.844 5.767 2.056l9.868-11.492c-.186-9.897-7.112-21.768-15.635-26.689" fill="#8AA71D"/>
            <path d="m94.765 30.518-.071.035-.087.042A136.804 136.804 0 0 1 28.493 44.74l-6.434-.25 52.38 89.763 2.837-5.483a136.804 136.804 0 0 1 44.011-49.868c3.59-2.016 5.817-6.41 5.817-12.692 0-12.454-8.743-27.597-19.528-33.824-3.13-1.807-6.089-2.662-8.71-2.662-1.483 0-2.858.274-4.096.802l-.005-.008z" fill="url(#g)" transform="translate(142 86)"/>
            <path d="M158.652 132.432v-.002l-.036.021-.05.03-6.147 3.601 2.147-.449c-4.369 4.553-6.94 11.727-6.94 21.08 0 23.888 16.772 52.937 37.462 64.883 8.119 4.688 15.634 6.043 21.77 4.517l-.974 1.433 5.66-3.308.088-.051.203-.12-.007.001c6.63-3.975 10.72-12.304 10.72-24.1 0-23.889-16.772-52.938-37.46-64.883-6.013-3.47-11.695-5.116-16.73-5.116-3.606 0-6.879.843-9.706 2.463" fill="#6E7385"/>
            <path d="M218.164 202.526c0-23.89-16.771-52.938-37.46-64.883-10.18-5.877-19.408-6.515-26.16-2.806l-.94.551c-.322.203-.635.42-.944.644l1.907-.399c-4.37 4.553-6.94 11.727-6.94 21.079 0 23.89 16.771 52.939 37.46 64.884 8.12 4.688 15.635 6.043 21.771 4.517l-.888 1.306c7.493-3.583 12.194-12.246 12.194-24.893" fill="#FFF"/>
            <g transform="translate(142 133.257)">
                <mask id="i" fill="#fff">
                    <use xlink:href="#h"/>
                </mask>
                <path d="M0 26.744c0 23.889 16.772 52.938 37.461 64.882 20.69 11.946 37.461 2.263 37.461-21.625 0-23.89-16.771-52.94-37.461-64.885C31.448 1.645 25.765 0 20.73 0 8.44 0 0 9.798 0 26.744" fill="#8AA71D" mask="url(#i)"/>
            </g>
            <g transform="translate(146.594 139.19)">
                <mask id="k" fill="#fff">
                    <use xlink:href="#j"/>
                </mask>
                <path d="M0 23.463C0 44.423 14.716 69.91 32.867 80.39c18.152 10.48 32.867 1.985 32.867-18.974 0-20.96-14.715-46.446-32.867-56.926C27.591 1.443 22.607 0 18.188 0 7.405 0 0 8.596 0 23.463" fill="#2B2C34" mask="url(#k)"/>
            </g>
            <path d="M185.087 216.708c-2.727-1.575-5.376-3.49-7.91-5.677-5.284-4.564-5.873-12.556-1.332-17.86 5.38-6.285 14.063-14.772 27.438-23.919-5.988-10.733-14.443-20.158-23.822-25.574-7.998-4.617-15.329-5.55-21.027-3.356a15.324 15.324 0 0 0-1.464.651c-.205.104-.406.212-.605.323-.013.009-.027.015-.04.023-.44.248-.866.519-1.28.81-.013.008-.024.018-.037.027a15.86 15.86 0 0 0-.549.407l-.106.084a15.233 15.233 0 0 0-1.059.911l-.078.072c-.368.351-.723.721-1.064 1.111l-.04.047c-.15.174-.298.35-.443.53l-.108.14c-.122.154-.243.313-.361.473l-.119.164c-.117.163-.232.33-.345.499l-.1.147c-.136.21-.27.421-.4.638l-.018.028c-.141.235-.279.476-.412.72l-.044.083c-.112.208-.221.419-.328.633-.034.068-.066.137-.1.204a24.052 24.052 0 0 0-.36.783c-.08.182-.158.367-.234.554l-.095.233c-.084.214-.166.431-.246.651l-.056.151c-.098.277-.193.557-.283.842l-.034.113c-.076.242-.15.487-.22.736l-.072.271c-.055.2-.108.402-.158.607l-.076.314c-.047.2-.092.4-.135.603-.023.105-.046.21-.067.317a28.22 28.22 0 0 0-.128.674 34.115 34.115 0 0 0-.199 1.215c-.006.038-.01.077-.015.115-.04.285-.076.572-.11.863l-.034.325a33.694 33.694 0 0 0-.141 1.72 44.322 44.322 0 0 0-.05 1.105 44.205 44.205 0 0 0-.026 1.415c0 .59.015 1.186.038 1.784.009.214.021.43.032.644.019.398.046.795.077 1.193a50.486 50.486 0 0 0 .194 2.018c.017.147.03.294.049.441.072.583.156 1.168.249 1.754.037.239.08.48.121.718a61.056 61.056 0 0 0 .363 1.942c.068.33.14.66.214.992.064.291.127.582.196.874a63.091 63.091 0 0 0 .702 2.685c.067.236.132.472.202.708.11.377.226.755.344 1.133l.191.599a72.93 72.93 0 0 0 1.5 4.2l.08.207c.178.452.362.901.55 1.35l.146.347c5.852 13.839 16.031 26.646 27.618 33.336 10.112 5.838 19.156 5.785 25.185.971-5.465 1.525-12.231.388-19.559-3.842" fill="#373A42"/>
            <path d="M180.996 218.921c-18.152-10.48-32.867-35.966-32.867-56.926 0-11.006 4.06-18.572 10.542-21.762-7.371 2.704-12.077 10.569-12.077 22.42 0 20.96 14.715 46.446 32.867 56.926 8.62 4.976 16.463 5.671 22.325 2.787-5.664 2.078-12.902 1.109-20.79-3.445" fill="#FFF"/>
            <g transform="translate(146.594 139.19)">
                <mask id="m" fill="#fff">
                    <use xlink:href="#l"/>
                </mask>
                <path fill="#FFF" mask="url(#m)" d="M27.948 34.582 75.637-2.291l17.316 30.043L36.98 50.72z"/>
            </g>
            <path d="M172.898 177.84c0 4.184 2.938 9.274 6.563 11.367 3.625 2.093 6.563.396 6.563-3.789 0-4.186-2.938-9.275-6.563-11.368-1.054-.608-2.049-.896-2.931-.896-2.154 0-3.632 1.717-3.632 4.686" fill="#4F566B"/>
            <g transform="translate(146.594 139.19)">
                <mask id="o" fill="#fff">
                    <use xlink:href="#n"/>
                </mask>
                <path d="M44.07 26.138c4.574 2.64 8.282 9.063 8.282 14.344 0 1.962-.512 3.49-1.39 4.5l41.991-17.23L75.636-2.29 40.328 25.01c1.124-.01 2.395.35 3.742 1.128" fill="#AFB0B2" mask="url(#o)"/>
            </g>
            <g transform="translate(243.618 190.383)">
                <mask id="r" fill="#fff">
                    <use xlink:href="#p"/>
                </mask>
                <path d="m1.63.162.002-.005L0 1.165l1.125.183a2.556 2.556 0 0 0-.002.193l.29 9.196c.04 1.261.85 2.7 1.81 3.227l-.3 1.263 1.636-1.015-.004-.001c.404-.197.654-.71.63-1.453l-.29-9.195C4.855 2.295 4.037.844 3.068.324l-.262-.14A1.395 1.395 0 0 0 2.15 0a.885.885 0 0 0-.52.162" fill="url(#q)" mask="url(#r)"/>
            </g>
            <path d="M246.424 190.567c-.463-.247-.874-.236-1.176-.022l-1.63 1.003 1.125.183a2.572 2.572 0 0 0-.002.194l.29 9.195c.04 1.262.85 2.7 1.81 3.227l-.3 1.263 1.636-1.015c.4-.197.65-.711.626-1.454l-.29-9.195c-.04-1.269-.859-2.719-1.828-3.238l-.261-.141z" fill="#283041"/>
            <g transform="translate(243.024 191.442)">
                <mask id="t" fill="#fff">
                    <use xlink:href="#s"/>
                </mask>
                <path d="m.001 1.543.29 9.195c.041 1.27.86 2.72 1.828 3.239l.263.14c.969.52 1.721-.089 1.682-1.357l-.29-9.195c-.04-1.27-.859-2.72-1.828-3.24l-.262-.14A1.398 1.398 0 0 0 1.025 0C.396 0-.028.582.001 1.543" fill="#48546D" mask="url(#t)"/>
            </g>
        </g>
    </g>
</svg>
