<?xml version="1.0" standalone="no"?>
<!DOCTYPE svg PUBLIC "-//W3C//DTD SVG 20010904//EN"
 "http://www.w3.org/TR/2001/REC-SVG-20010904/DTD/svg10.dtd">
<svg version="1.0" xmlns="http://www.w3.org/2000/svg"
 width="832.000000pt" height="832.000000pt" viewBox="0 0 832.000000 832.000000"
 preserveAspectRatio="xMidYMid meet">
<metadata>
Created by potrace 1.11, written by Peter Selinger 2001-2013
</metadata>
<g transform="translate(0.000000,832.000000) scale(0.100000,-0.100000)"
fill="#000000" stroke="none">
<path d="M1765 8307 c-11 -6 -31 -19 -45 -28 -14 -9 -50 -30 -80 -46 -68 -38
-420 -240 -440 -253 -8 -6 -26 -15 -40 -22 -14 -7 -32 -17 -40 -24 -8 -6 -40
-25 -70 -41 -30 -17 -145 -83 -256 -147 -111 -64 -206 -116 -213 -116 -6 0
-11 -4 -11 -8 0 -4 -24 -20 -52 -36 -29 -15 -73 -40 -98 -55 -25 -15 -72 -42
-104 -60 -97 -53 -133 -83 -146 -121 -8 -26 -10 -753 -8 -2700 3 -2650 3
-2666 23 -2687 17 -18 240 -156 255 -158 3 0 55 -30 115 -66 61 -36 117 -68
125 -72 8 -4 24 -13 35 -20 11 -7 94 -54 185 -106 91 -52 173 -101 182 -109
10 -8 18 -12 18 -8 0 4 12 -1 27 -12 16 -11 51 -33 79 -48 43 -24 376 -216
424 -244 98 -58 177 -103 235 -135 39 -21 88 -50 110 -65 22 -15 42 -27 45
-27 3 0 16 -6 30 -15 14 -9 162 -95 330 -191 168 -96 345 -198 393 -226 49
-28 93 -51 98 -51 5 0 9 -4 9 -10 0 -5 5 -10 11 -10 6 0 45 -20 86 -45 40 -25
78 -45 83 -45 6 0 10 -4 10 -10 0 -5 5 -10 11 -10 6 0 61 -30 122 -66 113 -66
176 -85 205 -62 6 6 12 7 12 3 0 -4 6 -3 13 3 12 10 340 202 368 215 8 4 30
17 49 28 137 83 361 209 370 209 5 0 10 4 10 10 0 5 11 12 25 16 14 3 25 10
25 15 0 5 4 9 9 9 6 0 58 28 118 63 104 61 178 103 253 143 19 11 37 21 40 24
10 10 153 90 161 90 5 0 9 4 9 8 0 5 16 14 35 22 19 8 35 17 35 22 0 4 4 8 9
8 12 0 175 93 179 102 2 4 8 8 13 8 5 0 62 31 127 68 64 38 124 71 132 75 8 4
29 16 45 26 17 11 47 29 67 40 66 36 83 46 88 51 3 3 16 11 30 17 14 7 48 26
75 42 28 16 66 38 85 49 19 11 107 61 195 112 88 52 173 101 188 109 16 9 36
21 45 26 17 10 213 123 276 158 18 11 41 33 52 50 18 31 19 64 20 889 0 472 2
859 5 861 14 13 132 77 140 77 5 0 9 3 9 8 0 4 19 16 43 27 23 11 44 23 47 26
3 4 30 19 60 35 30 15 57 31 60 34 3 3 102 61 220 129 118 67 222 127 230 132
8 5 114 66 235 135 121 69 271 155 332 191 68 39 122 77 135 96 l23 32 0 915
c-1 876 -1 916 -19 943 -17 25 -96 77 -236 155 -25 14 -62 36 -82 49 -21 12
-39 23 -42 23 -2 0 -66 37 -142 81 -77 45 -168 97 -204 117 -36 19 -67 38 -70
41 -3 4 -24 15 -47 26 -24 11 -43 23 -43 28 0 4 -4 7 -10 7 -5 0 -47 22 -92
49 -118 69 -415 240 -468 269 -25 14 -49 28 -55 32 -5 4 -36 22 -67 39 -94 50
-90 52 -401 -128 -86 -50 -161 -91 -166 -91 -5 0 -11 -4 -13 -8 -1 -4 -25 -21
-53 -36 -88 -50 -138 -78 -187 -107 -27 -16 -53 -29 -58 -29 -6 0 -10 -4 -10
-9 0 -5 -8 -11 -17 -14 -10 -3 -40 -19 -68 -35 -106 -62 -512 -296 -555 -320
-116 -65 -187 -112 -205 -137 -20 -26 -20 -43 -22 -873 -1 -466 -2 -854 -2
-864 -1 -10 -57 -48 -157 -105 -85 -48 -167 -95 -182 -104 -15 -9 -47 -27 -72
-41 -25 -14 -112 -64 -194 -112 -82 -47 -150 -86 -151 -86 -2 0 -32 -17 -66
-38 -35 -22 -84 -50 -109 -64 -25 -14 -103 -59 -175 -100 -71 -41 -140 -80
-151 -86 l-22 -12 0 1659 c0 1312 -2 1663 -12 1682 -17 30 -44 54 -100 84 -25
14 -52 30 -60 35 -8 5 -40 24 -70 41 -127 73 -729 419 -760 437 -19 11 -57 33
-85 47 -27 15 -57 33 -66 41 -8 8 -18 14 -21 14 -4 0 -73 39 -155 86 -81 48
-173 100 -203 117 -30 16 -60 34 -67 39 -19 15 -106 19 -128 5z m138 -307 c40
-23 79 -45 87 -50 52 -33 310 -180 315 -180 4 0 26 -13 50 -30 24 -16 46 -30
49 -30 3 0 43 -22 88 -49 46 -27 100 -58 121 -70 42 -24 40 -22 287 -165 102
-59 188 -110 193 -115 4 -4 -79 -58 -185 -118 -106 -61 -296 -170 -421 -242
-247 -143 -287 -166 -330 -190 -16 -9 -36 -20 -46 -26 -9 -5 -78 -45 -152 -88
l-136 -78 -92 56 c-50 30 -94 55 -96 55 -5 0 -163 92 -205 118 -14 9 -28 15
-32 14 -5 -1 -8 3 -8 8 0 6 -4 10 -9 10 -8 0 -34 14 -346 195 -93 54 -183 106
-200 114 -16 9 -31 19 -33 24 -2 4 -8 7 -14 7 -5 0 -43 20 -84 45 -40 25 -76
45 -78 45 -3 0 -21 11 -40 24 -26 17 -32 26 -23 35 6 6 14 11 17 11 4 0 74 39
156 87 82 47 165 96 185 107 20 12 68 39 105 61 124 71 149 85 174 98 14 6 27
14 30 18 3 3 30 19 60 36 87 48 171 96 455 261 39 23 74 41 78 42 4 0 40 -18
80 -40z m4563 -839 c5 -5 27 -19 49 -31 76 -43 120 -68 205 -119 47 -27 101
-58 120 -67 19 -10 58 -32 86 -50 28 -17 60 -35 72 -38 12 -4 22 -12 22 -17 0
-5 4 -9 9 -9 8 0 208 -112 281 -158 14 -9 27 -15 30 -15 3 1 11 -3 18 -9 18
-15 74 -48 95 -54 9 -4 17 -9 17 -13 0 -4 16 -13 35 -21 19 -8 35 -17 35 -21
0 -4 6 -9 13 -11 34 -9 157 -85 157 -97 0 -8 -3 -11 -7 -8 -3 4 -11 3 -17 -2
-13 -11 -307 -181 -312 -181 -2 0 -27 -15 -56 -33 -29 -19 -78 -47 -108 -64
-30 -17 -137 -78 -238 -137 -101 -58 -187 -106 -192 -106 -5 0 -10 -3 -12 -7
-1 -5 -16 -15 -33 -24 -16 -8 -90 -50 -163 -93 l-134 -77 -126 74 c-70 41
-147 85 -172 99 -120 66 -160 91 -166 99 -3 5 -10 7 -15 4 -5 -4 -9 -1 -9 4 0
6 -5 11 -10 11 -6 0 -36 16 -66 35 -30 19 -57 36 -62 36 -4 1 -23 12 -42 24
-19 12 -42 25 -50 29 -8 4 -32 17 -52 29 -20 12 -88 51 -150 87 -62 36 -135
78 -163 94 -27 16 -68 39 -90 51 -22 12 -55 31 -73 42 l-33 20 72 42 c39 22
76 41 80 41 5 0 9 4 9 9 0 5 8 11 18 14 9 3 40 19 67 35 91 53 119 69 235 135
63 37 120 71 127 77 7 5 15 10 18 10 4 0 56 29 116 65 61 36 112 65 115 65 3
0 120 68 154 90 8 6 24 14 35 20 11 5 65 36 120 69 101 60 123 68 141 52z
m-5942 -137 c56 -31 109 -64 120 -73 10 -9 21 -15 25 -15 6 2 62 -29 251 -141
58 -34 137 -79 175 -100 39 -21 77 -44 86 -51 8 -8 18 -14 22 -14 3 0 59 -31
124 -69 132 -77 172 -100 289 -167 l81 -46 0 -1717 c0 -944 4 -1732 8 -1751 7
-32 50 -89 67 -90 7 0 154 -81 257 -142 25 -16 53 -31 61 -35 8 -3 58 -31 110
-62 52 -31 98 -55 102 -54 3 1 12 -4 18 -12 7 -8 16 -15 20 -15 4 0 68 -35
141 -78 74 -42 145 -83 159 -89 14 -7 32 -17 40 -23 49 -31 263 -150 270 -150
6 0 10 -4 10 -10 0 -5 6 -10 13 -10 6 0 28 -10 47 -22 19 -12 37 -22 40 -23
11 -2 170 -98 171 -104 1 -3 2 -333 3 -733 1 -489 -2 -728 -9 -728 -6 0 -27
11 -47 25 -20 14 -42 25 -47 25 -6 0 -11 5 -11 10 0 6 -5 10 -10 10 -9 0 -67
32 -228 126 -20 12 -57 33 -82 46 -25 14 -85 49 -135 78 -136 79 -157 91 -200
115 -22 12 -75 43 -118 69 -43 25 -80 46 -82 46 -2 0 -40 22 -84 50 -45 27
-82 49 -84 48 -1 -1 -13 5 -27 14 -14 9 -86 51 -160 93 -74 43 -155 89 -180
104 -25 14 -95 54 -155 89 -61 35 -117 67 -125 73 -35 21 -344 198 -447 255
-27 15 -52 30 -58 34 -5 4 -30 19 -55 32 -121 67 -456 261 -465 269 -9 9 -15
4969 -6 4969 3 0 50 -25 105 -56z m2711 -1551 c0 -1479 -1 -1602 -16 -1612
-14 -8 -112 -65 -384 -223 -27 -16 -61 -34 -75 -41 -14 -6 -31 -17 -38 -24 -7
-7 -20 -13 -28 -13 -8 0 -14 -4 -14 -8 0 -4 -12 -13 -27 -19 -28 -12 -64 -32
-174 -99 -31 -19 -60 -34 -65 -34 -4 0 -15 -6 -23 -14 -9 -7 -41 -26 -71 -42
-30 -16 -57 -32 -60 -35 -3 -3 -36 -23 -75 -44 -38 -21 -87 -49 -107 -62 -21
-12 -41 -23 -45 -23 -3 0 -14 -6 -22 -14 -9 -7 -25 -16 -36 -20 l-21 -6 1
1600 c0 1408 2 1601 15 1613 20 19 368 217 380 217 6 0 10 5 10 10 0 6 4 10
10 10 5 0 43 20 83 45 41 25 80 45 86 45 6 0 11 5 11 10 0 6 4 10 9 10 6 0 60
29 121 65 61 36 130 76 153 89 23 13 82 46 131 75 49 28 93 51 97 51 5 0 9 4
9 8 0 5 17 16 38 25 20 9 53 28 72 41 19 14 39 24 45 22 7 -2 10 -550 10
-1603z m1961 646 c88 -50 173 -99 189 -109 47 -27 139 -80 155 -90 8 -5 130
-75 270 -155 140 -80 264 -151 275 -157 11 -7 56 -32 100 -57 44 -25 82 -48
85 -51 3 -4 13 -9 23 -13 16 -6 17 -50 17 -738 l0 -731 -37 22 c-21 12 -180
103 -353 203 -173 99 -369 211 -435 250 -66 38 -136 79 -155 90 -19 10 -55 31
-80 46 -25 14 -61 35 -81 46 -19 11 -59 34 -87 50 l-52 30 0 728 c0 400 2 727
4 727 2 0 75 -41 162 -91z m2652 -633 c0 -541 -3 -727 -11 -734 -14 -11 -236
-141 -317 -185 -30 -17 -58 -35 -62 -41 -4 -6 -8 -8 -8 -3 0 4 -17 -3 -37 -16
-30 -19 -315 -184 -598 -347 -133 -76 -245 -139 -246 -137 -3 7 -4 1434 -1
1444 3 10 70 53 192 122 14 7 36 20 50 28 14 8 46 26 72 41 25 15 174 100 330
190 156 90 290 168 298 173 44 27 308 177 320 182 8 3 16 6 17 6 1 1 1 -325 1
-723z m-2908 -976 c14 -11 30 -20 36 -20 5 0 16 -6 23 -12 6 -7 15 -13 19 -13
4 0 18 -8 32 -16 33 -21 276 -162 326 -189 21 -12 53 -30 69 -41 17 -10 37
-22 45 -26 8 -4 122 -69 254 -145 131 -76 240 -138 242 -138 1 0 32 -18 68
-40 36 -22 70 -40 76 -40 5 0 10 -4 10 -9 0 -5 10 -11 23 -15 24 -6 36 2 -133
-96 -53 -31 -845 -482 -963 -549 -17 -10 -174 -99 -347 -198 -173 -99 -328
-188 -345 -197 -16 -9 -37 -21 -45 -26 -16 -11 -789 -451 -901 -513 l-66 -37
-54 30 c-30 16 -79 44 -109 60 -54 30 -101 56 -190 108 -25 15 -48 25 -52 24
-5 -1 -8 2 -8 7 0 5 -8 11 -17 15 -10 3 -49 24 -88 46 -38 23 -78 44 -87 47
-10 3 -18 9 -18 14 0 5 -4 9 -9 9 -5 0 -48 23 -96 50 -48 28 -91 50 -96 50 -5
0 -9 4 -9 8 0 4 -12 13 -27 19 -16 7 -46 22 -68 35 -22 13 -71 41 -110 63 -38
22 -77 45 -87 50 -9 6 -46 26 -82 45 -36 19 -66 37 -66 40 0 5 24 20 100 62
19 11 58 33 85 49 28 17 58 33 68 36 9 3 17 9 17 14 0 5 4 9 8 9 7 0 250 136
322 179 16 10 271 158 349 202 25 14 100 58 166 96 66 38 140 81 165 95 65 36
108 61 166 96 45 26 119 68 189 106 11 6 22 13 25 16 3 3 14 10 26 16 11 7
201 116 423 243 221 127 407 231 412 231 5 0 9 3 9 8 0 4 21 18 48 32 26 13
65 35 86 48 71 44 141 81 151 81 6 1 21 -8 35 -19z m1370 -1668 c0 -682 -1
-728 -17 -738 -10 -6 -38 -22 -63 -36 -25 -14 -101 -57 -169 -97 -68 -39 -127
-71 -132 -71 -5 0 -9 -4 -9 -10 0 -5 -5 -10 -11 -10 -6 0 -37 -15 -68 -34 -31
-19 -76 -46 -101 -60 -210 -120 -285 -163 -308 -175 -15 -8 -28 -18 -30 -23
-2 -4 -8 -8 -12 -8 -5 0 -110 -58 -234 -130 -124 -71 -228 -130 -231 -130 -3
0 -11 -5 -18 -11 -9 -8 -375 -220 -592 -344 -22 -12 -56 -32 -75 -44 -19 -11
-42 -24 -50 -28 -8 -4 -51 -28 -95 -54 -96 -56 -385 -222 -512 -294 l-92 -53
1 738 0 738 22 11 c11 6 35 19 51 29 17 9 93 53 170 97 77 43 143 83 147 89 4
6 8 8 8 3 0 -4 18 4 40 18 22 14 43 25 47 25 3 0 14 6 22 14 15 12 130 77 178
100 13 6 23 14 23 19 0 4 4 7 9 7 8 0 152 79 201 110 46 28 142 80 150 80 6 0
10 4 10 8 0 5 28 23 63 41 81 42 121 65 127 72 3 3 20 12 38 20 17 8 32 17 32
21 0 5 4 8 8 8 7 0 135 70 202 110 77 46 351 200 357 200 3 0 14 6 22 14 9 8
39 26 66 41 28 14 64 34 80 44 17 10 50 29 75 43 76 42 154 88 170 98 8 6 27
15 43 21 15 6 27 15 27 20 0 5 4 9 9 9 7 0 129 66 196 107 11 7 29 17 40 22
11 6 54 30 95 55 41 25 78 45 83 46 4 0 7 -327 7 -728z"/>
</g>
</svg>
